<svg xmlns="http://www.w3.org/2000/svg" viewBox="0 0 228.58 94.72"><defs><style>.cls-1{fill:#f2e9ec;}.cls-2{fill:#706468;}.cls-3{fill:#3e3e3e;}</style></defs><title>botonviscontexto</title><g id="Layer_2" data-name="Layer 2"><g id="home"><rect class="cls-1" x="0.23" y="0.49" width="228" height="93.79" rx="15"/><path class="cls-2" d="M213.23,94.33,136,94.57l-38.61.13c-12.87.06-25.75,0-38.62,0l-38.61-.09H15.33a16.87,16.87,0,0,1-4.83-.77A15.41,15.41,0,0,1,2.76,88,15.91,15.91,0,0,1,.64,83.64,16.44,16.44,0,0,1,0,78.81l0-9.65c0-12.87,0-25.74,0-38.62l0-9.65V16.06a16.46,16.46,0,0,1,.6-4.83A15.33,15.33,0,0,1,15.23.21L92.45,0l77.23,0,38.61,0,4.83,0A16.54,16.54,0,0,1,218,.82a15.47,15.47,0,0,1,7.81,5.83A15.92,15.92,0,0,1,228,11.08a16.86,16.86,0,0,1,.63,4.88l0,9.65-.14,38.61,0,9.66,0,4.82a16.19,16.19,0,0,1-.62,4.8,15.12,15.12,0,0,1-14.5,10.83Zm0-.1a15,15,0,0,0,14.28-10.79,15.77,15.77,0,0,0,.59-4.74l0-4.82,0-9.66-.14-38.61,0-9.65a15.84,15.84,0,0,0-.63-4.66,15.22,15.22,0,0,0-2.07-4.2,14.64,14.64,0,0,0-7.44-5.46,15.61,15.61,0,0,0-4.61-.7l-4.83,0L169.68,1,92.45.94,15.23.76A14.81,14.81,0,0,0,1.06,11.36a15.85,15.85,0,0,0-.61,4.7v4.83l0,9.65c0,12.88-.06,25.75,0,38.62l0,9.65a16.15,16.15,0,0,0,.63,4.7,15.54,15.54,0,0,0,2.08,4.25,14.92,14.92,0,0,0,7.52,5.53c3,1,6.27.64,9.49.7l38.61-.09c12.87,0,25.75-.1,38.62,0L136,94Z"/><path class="cls-2" d="M42.72,79c11.81-.34,23.62-.44,35.43-.37,5.9.07,11.81.23,17.71.24s11.81,0,17.72-.1q17.72-.27,35.43-.24t35.43.47v.1q-17.72.47-35.43.46c-11.81,0-23.62-.06-35.43-.24-5.91-.08-11.81-.15-17.72-.1s-11.81.18-17.71.24q-17.72.12-35.43-.36Z"/><path class="cls-3" d="M39,18.74l.33-1.07a1.43,1.43,0,0,1,.31-.05l.79-.08,1.11-.11,1.26-.13,1.27-.12,1.16-.12h1.3a1,1,0,0,1,.67.18,1.16,1.16,0,0,1,.19.8l-3.74.43c0,.86,0,1.77,0,2.71s.12,1.9.2,2.86.16,1.92.24,2.86.11,1.85.11,2.71a.3.3,0,0,1-.11.26,1.07,1.07,0,0,1-.27.09,1.16,1.16,0,0,1-.32,0l-.29-.07a8.44,8.44,0,0,1-.12-.93c0-.44-.08-.95-.12-1.54s-.08-1.22-.12-1.9l-.13-2.05c0-.69-.08-1.34-.12-2s-.08-1.17-.1-1.64,0-.84-.08-1.1,0-.36-.05-.29Z"/><path class="cls-3" d="M49.11,15.81l.54,6.72c.09-.08.21-.2.37-.37a3.5,3.5,0,0,1,.53-.46,4,4,0,0,1,.68-.37,1.9,1.9,0,0,1,.8-.13,1.94,1.94,0,0,1,1.34.68,4,4,0,0,1,.76,1.45,9.67,9.67,0,0,1,.34,1.88,18.35,18.35,0,0,1,.05,1.94c0,.61-.06,1.16-.11,1.64s-.08.81-.11,1l-.74-.1c0-.12,0-.32,0-.58s0-.59,0-.95,0-.74,0-1.14,0-.76,0-1.11,0-.66,0-.94a3.67,3.67,0,0,0,0-.57,2.4,2.4,0,0,0-.22-1.11,2,2,0,0,0-.66-.81,1.34,1.34,0,0,0-1-.18,2.29,2.29,0,0,0-1.23.81,6.33,6.33,0,0,0-.84,1.69,7.52,7.52,0,0,0-.35,1.64,11.36,11.36,0,0,0-.06,1.66q0,.86,0,1.8l-.8-.13a4.6,4.6,0,0,0,.09-.83c0-.4,0-.89.05-1.45s0-1.2,0-1.9,0-1.42,0-2.16l0-2.25c0-.75,0-1.47-.05-2.15s0-1.32-.06-1.89,0-1.05-.05-1.42Z"/><path class="cls-3" d="M56.54,25.06a4.09,4.09,0,0,1,.27-1.37,5.91,5.91,0,0,1,.72-1.39,5,5,0,0,1,1-1.09,2,2,0,0,1,1.22-.44,1.89,1.89,0,0,1,.69.14,3.93,3.93,0,0,1,.65.38,3.32,3.32,0,0,1,.58.54,2.43,2.43,0,0,1,.4.62,1.7,1.7,0,0,1,.15.64.77.77,0,0,1-.17.53l-4.33.8c-.05,0-.1.08-.14.2a1.92,1.92,0,0,0-.1.44c0,.17-.06.37-.08.58s0,.42-.05.62,0,.37,0,.53v.36a1.45,1.45,0,0,0,.28.93,1.67,1.67,0,0,0,.71.54,3.14,3.14,0,0,0,1,.25,9.77,9.77,0,0,0,1.08.06c.35,0,.69,0,1,0s.58,0,.78,0a.35.35,0,0,1-.06.18,1.43,1.43,0,0,1-.14.2,1.25,1.25,0,0,1-.17.16l-.1.1-.5.11-.72.13c-.25,0-.49.08-.71.1l-.45.05a2.28,2.28,0,0,1-1.11,0,1.71,1.71,0,0,1-.8-.49,2.67,2.67,0,0,1-.53-.85,5,5,0,0,1-.31-1.08,7.5,7.5,0,0,1-.11-1.18A9.24,9.24,0,0,1,56.54,25.06Zm3-3.51a1,1,0,0,0-.48.19,2.57,2.57,0,0,0-.55.5,2.93,2.93,0,0,0-.43.63.79.79,0,0,0-.11.59,4.53,4.53,0,0,0,1.1,0,5.2,5.2,0,0,0,1.05-.26,3.16,3.16,0,0,0,.78-.41.65.65,0,0,0,.3-.48c0-.17-.14-.31-.39-.44A4.12,4.12,0,0,0,59.51,21.55Z"/><path class="cls-3" d="M73.16,21.88a.6.6,0,0,1,.43,0,.62.62,0,0,1,.31.22,1.21,1.21,0,0,1,.18.38c0,.14.08.28.11.42a2,2,0,0,1,.76-.73A3.73,3.73,0,0,1,76,21.76a4.92,4.92,0,0,1,1.15,0,2.86,2.86,0,0,1,1,.25,1.18,1.18,0,0,1,.57.53.85.85,0,0,1-.08.79,5.85,5.85,0,0,0-1.12-.49,2.82,2.82,0,0,0-1.14-.12,2,2,0,0,0-1,.42,2.5,2.5,0,0,0-.78,1.14,6.36,6.36,0,0,0-.38,2.06,18,18,0,0,0,.17,3.19h-.78q-.06-.69-.09-1.23c0-.37,0-.78-.08-1.24s-.07-.9-.1-1.37,0-.91-.07-1.34,0-.81-.07-1.12c0,0,0-.12,0-.25s0-.25,0-.4v-.66Z"/><path class="cls-3" d="M80.75,25.06A4.09,4.09,0,0,1,81,23.69a5.59,5.59,0,0,1,.73-1.39,4.92,4.92,0,0,1,1-1.09A2,2,0,0,1,84,20.77a1.81,1.81,0,0,1,.69.14,4,4,0,0,1,.66.38,3.64,3.64,0,0,1,.57.54,2.19,2.19,0,0,1,.4.62,1.72,1.72,0,0,1,.16.64.83.83,0,0,1-.18.53l-4.33.8s-.1.08-.14.2a1.92,1.92,0,0,0-.1.44c0,.17,0,.37-.08.58s0,.42,0,.62,0,.37,0,.53v.36a1.51,1.51,0,0,0,.28.93,1.73,1.73,0,0,0,.71.54,3.14,3.14,0,0,0,1,.25,9.77,9.77,0,0,0,1.08.06c.35,0,.69,0,1,0s.58,0,.78,0a.35.35,0,0,1-.06.18,1.43,1.43,0,0,1-.14.2,1.25,1.25,0,0,1-.17.16l-.1.1-.5.11-.72.13c-.25,0-.49.08-.71.1l-.45.05a2.28,2.28,0,0,1-1.11,0,1.63,1.63,0,0,1-.79-.49,2.69,2.69,0,0,1-.54-.85,5.68,5.68,0,0,1-.31-1.08,8.91,8.91,0,0,1-.11-1.18A9.24,9.24,0,0,1,80.75,25.06Zm3-3.51a1,1,0,0,0-.49.19,2.83,2.83,0,0,0-.55.5,3.34,3.34,0,0,0-.43.63.84.84,0,0,0-.11.59,4.53,4.53,0,0,0,1.1,0,5,5,0,0,0,1-.26,3.16,3.16,0,0,0,.78-.41.65.65,0,0,0,.3-.48c0-.17-.14-.31-.39-.44A4.12,4.12,0,0,0,83.73,21.55Z"/><path class="cls-3" d="M89.66,28.21a1.57,1.57,0,0,1,.68.15,5.33,5.33,0,0,1,.63.32c.2.11.41.21.62.3a1.81,1.81,0,0,0,.69.14,2.58,2.58,0,0,0,.89-.16,3,3,0,0,0,.86-.43,2.36,2.36,0,0,0,.63-.67,1.7,1.7,0,0,0,.25-.88c0-.09,0-.21,0-.34a.94.94,0,0,0-.14-.43,1.22,1.22,0,0,0-.41-.41,2.21,2.21,0,0,0-.83-.29,8.06,8.06,0,0,0-1.36-.12,15.36,15.36,0,0,0-2,.16,1.13,1.13,0,0,1-.6-.18,2.08,2.08,0,0,1-.51-.43,2.53,2.53,0,0,1-.37-.55,1.4,1.4,0,0,1-.14-.56,2.28,2.28,0,0,1,.34-1.31,2.48,2.48,0,0,1,.87-.8,4.29,4.29,0,0,1,1.19-.42,7.39,7.39,0,0,1,1.33-.12l.71,0a2.86,2.86,0,0,1,.74.16,1.39,1.39,0,0,1,.57.43,1.19,1.19,0,0,1,.24.8,1,1,0,0,1-.11.42s-.12,0-.21-.05a3,3,0,0,1-.32-.31,2.88,2.88,0,0,0-.44-.4,1.88,1.88,0,0,0-.62-.3,1.54,1.54,0,0,0-.8,0,5.09,5.09,0,0,0-1,.09,2.63,2.63,0,0,0-.85.32,1.7,1.7,0,0,0-.61.61,1.86,1.86,0,0,0-.24,1,.42.42,0,0,0,.28.42,2.1,2.1,0,0,0,.74.11l1,0q.58,0,1.2,0a7.66,7.66,0,0,1,1.19.09,2.71,2.71,0,0,1,1,.37,1.83,1.83,0,0,1,.69.79A2.57,2.57,0,0,1,95.71,27a2.1,2.1,0,0,1-.34,1.13,3.65,3.65,0,0,1-.86.94,4.46,4.46,0,0,1-1.16.62,2.84,2.84,0,0,1-1.23.17,4.24,4.24,0,0,1-.67-.14,3.76,3.76,0,0,1-.82-.32,2.49,2.49,0,0,1-.69-.5A1,1,0,0,1,89.66,28.21Z"/><path class="cls-3" d="M97.7,21.92a.28.28,0,0,1,.13-.21,1,1,0,0,1,.33-.16,1.84,1.84,0,0,1,.38-.08.29.29,0,0,1,.27.06,22.91,22.91,0,0,0,.48,4,7.11,7.11,0,0,0,.82,2.2,1.3,1.3,0,0,0,1,.71,1.49,1.49,0,0,0,1.05-.45,4.83,4.83,0,0,0,.95-1.26,8.21,8.21,0,0,0,.72-1.72,8,8,0,0,0,.34-1.85,4.51,4.51,0,0,0-.16-1.64l1.23-.14c0,.2,0,.54.11,1s.13,1,.2,1.6.16,1.21.26,1.86.18,1.24.25,1.79.13,1,.18,1.42a6,6,0,0,1,.08.72h-.88l-1-3.54a9.31,9.31,0,0,1-.7,1.37,6.61,6.61,0,0,1-.89,1.15,4,4,0,0,1-1,.77,1.82,1.82,0,0,1-1,.22,1.78,1.78,0,0,1-1-.48A4,4,0,0,1,98.88,28a12.25,12.25,0,0,1-.73-2.41A28.89,28.89,0,0,1,97.7,21.92Z"/><path class="cls-3" d="M108.66,13.94a1.73,1.73,0,0,1,.5.15.86.86,0,0,1,.34.4q0,.39,0,1.08t.06,1.59c0,.6,0,1.25.07,1.95s.06,1.4.08,2.11.05,1.42.07,2.11,0,1.35.07,2,0,1.14.05,1.6,0,.82,0,1.07c0,0,0,.07,0,.14a1.69,1.69,0,0,0,0,.25,2.65,2.65,0,0,0,0,.27,1.72,1.72,0,0,0,0,.2,1.32,1.32,0,0,0,0,.3,1.75,1.75,0,0,1,0,.33,1,1,0,0,1-.14.3.4.4,0,0,1-.3.16l-.34-.43a3.8,3.8,0,0,1,0-.77c0-.5,0-1.15-.09-1.95s-.06-1.7-.09-2.71-.06-2-.09-3-.07-2-.09-3,0-1.75-.07-2.44c0,0,0-.16,0-.33s0-.33,0-.5l0-.49C108.65,14.12,108.66,14,108.66,13.94Z"/><path class="cls-3" d="M114.69,22.43a1.42,1.42,0,0,0-.5-.05l-.68,0-.69.07a4,4,0,0,1-.55,0c-.07,0-.11-.1-.13-.29s-.06-.47-.1-.81l2.9-.21c0-.48.06-.82.08-1s0-.38,0-.53,0-.3,0-.49,0-.47,0-.87a3.08,3.08,0,0,1,.81,0,.58.58,0,0,1,.38.15.6.6,0,0,1,.09.36c0,.16,0,.35-.06.58s-.06.52-.09.85a6,6,0,0,0,0,1.1l2.46-.08v1c-.11,0-.28,0-.52,0l-.75,0-.73,0a1.8,1.8,0,0,0-.51.08c-.1.49-.22,1-.34,1.58a10.75,10.75,0,0,0-.25,1.66,7,7,0,0,0,0,1.53,2.24,2.24,0,0,0,.51,1.17,2.15,2.15,0,0,0,1.17.63,4.61,4.61,0,0,0,2-.11.78.78,0,0,1-.23.5,1.39,1.39,0,0,1-.45.31,2.16,2.16,0,0,1-.55.16,2.5,2.5,0,0,1-.51.06,3.16,3.16,0,0,1-1.66-.38,2.45,2.45,0,0,1-.92-1,3.86,3.86,0,0,1-.39-1.4,10.79,10.79,0,0,1-.06-1.61c0-.55.06-1.09.12-1.62S114.69,22.87,114.69,22.43Z"/><path class="cls-3" d="M122.1,28.21a1.57,1.57,0,0,1,.68.15,6.23,6.23,0,0,1,.63.32c.2.11.41.21.62.3a1.81,1.81,0,0,0,.69.14,2.58,2.58,0,0,0,.89-.16,3,3,0,0,0,.85-.43,2.27,2.27,0,0,0,.64-.67,1.7,1.7,0,0,0,.25-.88c0-.09,0-.21,0-.34a.94.94,0,0,0-.14-.43,1.33,1.33,0,0,0-.41-.41,2.27,2.27,0,0,0-.83-.29,8.06,8.06,0,0,0-1.36-.12,15.36,15.36,0,0,0-2,.16,1.13,1.13,0,0,1-.6-.18,2.08,2.08,0,0,1-.51-.43,2.53,2.53,0,0,1-.37-.55,1.4,1.4,0,0,1-.14-.56,2.28,2.28,0,0,1,.34-1.31,2.48,2.48,0,0,1,.87-.8,4.29,4.29,0,0,1,1.19-.42,7.39,7.39,0,0,1,1.33-.12l.71,0a3,3,0,0,1,.74.16,1.39,1.39,0,0,1,.57.43,1.19,1.19,0,0,1,.24.8.86.86,0,0,1-.12.42s-.11,0-.2-.05a3,3,0,0,1-.32-.31,2.88,2.88,0,0,0-.44-.4,1.88,1.88,0,0,0-.62-.3,1.58,1.58,0,0,0-.81,0,5.07,5.07,0,0,0-.94.09,2.63,2.63,0,0,0-.85.32,1.7,1.7,0,0,0-.61.61,1.86,1.86,0,0,0-.24,1,.42.42,0,0,0,.28.42,2.08,2.08,0,0,0,.73.11l1.05,0q.59,0,1.2,0a7.66,7.66,0,0,1,1.19.09,2.71,2.71,0,0,1,1,.37,1.83,1.83,0,0,1,.69.79,2.57,2.57,0,0,1,.19,1.33,2.1,2.1,0,0,1-.34,1.13,3.65,3.65,0,0,1-.86.94,4.46,4.46,0,0,1-1.16.62,2.84,2.84,0,0,1-1.23.17,4.24,4.24,0,0,1-.67-.14,3.76,3.76,0,0,1-.82-.32,2.35,2.35,0,0,1-.69-.5A1,1,0,0,1,122.1,28.21Z"/><path class="cls-3" d="M139.06,26.37a6.71,6.71,0,0,1,.25-1.68A6.39,6.39,0,0,1,140,23a4.63,4.63,0,0,1,1.17-1.32,2.6,2.6,0,0,1,1.62-.53,1.3,1.3,0,0,1,.76.09,1,1,0,0,1,.44.48,2.43,2.43,0,0,1,.2.75,6.11,6.11,0,0,1,.06.86c0,.3,0,.57,0,.82a5.41,5.41,0,0,0,0,.63h-.51c0-.08,0-.28-.07-.59a7.07,7.07,0,0,0-.17-.95,4.14,4.14,0,0,0-.34-.88.68.68,0,0,0-.61-.39,1.57,1.57,0,0,0-1.07.45,4.34,4.34,0,0,0-.88,1.09,7.31,7.31,0,0,0-.59,1.31,3.76,3.76,0,0,0-.23,1.13A8.13,8.13,0,0,0,140,27a3.52,3.52,0,0,0,.4,1.1,2.22,2.22,0,0,0,.72.8,1.43,1.43,0,0,0,1.11.19,2.26,2.26,0,0,0,.95-.21l.88-.43c.28-.15.57-.29.87-.43a2.1,2.1,0,0,1,.93-.2,1.3,1.3,0,0,1-.39.93,3.05,3.05,0,0,1-1,.64,5.31,5.31,0,0,1-1.19.37,5.14,5.14,0,0,1-1.06.13,2.9,2.9,0,0,1-1.28-.29,3.19,3.19,0,0,1-1-.77,3.46,3.46,0,0,1-.67-1.13A3.85,3.85,0,0,1,139.06,26.37Z"/><path class="cls-3" d="M147.81,28.11a2.07,2.07,0,0,1,.64-1.7,2.55,2.55,0,0,1,1.69-.53c.28,0,.53,0,.77,0a3.1,3.1,0,0,1,.69.1,2.9,2.9,0,0,1,.65.25,2.8,2.8,0,0,1,.66.47s0-.13,0-.26,0-.27,0-.42v-.7c0-.24,0-.56,0-.95a8.28,8.28,0,0,0-.09-1.2,4,4,0,0,0-.37-1.17,1.78,1.78,0,0,0-.89-.84,2.28,2.28,0,0,0-.8.14l-.74.31c-.25.11-.49.21-.74.3a2.28,2.28,0,0,1-.8.13,1.21,1.21,0,0,1,.32-.85,2.18,2.18,0,0,1,.77-.52,3.35,3.35,0,0,1,.94-.25,7.32,7.32,0,0,1,.86-.06c.25,0,.48.09.69.14a1.62,1.62,0,0,1,.6.33,2.57,2.57,0,0,1,.51.75,6.8,6.8,0,0,1,.41,1.41c.11.6.22,1.36.31,2.28s.16,2.06.21,3.4a.49.49,0,0,1-.17.46,1.83,1.83,0,0,1-.59.33,6.58,6.58,0,0,1-.83.22,7.43,7.43,0,0,1-.93.13l-.9.07-.72,0a2.19,2.19,0,0,1-.75-.13,2.33,2.33,0,0,1-.7-.36,1.75,1.75,0,0,1-.51-.57A1.47,1.47,0,0,1,147.81,28.11Zm2.66-1.43a3.45,3.45,0,0,0-1.43.68.91.91,0,0,0-.36.77,1,1,0,0,0,.48.67,2.4,2.4,0,0,0,1,.39,3.29,3.29,0,0,0,1.34-.1,3.5,3.5,0,0,0,1.37-.77,4.24,4.24,0,0,0-.49-.92,1.82,1.82,0,0,0-.53-.48,1.55,1.55,0,0,0-.64-.2A6.14,6.14,0,0,0,150.47,26.68Z"/><path class="cls-3" d="M156.26,29.77c0-.22,0-.53-.07-.95s0-.89-.06-1.42,0-1.07-.06-1.65,0-1.12,0-1.64,0-1-.05-1.4a7.85,7.85,0,0,0-.09-1,.58.58,0,0,0,0-.1.9.9,0,0,1,0-.18,1.21,1.21,0,0,1,0-.18v-.11c.2-.16.38-.22.52-.16a.71.71,0,0,1,.36.35,2.44,2.44,0,0,1,.21.69c0,.28.07.55.09.82s0,.53,0,.75v.48c0-.23.07-.5.12-.82a7.57,7.57,0,0,1,.25-1,8.07,8.07,0,0,1,.4-1,3.36,3.36,0,0,1,.58-.85,2.74,2.74,0,0,1,.79-.57,2.07,2.07,0,0,1,1-.17,2.57,2.57,0,0,1,1.48.5,3.09,3.09,0,0,1,.93,1.21,6.87,6.87,0,0,1,.49,1.74,19,19,0,0,1,.2,2.09q.06,1.11,0,2.25c0,.76,0,1.48,0,2.18a1.54,1.54,0,0,0-.37.14.67.67,0,0,1-.3.08c-.09,0-.14-.07-.18-.19a2.08,2.08,0,0,1,0-.68c0-.25,0-.63.07-1.14s0-1.09,0-1.72,0-1.27-.12-1.94a7.78,7.78,0,0,0-.38-1.84,3.33,3.33,0,0,0-.79-1.35,1.77,1.77,0,0,0-1.33-.53,3,3,0,0,0-1.4,1.32,8.89,8.89,0,0,0-.91,2.25,20.33,20.33,0,0,0-.49,2.8c-.1,1-.16,2-.17,2.95a.3.3,0,0,0-.16,0h-.24a1,1,0,0,1-.25,0C156.32,29.8,156.27,29.79,156.26,29.77Z"/><path class="cls-3" d="M174.93,16.5c0,.5.11,1,.17,1.63s.12,1.21.16,1.83.06,1.24.08,1.87,0,1.2,0,1.75l.6-.5a4.62,4.62,0,0,1,.56-.38,2.68,2.68,0,0,1,.55-.25,2.46,2.46,0,0,1,.65-.08,2.62,2.62,0,0,1,1.35.36,3.49,3.49,0,0,1,1.05.94,4.91,4.91,0,0,1,.66,1.29,4.37,4.37,0,0,1,.24,1.39,3.75,3.75,0,0,1-.47,1.83,3,3,0,0,1-1.14,1.06,4.06,4.06,0,0,1-1.66.43,14.93,14.93,0,0,1-2,0v-1a1.55,1.55,0,0,0,.67.38,5.27,5.27,0,0,0,.74.05,3.45,3.45,0,0,0,1.23-.21,2.9,2.9,0,0,0,1-.58,2.64,2.64,0,0,0,.61-.92,2.92,2.92,0,0,0,.22-1.16,7.31,7.31,0,0,0-.06-1,2.2,2.2,0,0,0-.28-.78,2.42,2.42,0,0,0-.63-.66,4.77,4.77,0,0,0-1.1-.63l-.19,0h-.2a1.28,1.28,0,0,0-.66.19,2.34,2.34,0,0,0-.59.5,3,3,0,0,0-.46.65,3.16,3.16,0,0,0-.26.67c0,.16-.07.45-.11.87s-.11.86-.17,1.34-.11.93-.15,1.36-.08.71-.11.88l-.63-.12-.41-13Z"/><path class="cls-3" d="M183.11,25.06a4.09,4.09,0,0,1,.27-1.37,5.59,5.59,0,0,1,.73-1.39,5,5,0,0,1,1-1.09,2,2,0,0,1,1.22-.44,1.8,1.8,0,0,1,.68.14,3.28,3.28,0,0,1,1.23.92,2.19,2.19,0,0,1,.4.62,1.72,1.72,0,0,1,.16.64.78.78,0,0,1-.18.53l-4.32.8c-.06,0-.11.08-.15.2a2.66,2.66,0,0,0-.1.44c0,.17,0,.37-.07.58s0,.42-.05.62a5,5,0,0,0,0,.53v.36a1.51,1.51,0,0,0,.27.93,1.73,1.73,0,0,0,.71.54,3.21,3.21,0,0,0,1,.25,10,10,0,0,0,1.08.06c.36,0,.69,0,1,0s.57,0,.78,0a.37.37,0,0,1-.07.18,1.43,1.43,0,0,1-.14.2,1.21,1.21,0,0,1-.16.16l-.11.1-.5.11c-.22,0-.46.09-.72.13s-.49.08-.7.1l-.46.05a2.23,2.23,0,0,1-1.1,0,1.66,1.66,0,0,1-.8-.49,2.69,2.69,0,0,1-.54-.85,5,5,0,0,1-.3-1.08,7.49,7.49,0,0,1-.12-1.18A11.47,11.47,0,0,1,183.11,25.06Zm3-3.51a.93.93,0,0,0-.48.19,2.61,2.61,0,0,0-.56.5,3.34,3.34,0,0,0-.43.63.9.9,0,0,0-.11.59,4.62,4.62,0,0,0,1.11,0,5.1,5.1,0,0,0,1-.26,2.84,2.84,0,0,0,.78-.41.6.6,0,0,0,.3-.48c0-.17-.14-.31-.39-.44A4,4,0,0,0,186.09,21.55Z"/><path class="cls-3" d="M16.86,46.06a4.32,4.32,0,0,1,.26-1.37,5.59,5.59,0,0,1,.73-1.39,5,5,0,0,1,1-1.09,2,2,0,0,1,1.22-.44,1.8,1.8,0,0,1,.68.14,3.28,3.28,0,0,1,1.23.92,2.19,2.19,0,0,1,.4.62,1.72,1.72,0,0,1,.16.64.78.78,0,0,1-.18.53l-4.32.8c-.06,0-.11.08-.15.2a2.66,2.66,0,0,0-.1.44c0,.17-.05.37-.07.58s0,.42-.05.62a5,5,0,0,0,0,.53v.36a1.51,1.51,0,0,0,.27.93,1.73,1.73,0,0,0,.71.54,3.2,3.2,0,0,0,1,.25,9.73,9.73,0,0,0,1.07.06c.36,0,.69,0,1,0s.57,0,.78,0a.29.29,0,0,1-.07.18.9.9,0,0,1-.14.2,1.21,1.21,0,0,1-.16.16l-.11.1-.5.11c-.22,0-.46.09-.72.13s-.48.08-.7.1l-.45.05a2.26,2.26,0,0,1-1.11,0,1.66,1.66,0,0,1-.8-.49,2.51,2.51,0,0,1-.53-.85,5,5,0,0,1-.31-1.08,6.47,6.47,0,0,1-.11-1.18A9.24,9.24,0,0,1,16.86,46.06Zm3-3.51a1,1,0,0,0-.48.19,2.61,2.61,0,0,0-.56.5,3.34,3.34,0,0,0-.43.63.9.9,0,0,0-.11.59,4.6,4.6,0,0,0,1.11,0,5.1,5.1,0,0,0,1-.26,2.84,2.84,0,0,0,.78-.41.6.6,0,0,0,.3-.48c0-.17-.14-.31-.39-.44A4,4,0,0,0,19.83,42.55Z"/><path class="cls-3" d="M24.49,41.44l.39-.41L28,44.58l2-3.94.8.58-2,4.34v.1s0,.07,0,.09l.76,1c.34.45.69.91,1,1.39s.68.94,1,1.39a4.73,4.73,0,0,1,.57,1l-.78.39-2.95-4.06a1.93,1.93,0,0,0-.53.66c-.18.34-.37.71-.55,1.11s-.35.79-.5,1.16-.28.65-.37.84l-.82-.22L27.28,46Z"/><path class="cls-3" d="M34.5,45.56a.26.26,0,0,1-.22,0,.77.77,0,0,1-.27-.07.74.74,0,0,1-.22-.14.29.29,0,0,1-.09-.22,2.1,2.1,0,0,1,.43-1.28,4.1,4.1,0,0,1,1.07-1,5.64,5.64,0,0,1,1.35-.66A4.16,4.16,0,0,1,37.86,42a4.54,4.54,0,0,1,1.72.31,4.17,4.17,0,0,1,1.31.87,3.93,3.93,0,0,1,.84,1.3,4.15,4.15,0,0,1,.3,1.58A3.66,3.66,0,0,1,41.54,48a5,5,0,0,1-1.31,1.51,5.73,5.73,0,0,1-1.8.94,4.79,4.79,0,0,1-2,.24,13.89,13.89,0,0,1,0,1.69c0,.64-.1,1.33-.17,2.08S36.13,56,36,56.85s-.21,1.71-.32,2.6c0,0,0,0-.12,0l-.26,0-.27-.06c-.08,0-.14,0-.15,0,.1-1.14.17-2.29.23-3.45s.07-2.33.06-3.5S35.12,50.1,35,49A31.46,31.46,0,0,0,34.5,45.56Zm3.12-2.42a7.07,7.07,0,0,0-.84.12,3,3,0,0,0-.8.27,1.51,1.51,0,0,0-.56.5,1.08,1.08,0,0,0-.14.75c0,.14.06.34.11.6s.11.55.17.88.12.67.18,1,.12.69.19,1,.11.63.16.89.09.47.11.61a6.58,6.58,0,0,1,.7-.08,7.5,7.5,0,0,0,1-.17,6.5,6.5,0,0,0,1.06-.34,3.8,3.8,0,0,0,1-.6,4.16,4.16,0,0,0,.83-1,3.93,3.93,0,0,0,.48-1.45A3,3,0,0,0,41,44.83a2.63,2.63,0,0,0-.78-1A3.12,3.12,0,0,0,39,43.32,5.32,5.32,0,0,0,37.62,43.14Z"/><path class="cls-3" d="M44.68,34.94a1.73,1.73,0,0,1,.5.15.8.8,0,0,1,.34.4q0,.39,0,1.08t.06,1.59c0,.6,0,1.25.07,2s.06,1.4.08,2.11.06,1.42.08,2.11,0,1.35.06,2,0,1.14.05,1.6,0,.82,0,1.07a1,1,0,0,1,0,.14c0,.07,0,.15,0,.25s0,.19,0,.27a1.72,1.72,0,0,0,0,.2,1.32,1.32,0,0,0,0,.3,1.75,1.75,0,0,1,0,.33,1,1,0,0,1-.14.3.4.4,0,0,1-.29.16l-.35-.43A5,5,0,0,1,45,49.7q0-.75-.09-2c0-.8-.06-1.7-.09-2.71s-.06-2-.09-3-.07-2-.09-3,0-1.75-.06-2.44c0-.05,0-.16,0-.33s0-.33,0-.5,0-.33,0-.49S44.68,35,44.68,34.94Z"/><path class="cls-3" d="M48.29,47.12A9.32,9.32,0,0,1,48.37,46a9.2,9.2,0,0,1,.73-2.52,4.75,4.75,0,0,1,.67-1.09,3,3,0,0,1,.9-.78,2.22,2.22,0,0,1,1.15-.3,1.92,1.92,0,0,1,1.22.45A3.87,3.87,0,0,1,54,43a6.11,6.11,0,0,1,.61,1.6,6.38,6.38,0,0,1,.16,1.72,5,5,0,0,1-.47,2.2A4.5,4.5,0,0,1,53.1,50a3.81,3.81,0,0,1-1.56.8A2.37,2.37,0,0,1,50,50.72a2.59,2.59,0,0,1-1.21-1.2A5.06,5.06,0,0,1,48.29,47.12Zm.76.08a4.48,4.48,0,0,0,.43,1.93,1.86,1.86,0,0,0,.89.89,1.54,1.54,0,0,0,1.14,0,2.92,2.92,0,0,0,1.15-.72A4.67,4.67,0,0,0,53.57,48,4.52,4.52,0,0,0,54,46.22a5.33,5.33,0,0,0-.11-1.44,5.48,5.48,0,0,0-.43-1.24,2.6,2.6,0,0,0-.68-.86,1.42,1.42,0,0,0-.91-.32,1.64,1.64,0,0,0-.88.25,2.63,2.63,0,0,0-.71.67,4.6,4.6,0,0,0-.54.95,9.13,9.13,0,0,0-.38,1.07,6.86,6.86,0,0,0-.23,1A6,6,0,0,0,49.05,47.2Z"/><path class="cls-3" d="M56.72,42.88a.61.61,0,0,1,.43,0,.58.58,0,0,1,.31.22,1.23,1.23,0,0,1,.19.38c0,.14.07.28.1.42a2,2,0,0,1,.77-.73,3.57,3.57,0,0,1,1.07-.37,4.94,4.94,0,0,1,1.15,0,2.93,2.93,0,0,1,1,.25,1.21,1.21,0,0,1,.56.53.85.85,0,0,1-.08.79,5.85,5.85,0,0,0-1.12-.49,2.82,2.82,0,0,0-1.14-.12,2,2,0,0,0-1,.42,2.5,2.5,0,0,0-.78,1.14,6.64,6.64,0,0,0-.38,2.06,18,18,0,0,0,.17,3.19h-.78q-.06-.69-.09-1.23c0-.37-.05-.78-.08-1.24s-.07-.9-.09-1.37,0-.91-.07-1.34,0-.81-.08-1.12c0,0,0-.12,0-.25s0-.25,0-.4v-.66Z"/><path class="cls-3" d="M64.32,46.06a4.06,4.06,0,0,1,.26-1.37,5.59,5.59,0,0,1,.73-1.39,5,5,0,0,1,1-1.09,2,2,0,0,1,1.22-.44,1.8,1.8,0,0,1,.68.14,3.28,3.28,0,0,1,1.23.92,2.19,2.19,0,0,1,.4.62,1.72,1.72,0,0,1,.16.64.78.78,0,0,1-.18.53l-4.32.8c-.06,0-.11.08-.15.2a2.66,2.66,0,0,0-.1.44c0,.17,0,.37-.07.58s0,.42,0,.62a5,5,0,0,0,0,.53v.36a1.51,1.51,0,0,0,.27.93,1.73,1.73,0,0,0,.71.54,3.21,3.21,0,0,0,1,.25,10,10,0,0,0,1.08.06c.36,0,.69,0,1,0s.57,0,.78,0a.37.37,0,0,1-.07.18,1.43,1.43,0,0,1-.14.2,1.21,1.21,0,0,1-.16.16l-.11.1-.5.11c-.22,0-.46.09-.72.13s-.49.08-.7.1l-.46.05a2.23,2.23,0,0,1-1.1,0,1.66,1.66,0,0,1-.8-.49,2.69,2.69,0,0,1-.54-.85,5.68,5.68,0,0,1-.3-1.08,7.49,7.49,0,0,1-.12-1.18A9.21,9.21,0,0,1,64.32,46.06Zm3-3.51a.93.93,0,0,0-.48.19,2.61,2.61,0,0,0-.56.5,3.34,3.34,0,0,0-.43.63.9.9,0,0,0-.11.59,4.61,4.61,0,0,0,1.11,0,5.1,5.1,0,0,0,1-.26,2.84,2.84,0,0,0,.78-.41.6.6,0,0,0,.3-.48c0-.17-.14-.31-.39-.44A4,4,0,0,0,67.29,42.55Z"/><path class="cls-3" d="M71.8,47.9a5.11,5.11,0,0,1,.72-2.45,3.27,3.27,0,0,1,.84-.93,1.84,1.84,0,0,1,1.15-.37,3.75,3.75,0,0,1,.87.09,2.31,2.31,0,0,1,.72.31,3.41,3.41,0,0,1,.64.51c.19.2.4.43.62.69l-.12-10.52a1.72,1.72,0,0,1,.69-.17c.08,0,.13.15.13.35a.72.72,0,0,1,0,.13.46.46,0,0,0,0,.1c0,.26,0,.63,0,1.11s0,1,0,1.66,0,1.31,0,2,0,1.47,0,2.21,0,1.49,0,2.22,0,1.41,0,2,0,1.18,0,1.67,0,.85,0,1.1a1.66,1.66,0,0,1-.62.71,2.81,2.81,0,0,1-.86.36,5.05,5.05,0,0,1-1,.14l-.92,0a2.94,2.94,0,0,1-2.18-.81A3,3,0,0,1,71.8,47.9Zm.82-.55a5.66,5.66,0,0,0,.09,1,3,3,0,0,0,.28.9,1.72,1.72,0,0,0,.58.62,1.68,1.68,0,0,0,.94.24h.84a3.75,3.75,0,0,0,1-.12,1.75,1.75,0,0,0,.75-.36.81.81,0,0,0,.31-.69,5.78,5.78,0,0,0-.15-1.22,5.61,5.61,0,0,0-.47-1.32,3.89,3.89,0,0,0-.8-1.06,1.67,1.67,0,0,0-2-.22,2.54,2.54,0,0,0-.69.58,2.83,2.83,0,0,0-.48.78A2.19,2.19,0,0,0,72.62,47.35Z"/><path class="cls-3" d="M88.75,39.25c0-.1,0-.2,0-.32a1.5,1.5,0,0,1,.09-.32.75.75,0,0,1,.19-.24.39.39,0,0,1,.28-.11l.49,0a2.46,2.46,0,0,1,.47.1.81.81,0,0,1,.37.22.6.6,0,0,1,.14.44,1.19,1.19,0,0,1-.37.87,1.17,1.17,0,0,1-.9.38.63.63,0,0,1-.59-.31A1.4,1.4,0,0,1,88.75,39.25Zm1.19.1s-.06,0-.06.1,0,.1.06.1.08,0,.08-.1S90,39.35,89.94,39.35Zm0,3.57.42,0c.12,0,.22.05.3.2,0,.62.09,1.24.14,1.88s.11,1.27.17,1.92.09,1.29.11,1.93,0,1.29,0,1.9c0,.08,0,.14-.06.16a.42.42,0,0,1-.17,0l-.27,0a1,1,0,0,0-.34,0Z"/><path class="cls-3" d="M93.29,50.77c0-.22-.05-.53-.07-1s0-.89-.06-1.42,0-1.07-.06-1.65,0-1.12,0-1.64,0-1,0-1.4a7.85,7.85,0,0,0-.09-1,.58.58,0,0,0,0-.1s0-.11,0-.18a1.21,1.21,0,0,1,0-.18v-.11c.2-.16.38-.22.52-.16a.71.71,0,0,1,.36.35,2.44,2.44,0,0,1,.21.69c0,.28.07.55.09.82s0,.53,0,.75v.48c0-.23.07-.5.12-.82a7.57,7.57,0,0,1,.25-1,8.07,8.07,0,0,1,.4-1,3.36,3.36,0,0,1,.58-.85,2.74,2.74,0,0,1,.79-.57,2.09,2.09,0,0,1,1-.17,2.57,2.57,0,0,1,1.48.5,3.09,3.09,0,0,1,.93,1.21,6.87,6.87,0,0,1,.49,1.74,19,19,0,0,1,.2,2.09q.06,1.11,0,2.25c0,.76,0,1.48,0,2.18a1.54,1.54,0,0,0-.37.14.67.67,0,0,1-.3.08c-.08,0-.14-.07-.18-.19a2.08,2.08,0,0,1,0-.68c0-.25,0-.63.07-1.14s0-1.09,0-1.72,0-1.27-.12-1.94a7.78,7.78,0,0,0-.38-1.84,3.33,3.33,0,0,0-.79-1.35A1.77,1.77,0,0,0,97,41.56a3,3,0,0,0-1.4,1.32,8.89,8.89,0,0,0-.91,2.25,20.33,20.33,0,0,0-.49,2.8c-.1,1-.16,2-.17,3a.3.3,0,0,0-.16,0h-.24a1,1,0,0,1-.25,0C93.35,50.8,93.3,50.79,93.29,50.77Z"/><path class="cls-3" d="M113.78,43.43a1.42,1.42,0,0,0-.5,0l-.68,0-.68.07a4.18,4.18,0,0,1-.56,0c-.06,0-.11-.1-.13-.29s0-.47-.09-.81l2.89-.21c0-.48.07-.82.08-1a3.23,3.23,0,0,0,0-.53c0-.14,0-.3,0-.49s0-.47,0-.87a3.11,3.11,0,0,1,.81-.05.56.56,0,0,1,.38.15.49.49,0,0,1,.09.36,3.45,3.45,0,0,1-.06.58c0,.24-.06.52-.08.85a7,7,0,0,0,0,1.1l2.46-.08v1c-.11,0-.28,0-.51,0l-.75,0-.74,0a1.78,1.78,0,0,0-.5.08c-.11.49-.23,1-.35,1.58a13.88,13.88,0,0,0-.25,1.66,7,7,0,0,0,0,1.53,2.16,2.16,0,0,0,.51,1.17,2.08,2.08,0,0,0,1.17.63,4.62,4.62,0,0,0,2-.11.84.84,0,0,1-.24.5,1.39,1.39,0,0,1-.45.31,2,2,0,0,1-.54.16,2.59,2.59,0,0,1-.52.06,3.19,3.19,0,0,1-1.66-.38,2.52,2.52,0,0,1-.92-1,4.07,4.07,0,0,1-.39-1.4,12.32,12.32,0,0,1,0-1.61c0-.55.06-1.09.11-1.62A13.06,13.06,0,0,0,113.78,43.43Z"/><path class="cls-3" d="M121,36.81l.53,6.72a4.21,4.21,0,0,0,.37-.37,4.07,4.07,0,0,1,.53-.46,4.4,4.4,0,0,1,.68-.37,1.9,1.9,0,0,1,.8-.13,1.92,1.92,0,0,1,1.34.68,3.85,3.85,0,0,1,.76,1.45,9.67,9.67,0,0,1,.34,1.88,18.35,18.35,0,0,1,0,1.94c0,.61-.06,1.16-.1,1.64s-.09.81-.12,1l-.73-.1c0-.12,0-.32,0-.58s0-.59,0-1,0-.74,0-1.14,0-.76,0-1.11V46q0-.41,0-.57a2.41,2.41,0,0,0-.23-1.11,2,2,0,0,0-.65-.81,1.37,1.37,0,0,0-1-.18,2.29,2.29,0,0,0-1.23.81,7,7,0,0,0-.84,1.69,8.15,8.15,0,0,0-.35,1.64,15.08,15.08,0,0,0-.06,1.66q0,.86,0,1.8l-.8-.13a4.6,4.6,0,0,0,.09-.83c0-.4,0-.89.05-1.45s0-1.2,0-1.9,0-1.42,0-2.16,0-1.5,0-2.25,0-1.47-.05-2.15,0-1.32-.06-1.89,0-1,0-1.42Z"/><path class="cls-3" d="M128.37,46.06a4.09,4.09,0,0,1,.27-1.37,5.59,5.59,0,0,1,.73-1.39,4.92,4.92,0,0,1,1-1.09,2,2,0,0,1,1.22-.44,1.81,1.81,0,0,1,.69.14,3.28,3.28,0,0,1,1.23.92,2.19,2.19,0,0,1,.4.62,1.72,1.72,0,0,1,.16.64.83.83,0,0,1-.18.53l-4.33.8s-.1.08-.14.2a2.66,2.66,0,0,0-.1.44c0,.17-.05.37-.07.58s0,.42,0,.62a5.13,5.13,0,0,0,0,.53v.36a1.51,1.51,0,0,0,.28.93,1.73,1.73,0,0,0,.71.54,3.21,3.21,0,0,0,1,.25,9.77,9.77,0,0,0,1.08.06c.36,0,.69,0,1,0s.58,0,.78,0A.35.35,0,0,1,134,50a1.43,1.43,0,0,1-.14.2,1.25,1.25,0,0,1-.17.16l-.1.1-.5.11-.72.13c-.25,0-.49.08-.71.1l-.45.05a2.23,2.23,0,0,1-1.1,0,1.62,1.62,0,0,1-.8-.49,2.69,2.69,0,0,1-.54-.85,5,5,0,0,1-.3-1.08,7.49,7.49,0,0,1-.12-1.18A11.47,11.47,0,0,1,128.37,46.06Zm3-3.51a.9.9,0,0,0-.48.19,2.61,2.61,0,0,0-.56.5,3.34,3.34,0,0,0-.43.63.84.84,0,0,0-.11.59,4.62,4.62,0,0,0,1.11,0,5.1,5.1,0,0,0,1-.26,2.84,2.84,0,0,0,.78-.41.62.62,0,0,0,.3-.48c0-.17-.14-.31-.39-.44A4,4,0,0,0,131.35,42.55Z"/><path class="cls-3" d="M147.39,50.77c.13-.87.21-1.6.25-2.17s.06-1.07.05-1.49,0-.78,0-1.11,0-.65,0-1a1.63,1.63,0,0,0-.58.12l-.63.28-.65.28a1.63,1.63,0,0,1-.58.12.13.13,0,0,1-.13-.08,1.05,1.05,0,0,1-.06-.21l0-.25a.72.72,0,0,0-.07-.28l2.77-1.19a29.89,29.89,0,0,1-.28-5.14,11.42,11.42,0,0,1,.6-3.32,4,4,0,0,1,1.27-1.85,3.8,3.8,0,0,1,1.75-.72,3.75,3.75,0,0,1,1.45.29,4,4,0,0,1,1.21.81,4.14,4.14,0,0,1,.84,1.19,3.37,3.37,0,0,1,.32,1.44,1,1,0,0,1-.61-.22,2.69,2.69,0,0,1-.52-.54c-.16-.22-.33-.45-.49-.71a6.4,6.4,0,0,0-.55-.71,3.6,3.6,0,0,0-.64-.54,1.56,1.56,0,0,0-.82-.21,2.17,2.17,0,0,0-.81.33,2.84,2.84,0,0,0-.74.73,5.16,5.16,0,0,0-.61,1.2,9.66,9.66,0,0,0-.41,1.8,22.14,22.14,0,0,0-.15,2.51,31.6,31.6,0,0,0,.17,3.31l2.55,0a3.24,3.24,0,0,1,.07.46c0,.13-.09.24-.3.32a3.83,3.83,0,0,1-.57.15l-.71.13-.67.08-.43.05c0,.64,0,1.25,0,1.84s.05,1.13.06,1.66,0,1,0,1.47a6.48,6.48,0,0,1-.22,1.33h-.6a.52.52,0,0,0-.17,0l-.16,0a.22.22,0,0,1-.12,0A.26.26,0,0,1,147.39,50.77Z"/><path class="cls-3" d="M153.92,47.12A9.32,9.32,0,0,1,154,46a7.39,7.39,0,0,1,.27-1.27,8.56,8.56,0,0,1,.46-1.25,4.72,4.72,0,0,1,.66-1.09,2.93,2.93,0,0,1,.91-.78,2.22,2.22,0,0,1,1.15-.3,1.94,1.94,0,0,1,1.22.45,4,4,0,0,1,1,1.17,5.76,5.76,0,0,1,.6,1.6,6,6,0,0,1,.17,1.72,5,5,0,0,1-.47,2.2,4.63,4.63,0,0,1-1.2,1.55,3.88,3.88,0,0,1-1.56.8,2.36,2.36,0,0,1-1.56-.11,2.55,2.55,0,0,1-1.21-1.2A5.06,5.06,0,0,1,153.92,47.12Zm.76.08a4.48,4.48,0,0,0,.43,1.93A1.82,1.82,0,0,0,156,50a1.54,1.54,0,0,0,1.14,0,2.92,2.92,0,0,0,1.15-.72A4.67,4.67,0,0,0,159.2,48a4.52,4.52,0,0,0,.42-1.77,5.33,5.33,0,0,0-.11-1.44,6,6,0,0,0-.43-1.24,2.6,2.6,0,0,0-.68-.86,1.44,1.44,0,0,0-.91-.32,1.68,1.68,0,0,0-.89.25,2.6,2.6,0,0,0-.7.67,4.22,4.22,0,0,0-.55.95c-.15.36-.27.71-.38,1.07a8.27,8.27,0,0,0-.22,1A6,6,0,0,0,154.68,47.2Z"/><path class="cls-3" d="M163,34.94a1.73,1.73,0,0,1,.5.15.8.8,0,0,1,.34.4q0,.39,0,1.08t.06,1.59c0,.6,0,1.25.07,2s.06,1.4.08,2.11.06,1.42.08,2.11,0,1.35.06,2,0,1.14,0,1.6,0,.82,0,1.07a1,1,0,0,1,0,.14c0,.07,0,.15,0,.25a2.65,2.65,0,0,0,0,.27,1.72,1.72,0,0,0,0,.2,1.32,1.32,0,0,0,0,.3,1.75,1.75,0,0,1,0,.33,1,1,0,0,1-.14.3.4.4,0,0,1-.29.16l-.35-.43a5,5,0,0,1-.05-.77c0-.5,0-1.15-.09-2s-.06-1.7-.09-2.71-.06-2-.09-3-.07-2-.09-3-.05-1.75-.06-2.44c0-.05,0-.16,0-.33s0-.33,0-.5,0-.33,0-.49S163,35,163,34.94Z"/><path class="cls-3" d="M167,34.94a1.73,1.73,0,0,1,.5.15.76.76,0,0,1,.34.4q0,.39,0,1.08t.06,1.59c0,.6.05,1.25.08,2s0,1.4.08,2.11.05,1.42.07,2.11,0,1.35.06,2,0,1.14.05,1.6,0,.82,0,1.07a1,1,0,0,1,0,.14c0,.07,0,.15,0,.25s0,.19,0,.27a1.72,1.72,0,0,0,0,.2,2.36,2.36,0,0,0,0,.3,1.19,1.19,0,0,1,0,.33,1,1,0,0,1-.13.3.42.42,0,0,1-.3.16l-.35-.43a7.36,7.36,0,0,1,0-.77c0-.5-.05-1.15-.08-2s-.07-1.7-.09-2.71-.06-2-.1-3-.06-2-.09-3,0-1.75-.06-2.44c0-.05,0-.16,0-.33s0-.33,0-.5,0-.33,0-.49S167,35,167,34.94Z"/><path class="cls-3" d="M170.62,47.12a7.7,7.7,0,0,1,.09-1.09,8.43,8.43,0,0,1,.26-1.27,11.75,11.75,0,0,1,.46-1.25,5.13,5.13,0,0,1,.67-1.09,3,3,0,0,1,.9-.78,2.24,2.24,0,0,1,1.15-.3,1.92,1.92,0,0,1,1.22.45,3.72,3.72,0,0,1,1,1.17,6.11,6.11,0,0,1,.61,1.6,6,6,0,0,1,.16,1.72,4.9,4.9,0,0,1-.47,2.2,4.39,4.39,0,0,1-1.2,1.55,3.75,3.75,0,0,1-1.56.8,2.34,2.34,0,0,1-1.55-.11,2.55,2.55,0,0,1-1.21-1.2A4.93,4.93,0,0,1,170.62,47.12Zm.76.08a4.63,4.63,0,0,0,.43,1.93,1.88,1.88,0,0,0,.9.89,1.52,1.52,0,0,0,1.13,0,2.85,2.85,0,0,0,1.15-.72,4.69,4.69,0,0,0,.92-1.32,4.35,4.35,0,0,0,.41-1.77,5,5,0,0,0-.11-1.44,5,5,0,0,0-.43-1.24,2.47,2.47,0,0,0-.68-.86,1.42,1.42,0,0,0-.91-.32,1.64,1.64,0,0,0-.88.25,2.63,2.63,0,0,0-.71.67,4.6,4.6,0,0,0-.54.95,9.13,9.13,0,0,0-.38,1.07,8.36,8.36,0,0,0-.23,1A7.92,7.92,0,0,0,171.38,47.2Z"/><path class="cls-3" d="M183.08,50.61l-4-9.17.53-.55,3.4,7.63,1.56-5,4,5.42a17.38,17.38,0,0,0,.24-2c0-.68,0-1.36,0-2s0-1.37,0-2.06,0-1.4.05-2.1l.88.33v4.4c0,.49,0,.88,0,1.18s0,.56,0,.78a5.19,5.19,0,0,1-.05.6c0,.19-.06.39-.1.62s-.09.5-.15.83-.12.76-.2,1.29A7.15,7.15,0,0,1,188,49.5c-.4-.49-.77-1-1.12-1.48s-.68-.94-1-1.36a4.26,4.26,0,0,0-.86-.91Z"/><path class="cls-3" d="M191.65,39.25c0-.1,0-.2,0-.32a1.5,1.5,0,0,1,.09-.32.75.75,0,0,1,.19-.24.39.39,0,0,1,.28-.11l.49,0a2.46,2.46,0,0,1,.47.1.81.81,0,0,1,.37.22.6.6,0,0,1,.14.44,1.19,1.19,0,0,1-.37.87,1.17,1.17,0,0,1-.9.38.63.63,0,0,1-.59-.31A1.4,1.4,0,0,1,191.65,39.25Zm1.19.1s-.06,0-.06.1,0,.1.06.1.08,0,.08-.1S192.9,39.35,192.84,39.35Zm0,3.57.42,0c.12,0,.22.05.3.2,0,.62.09,1.24.14,1.88s.11,1.27.17,1.92.09,1.29.11,1.93,0,1.29,0,1.9c0,.08,0,.14-.06.16a.44.44,0,0,1-.18,0l-.26,0a1,1,0,0,0-.34,0Z"/><path class="cls-3" d="M196.19,50.77c0-.22-.05-.53-.07-1s0-.89-.06-1.42,0-1.07-.06-1.65,0-1.12,0-1.64,0-1-.05-1.4a7.85,7.85,0,0,0-.09-1,.58.58,0,0,0,0-.1s0-.11,0-.18a1.21,1.21,0,0,1,0-.18v-.11c.2-.16.38-.22.52-.16a.64.64,0,0,1,.36.35,2.44,2.44,0,0,1,.21.69c0,.28.07.55.09.82s0,.53,0,.75v.48c0-.23.07-.5.12-.82a7.57,7.57,0,0,1,.25-1,8.07,8.07,0,0,1,.4-1,3.36,3.36,0,0,1,.58-.85,2.74,2.74,0,0,1,.79-.57,2.09,2.09,0,0,1,1-.17,2.57,2.57,0,0,1,1.48.5,3.09,3.09,0,0,1,.93,1.21,6.87,6.87,0,0,1,.49,1.74,19,19,0,0,1,.2,2.09q.06,1.11,0,2.25c0,.76,0,1.48,0,2.18a1.34,1.34,0,0,0-.36.14.74.74,0,0,1-.31.08c-.08,0-.14-.07-.18-.19a2.08,2.08,0,0,1,0-.68c0-.25,0-.63.08-1.14s0-1.09,0-1.72-.05-1.27-.12-1.94a7.78,7.78,0,0,0-.38-1.84,3.43,3.43,0,0,0-.78-1.35,1.81,1.81,0,0,0-1.34-.53,3,3,0,0,0-1.4,1.32,8.89,8.89,0,0,0-.91,2.25,20.33,20.33,0,0,0-.49,2.8c-.1,1-.16,2-.17,3a.3.3,0,0,0-.16,0h-.24a1,1,0,0,1-.25,0C196.25,50.8,196.2,50.79,196.19,50.77Z"/><path class="cls-3" d="M202.35,55.74a1.65,1.65,0,0,1,.18-.85c.12-.19.41-.28.86-.28q-.06.28-.15.57c-.06.19-.12.37-.17.54a1.69,1.69,0,0,0-.06.38c0,.1.06.13.16.11a4.45,4.45,0,0,0,1.43.61,6.3,6.3,0,0,0,1.54.19,4.09,4.09,0,0,0,3.35-1.64,5.58,5.58,0,0,0,.84-1.65,8.44,8.44,0,0,0,.37-1.93,10.29,10.29,0,0,0,0-2,9.9,9.9,0,0,0-.39-1.85l-.71.82a5.1,5.1,0,0,1-.77.77,4.08,4.08,0,0,1-.87.57,2.29,2.29,0,0,1-1,.22,1.6,1.6,0,0,1-.89-.2,1,1,0,0,1-.4-.57,3,3,0,0,1-.1-.83c0-.31,0-.65,0-1s0-.7,0-1.11a8.92,8.92,0,0,1,.15-1.24,8.52,8.52,0,0,1,.31-1.23,3.92,3.92,0,0,1,.52-1.09,2.51,2.51,0,0,1,.82-.77A2.3,2.3,0,0,1,208.5,42a4.57,4.57,0,0,1,.83.07,2.58,2.58,0,0,1,.74.25,2,2,0,0,1,.58.5,2,2,0,0,1,.39.78c.06.61.12,1.28.21,2s.15,1.47.2,2.24.08,1.55.08,2.33a16.35,16.35,0,0,1-.15,2.25,9.23,9.23,0,0,1-.51,2,5.43,5.43,0,0,1-1,1.69,4.79,4.79,0,0,1-1.61,1.16,5.89,5.89,0,0,1-2.32.49,10.52,10.52,0,0,1-1.21-.08,4.2,4.2,0,0,1-1.16-.28,2.26,2.26,0,0,1-.88-.62A1.61,1.61,0,0,1,202.35,55.74Zm3.93-8a4.7,4.7,0,0,1,0,.51,3.62,3.62,0,0,0,0,.57,1.24,1.24,0,0,0,.18.5.53.53,0,0,0,.44.22,1.88,1.88,0,0,0,.91-.22,2.76,2.76,0,0,0,.76-.62,4.92,4.92,0,0,0,.59-.87,6.89,6.89,0,0,0,.44-1,8.07,8.07,0,0,0,.26-1A4.65,4.65,0,0,0,210,45a2.55,2.55,0,0,0,0-.78,1.81,1.81,0,0,0-.23-.7,1.56,1.56,0,0,0-.49-.5,1.38,1.38,0,0,0-.74-.19,1.4,1.4,0,0,0-.86.27,2.37,2.37,0,0,0-.62.71,4.47,4.47,0,0,0-.39,1,8.71,8.71,0,0,0-.21,1.09c0,.36-.09.71-.11,1S206.28,47.5,206.28,47.72Z"/><path d="M44.37,68.9a4.38,4.38,0,0,1,.19-1.22,4.82,4.82,0,0,1,.53-1.23,3.27,3.27,0,0,1,.84-.93,1.84,1.84,0,0,1,1.15-.37,3.75,3.75,0,0,1,.87.09,2.53,2.53,0,0,1,.72.31,3.35,3.35,0,0,1,.63.51q.3.3.63.69l-.12-10.52a1.69,1.69,0,0,1,.68-.17c.09,0,.14.15.14.35,0,0,0,.07,0,.13a.46.46,0,0,0,0,.1q0,.39,0,1.11c0,.47,0,1,0,1.66s0,1.31,0,2,0,1.47,0,2.21,0,1.49.05,2.22,0,1.41,0,2,0,1.18,0,1.67,0,.85,0,1.1a1.62,1.62,0,0,1-.63.71,2.62,2.62,0,0,1-.86.36,5,5,0,0,1-.95.14l-.92,0a2.92,2.92,0,0,1-2.18-.81A3,3,0,0,1,44.37,68.9Zm.82-.55a6.77,6.77,0,0,0,.08,1,3,3,0,0,0,.29.9,1.72,1.72,0,0,0,.58.62,1.68,1.68,0,0,0,.94.24h.84a3.61,3.61,0,0,0,.94-.12,1.79,1.79,0,0,0,.76-.36.81.81,0,0,0,.31-.69,5.78,5.78,0,0,0-.15-1.22,5.64,5.64,0,0,0-.48-1.32,3.7,3.7,0,0,0-.8-1.06,1.66,1.66,0,0,0-2-.22,2.54,2.54,0,0,0-.69.58,2.83,2.83,0,0,0-.48.78A2,2,0,0,0,45.19,68.35Z"/><path d="M52.6,70.11a2.1,2.1,0,0,1,.64-1.7,2.58,2.58,0,0,1,1.7-.53c.27,0,.53,0,.77,0a3,3,0,0,1,.68.1,2.72,2.72,0,0,1,.65.25,3.06,3.06,0,0,1,.67.47s0-.13,0-.26,0-.27,0-.42v-.7c0-.24,0-.56,0-1a8.32,8.32,0,0,0-.1-1.2A3.72,3.72,0,0,0,57.24,64a1.78,1.78,0,0,0-.89-.84,2.36,2.36,0,0,0-.8.14l-.74.31c-.24.11-.49.21-.73.3a2.36,2.36,0,0,1-.8.13,1.2,1.2,0,0,1,.31-.85,2.28,2.28,0,0,1,.77-.52,3.42,3.42,0,0,1,1-.25,7.05,7.05,0,0,1,.86-.06l.68.14a1.55,1.55,0,0,1,.6.33,2.57,2.57,0,0,1,.51.75A5.76,5.76,0,0,1,58.37,65c.12.6.22,1.36.31,2.28s.16,2.06.22,3.4a.53.53,0,0,1-.18.46,1.77,1.77,0,0,1-.58.33,7.64,7.64,0,0,1-.83.22,7.33,7.33,0,0,1-.94.13l-.9.07-.72,0a2.5,2.5,0,0,1-1.44-.49,1.67,1.67,0,0,1-.52-.57A1.47,1.47,0,0,1,52.6,70.11Zm2.67-1.43a3.44,3.44,0,0,0-1.44.68,1,1,0,0,0-.36.77,1,1,0,0,0,.48.67,2.45,2.45,0,0,0,1,.39,3.25,3.25,0,0,0,1.33-.1,3.54,3.54,0,0,0,1.38-.77,4.21,4.21,0,0,0-.5-.92,1.82,1.82,0,0,0-.53-.48,1.5,1.5,0,0,0-.64-.2A6.08,6.08,0,0,0,55.27,68.68Z"/><path d="M63.27,64.43a1.45,1.45,0,0,0-.5-.05l-.68,0-.69.07a4,4,0,0,1-.55,0c-.07,0-.12-.1-.14-.29s-.05-.47-.09-.81l2.89-.21q.06-.72.09-1c0-.21,0-.38,0-.53s0-.3,0-.49,0-.47,0-.87a3.11,3.11,0,0,1,.81-.05.54.54,0,0,1,.38.15.53.53,0,0,1,.1.36,5.27,5.27,0,0,1-.07.58c0,.24-.06.52-.08.85a7,7,0,0,0,0,1.1l2.46-.08v1c-.1,0-.28,0-.51,0l-.75,0-.74,0a1.78,1.78,0,0,0-.5.08c-.11.49-.22,1-.35,1.58a12.08,12.08,0,0,0-.24,1.66,7,7,0,0,0,0,1.53,2.24,2.24,0,0,0,.51,1.17,2.11,2.11,0,0,0,1.17.63,4.61,4.61,0,0,0,2-.11.9.9,0,0,1-.23.5,1.55,1.55,0,0,1-.46.31,2,2,0,0,1-.54.16,2.5,2.5,0,0,1-.51.06,3.16,3.16,0,0,1-1.66-.38,2.55,2.55,0,0,1-.93-1,4.31,4.31,0,0,1-.39-1.4,12.32,12.32,0,0,1,0-1.61q0-.83.12-1.62C63.24,65.35,63.27,64.87,63.27,64.43Z"/><path d="M69.59,70.11a2.07,2.07,0,0,1,.64-1.7,2.58,2.58,0,0,1,1.7-.53c.27,0,.53,0,.77,0a3.1,3.1,0,0,1,.68.1,2.72,2.72,0,0,1,.65.25,3.06,3.06,0,0,1,.67.47v-.26c0-.13,0-.27,0-.42v-.7c0-.24,0-.56,0-1a8.32,8.32,0,0,0-.1-1.2A3.72,3.72,0,0,0,74.23,64a1.78,1.78,0,0,0-.89-.84,2.32,2.32,0,0,0-.8.14l-.74.31c-.24.11-.49.21-.73.3a2.36,2.36,0,0,1-.8.13,1.2,1.2,0,0,1,.31-.85,2.18,2.18,0,0,1,.77-.52,3.42,3.42,0,0,1,1-.25,7.05,7.05,0,0,1,.86-.06l.68.14a1.55,1.55,0,0,1,.6.33,2.57,2.57,0,0,1,.51.75A6.24,6.24,0,0,1,75.36,65c.12.6.22,1.36.31,2.28s.16,2.06.21,3.4a.49.49,0,0,1-.17.46,1.77,1.77,0,0,1-.58.33,7.27,7.27,0,0,1-.84.22,6.94,6.94,0,0,1-.93.13l-.9.07-.72,0a2.5,2.5,0,0,1-1.44-.49,1.67,1.67,0,0,1-.52-.57A1.47,1.47,0,0,1,69.59,70.11Zm2.66-1.43a3.45,3.45,0,0,0-1.43.68,1,1,0,0,0-.36.77,1,1,0,0,0,.48.67,2.45,2.45,0,0,0,1,.39,3.25,3.25,0,0,0,1.33-.1,3.54,3.54,0,0,0,1.38-.77,4.21,4.21,0,0,0-.5-.92,1.82,1.82,0,0,0-.53-.48,1.5,1.5,0,0,0-.64-.2A6.14,6.14,0,0,0,72.25,68.68Z"/><path d="M86.47,62.81l.64-.63,4.51,8.2,1.93-7.94a1.58,1.58,0,0,0,.31.09l.29.07a.81.81,0,0,1,.22.07.14.14,0,0,1,.08.14c-.18.88-.34,1.7-.5,2.46s-.33,1.51-.5,2.24-.37,1.45-.58,2.18-.44,1.49-.71,2.29h-.8Z"/><path d="M95.67,60.25a1.83,1.83,0,0,1,0-.32.85.85,0,0,1,.09-.32.89.89,0,0,1,.18-.24.41.41,0,0,1,.28-.11l.49,0a2.3,2.3,0,0,1,.47.1.77.77,0,0,1,.37.22.6.6,0,0,1,.15.44,1.23,1.23,0,0,1-.37.87,1.19,1.19,0,0,1-.9.38.63.63,0,0,1-.6-.31A1.49,1.49,0,0,1,95.67,60.25Zm1.19.1s-.07,0-.07.1,0,.1.07.1.08,0,.08-.1S96.91,60.35,96.86,60.35Zm0,3.57.42,0c.11,0,.21.05.29.2,0,.62.09,1.24.15,1.88s.11,1.27.16,1.92.09,1.29.11,1.93,0,1.29,0,1.9c0,.08,0,.14-.06.16a.42.42,0,0,1-.17,0l-.27,0a1,1,0,0,0-.34,0Z"/><path d="M101,70.21a1.58,1.58,0,0,1,.69.15,5.2,5.2,0,0,1,.62.32q.31.16.63.3a1.74,1.74,0,0,0,.69.14,2.66,2.66,0,0,0,.89-.16,3,3,0,0,0,.85-.43,2.4,2.4,0,0,0,.64-.67,1.69,1.69,0,0,0,.24-.88,1.81,1.81,0,0,0,0-.34,1.06,1.06,0,0,0-.13-.43,1.33,1.33,0,0,0-.41-.41,2.27,2.27,0,0,0-.83-.29,8.29,8.29,0,0,0-1.37-.12,15.48,15.48,0,0,0-2,.16,1.1,1.1,0,0,1-.59-.18,2.08,2.08,0,0,1-.51-.43,2.21,2.21,0,0,1-.37-.55,1.27,1.27,0,0,1-.15-.56,2.36,2.36,0,0,1,.34-1.31,2.67,2.67,0,0,1,.87-.8,4.53,4.53,0,0,1,1.19-.42,7.42,7.42,0,0,1,1.34-.12l.7,0a2.77,2.77,0,0,1,.74.16,1.36,1.36,0,0,1,.58.43,1.25,1.25,0,0,1,.23.8.9.9,0,0,1-.11.42s-.12,0-.21,0a3,3,0,0,1-.31-.31,3,3,0,0,0-.45-.4,1.83,1.83,0,0,0-.61-.3,1.58,1.58,0,0,0-.81,0,5,5,0,0,0-.94.09,2.54,2.54,0,0,0-.85.32,1.73,1.73,0,0,0-.62.61,1.86,1.86,0,0,0-.24,1,.43.43,0,0,0,.28.42,2.14,2.14,0,0,0,.74.11l1,0c.4,0,.79,0,1.2,0a7.66,7.66,0,0,1,1.19.09,2.76,2.76,0,0,1,1,.37,2,2,0,0,1,.69.79A2.69,2.69,0,0,1,107,69a2,2,0,0,1-.34,1.13,3.48,3.48,0,0,1-.86.94,4.31,4.31,0,0,1-1.16.62,2.8,2.8,0,0,1-1.23.17,4.4,4.4,0,0,1-.66-.14,3.41,3.41,0,0,1-.82-.32,2.35,2.35,0,0,1-.69-.5A1,1,0,0,1,101,70.21Z"/><path d="M109,63.92a.28.28,0,0,1,.13-.21,1,1,0,0,1,.33-.16,1.72,1.72,0,0,1,.38-.08.27.27,0,0,1,.26.06,22.91,22.91,0,0,0,.48,4,7.37,7.37,0,0,0,.82,2.2,1.3,1.3,0,0,0,1,.71,1.52,1.52,0,0,0,1-.45,5.05,5.05,0,0,0,1-1.26,9.43,9.43,0,0,0,.72-1.72,9.25,9.25,0,0,0,.34-1.85,4.5,4.5,0,0,0-.17-1.64l1.23-.14c0,.2,0,.54.11,1s.13,1,.21,1.6.16,1.21.26,1.86.17,1.24.24,1.79.13,1,.19,1.42.08.63.08.72h-.88l-1-3.54a9.25,9.25,0,0,1-.69,1.37,7.17,7.17,0,0,1-.9,1.15,4.17,4.17,0,0,1-1,.77,1.87,1.87,0,0,1-1.06.22,1.75,1.75,0,0,1-1-.48A4,4,0,0,1,110.2,70a11.66,11.66,0,0,1-.72-2.41A25.59,25.59,0,0,1,109,63.92Z"/><path d="M119.47,70.11a2.07,2.07,0,0,1,.64-1.7,2.56,2.56,0,0,1,1.7-.53c.27,0,.52,0,.76,0a3.1,3.1,0,0,1,.69.1,2.72,2.72,0,0,1,.65.25,2.8,2.8,0,0,1,.66.47s0-.13,0-.26,0-.27,0-.42v-.7c0-.24,0-.56,0-1a8.28,8.28,0,0,0-.09-1.2,3.72,3.72,0,0,0-.37-1.17,1.78,1.78,0,0,0-.89-.84,2.32,2.32,0,0,0-.8.14l-.74.31c-.24.11-.49.21-.74.3a2.28,2.28,0,0,1-.8.13,1.21,1.21,0,0,1,.32-.85,2.18,2.18,0,0,1,.77-.52,3.44,3.44,0,0,1,.94-.25,7.34,7.34,0,0,1,.87-.06l.68.14a1.62,1.62,0,0,1,.6.33,2.57,2.57,0,0,1,.51.75,6.24,6.24,0,0,1,.41,1.41c.12.6.22,1.36.31,2.28s.16,2.06.21,3.4a.49.49,0,0,1-.17.46,1.72,1.72,0,0,1-.59.33,6.58,6.58,0,0,1-.83.22,6.94,6.94,0,0,1-.93.13l-.9.07-.72,0a2.19,2.19,0,0,1-.75-.13,2.27,2.27,0,0,1-.69-.36,1.67,1.67,0,0,1-.52-.57A1.47,1.47,0,0,1,119.47,70.11Zm2.66-1.43a3.45,3.45,0,0,0-1.43.68.91.91,0,0,0-.36.77,1,1,0,0,0,.48.67,2.45,2.45,0,0,0,1.05.39,3.25,3.25,0,0,0,1.33-.1,3.44,3.44,0,0,0,1.37-.77,3.85,3.85,0,0,0-.49-.92,1.82,1.82,0,0,0-.53-.48,1.5,1.5,0,0,0-.64-.2A6.14,6.14,0,0,0,122.13,68.68Z"/><path d="M128.13,55.94a1.73,1.73,0,0,1,.5.15.86.86,0,0,1,.34.4q0,.39,0,1.08t.06,1.59c0,.6,0,1.25.07,2s.06,1.4.08,2.11,0,1.42.07,2.11,0,1.35.07,2,0,1.14.05,1.6,0,.82,0,1.07c0,0,0,.07,0,.14a1.69,1.69,0,0,0,0,.25,2.65,2.65,0,0,0,0,.27,1.72,1.72,0,0,0,0,.2,1.32,1.32,0,0,0,0,.3,1.75,1.75,0,0,1,0,.33,1,1,0,0,1-.14.3.4.4,0,0,1-.3.16l-.34-.43a3.8,3.8,0,0,1,0-.77c0-.5-.05-1.15-.09-2s-.06-1.7-.09-2.71-.06-2-.09-3-.07-2-.09-3,0-1.75-.07-2.44c0-.05,0-.16,0-.33s0-.33,0-.5l0-.49C128.12,56.12,128.13,56,128.13,55.94Z"/><path d="M131.43,60.25c0-.1,0-.2,0-.32a1.5,1.5,0,0,1,.09-.32.75.75,0,0,1,.19-.24.39.39,0,0,1,.28-.11l.49,0a2.46,2.46,0,0,1,.47.1.81.81,0,0,1,.37.22.64.64,0,0,1,.14.44,1.19,1.19,0,0,1-.37.87,1.17,1.17,0,0,1-.9.38.63.63,0,0,1-.59-.31A1.4,1.4,0,0,1,131.43,60.25Zm1.19.1s-.06,0-.06.1,0,.1.06.1.08,0,.08-.1S132.68,60.35,132.62,60.35Zm0,3.57.42,0c.12,0,.22.05.3.2,0,.62.09,1.24.14,1.88s.11,1.27.17,1.92.09,1.29.11,1.93,0,1.29,0,1.9c0,.08,0,.14-.06.16a.44.44,0,0,1-.18,0l-.26,0a1,1,0,0,0-.34,0Z"/><path d="M137.53,67.55l-.09-.92,1.95-.11,1.68-3.3-5.41.35-.1-.76.42-.05,1-.13,1.4-.19,1.53-.18,1.43-.16c.45,0,.83-.08,1.13-.09l-1.83,4.51,2-.14,0,1-2.87.21-1.19,3.38q1.5.06,3,0c1,0,2,0,3,0v.68l-.49,0-1.11.06-1.48.08-1.6.07c-.53,0-1,0-1.5,0a11.17,11.17,0,0,1-1.14,0l1.45-4.28Z"/><path d="M146.55,70.11a2.07,2.07,0,0,1,.65-1.7,2.55,2.55,0,0,1,1.69-.53c.28,0,.53,0,.77,0a3.1,3.1,0,0,1,.69.1,3.15,3.15,0,0,1,1.31.72s0-.13,0-.26,0-.27,0-.42v-.7c0-.24,0-.56,0-1a8.28,8.28,0,0,0-.09-1.2A4,4,0,0,0,151.2,64a1.82,1.82,0,0,0-.89-.84,2.28,2.28,0,0,0-.8.14l-.74.31c-.25.11-.49.21-.74.3a2.32,2.32,0,0,1-.8.13,1.21,1.21,0,0,1,.32-.85,2.18,2.18,0,0,1,.77-.52,3.35,3.35,0,0,1,.94-.25,7.32,7.32,0,0,1,.86-.06c.25,0,.48.09.69.14a1.62,1.62,0,0,1,.6.33,2.57,2.57,0,0,1,.51.75,6.8,6.8,0,0,1,.41,1.41c.11.6.22,1.36.31,2.28s.16,2.06.21,3.4a.49.49,0,0,1-.17.46,1.83,1.83,0,0,1-.59.33,6.58,6.58,0,0,1-.83.22,7.43,7.43,0,0,1-.93.13l-.9.07-.72,0a2.19,2.19,0,0,1-.75-.13,2.33,2.33,0,0,1-.7-.36,1.75,1.75,0,0,1-.51-.57A1.48,1.48,0,0,1,146.55,70.11Zm2.67-1.43a3.57,3.57,0,0,0-1.44.68.92.92,0,0,0-.35.77,1,1,0,0,0,.48.67,2.4,2.4,0,0,0,1,.39,3.29,3.29,0,0,0,1.34-.1,3.5,3.5,0,0,0,1.37-.77,4.24,4.24,0,0,0-.49-.92,2,2,0,0,0-.53-.48,1.6,1.6,0,0,0-.64-.2A6.14,6.14,0,0,0,149.22,68.68Z"/><path d="M157.22,64.43a1.42,1.42,0,0,0-.5-.05l-.68,0-.68.07a4.18,4.18,0,0,1-.56,0c-.07,0-.11-.1-.13-.29s0-.47-.09-.81l2.89-.21c0-.48.07-.82.08-1a4.93,4.93,0,0,0,0-.53c0-.14,0-.3,0-.49s0-.47,0-.87a3.11,3.11,0,0,1,.81-.05.56.56,0,0,1,.38.15.49.49,0,0,1,.09.36c0,.16,0,.35-.06.58s-.06.52-.08.85a7,7,0,0,0,0,1.1l2.46-.08v1c-.11,0-.28,0-.51,0l-.75,0-.74,0a1.78,1.78,0,0,0-.5.08c-.11.49-.23,1-.35,1.58a12.12,12.12,0,0,0-.25,1.66,7.66,7.66,0,0,0,0,1.53,2.17,2.17,0,0,0,.52,1.17,2.08,2.08,0,0,0,1.17.63,4.62,4.62,0,0,0,2-.11.84.84,0,0,1-.24.5,1.39,1.39,0,0,1-.45.31,2,2,0,0,1-.54.16,2.68,2.68,0,0,1-.52.06,3.19,3.19,0,0,1-1.66-.38,2.45,2.45,0,0,1-.92-1,3.86,3.86,0,0,1-.39-1.4,10.79,10.79,0,0,1-.05-1.61c0-.55.06-1.09.11-1.62A13.06,13.06,0,0,0,157.22,64.43Z"/><path d="M163.34,60.25a1.83,1.83,0,0,1,0-.32.85.85,0,0,1,.09-.32.75.75,0,0,1,.19-.24.37.37,0,0,1,.27-.11l.49,0a2.4,2.4,0,0,1,.48.1.73.73,0,0,1,.36.22.6.6,0,0,1,.15.44,1.28,1.28,0,0,1-1.27,1.25.64.64,0,0,1-.6-.31A1.49,1.49,0,0,1,163.34,60.25Zm1.19.1s-.06,0-.06.1,0,.1.06.1.08,0,.08-.1S164.58,60.35,164.53,60.35Zm0,3.57.42,0c.11,0,.21.05.29.2,0,.62.09,1.24.15,1.88s.11,1.27.16,1.92.1,1.29.11,1.93,0,1.29,0,1.9c0,.08,0,.14-.07.16a.42.42,0,0,1-.17,0l-.27,0a1,1,0,0,0-.34,0Z"/><path d="M167.67,68.12a9.32,9.32,0,0,1,.08-1.09,8.47,8.47,0,0,1,.27-1.27,8.56,8.56,0,0,1,.46-1.25,4.75,4.75,0,0,1,.67-1.09,3,3,0,0,1,.9-.78,2.22,2.22,0,0,1,1.15-.3,1.94,1.94,0,0,1,1.22.45,4,4,0,0,1,1,1.17,6.11,6.11,0,0,1,.61,1.6,6.38,6.38,0,0,1,.16,1.72,5,5,0,0,1-.47,2.2,4.63,4.63,0,0,1-1.2,1.55,3.88,3.88,0,0,1-1.56.8,2.37,2.37,0,0,1-1.56-.11,2.55,2.55,0,0,1-1.21-1.2A5.06,5.06,0,0,1,167.67,68.12Zm.76.08a4.48,4.48,0,0,0,.43,1.93,1.82,1.82,0,0,0,.89.89,1.54,1.54,0,0,0,1.14,0,2.92,2.92,0,0,0,1.15-.72A4.67,4.67,0,0,0,173,69a4.52,4.52,0,0,0,.42-1.77,5.33,5.33,0,0,0-.11-1.44,5.48,5.48,0,0,0-.43-1.24,2.6,2.6,0,0,0-.68-.86,1.44,1.44,0,0,0-.91-.32,1.62,1.62,0,0,0-.88.25,2.63,2.63,0,0,0-.71.67,4.63,4.63,0,0,0-.55,1,9,9,0,0,0-.37,1.07,6.86,6.86,0,0,0-.23,1A6,6,0,0,0,168.43,68.2Z"/><path d="M176.53,71.77c0-.22-.05-.53-.07-1s0-.89-.06-1.42,0-1.07-.05-1.65,0-1.12,0-1.64,0-1-.06-1.4a6.25,6.25,0,0,0-.09-1,.58.58,0,0,0,0-.1,1.41,1.41,0,0,0,0-.18,1.21,1.21,0,0,1,0-.18v-.11c.21-.16.38-.22.53-.16a.66.66,0,0,1,.35.35,2.16,2.16,0,0,1,.21.69c0,.28.07.55.09.82s0,.53,0,.75v.48c0-.23.07-.5.12-.82a7.57,7.57,0,0,1,.25-1,8.07,8.07,0,0,1,.4-1,3.4,3.4,0,0,1,.59-.85,2.61,2.61,0,0,1,.79-.57,2.05,2.05,0,0,1,1-.17,2.6,2.6,0,0,1,1.49.5,3.07,3.07,0,0,1,.92,1.21,6.48,6.48,0,0,1,.49,1.74c.1.66.17,1.35.21,2.09s0,1.49,0,2.25,0,1.48,0,2.18a1.28,1.28,0,0,0-.37.14.74.74,0,0,1-.31.08c-.08,0-.14-.07-.17-.19a1.63,1.63,0,0,1,0-.68c0-.25,0-.63.07-1.14s0-1.09,0-1.72,0-1.27-.11-1.94a8.93,8.93,0,0,0-.38-1.84,3.57,3.57,0,0,0-.79-1.35,1.79,1.79,0,0,0-1.34-.53,3,3,0,0,0-1.4,1.32,8.53,8.53,0,0,0-.9,2.25,17.71,17.71,0,0,0-.49,2.8c-.11,1-.17,2-.18,2.95a.28.28,0,0,0-.15,0h-.25a1,1,0,0,1-.25,0A.24.24,0,0,1,176.53,71.77Z"/></g></g></svg>