<svg xmlns="http://www.w3.org/2000/svg" viewBox="0 0 24.99 14.45"><defs><style>.cls-1{fill:#706468;}</style></defs><title>dropdownmenuicon</title><g id="Layer_2" data-name="Layer 2"><g id="vis"><path class="cls-1" d="M.07,0C1.25,1,2.35,2.16,3.44,3.28S5.58,5.55,6.58,6.76,8.49,9.24,9.5,10.43s2.1,2.31,3.2,3.42h-.41c1.94-2.43,4-4.77,6-7.07,1.05-1.14,2.14-2.24,3.22-3.35S23.76,1.25,24.92.21L25,.28C24.07,1.54,23.11,2.75,22.13,4s-2,2.39-3,3.55c-2.08,2.29-4.2,4.55-6.42,6.72l-.23.23-.18-.23c-1-1.23-2-2.43-3-3.58S7.05,8.43,6,7.31,3.86,5,2.86,3.79.9,1.36,0,.07Z"/></g></g></svg>