<svg xmlns="http://www.w3.org/2000/svg" viewBox="0 0 232.56 80"><defs><style>.cls-1,.cls-2{fill:#a7979c;}.cls-2{fill-rule:evenodd;}</style></defs><title>logo wdvp</title><g id="Layer_2" data-name="Layer 2"><g id="creditos"><path class="cls-1" d="M126,34.23c0-.43,0-.84,0-1.24,0,.39,0,.79,0,1.22"/><path class="cls-1" d="M115.35,10a25,25,0,1,0,25,25A25,25,0,0,0,115.35,10Zm0,47.78A22.62,22.62,0,1,1,138,35.14,22.61,22.61,0,0,1,115.35,57.75Z"/><path class="cls-1" d="M126,33a12.87,12.87,0,0,0-1.8-7.25c-2-3.36-5.86-3.82-7.19-3.82h-5.49V48.51h5.89a8.51,8.51,0,0,0,6.36-3.42c2.1-2.68,2.11-7.41,2.22-10.81C126,33.86,126.05,33.38,126,33Z"/><path class="cls-1" d="M115.35,14.32a20.82,20.82,0,1,0,20.82,20.82A20.82,20.82,0,0,0,115.35,14.32ZM126.76,46.1a13.84,13.84,0,0,1-9.33,3.45H102.06v-1h4.15V21.92h-4.15V20.71h15.37a12.84,12.84,0,0,1,7.77,2.13c2.62,1.78,6.38,5.8,6.65,11.09S130.48,42.91,126.76,46.1Z"/><path class="cls-2" d="M38.24,35.26h-.11c0,.41.07.83.07,1.25A11.66,11.66,0,0,1,26.55,48.16h-9.8V1h6.53V0H2V1H8.51V48.16H2v1H39.28V35.26Z"/><polygon class="cls-2" points="73.91 48.51 60.83 19.54 60.85 19.41 59.88 19.15 47.78 48.51 43.52 48.51 43.52 49.55 52.33 49.55 52.33 48.51 48.92 48.51 52.07 40.91 58.54 40.91 58.54 39.7 52.51 39.7 58.27 25.84 67.77 48.51 63.55 48.51 63.55 49.55 77.89 49.55 77.89 48.51 73.91 48.51"/><polygon class="cls-2" points="170.69 48.51 157.61 19.54 157.63 19.41 156.66 19.15 144.56 48.51 140.23 48.51 140.23 49.55 149.03 49.55 149.03 48.51 145.7 48.51 148.86 40.91 155.6 40.91 155.6 39.7 149.29 39.7 155.06 25.84 164.55 48.51 160.78 48.51 160.78 49.55 174.59 49.55 174.59 48.51 170.69 48.51"/><polygon class="cls-2" points="226.69 48.51 213.61 19.54 213.62 19.41 212.65 19.15 200.56 48.51 196.18 48.51 196.18 49.55 205.33 49.55 205.33 48.51 201.69 48.51 204.85 40.91 211.55 40.91 211.55 39.7 205.28 39.7 211.05 25.84 220.54 48.51 216.56 48.51 216.56 49.55 230.37 49.55 230.37 48.51 226.69 48.51"/><path class="cls-2" d="M199.43,26.42v0Z"/><path class="cls-2" d="M199.12,19.78v-.45H171v.52h0V26.4a6.55,6.55,0,0,1,4.08-5.86h7.31v28h-4.83v1h15.54v-1h-5.18v-28h7.64a6.11,6.11,0,0,1,3.59,5.86V19.78Z"/><path class="cls-2" d="M171.15,26.42h0v0Z"/><path class="cls-1" d="M5.9,78.66a.14.14,0,0,1,.09,0l.21.23a3.16,3.16,0,0,1-.51.45,3.47,3.47,0,0,1-.6.34,3.48,3.48,0,0,1-.71.21,4.57,4.57,0,0,1-.86.08,3.72,3.72,0,0,1-1.43-.27A3.11,3.11,0,0,1,1,79a3.39,3.39,0,0,1-.72-1.21A4.57,4.57,0,0,1,0,76.17a4.33,4.33,0,0,1,.27-1.56A3.64,3.64,0,0,1,1,73.4a3.21,3.21,0,0,1,1.16-.78,3.8,3.8,0,0,1,1.49-.28,4.38,4.38,0,0,1,.75.06,4.16,4.16,0,0,1,.63.17,2.62,2.62,0,0,1,.55.29,3.64,3.64,0,0,1,.51.39L6,73.49a.17.17,0,0,1-.14.06.28.28,0,0,1-.12,0l-.19-.14a1.58,1.58,0,0,0-.27-.18A1.91,1.91,0,0,0,4.85,73a3,3,0,0,0-.52-.14,3.23,3.23,0,0,0-.66-.06A3.17,3.17,0,0,0,2.42,73a2.84,2.84,0,0,0-1,.67,3.13,3.13,0,0,0-.64,1.06,3.88,3.88,0,0,0-.23,1.4,4.19,4.19,0,0,0,.22,1.42,3.25,3.25,0,0,0,.64,1,2.59,2.59,0,0,0,.94.66,3,3,0,0,0,1.19.23,3.94,3.94,0,0,0,.72,0,2.6,2.6,0,0,0,.58-.16,2.09,2.09,0,0,0,.49-.26,3,3,0,0,0,.45-.36l0,0Z"/><path class="cls-1" d="M16.71,76.17a4.57,4.57,0,0,1-.26,1.57A3.66,3.66,0,0,1,15.72,79a3.39,3.39,0,0,1-1.13.77,3.83,3.83,0,0,1-1.46.27,3.7,3.7,0,0,1-1.44-.27A3.2,3.2,0,0,1,10.56,79a3.5,3.5,0,0,1-.73-1.21,4.7,4.7,0,0,1,0-3.14,3.5,3.5,0,0,1,.73-1.21,3.36,3.36,0,0,1,1.13-.78,3.7,3.7,0,0,1,1.44-.27,3.83,3.83,0,0,1,1.46.27,3.27,3.27,0,0,1,1.13.78,3.66,3.66,0,0,1,.73,1.21A4.57,4.57,0,0,1,16.71,76.17Zm-.57,0a4.36,4.36,0,0,0-.21-1.41,3.14,3.14,0,0,0-.61-1.06,2.73,2.73,0,0,0-1-.67,3.38,3.38,0,0,0-2.45,0,2.78,2.78,0,0,0-.95.67,3,3,0,0,0-.62,1.06,4.09,4.09,0,0,0-.22,1.41,4.17,4.17,0,0,0,.22,1.41,3,3,0,0,0,.62,1,2.78,2.78,0,0,0,.95.67,3.52,3.52,0,0,0,2.45,0,2.73,2.73,0,0,0,1-.67,3.19,3.19,0,0,0,.61-1A4.44,4.44,0,0,0,16.14,76.17Z"/><path class="cls-1" d="M21,72.44a.22.22,0,0,1,.09.08L25.91,79c0-.11,0-.21,0-.31V72.42h.48v7.5h-.26a.24.24,0,0,1-.2-.11L21,73.31c0,.1,0,.2,0,.3v6.31h-.47v-7.5h.26Z"/><path class="cls-1" d="M35.6,72.42v.46H33v7h-.54v-7H29.78v-.46Z"/><path class="cls-1" d="M44.05,79.92h-.42a.21.21,0,0,1-.12,0,.28.28,0,0,1-.08-.11l-.88-2.17H38.87L38,79.77a.23.23,0,0,1-.07.1.21.21,0,0,1-.13,0h-.41l3.06-7.5H41Zm-5-2.73h3.35l-1.53-3.78c0-.06,0-.13-.07-.21s0-.15-.08-.24c0,.09-.05.17-.07.24s0,.15-.08.21Z"/><path class="cls-1" d="M51.09,78.05a1.22,1.22,0,0,1,.07-.17,1,1,0,0,1,.07-.15l3-5.21a.15.15,0,0,1,.08-.08l.12,0h.37v7.5h-.47V73.53c0-.09,0-.19,0-.29l-2.95,5.23a.21.21,0,0,1-.21.14h-.08a.22.22,0,0,1-.21-.14l-3-5.24c0,.11,0,.2,0,.3v6.39h-.47v-7.5h.37l.12,0a.22.22,0,0,1,.09.08l3,5.21A3.09,3.09,0,0,1,51.09,78.05Z"/><path class="cls-1" d="M65.78,76.17a4.57,4.57,0,0,1-.26,1.57A3.66,3.66,0,0,1,64.79,79a3.29,3.29,0,0,1-1.13.77,4,4,0,0,1-2.9,0A3.2,3.2,0,0,1,59.63,79a3.5,3.5,0,0,1-.73-1.21,4.7,4.7,0,0,1,0-3.14,3.5,3.5,0,0,1,.73-1.21,3.36,3.36,0,0,1,1.13-.78,4,4,0,0,1,2.9,0,3.18,3.18,0,0,1,1.13.78,3.66,3.66,0,0,1,.73,1.21A4.57,4.57,0,0,1,65.78,76.17Zm-.56,0A4.09,4.09,0,0,0,65,74.76a3.14,3.14,0,0,0-.61-1.06,2.78,2.78,0,0,0-1-.67A3.4,3.4,0,0,0,61,73a2.78,2.78,0,0,0-.95.67,3,3,0,0,0-.62,1.06,4.35,4.35,0,0,0-.22,1.41,4.44,4.44,0,0,0,.22,1.41,3,3,0,0,0,.62,1,2.78,2.78,0,0,0,.95.67,3.23,3.23,0,0,0,1.22.22,3.26,3.26,0,0,0,1.24-.22,2.78,2.78,0,0,0,1-.67,3.19,3.19,0,0,0,.61-1A4.17,4.17,0,0,0,65.22,76.17Z"/><path class="cls-1" d="M73.29,73.33a.16.16,0,0,1-.14.09.3.3,0,0,1-.18-.09,1.67,1.67,0,0,0-.3-.22,2.48,2.48,0,0,0-.46-.22,2,2,0,0,0-.69-.1,2.27,2.27,0,0,0-.72.11,1.69,1.69,0,0,0-.52.32,1.51,1.51,0,0,0-.32.47,1.46,1.46,0,0,0-.11.55,1.09,1.09,0,0,0,.17.63,1.43,1.43,0,0,0,.42.43,3.34,3.34,0,0,0,.6.29l.7.24.69.25a3,3,0,0,1,.6.36,1.56,1.56,0,0,1,.43.52,1.6,1.6,0,0,1,.16.77,2.42,2.42,0,0,1-.16.89,2.3,2.3,0,0,1-.47.72,2.41,2.41,0,0,1-.75.48,2.73,2.73,0,0,1-1,.18,3,3,0,0,1-1.28-.26A3.1,3.1,0,0,1,69,79l.15-.23a.16.16,0,0,1,.14-.08.24.24,0,0,1,.13.06,1.64,1.64,0,0,0,.18.16l.25.2a1.9,1.9,0,0,0,.35.2,3.33,3.33,0,0,0,.45.16,2.49,2.49,0,0,0,.57.06,2.2,2.2,0,0,0,.8-.14,1.83,1.83,0,0,0,.59-.36,1.66,1.66,0,0,0,.37-.56,1.91,1.91,0,0,0,.12-.68,1.2,1.2,0,0,0-.16-.66,1.43,1.43,0,0,0-.42-.43,2.76,2.76,0,0,0-.6-.28l-.7-.23L70.54,76a2.55,2.55,0,0,1-.6-.35,1.63,1.63,0,0,1-.43-.54,1.73,1.73,0,0,1-.16-.8,2,2,0,0,1,.14-.72,1.89,1.89,0,0,1,.42-.62,2.13,2.13,0,0,1,.68-.43,2.49,2.49,0,0,1,.93-.16,2.89,2.89,0,0,1,1,.18,2.61,2.61,0,0,1,.84.57Z"/><path class="cls-1" d="M87.25,79.92h-.54V76.33H82v3.59h-.55v-7.5H82v3.5h4.69v-3.5h.54Z"/><path class="cls-1" d="M92.34,79.92h-.55v-7.5h.55Z"/><path class="cls-1" d="M100.51,73.33a.16.16,0,0,1-.14.09.3.3,0,0,1-.18-.09,2,2,0,0,0-.29-.22,2.6,2.6,0,0,0-.47-.22,1.94,1.94,0,0,0-.69-.1,2.27,2.27,0,0,0-.72.11,1.69,1.69,0,0,0-.52.32,1.33,1.33,0,0,0-.31.47,1.3,1.3,0,0,0-.12.55,1.09,1.09,0,0,0,.17.63,1.43,1.43,0,0,0,.42.43,3.14,3.14,0,0,0,.61.29l.69.24.69.25a3,3,0,0,1,.6.36,1.56,1.56,0,0,1,.43.52,1.6,1.6,0,0,1,.16.77,2.42,2.42,0,0,1-.16.89,2.08,2.08,0,0,1-1.22,1.2,2.73,2.73,0,0,1-1,.18,2.9,2.9,0,0,1-1.27-.26,3.14,3.14,0,0,1-.94-.72l.15-.23a.17.17,0,0,1,.15-.08.22.22,0,0,1,.12.06l.18.16.25.2a2.3,2.3,0,0,0,.35.2,3.33,3.33,0,0,0,.45.16,2.49,2.49,0,0,0,.57.06,2.2,2.2,0,0,0,.8-.14,1.83,1.83,0,0,0,.59-.36,1.52,1.52,0,0,0,.37-.56,1.91,1.91,0,0,0,.13-.68,1.29,1.29,0,0,0-.16-.66,1.47,1.47,0,0,0-.43-.43,2.76,2.76,0,0,0-.6-.28l-.7-.23L97.76,76a2.55,2.55,0,0,1-.6-.35,1.61,1.61,0,0,1-.42-.54,1.72,1.72,0,0,1-.17-.8,1.79,1.79,0,0,1,.15-.72,1.72,1.72,0,0,1,.41-.62,2.18,2.18,0,0,1,.69-.43,2.4,2.4,0,0,1,.92-.16,2.89,2.89,0,0,1,1.05.18,2.61,2.61,0,0,1,.84.57Z"/><path class="cls-1" d="M109.42,72.42v.46h-2.63v7h-.54v-7H103.6v-.46Z"/><path class="cls-1" d="M118.89,76.17a4.57,4.57,0,0,1-.26,1.57,3.52,3.52,0,0,1-.74,1.21,3.16,3.16,0,0,1-1.12.77,3.8,3.8,0,0,1-1.46.27,3.73,3.73,0,0,1-1.44-.27,3.2,3.2,0,0,1-1.13-.77,3.35,3.35,0,0,1-.73-1.21,4.7,4.7,0,0,1,0-3.14,3.31,3.31,0,0,1,1.86-2,3.73,3.73,0,0,1,1.44-.27,3.8,3.8,0,0,1,1.46.27,3.06,3.06,0,0,1,1.12.78,3.52,3.52,0,0,1,.74,1.21A4.57,4.57,0,0,1,118.89,76.17Zm-.56,0a4.35,4.35,0,0,0-.22-1.41,3.14,3.14,0,0,0-.61-1.06,2.78,2.78,0,0,0-1-.67,3.3,3.3,0,0,0-1.24-.23,3.23,3.23,0,0,0-1.22.23,2.69,2.69,0,0,0-1,.67,3,3,0,0,0-.62,1.06,4.09,4.09,0,0,0-.22,1.41,4.17,4.17,0,0,0,.22,1.41,3,3,0,0,0,.62,1,2.69,2.69,0,0,0,1,.67,3.23,3.23,0,0,0,1.22.22,3.3,3.3,0,0,0,1.24-.22,2.78,2.78,0,0,0,1-.67,3.19,3.19,0,0,0,.61-1A4.44,4.44,0,0,0,118.33,76.17Z"/><path class="cls-1" d="M123.47,76.53v3.39h-.54v-7.5h1.91a3.11,3.11,0,0,1,1.93.5,1.77,1.77,0,0,1,.65,1.47,2,2,0,0,1-.15.79,1.87,1.87,0,0,1-.43.62,2.29,2.29,0,0,1-.67.44,2.91,2.91,0,0,1-.88.22,1.51,1.51,0,0,1,.23.21l2.57,3.25h-.47a.33.33,0,0,1-.14,0,.35.35,0,0,1-.12-.1l-2.4-3a.73.73,0,0,0-.19-.17.89.89,0,0,0-.32,0Zm0-.41h1.3a3,3,0,0,0,.89-.12,1.77,1.77,0,0,0,.67-.34,1.33,1.33,0,0,0,.41-.53,1.61,1.61,0,0,0,.15-.71,1.37,1.37,0,0,0-.53-1.18,2.53,2.53,0,0,0-1.52-.39h-1.37Z"/><path class="cls-1" d="M132.31,79.92h-.55v-7.5h.55Z"/><path class="cls-1" d="M142.49,79.92h-.42a.21.21,0,0,1-.12,0,.44.44,0,0,1-.08-.11L141,77.6h-3.68l-.88,2.17a.23.23,0,0,1-.07.1.21.21,0,0,1-.13,0h-.41l3.06-7.5h.54Zm-5-2.73h3.36l-1.53-3.78c0-.06-.05-.13-.07-.21s0-.15-.08-.24a1.37,1.37,0,0,1-.07.24l-.07.21Z"/><path class="cls-1" d="M149.42,73.33a.15.15,0,0,1-.14.09.36.36,0,0,1-.18-.09,2,2,0,0,0-.29-.22,2.31,2.31,0,0,0-.47-.22,1.91,1.91,0,0,0-.68-.1,2.18,2.18,0,0,0-.72.11,1.58,1.58,0,0,0-.52.32,1.36,1.36,0,0,0-.32.47,1.46,1.46,0,0,0-.11.55,1.09,1.09,0,0,0,.16.63,1.47,1.47,0,0,0,.43.43,2.79,2.79,0,0,0,.6.29l.69.24c.24.08.47.16.69.25a2.51,2.51,0,0,1,.6.36,1.56,1.56,0,0,1,.43.52,1.6,1.6,0,0,1,.16.77,2.42,2.42,0,0,1-.16.89,2,2,0,0,1-.47.72,2.2,2.2,0,0,1-.75.48,2.69,2.69,0,0,1-1,.18,2.9,2.9,0,0,1-1.27-.26,3.14,3.14,0,0,1-.94-.72l.15-.23a.17.17,0,0,1,.15-.08.22.22,0,0,1,.12.06l.18.16.25.2a2.3,2.3,0,0,0,.35.2,3.33,3.33,0,0,0,.45.16,2.52,2.52,0,0,0,.58.06,2.18,2.18,0,0,0,.79-.14,1.88,1.88,0,0,0,.6-.36,1.63,1.63,0,0,0,.36-.56,1.72,1.72,0,0,0,.13-.68,1.2,1.2,0,0,0-.16-.66,1.47,1.47,0,0,0-.43-.43,2.55,2.55,0,0,0-.6-.28l-.69-.23c-.24-.08-.47-.16-.69-.25a2.43,2.43,0,0,1-.61-.35,1.63,1.63,0,0,1-.58-1.34,1.78,1.78,0,0,1,.14-.72,1.63,1.63,0,0,1,.42-.62,2,2,0,0,1,.68-.43,2.45,2.45,0,0,1,.93-.16,2.87,2.87,0,0,1,1,.18,2.76,2.76,0,0,1,.85.57Z"/><path class="cls-1" d="M163.05,78.66a.14.14,0,0,1,.09,0l.21.23a3.65,3.65,0,0,1-.51.45,3.47,3.47,0,0,1-.6.34,3.68,3.68,0,0,1-.71.21,4.57,4.57,0,0,1-.86.08,3.63,3.63,0,0,1-1.42-.27,3.06,3.06,0,0,1-1.12-.78,3.54,3.54,0,0,1-.72-1.21,4.57,4.57,0,0,1-.26-1.57,4.33,4.33,0,0,1,.27-1.56,3.64,3.64,0,0,1,.75-1.21,3.21,3.21,0,0,1,1.16-.78,3.8,3.8,0,0,1,1.49-.28,4.38,4.38,0,0,1,.75.06,4.16,4.16,0,0,1,.63.17,2.62,2.62,0,0,1,.55.29,3.14,3.14,0,0,1,.51.39l-.16.24a.17.17,0,0,1-.14.06.28.28,0,0,1-.12,0l-.18-.14a2.27,2.27,0,0,0-.28-.18A1.68,1.68,0,0,0,162,73a3,3,0,0,0-.52-.14,3.47,3.47,0,0,0-1.91.18,2.84,2.84,0,0,0-1,.67,3,3,0,0,0-.64,1.06,3.88,3.88,0,0,0-.23,1.4,4.19,4.19,0,0,0,.22,1.42,3.41,3.41,0,0,0,.63,1,2.66,2.66,0,0,0,1,.66,2.89,2.89,0,0,0,1.18.23,3.94,3.94,0,0,0,.72,0,2.6,2.6,0,0,0,.58-.16,2.09,2.09,0,0,0,.49-.26,2.54,2.54,0,0,0,.45-.36l.06,0Z"/><path class="cls-1" d="M173.86,76.17a4.57,4.57,0,0,1-.26,1.57,3.52,3.52,0,0,1-.74,1.21,3.16,3.16,0,0,1-1.12.77,3.8,3.8,0,0,1-1.46.27,3.73,3.73,0,0,1-1.44-.27,3.2,3.2,0,0,1-1.13-.77,3.35,3.35,0,0,1-.73-1.21,4.7,4.7,0,0,1,0-3.14,3.31,3.31,0,0,1,1.86-2,3.73,3.73,0,0,1,1.44-.27,3.8,3.8,0,0,1,1.46.27,3.06,3.06,0,0,1,1.12.78,3.52,3.52,0,0,1,.74,1.21A4.57,4.57,0,0,1,173.86,76.17Zm-.56,0a4.35,4.35,0,0,0-.22-1.41,3,3,0,0,0-.62-1.06,2.65,2.65,0,0,0-.94-.67,3.3,3.3,0,0,0-1.24-.23,3.23,3.23,0,0,0-1.22.23,2.69,2.69,0,0,0-.95.67,2.86,2.86,0,0,0-.62,1.06,4.09,4.09,0,0,0-.22,1.41,4.17,4.17,0,0,0,.22,1.41,2.9,2.9,0,0,0,.62,1,2.69,2.69,0,0,0,.95.67,3.23,3.23,0,0,0,1.22.22,3.3,3.3,0,0,0,1.24-.22,2.65,2.65,0,0,0,.94-.67,3,3,0,0,0,.62-1A4.44,4.44,0,0,0,173.3,76.17Z"/><path class="cls-1" d="M178.12,72.44a.22.22,0,0,1,.09.08l4.85,6.5c0-.11,0-.21,0-.31V72.42h.48v7.5h-.26a.24.24,0,0,1-.2-.11l-4.87-6.5c0,.1,0,.2,0,.3v6.31h-.47v-7.5H178Z"/><path class="cls-1" d="M198.33,76.17a4.48,4.48,0,0,1-.26,1.56,3.46,3.46,0,0,1-.73,1.18,3.38,3.38,0,0,1-1.13.75,4,4,0,0,1-1.45.26H192v-7.5h2.74a4,4,0,0,1,1.45.26,3.24,3.24,0,0,1,1.13.75,3.36,3.36,0,0,1,.73,1.18A4.48,4.48,0,0,1,198.33,76.17Zm-.56,0a4,4,0,0,0-.22-1.4,2.89,2.89,0,0,0-.61-1,2.64,2.64,0,0,0-.95-.65,3.45,3.45,0,0,0-1.23-.22h-2.19v6.62h2.19a3.25,3.25,0,0,0,1.23-.23,2.62,2.62,0,0,0,.95-.64,3,3,0,0,0,.61-1A4.07,4.07,0,0,0,197.77,76.17Z"/><path class="cls-1" d="M207.67,79.92h-.42a.21.21,0,0,1-.12,0,.26.26,0,0,1-.07-.11l-.89-2.17h-3.68l-.88,2.17a.23.23,0,0,1-.07.1.21.21,0,0,1-.13,0H201l3.06-7.5h.54Zm-5-2.73H206l-1.53-3.78c0-.06,0-.13-.07-.21s0-.15-.08-.24c0,.09-.05.17-.07.24s0,.15-.07.21Z"/><path class="cls-1" d="M215.26,72.42v.46h-2.64v7h-.53v-7h-2.65v-.46Z"/><path class="cls-1" d="M224.72,76.17a4.57,4.57,0,0,1-.26,1.57,3.5,3.5,0,0,1-.73,1.21,3.29,3.29,0,0,1-1.13.77,3.8,3.8,0,0,1-1.46.27,3.73,3.73,0,0,1-1.44-.27,3.2,3.2,0,0,1-1.13-.77,3.5,3.5,0,0,1-.73-1.21,4.7,4.7,0,0,1,0-3.14,3.5,3.5,0,0,1,.73-1.21,3.36,3.36,0,0,1,1.13-.78,3.73,3.73,0,0,1,1.44-.27,3.8,3.8,0,0,1,1.46.27,3.18,3.18,0,0,1,1.13.78,3.5,3.5,0,0,1,.73,1.21A4.57,4.57,0,0,1,224.72,76.17Zm-.56,0a4.35,4.35,0,0,0-.22-1.41,3.14,3.14,0,0,0-.61-1.06,2.78,2.78,0,0,0-1-.67,3.3,3.3,0,0,0-1.24-.23,3.23,3.23,0,0,0-1.22.23,2.78,2.78,0,0,0-.95.67,3,3,0,0,0-.62,1.06,4.09,4.09,0,0,0-.22,1.41,4.17,4.17,0,0,0,.22,1.41,3,3,0,0,0,.62,1,2.78,2.78,0,0,0,.95.67,3.23,3.23,0,0,0,1.22.22,3.3,3.3,0,0,0,1.24-.22,2.78,2.78,0,0,0,1-.67,3.19,3.19,0,0,0,.61-1A4.44,4.44,0,0,0,224.16,76.17Z"/><path class="cls-1" d="M232.22,73.33a.14.14,0,0,1-.13.09.3.3,0,0,1-.18-.09,1.67,1.67,0,0,0-.3-.22,2.2,2.2,0,0,0-.46-.22,2,2,0,0,0-.69-.1,2.27,2.27,0,0,0-.72.11,1.58,1.58,0,0,0-.52.32,1.51,1.51,0,0,0-.32.47,1.46,1.46,0,0,0-.11.55,1.09,1.09,0,0,0,.17.63,1.32,1.32,0,0,0,.42.43,3.34,3.34,0,0,0,.6.29l.7.24.69.25a3,3,0,0,1,.6.36,1.56,1.56,0,0,1,.43.52,1.72,1.72,0,0,1,.16.77,2.42,2.42,0,0,1-.16.89,2.3,2.3,0,0,1-.47.72,2.41,2.41,0,0,1-.75.48,2.73,2.73,0,0,1-1,.18,3,3,0,0,1-1.28-.26A3.1,3.1,0,0,1,228,79l.14-.23a.19.19,0,0,1,.15-.08.17.17,0,0,1,.12.06l.18.16.26.2a2.18,2.18,0,0,0,.34.2,3.9,3.9,0,0,0,.45.16,2.65,2.65,0,0,0,.58.06,2.2,2.2,0,0,0,.8-.14,1.83,1.83,0,0,0,.59-.36,1.66,1.66,0,0,0,.37-.56,1.91,1.91,0,0,0,.13-.68,1.2,1.2,0,0,0-.17-.66,1.43,1.43,0,0,0-.42-.43,2.76,2.76,0,0,0-.6-.28l-.7-.23-.69-.25a2.55,2.55,0,0,1-.6-.35,1.63,1.63,0,0,1-.43-.54,1.73,1.73,0,0,1-.16-.8,2,2,0,0,1,.14-.72,1.89,1.89,0,0,1,.42-.62,2.13,2.13,0,0,1,.68-.43,2.45,2.45,0,0,1,.93-.16,2.89,2.89,0,0,1,1,.18,2.72,2.72,0,0,1,.84.57Z"/></g></g></svg>