<svg xmlns="http://www.w3.org/2000/svg" viewBox="0 0 246.03 433.15"><defs><style>.cls-1{fill:#5f7dfa;}.cls-2,.cls-7{font-size:12px;fill:#7d717a;font-family:Lato-Regular, Lato;}.cls-2{letter-spacing:0.05em;}.cls-3{fill:#7aef7e;}.cls-4{fill:#53edff;}.cls-5{letter-spacing:0.03em;}.cls-6{fill:#8ba2ff;}.cls-7{letter-spacing:0.03em;}.cls-8{letter-spacing:0.05em;}.cls-9{fill:#eb45aa;}.cls-10{letter-spacing:0.04em;}.cls-11{letter-spacing:0.05em;}.cls-12{fill:#fff492;}.cls-13{fill:#f3c8d7;}.cls-14{fill:#fda579;}.cls-15{fill:#d275ff;}.cls-16{fill:#b59e99;}.cls-17{letter-spacing:0.03em;}.cls-18{fill:#e4e4e4;}.cls-19{fill:#f6f6f6;}.cls-20{font-size:18px;fill:#7d7571;font-family:AnnieUseYourTelescope-Regular, Annie Use Your Telescope;letter-spacing:0.05em;}</style></defs><title>nomenclatura</title><g id="Layer_2" data-name="Layer 2"><g id="vis"><circle class="cls-1" cx="10" cy="44.52" r="10"/><text class="cls-2" transform="translate(24 47.95)">North America and ANZ</text><circle class="cls-3" cx="10" cy="75.52" r="10"/><text class="cls-2" transform="translate(24 78.95)">Latin America and Caribbean</text><circle class="cls-4" cx="10" cy="105.52" r="10"/><text class="cls-2" transform="translate(24 108.95)">Cent<tspan class="cls-5" x="28.06" y="0">r</tspan><tspan x="33.26" y="0">al and Eastern Europe</tspan></text><circle class="cls-6" cx="10" cy="136.52" r="10"/><text class="cls-7" transform="translate(24 139.95)">W<tspan class="cls-8" x="12.63" y="0">estern Europe</tspan></text><circle class="cls-9" cx="10" cy="166.54" r="10"/><text class="cls-2" transform="translate(24 170.1)">Commo<tspan class="cls-10" x="44.27" y="0">n</tspan><tspan class="cls-11" x="51.44" y="0">wealth of Independent States</tspan></text><circle class="cls-12" cx="10" cy="196.61" r="10"/><text class="cls-2" transform="translate(24 200.04)">East Asia</text><circle class="cls-13" cx="10" cy="227.61" r="10"/><text class="cls-2" transform="translate(24 231.04)">South Asia</text><circle class="cls-14" cx="10" cy="257.61" r="10"/><text class="cls-2" transform="translate(24 261.04)">Southeast Asia</text><circle class="cls-15" cx="10" cy="288.61" r="10"/><text class="cls-2" transform="translate(24 292.04)">Middle East and North Africa</text><circle class="cls-16" cx="10" cy="318.69" r="10"/><text class="cls-2" transform="translate(24 322.12)">Sub-Saha<tspan class="cls-17" x="53.9" y="0">r</tspan><tspan x="59.11" y="0">a Africa</tspan></text><rect class="cls-18" x="1.13" y="355.87" width="192.28" height="77.29" rx="10"/><circle class="cls-19" cx="35.2" cy="382.91" r="15.01"/><circle class="cls-19" cx="118.25" cy="387.92" r="10"/><circle class="cls-19" cx="138.97" cy="390.21" r="7.7"/><circle class="cls-19" cx="156.03" cy="391.56" r="6.35"/><circle class="cls-19" cx="66.38" cy="384.75" r="13.16"/><circle class="cls-19" cx="169.87" cy="393.44" r="4.48"/><circle class="cls-19" cx="93.9" cy="386.57" r="11.35"/><text class="cls-20" transform="translate(50.88 419.17)">Civil Liberties</text><text class="cls-2" transform="translate(31.73 396.32)">7</text><text class="cls-2" transform="translate(62.9 396.32)">6</text><text class="cls-2" transform="translate(90.42 396.32)">5</text><text class="cls-2" transform="translate(114.77 396.32)">4</text><text class="cls-2" transform="translate(135.49 396.32)">3</text><text class="cls-2" transform="translate(152.55 396.32)">2</text><text class="cls-2" transform="translate(166.39 396.32)">1</text><text class="cls-20" transform="translate(35.74 15.42)">Territorial Regions</text></g></g></svg>