<svg xmlns="http://www.w3.org/2000/svg" viewBox="0 0 1192 743">
  <defs>
    <style>
      .cls-1 {
        fill: #ccdad6;
        font-size: 32px;
        font-family: AbrilFatface-Regular, Abril Fatface;
      }

      .cls-2 {
        font-family: OpenSans-Light, Open Sans;
        font-weight: 300;
      }

      .cls-3 {
        fill: #80cfff;
      }

      .cls-4 {
        fill: #5cb9f4;
      }

      .cls-5 {
        fill: #8cbbb8;
      }

      .cls-6 {
        fill: #5dbbb3;
      }

      .cls-7 {
        fill: #6dd99a;
      }

      .cls-8 {
        fill: #8fadbf;
      }

      .cls-9 {
        fill: #a3d9b9;
      }

      .cls-10 {
        fill: #67e89c;
      }

      .cls-11 {
        fill: #7aa28b;
      }

      .cls-12 {
        fill: #00bbad;
      }

      .cls-13 {
        fill: #bfe7ff;
      }

      .cls-14, .cls-15 {
        fill: #010c15;
        font-size: 18px;
        font-family: OpenSans-Semibold, Open Sans;
        font-weight: 600;
        opacity: 0.704;
      }

      .cls-15 {
        letter-spacing: -0.015em;
      }
    </style>
  </defs>
  <g id="Group_5" data-name="Group 5" transform="translate(-364 -169)">
    <text id="Derechos_que_se_ven_amenazados_cuando_las_mujeres_no_tienen_todo_el_acceso_al_aborto_legal" data-name="Derechos que se ven amenazados cuando las mujeres no tienen todo el acceso al aborto legal" class="cls-1" transform="translate(364 252)"><tspan x="55.28" y="34">Derechos </tspan><tspan class="cls-2" y="34">que se ven </tspan><tspan x="33.513" y="77">amenazados </tspan><tspan class="cls-2" y="77">cuando las </tspan><tspan class="cls-2" x="20.516" y="120">mujeres no tienen todo el </tspan><tspan class="cls-2" x="50.453" y="163">acceso al aborto legal</tspan></text>
    <g id="Group_4" data-name="Group 4">
      <circle id="Ellipse_2" data-name="Ellipse 2" class="cls-3" cx="96" cy="96" r="96" transform="translate(812 169)"/>
      <circle id="Ellipse_3" data-name="Ellipse 3" class="cls-4" cx="96" cy="96" r="96" transform="translate(1004 508)"/>
      <circle id="Ellipse_4" data-name="Ellipse 4" class="cls-5" cx="96" cy="96" r="96" transform="translate(1364 466)"/>
      <circle id="Ellipse_5" data-name="Ellipse 5" class="cls-6" cx="96" cy="96" r="96" transform="translate(772 380)"/>
      <circle id="Ellipse_7" data-name="Ellipse 7" class="cls-7" cx="96" cy="96" r="96" transform="translate(1196 604)"/>
      <circle id="Ellipse_8" data-name="Ellipse 8" class="cls-8" cx="96" cy="96" r="96" transform="translate(972 720)"/>
      <circle id="Ellipse_9" data-name="Ellipse 9" class="cls-9" cx="96" cy="96" r="96" transform="translate(793 589)"/>
      <circle id="Ellipse_10" data-name="Ellipse 10" class="cls-10" cx="96" cy="96" r="96" transform="translate(1147 169)"/>
      <circle id="Ellipse_11" data-name="Ellipse 11" class="cls-11" cx="96" cy="96" r="96" transform="translate(1164 380)"/>
      <circle id="Ellipse_12" data-name="Ellipse 12" class="cls-12" cx="96" cy="96" r="96" transform="translate(580 508)"/>
      <circle id="Ellipse_6" data-name="Ellipse 6" class="cls-13" cx="96" cy="96" r="96" transform="translate(972 296)"/>
      <text id="Derecho_a_la_vida" data-name="Derecho 
a la vida" class="cls-14" transform="translate(908 260)"><tspan x="-38.681" y="0">Derecho </tspan><tspan x="-35.78" y="24">a la vida</tspan></text>
      <text id="Derecho_a_la_salud_y_a_la_atención_médica" data-name="Derecho 
a la salud y
a la atención
médica" class="cls-14" transform="translate(1100 575)"><tspan x="-38.681" y="0">Derecho </tspan><tspan x="-48.221" y="24">a la salud y</tspan><tspan x="-55.459" y="48">a la atención</tspan><tspan x="-31.583" y="72">médica</tspan></text>
      <text id="Derecho_a_la_seguridad_personal" data-name="Derecho 
a la seguridad
personal" class="cls-14" transform="translate(1068 799)"><tspan x="-38.681" y="0">Derecho </tspan><tspan x="-60.737" y="24">a la seguridad</tspan><tspan x="-37.995" y="48">personal</tspan></text>
      <text id="Derecho_a_la_libertad" data-name="Derecho 
a la libertad" class="cls-14" transform="translate(1292 695)"><tspan x="-38.681" y="0">Derecho </tspan><tspan x="-51.684" y="24">a la libertad</tspan></text>
      <text id="Derecho_a_la_privacidad" data-name="Derecho 
a la privacidad" class="cls-14" transform="translate(1260 471)"><tspan x="-38.681" y="0">Derecho </tspan><tspan x="-63.062" y="24">a la privacidad</tspan></text>
      <text id="Derecho_a_la_información" data-name="Derecho a
la información" class="cls-14" transform="translate(676 599)"><tspan x="-43.901" y="0">Derecho a</tspan><tspan x="-62.934" y="24">la información</tspan></text>
      <text id="Derecho_a_no_ser_sometida_al_trato_cruel_inhumano_y_degradante" data-name="Derecho a
no ser sometida
al trato cruel,
inhumano y
degradante" class="cls-15" transform="translate(889 644)"><tspan x="-42.821" y="0">Derecho a</tspan><tspan x="-67.987" y="24">no ser sometida</tspan><tspan x="-56.157" y="48">al trato cruel,</tspan><tspan x="-50.632" y="72">inhumano y</tspan><tspan x="-48.768" y="96">degradante</tspan></text>
      <text id="Derecho_a_decidir_el_número_de_hijos_e_intervalo_entre_los_nacimientos" data-name="Derecho a
decidir el número
de hijos e intervalo
entre los
nacimientos" class="cls-15" transform="translate(1243 224)"><tspan x="-42.821" y="0">Derecho a</tspan><tspan x="-74.38" y="24">decidir el número</tspan><tspan x="-79.907" y="48">de hijos e intervalo</tspan><tspan x="-36.968" y="72">entre los</tspan><tspan x="-51.978" y="96">nacimientos</tspan></text>
      <text id="Derecho_a_la_no_discriminación_y_a_la_igualdad" data-name="Derecho
a la no
discriminación
y a la
igualdad" class="cls-14" transform="translate(868 435)"><tspan x="-36.343" y="0">Derecho</tspan><tspan x="-28.837" y="24">a la no</tspan><tspan x="-63.567" y="48">discriminación</tspan><tspan x="-22.452" y="72">y a la</tspan><tspan x="-37.393" y="96">igualdad</tspan></text>
      <text id="Derecho_a_la_libertad_religiosa_y_de_conciencia" data-name="Derecho
a la libertad
religiosa y de
conciencia" class="cls-14" transform="translate(1068 363)"><tspan x="-36.343" y="0">Derecho</tspan><tspan x="-51.684" y="24">a la libertad</tspan><tspan x="-56.813" y="48">religiosa y de</tspan><tspan x="-45.716" y="72">conciencia</tspan></text>
      <text id="Derecho_a_gozar_de_los_beneficios_del_progreso_científico" data-name="Derecho
a gozar de
los beneficios
del progreso
científico" class="cls-14" transform="translate(1460 521)"><tspan x="-36.343" y="0">Derecho</tspan><tspan x="-44.508" y="24">a gozar de</tspan><tspan x="-59.041" y="48">los beneficios</tspan><tspan x="-54.215" y="72">del progreso</tspan><tspan x="-39.643" y="96">científico</tspan></text>
    </g>
  </g>
</svg>
