<?xml version="1.0" encoding="utf-8"?>
<!-- Generator: Adobe Illustrator 22.1.0, SVG Export Plug-In . SVG Version: 6.00 Build 0)  -->
<svg version="1.1" id="Capa_1" xmlns="http://www.w3.org/2000/svg" xmlns:xlink="http://www.w3.org/1999/xlink" x="0px" y="0px"
	 viewBox="0 0 360 55" style="enable-background:new 0 0 360 55;" xml:space="preserve">
<style type="text/css">
	.st0{fill:#3B3530;}
	.st1{enable-background:new    ;}
	.st2{fill:#EF8D39;}
	.st3{fill:#F3A96A;}
	.st4{fill:#F3D3B7;}
	.st5{fill:#EBB688;}
	.st6{fill:#FBF0E7;}
	.st7{fill:#EFC4A0;}
	.st8{fill:#EB832A;}
	.st9{fill:#F3B57F;}
	.st10{fill:#EF9C54;}
	.st11{fill:#F7E2CF;}
	.st12{fill:#F7C69C;}
	.st13{fill:#DD6B36;}
</style>
<g id="Group_133" transform="translate(0 -725)">
	<rect id="Rectangle_1471" y="725" class="st0" width="360" height="55"/>
	<g id="Group_65" transform="translate(34 140)">
		<g class="st1">
			<path class="st2" d="M55,603.5c0,0.5-0.1,0.8-0.2,1.2c-0.1,0.3-0.3,0.6-0.5,0.8c-0.2,0.2-0.4,0.3-0.7,0.4
				c-0.3,0.1-0.6,0.1-0.9,0.1c-0.3,0-0.7,0-1-0.1v-4.8c0.3-0.1,0.7-0.1,1-0.1c0.3,0,0.6,0,0.9,0.1c0.3,0.1,0.5,0.2,0.7,0.4
				c0.2,0.2,0.4,0.5,0.5,0.8C54.9,602.7,55,603.1,55,603.5z M52.4,605.4c0.1,0,0.3,0,0.4,0c0.2,0,0.5,0,0.6-0.1
				c0.2-0.1,0.3-0.2,0.5-0.3c0.1-0.2,0.2-0.4,0.3-0.6s0.1-0.5,0.1-0.9c0-0.7-0.1-1.2-0.4-1.5c-0.3-0.3-0.6-0.5-1.1-0.5
				c-0.1,0-0.1,0-0.2,0c-0.1,0-0.1,0-0.2,0V605.4z"/>
			<path class="st2" d="M57.4,602.2c0.5,0,0.9,0.2,1.2,0.5c0.3,0.3,0.4,0.8,0.4,1.4v0.2h-2.7c0,0.4,0.2,0.7,0.4,0.9
				c0.2,0.2,0.5,0.3,1,0.3c0.2,0,0.4,0,0.6-0.1c0.2,0,0.3-0.1,0.4-0.1l0.1,0.6c-0.1,0-0.2,0.1-0.4,0.1c-0.2,0-0.4,0.1-0.7,0.1
				c-0.3,0-0.6,0-0.8-0.1s-0.4-0.2-0.6-0.4c-0.2-0.2-0.3-0.4-0.4-0.6s-0.1-0.5-0.1-0.8c0-0.3,0.1-0.6,0.2-0.9
				c0.1-0.2,0.2-0.4,0.4-0.6c0.2-0.2,0.4-0.3,0.6-0.4S57.2,602.2,57.4,602.2z M58.3,603.8c0-0.3-0.1-0.6-0.2-0.7
				c-0.2-0.2-0.4-0.3-0.7-0.3c-0.2,0-0.3,0-0.4,0.1c-0.1,0.1-0.2,0.1-0.3,0.2c-0.1,0.1-0.2,0.2-0.2,0.3c-0.1,0.1-0.1,0.2-0.1,0.4
				H58.3z"/>
			<path class="st2" d="M62,606.1c-0.2,0-0.4,0-0.6-0.1c-0.2-0.1-0.3-0.2-0.4-0.3s-0.2-0.3-0.2-0.5c0-0.2-0.1-0.4-0.1-0.7v-3.5h-1.1
				v-0.6h1.7v4.1c0,0.2,0,0.3,0,0.5c0,0.1,0.1,0.2,0.1,0.3c0.1,0.1,0.1,0.1,0.2,0.1s0.2,0,0.3,0c0.2,0,0.3,0,0.4-0.1
				c0.1,0,0.2-0.1,0.3-0.1l0.1,0.6c0,0-0.1,0-0.1,0.1c-0.1,0-0.1,0-0.2,0.1s-0.2,0-0.3,0.1C62.2,606.1,62.1,606.1,62,606.1z"/>
			<path class="st2" d="M64.8,602.8h-1.1v-0.6h1.7v2.3c0,0.4,0.1,0.6,0.2,0.7c0.1,0.1,0.3,0.2,0.5,0.2c0.2,0,0.3,0,0.4-0.1
				c0.1,0,0.2-0.1,0.3-0.1l0.1,0.6c0,0-0.1,0-0.1,0.1c-0.1,0-0.1,0-0.2,0.1c-0.1,0-0.2,0-0.3,0.1c-0.1,0-0.2,0-0.3,0
				c-0.2,0-0.4,0-0.6-0.1c-0.2-0.1-0.3-0.2-0.4-0.3s-0.2-0.3-0.2-0.5c0-0.2-0.1-0.4-0.1-0.7V602.8z M65,601.7c-0.1,0-0.3,0-0.4-0.1
				c-0.1-0.1-0.2-0.2-0.2-0.4c0-0.2,0.1-0.3,0.2-0.4c0.1-0.1,0.2-0.1,0.4-0.1c0.1,0,0.3,0,0.4,0.1c0.1,0.1,0.1,0.2,0.1,0.4
				c0,0.2,0,0.3-0.1,0.4C65.2,601.7,65.1,601.7,65,601.7z"/>
			<path class="st2" d="M69.2,602.3h1.6v0.6h-1.6v1.7c0,0.2,0,0.3,0,0.5s0.1,0.2,0.1,0.3c0.1,0.1,0.1,0.1,0.2,0.1s0.2,0,0.4,0
				c0.2,0,0.3,0,0.5,0s0.2-0.1,0.3-0.1l0.1,0.6c-0.1,0-0.2,0.1-0.4,0.1c-0.2,0.1-0.4,0.1-0.6,0.1c-0.3,0-0.5,0-0.7-0.1
				c-0.2-0.1-0.3-0.2-0.4-0.3s-0.2-0.3-0.2-0.5c0-0.2-0.1-0.4-0.1-0.7v-1.7h-0.8v-0.6h0.8v-1l0.7-0.1V602.3z"/>
			<path class="st2" d="M75,604.1c0,0.3,0,0.6-0.1,0.8c-0.1,0.2-0.2,0.4-0.3,0.6c-0.1,0.2-0.3,0.3-0.5,0.4c-0.2,0.1-0.4,0.1-0.7,0.1
				c-0.2,0-0.5,0-0.7-0.1c-0.2-0.1-0.4-0.2-0.5-0.4c-0.1-0.2-0.3-0.4-0.3-0.6c-0.1-0.2-0.1-0.5-0.1-0.8c0-0.3,0-0.6,0.1-0.8
				c0.1-0.2,0.2-0.4,0.3-0.6s0.3-0.3,0.5-0.4c0.2-0.1,0.4-0.1,0.7-0.1c0.2,0,0.5,0,0.7,0.1c0.2,0.1,0.4,0.2,0.5,0.4s0.3,0.4,0.3,0.6
				C74.9,603.6,75,603.9,75,604.1z M74.3,604.1c0-0.4-0.1-0.8-0.3-1c-0.2-0.2-0.4-0.4-0.7-0.4c-0.3,0-0.5,0.1-0.7,0.4
				c-0.2,0.2-0.3,0.6-0.3,1c0,0.4,0.1,0.7,0.3,1c0.2,0.2,0.4,0.4,0.7,0.4c0.3,0,0.6-0.1,0.7-0.4C74.2,604.9,74.3,604.6,74.3,604.1z"
				/>
			<path class="st2" d="M78.1,605.1c0-0.1-0.1-0.2-0.2-0.3s-0.2-0.2-0.4-0.2c-0.2-0.1-0.3-0.1-0.5-0.2s-0.4-0.1-0.5-0.2
				c-0.2-0.1-0.3-0.2-0.4-0.3c-0.1-0.1-0.2-0.3-0.2-0.5c0-0.3,0.1-0.5,0.4-0.7s0.6-0.3,1.1-0.3c0.2,0,0.4,0,0.6,0
				c0.2,0,0.4,0.1,0.6,0.1l-0.1,0.6c0,0-0.1,0-0.2-0.1c-0.1,0-0.2,0-0.3-0.1c-0.1,0-0.2,0-0.3,0c-0.1,0-0.2,0-0.3,0
				c-0.6,0-0.9,0.2-0.9,0.5c0,0.1,0.1,0.2,0.2,0.3c0.1,0.1,0.2,0.1,0.4,0.2c0.2,0.1,0.3,0.1,0.5,0.2c0.2,0.1,0.4,0.1,0.5,0.2
				c0.2,0.1,0.3,0.2,0.4,0.3c0.1,0.1,0.2,0.3,0.2,0.5c0,0.3-0.1,0.6-0.4,0.8c-0.3,0.2-0.7,0.3-1.2,0.3c-0.3,0-0.5,0-0.7-0.1
				c-0.2,0-0.4-0.1-0.6-0.2l0.1-0.6c0.2,0.1,0.4,0.2,0.6,0.2c0.2,0.1,0.4,0.1,0.7,0.1C77.8,605.5,78.1,605.4,78.1,605.1z"/>
		</g>
		<g class="st1">
			<path class="st2" d="M47.7,613.2c0-0.3,0.1-0.6,0.2-0.9c0.1-0.2,0.3-0.4,0.4-0.6c0.2-0.2,0.4-0.3,0.7-0.4
				c0.2-0.1,0.5-0.1,0.8-0.1c0.2,0,0.4,0,0.5,0c0.2,0,0.4,0.1,0.6,0.1l-0.2,0.6c-0.2-0.1-0.3-0.1-0.5-0.1c-0.1,0-0.3,0-0.4,0
				c-0.2,0-0.4,0-0.5,0.1c-0.2,0.1-0.3,0.1-0.4,0.2c-0.1,0.1-0.2,0.3-0.3,0.4c-0.1,0.2-0.1,0.4-0.1,0.6c0,0.2,0,0.4,0.1,0.6
				s0.2,0.3,0.3,0.4c0.1,0.1,0.3,0.2,0.5,0.2c0.2,0.1,0.4,0.1,0.6,0.1c0.2,0,0.3,0,0.5,0s0.3-0.1,0.5-0.1l0.1,0.6
				c-0.2,0.1-0.4,0.1-0.6,0.1s-0.4,0-0.6,0c-0.3,0-0.6,0-0.8-0.1c-0.2-0.1-0.5-0.2-0.6-0.4c-0.2-0.2-0.3-0.4-0.4-0.6
				C47.7,613.8,47.7,613.5,47.7,613.2z"/>
			<path class="st2" d="M55,613.1c0,0.3,0,0.6-0.1,0.8c-0.1,0.2-0.2,0.4-0.3,0.6c-0.1,0.2-0.3,0.3-0.5,0.4c-0.2,0.1-0.4,0.1-0.7,0.1
				c-0.2,0-0.5,0-0.7-0.1c-0.2-0.1-0.4-0.2-0.5-0.4c-0.1-0.2-0.3-0.4-0.3-0.6c-0.1-0.2-0.1-0.5-0.1-0.8c0-0.3,0-0.6,0.1-0.8
				c0.1-0.2,0.2-0.4,0.3-0.6s0.3-0.3,0.5-0.4c0.2-0.1,0.4-0.1,0.7-0.1c0.2,0,0.5,0,0.7,0.1c0.2,0.1,0.4,0.2,0.5,0.4s0.3,0.4,0.3,0.6
				C54.9,612.6,55,612.9,55,613.1z M54.3,613.1c0-0.4-0.1-0.8-0.3-1c-0.2-0.2-0.4-0.4-0.7-0.4c-0.3,0-0.5,0.1-0.7,0.4
				c-0.2,0.2-0.3,0.6-0.3,1c0,0.4,0.1,0.7,0.3,1c0.2,0.2,0.4,0.4,0.7,0.4c0.3,0,0.6-0.1,0.7-0.4C54.2,613.9,54.3,613.6,54.3,613.1z"
				/>
			<path class="st2" d="M55.9,611.4c0.2-0.1,0.5-0.1,0.7-0.1c0.2,0,0.5,0,0.7,0c0.5,0,0.9,0.1,1.1,0.4c0.3,0.3,0.4,0.7,0.4,1.2v2.2
				h-0.7v-2.1c0-0.2,0-0.4-0.1-0.6c0-0.1-0.1-0.3-0.2-0.3c-0.1-0.1-0.2-0.1-0.3-0.2s-0.2,0-0.4,0c-0.1,0-0.2,0-0.3,0
				c-0.1,0-0.2,0-0.3,0.1v3.1h-0.7V611.4z"/>
			<path class="st2" d="M61.2,611.3h1.6v0.6h-1.6v1.7c0,0.2,0,0.3,0,0.5c0,0.1,0.1,0.2,0.1,0.3c0.1,0.1,0.1,0.1,0.2,0.1s0.2,0,0.4,0
				c0.2,0,0.3,0,0.5,0s0.2-0.1,0.3-0.1l0.1,0.6c-0.1,0-0.2,0.1-0.4,0.1c-0.2,0.1-0.4,0.1-0.6,0.1c-0.3,0-0.5,0-0.7-0.1
				c-0.2-0.1-0.3-0.2-0.4-0.3s-0.2-0.3-0.2-0.5c0-0.2-0.1-0.4-0.1-0.7v-1.7h-0.8v-0.6h0.8v-1l0.7-0.1V611.3z"/>
			<path class="st2" d="M64.2,615v-3.5c0.5-0.2,1.1-0.3,1.6-0.3c0.2,0,0.3,0,0.5,0c0.2,0,0.3,0,0.5,0.1l-0.1,0.6
				c-0.2,0-0.3-0.1-0.5-0.1c-0.1,0-0.3,0-0.4,0c-0.3,0-0.7,0-1,0.1v3.1H64.2z"/>
			<path class="st2" d="M69.3,611.2c0.3,0,0.5,0,0.7,0.1c0.2,0.1,0.3,0.2,0.5,0.3c0.1,0.1,0.2,0.3,0.2,0.4c0,0.2,0.1,0.4,0.1,0.6
				v2.3c-0.2,0-0.4,0.1-0.6,0.1c-0.3,0-0.5,0.1-0.8,0.1c-0.2,0-0.4,0-0.6-0.1c-0.2,0-0.4-0.1-0.5-0.2c-0.1-0.1-0.3-0.2-0.4-0.4
				c-0.1-0.2-0.1-0.4-0.1-0.6c0-0.2,0-0.4,0.1-0.5c0.1-0.1,0.2-0.3,0.4-0.4c0.1-0.1,0.3-0.2,0.5-0.2c0.2,0,0.4-0.1,0.6-0.1
				c0.3,0,0.5,0,0.8,0.1v-0.2c0-0.1,0-0.2,0-0.3c0-0.1-0.1-0.2-0.1-0.3c-0.1-0.1-0.2-0.2-0.3-0.2s-0.3-0.1-0.4-0.1
				c-0.2,0-0.4,0-0.6,0c-0.2,0-0.3,0.1-0.4,0.1l-0.1-0.5c0.1,0,0.2-0.1,0.5-0.1C68.8,611.2,69,611.2,69.3,611.2z M69.3,614.5
				c0.2,0,0.3,0,0.4,0s0.2,0,0.3,0v-1.1c-0.1,0-0.2,0-0.3-0.1c-0.1,0-0.2,0-0.4,0c-0.1,0-0.2,0-0.4,0c-0.1,0-0.2,0.1-0.3,0.1
				c-0.1,0-0.2,0.1-0.2,0.2c-0.1,0.1-0.1,0.2-0.1,0.3c0,0.2,0.1,0.4,0.2,0.5C68.8,614.5,69.1,614.5,69.3,614.5z"/>
			<path class="st2" d="M78,615.1c-0.2,0-0.4,0-0.6-0.1c-0.2-0.1-0.3-0.2-0.4-0.3s-0.2-0.3-0.2-0.5c0-0.2-0.1-0.4-0.1-0.7v-3.5h-1.1
				v-0.6h1.7v4.1c0,0.2,0,0.3,0,0.5c0,0.1,0.1,0.2,0.1,0.3c0.1,0.1,0.1,0.1,0.2,0.1s0.2,0,0.3,0c0.2,0,0.3,0,0.4-0.1
				c0.1,0,0.2-0.1,0.3-0.1l0.1,0.6c0,0-0.1,0-0.1,0.1c-0.1,0-0.1,0-0.2,0.1s-0.2,0-0.3,0.1C78.2,615.1,78.1,615.1,78,615.1z"/>
			<path class="st2" d="M81.3,611.2c0.3,0,0.5,0,0.7,0.1c0.2,0.1,0.3,0.2,0.5,0.3c0.1,0.1,0.2,0.3,0.2,0.4c0,0.2,0.1,0.4,0.1,0.6
				v2.3c-0.2,0-0.4,0.1-0.6,0.1c-0.3,0-0.5,0.1-0.8,0.1c-0.2,0-0.4,0-0.6-0.1c-0.2,0-0.4-0.1-0.5-0.2c-0.1-0.1-0.3-0.2-0.4-0.4
				c-0.1-0.2-0.1-0.4-0.1-0.6c0-0.2,0-0.4,0.1-0.5c0.1-0.1,0.2-0.3,0.4-0.4c0.1-0.1,0.3-0.2,0.5-0.2c0.2,0,0.4-0.1,0.6-0.1
				c0.3,0,0.5,0,0.8,0.1v-0.2c0-0.1,0-0.2,0-0.3c0-0.1-0.1-0.2-0.1-0.3c-0.1-0.1-0.2-0.2-0.3-0.2s-0.3-0.1-0.4-0.1
				c-0.2,0-0.4,0-0.6,0c-0.2,0-0.3,0.1-0.4,0.1l-0.1-0.5c0.1,0,0.2-0.1,0.5-0.1C80.8,611.2,81,611.2,81.3,611.2z M81.3,614.5
				c0.2,0,0.3,0,0.4,0s0.2,0,0.3,0v-1.1c-0.1,0-0.2,0-0.3-0.1c-0.1,0-0.2,0-0.4,0c-0.1,0-0.2,0-0.4,0c-0.1,0-0.2,0.1-0.3,0.1
				c-0.1,0-0.2,0.1-0.2,0.2c-0.1,0.1-0.1,0.2-0.1,0.3c0,0.2,0.1,0.4,0.2,0.5C80.8,614.5,81.1,614.5,81.3,614.5z"/>
		</g>
		<g class="st1">
			<path class="st2" d="M58.1,623.1c0-0.1-0.1-0.2-0.2-0.3s-0.2-0.2-0.4-0.2c-0.2-0.1-0.3-0.1-0.5-0.2s-0.4-0.1-0.5-0.2
				c-0.2-0.1-0.3-0.2-0.4-0.3c-0.1-0.1-0.2-0.3-0.2-0.5c0-0.3,0.1-0.5,0.4-0.7s0.6-0.3,1.1-0.3c0.2,0,0.4,0,0.6,0
				c0.2,0,0.4,0.1,0.6,0.1l-0.1,0.6c0,0-0.1,0-0.2-0.1c-0.1,0-0.2,0-0.3-0.1c-0.1,0-0.2,0-0.3,0c-0.1,0-0.2,0-0.3,0
				c-0.6,0-0.9,0.2-0.9,0.5c0,0.1,0.1,0.2,0.2,0.3c0.1,0.1,0.2,0.1,0.4,0.2c0.2,0.1,0.3,0.1,0.5,0.2c0.2,0.1,0.4,0.1,0.5,0.2
				c0.2,0.1,0.3,0.2,0.4,0.3c0.1,0.1,0.2,0.3,0.2,0.5c0,0.3-0.1,0.6-0.4,0.8c-0.3,0.2-0.7,0.3-1.2,0.3c-0.3,0-0.5,0-0.7-0.1
				c-0.2,0-0.4-0.1-0.6-0.2l0.1-0.6c0.2,0.1,0.4,0.2,0.6,0.2c0.2,0.1,0.4,0.1,0.7,0.1C57.8,623.5,58.1,623.4,58.1,623.1z"/>
			<path class="st2" d="M61.3,620.2c0.3,0,0.5,0,0.7,0.1c0.2,0.1,0.3,0.2,0.5,0.3c0.1,0.1,0.2,0.3,0.2,0.4c0,0.2,0.1,0.4,0.1,0.6
				v2.3c-0.2,0-0.4,0.1-0.6,0.1c-0.3,0-0.5,0.1-0.8,0.1c-0.2,0-0.4,0-0.6-0.1c-0.2,0-0.4-0.1-0.5-0.2c-0.1-0.1-0.3-0.2-0.4-0.4
				c-0.1-0.2-0.1-0.4-0.1-0.6c0-0.2,0-0.4,0.1-0.5c0.1-0.1,0.2-0.3,0.4-0.4c0.1-0.1,0.3-0.2,0.5-0.2c0.2,0,0.4-0.1,0.6-0.1
				c0.3,0,0.5,0,0.8,0.1v-0.2c0-0.1,0-0.2,0-0.3c0-0.1-0.1-0.2-0.1-0.3c-0.1-0.1-0.2-0.2-0.3-0.2s-0.3-0.1-0.4-0.1
				c-0.2,0-0.4,0-0.6,0c-0.2,0-0.3,0.1-0.4,0.1l-0.1-0.5c0.1,0,0.2-0.1,0.5-0.1C60.8,620.2,61,620.2,61.3,620.2z M61.3,623.5
				c0.2,0,0.3,0,0.4,0s0.2,0,0.3,0v-1.1c-0.1,0-0.2,0-0.3-0.1c-0.1,0-0.2,0-0.4,0c-0.1,0-0.2,0-0.4,0c-0.1,0-0.2,0.1-0.3,0.1
				c-0.1,0-0.2,0.1-0.2,0.2c-0.1,0.1-0.1,0.2-0.1,0.3c0,0.2,0.1,0.4,0.2,0.5C60.8,623.5,61.1,623.5,61.3,623.5z"/>
			<path class="st2" d="M66,624.1c-0.2,0-0.4,0-0.6-0.1c-0.2-0.1-0.3-0.2-0.4-0.3s-0.2-0.3-0.2-0.5c0-0.2-0.1-0.4-0.1-0.7v-3.5h-1.1
				v-0.6h1.7v4.1c0,0.2,0,0.3,0,0.5c0,0.1,0.1,0.2,0.1,0.3c0.1,0.1,0.1,0.1,0.2,0.1s0.2,0,0.3,0c0.2,0,0.3,0,0.4-0.1
				c0.1,0,0.2-0.1,0.3-0.1l0.1,0.6c0,0-0.1,0-0.1,0.1c-0.1,0-0.1,0-0.2,0.1s-0.2,0-0.3,0.1C66.2,624.1,66.1,624.1,66,624.1z"/>
			<path class="st2" d="M70.7,623.9c-0.1,0-0.3,0.1-0.6,0.1c-0.2,0-0.5,0.1-0.8,0.1c-0.3,0-0.5,0-0.7-0.1c-0.2-0.1-0.3-0.2-0.5-0.4
				c-0.1-0.2-0.2-0.3-0.2-0.5c0-0.2-0.1-0.4-0.1-0.7v-2.1h0.7v1.9c0,0.5,0.1,0.8,0.2,1c0.1,0.2,0.4,0.3,0.7,0.3c0.1,0,0.1,0,0.2,0
				c0.1,0,0.1,0,0.2,0s0.1,0,0.2,0c0,0,0.1,0,0.1,0v-3.1h0.7V623.9z"/>
			<path class="st2" d="M74.1,618.6l0.7-0.1v5.4c-0.1,0-0.3,0.1-0.6,0.1c-0.2,0-0.5,0.1-0.8,0.1c-0.3,0-0.5,0-0.7-0.1
				c-0.2-0.1-0.4-0.2-0.6-0.4c-0.2-0.2-0.3-0.4-0.4-0.6c-0.1-0.2-0.1-0.5-0.1-0.8c0-0.3,0-0.5,0.1-0.8c0.1-0.2,0.2-0.4,0.3-0.6
				s0.3-0.3,0.5-0.4c0.2-0.1,0.4-0.1,0.7-0.1c0.2,0,0.4,0,0.5,0.1c0.1,0,0.3,0.1,0.3,0.2V618.6z M74.1,621.1
				c-0.1-0.1-0.2-0.1-0.3-0.2s-0.3-0.1-0.4-0.1c-0.2,0-0.3,0-0.5,0.1c-0.1,0.1-0.2,0.2-0.3,0.3s-0.1,0.3-0.2,0.4
				c0,0.2-0.1,0.3-0.1,0.5c0,0.4,0.1,0.8,0.3,1c0.2,0.2,0.5,0.4,0.8,0.4c0.2,0,0.3,0,0.4,0c0.1,0,0.2,0,0.3,0V621.1z"/>
		</g>
		<g class="st1">
			<path class="st2" d="M152.2,608.6c0,0.3-0.1,0.6-0.2,0.8c-0.2,0.2-0.4,0.4-0.6,0.5c0.1,0.1,0.2,0.3,0.3,0.4
				c0.1,0.2,0.2,0.3,0.3,0.5c0.1,0.2,0.2,0.4,0.3,0.6c0.1,0.2,0.2,0.4,0.3,0.6h-0.7c-0.2-0.4-0.3-0.8-0.5-1.1
				c-0.2-0.4-0.4-0.6-0.5-0.9c0,0-0.1,0-0.1,0s-0.1,0-0.1,0h-0.6v2h-0.7v-4.9c0.1,0,0.2,0,0.3-0.1c0.1,0,0.2,0,0.3,0
				c0.1,0,0.2,0,0.3,0c0.1,0,0.2,0,0.3,0c0.6,0,1,0.1,1.3,0.4C152.1,607.7,152.2,608,152.2,608.6z M150.5,607.6c-0.1,0-0.2,0-0.4,0
				c-0.1,0-0.2,0-0.2,0v1.9h0.4c0.2,0,0.4,0,0.5,0c0.2,0,0.3-0.1,0.4-0.1c0.1-0.1,0.2-0.2,0.3-0.3c0.1-0.1,0.1-0.3,0.1-0.5
				c0-0.2,0-0.3-0.1-0.5c-0.1-0.1-0.1-0.2-0.2-0.3c-0.1-0.1-0.2-0.1-0.3-0.2S150.6,607.6,150.5,607.6z"/>
			<path class="st2" d="M156.5,610.1c0,0.3,0,0.6-0.1,0.8c-0.1,0.2-0.2,0.4-0.3,0.6c-0.1,0.2-0.3,0.3-0.5,0.4
				c-0.2,0.1-0.4,0.1-0.7,0.1c-0.2,0-0.5,0-0.7-0.1c-0.2-0.1-0.4-0.2-0.5-0.4c-0.1-0.2-0.3-0.4-0.3-0.6s-0.1-0.5-0.1-0.8
				c0-0.3,0-0.6,0.1-0.8s0.2-0.4,0.3-0.6s0.3-0.3,0.5-0.4c0.2-0.1,0.4-0.1,0.7-0.1c0.2,0,0.5,0,0.7,0.1c0.2,0.1,0.4,0.2,0.5,0.4
				s0.3,0.4,0.3,0.6C156.4,609.6,156.5,609.9,156.5,610.1z M155.8,610.1c0-0.4-0.1-0.8-0.3-1c-0.2-0.2-0.4-0.4-0.7-0.4
				c-0.3,0-0.5,0.1-0.7,0.4c-0.2,0.2-0.3,0.6-0.3,1c0,0.4,0.1,0.7,0.3,1c0.2,0.2,0.4,0.4,0.7,0.4c0.3,0,0.6-0.1,0.7-0.4
				C155.7,610.9,155.8,610.6,155.8,610.1z"/>
			<path class="st2" d="M158,608.4c0.1,0,0.2-0.1,0.3-0.1c0.2-0.1,0.3-0.1,0.5-0.1c0.3,0,0.5,0,0.7,0.1c0.2,0.1,0.4,0.2,0.5,0.4
				c0.1,0.2,0.2,0.4,0.3,0.6s0.1,0.5,0.1,0.8c0,0.3,0,0.6-0.1,0.8c-0.1,0.2-0.2,0.4-0.4,0.6c-0.2,0.2-0.3,0.3-0.6,0.4
				s-0.5,0.1-0.7,0.1c-0.3,0-0.6,0-0.8-0.1c-0.2,0-0.4-0.1-0.6-0.1v-5.3l0.7-0.1V608.4z M158,611.4c0.1,0,0.2,0,0.3,0.1
				c0.1,0,0.2,0,0.3,0c0.4,0,0.7-0.1,0.9-0.3s0.3-0.6,0.3-1c0-0.2,0-0.4-0.1-0.5c0-0.2-0.1-0.3-0.2-0.4s-0.2-0.2-0.3-0.3
				c-0.1-0.1-0.3-0.1-0.5-0.1c-0.2,0-0.3,0-0.4,0.1c-0.1,0.1-0.3,0.1-0.3,0.2V611.4z"/>
			<path class="st2" d="M164.5,610.1c0,0.3,0,0.6-0.1,0.8c-0.1,0.2-0.2,0.4-0.3,0.6c-0.1,0.2-0.3,0.3-0.5,0.4
				c-0.2,0.1-0.4,0.1-0.7,0.1c-0.2,0-0.5,0-0.7-0.1c-0.2-0.1-0.4-0.2-0.5-0.4c-0.1-0.2-0.3-0.4-0.3-0.6s-0.1-0.5-0.1-0.8
				c0-0.3,0-0.6,0.1-0.8s0.2-0.4,0.3-0.6s0.3-0.3,0.5-0.4c0.2-0.1,0.4-0.1,0.7-0.1c0.2,0,0.5,0,0.7,0.1c0.2,0.1,0.4,0.2,0.5,0.4
				s0.3,0.4,0.3,0.6C164.4,609.6,164.5,609.9,164.5,610.1z M163.8,610.1c0-0.4-0.1-0.8-0.3-1c-0.2-0.2-0.4-0.4-0.7-0.4
				c-0.3,0-0.5,0.1-0.7,0.4c-0.2,0.2-0.3,0.6-0.3,1c0,0.4,0.1,0.7,0.3,1c0.2,0.2,0.4,0.4,0.7,0.4c0.3,0,0.6-0.1,0.7-0.4
				C163.7,610.9,163.8,610.6,163.8,610.1z"/>
			<path class="st2" d="M171.6,611.1c0-0.1-0.1-0.2-0.2-0.3s-0.2-0.2-0.4-0.2c-0.2-0.1-0.3-0.1-0.5-0.2c-0.2-0.1-0.4-0.1-0.5-0.2
				c-0.2-0.1-0.3-0.2-0.4-0.3c-0.1-0.1-0.2-0.3-0.2-0.5c0-0.3,0.1-0.5,0.4-0.7c0.2-0.2,0.6-0.3,1.1-0.3c0.2,0,0.4,0,0.6,0
				s0.4,0.1,0.6,0.1L172,609c0,0-0.1,0-0.2-0.1c-0.1,0-0.2,0-0.3-0.1s-0.2,0-0.3,0c-0.1,0-0.2,0-0.3,0c-0.6,0-0.9,0.2-0.9,0.5
				c0,0.1,0.1,0.2,0.2,0.3c0.1,0.1,0.2,0.1,0.4,0.2c0.2,0.1,0.3,0.1,0.5,0.2c0.2,0.1,0.4,0.1,0.5,0.2c0.2,0.1,0.3,0.2,0.4,0.3
				c0.1,0.1,0.2,0.3,0.2,0.5c0,0.3-0.1,0.6-0.4,0.8c-0.3,0.2-0.7,0.3-1.2,0.3c-0.3,0-0.5,0-0.7-0.1c-0.2,0-0.4-0.1-0.6-0.2l0.1-0.6
				c0.2,0.1,0.4,0.2,0.6,0.2c0.2,0.1,0.4,0.1,0.7,0.1C171.3,611.5,171.6,611.4,171.6,611.1z"/>
			<path class="st2" d="M174.3,608.8h-1.1v-0.6h1.7v2.3c0,0.4,0.1,0.6,0.2,0.7c0.1,0.1,0.3,0.2,0.5,0.2c0.2,0,0.3,0,0.4-0.1
				c0.1,0,0.2-0.1,0.3-0.1l0.1,0.6c0,0-0.1,0-0.1,0.1c-0.1,0-0.1,0-0.2,0.1c-0.1,0-0.2,0-0.3,0.1c-0.1,0-0.2,0-0.3,0
				c-0.2,0-0.4,0-0.6-0.1c-0.2-0.1-0.3-0.2-0.4-0.3c-0.1-0.1-0.2-0.3-0.2-0.5c0-0.2-0.1-0.4-0.1-0.7V608.8z M174.5,607.7
				c-0.1,0-0.3,0-0.4-0.1c-0.1-0.1-0.2-0.2-0.2-0.4c0-0.2,0.1-0.3,0.2-0.4c0.1-0.1,0.2-0.1,0.4-0.1c0.1,0,0.3,0,0.4,0.1
				s0.1,0.2,0.1,0.4c0,0.2,0,0.3-0.1,0.4C174.7,607.7,174.6,607.7,174.5,607.7z"/>
			<path class="st2" d="M177.4,608.4c0.2-0.1,0.5-0.1,0.7-0.1s0.5,0,0.7,0c0.5,0,0.9,0.1,1.1,0.4s0.4,0.7,0.4,1.2v2.2h-0.7v-2.1
				c0-0.2,0-0.4-0.1-0.6s-0.1-0.3-0.2-0.3c-0.1-0.1-0.2-0.1-0.3-0.2s-0.2,0-0.4,0c-0.1,0-0.2,0-0.3,0c-0.1,0-0.2,0-0.3,0.1v3.1h-0.7
				V608.4z"/>
		</g>
		<g class="st1">
			<path class="st2" d="M150.6,617.3c-0.1,0.3-0.2,0.7-0.3,1c-0.1,0.3-0.2,0.7-0.4,1s-0.3,0.6-0.4,0.9c-0.1,0.3-0.3,0.6-0.4,0.8
				h-0.6c-0.3-0.5-0.5-1.1-0.8-1.7s-0.5-1.3-0.7-2h0.7c0.1,0.2,0.1,0.5,0.2,0.7c0.1,0.3,0.2,0.5,0.3,0.8c0.1,0.3,0.2,0.5,0.3,0.8
				c0.1,0.2,0.2,0.5,0.3,0.7c0.1-0.2,0.2-0.4,0.3-0.7c0.1-0.2,0.2-0.5,0.3-0.8c0.1-0.3,0.2-0.5,0.3-0.8c0.1-0.3,0.2-0.5,0.2-0.7
				H150.6z"/>
			<path class="st2" d="M152.3,617.8h-1.1v-0.6h1.7v2.3c0,0.4,0.1,0.6,0.2,0.7c0.1,0.1,0.3,0.2,0.5,0.2c0.2,0,0.3,0,0.4-0.1
				c0.1,0,0.2-0.1,0.3-0.1l0.1,0.6c0,0-0.1,0-0.1,0.1c-0.1,0-0.1,0-0.2,0.1c-0.1,0-0.2,0-0.3,0.1c-0.1,0-0.2,0-0.3,0
				c-0.2,0-0.4,0-0.6-0.1c-0.2-0.1-0.3-0.2-0.4-0.3c-0.1-0.1-0.2-0.3-0.2-0.5c0-0.2-0.1-0.4-0.1-0.7V617.8z M152.5,616.7
				c-0.1,0-0.3,0-0.4-0.1c-0.1-0.1-0.2-0.2-0.2-0.4c0-0.2,0.1-0.3,0.2-0.4c0.1-0.1,0.2-0.1,0.4-0.1c0.1,0,0.3,0,0.4,0.1
				s0.1,0.2,0.1,0.4c0,0.2,0,0.3-0.1,0.4C152.7,616.7,152.6,616.7,152.5,616.7z"/>
			<path class="st2" d="M158.5,619.1c0,0.3,0,0.6-0.1,0.8c-0.1,0.2-0.2,0.4-0.3,0.6c-0.1,0.2-0.3,0.3-0.5,0.4
				c-0.2,0.1-0.4,0.1-0.7,0.1c-0.2,0-0.5,0-0.7-0.1c-0.2-0.1-0.4-0.2-0.5-0.4c-0.1-0.2-0.3-0.4-0.3-0.6s-0.1-0.5-0.1-0.8
				c0-0.3,0-0.6,0.1-0.8s0.2-0.4,0.3-0.6s0.3-0.3,0.5-0.4c0.2-0.1,0.4-0.1,0.7-0.1c0.2,0,0.5,0,0.7,0.1c0.2,0.1,0.4,0.2,0.5,0.4
				s0.3,0.4,0.3,0.6C158.4,618.6,158.5,618.9,158.5,619.1z M157.8,619.1c0-0.4-0.1-0.8-0.3-1c-0.2-0.2-0.4-0.4-0.7-0.4
				c-0.3,0-0.5,0.1-0.7,0.4c-0.2,0.2-0.3,0.6-0.3,1c0,0.4,0.1,0.7,0.3,1c0.2,0.2,0.4,0.4,0.7,0.4c0.3,0,0.6-0.1,0.7-0.4
				C157.7,619.9,157.8,619.6,157.8,619.1z"/>
			<path class="st2" d="M161.5,621.1c-0.2,0-0.4,0-0.6-0.1c-0.2-0.1-0.3-0.2-0.4-0.3s-0.2-0.3-0.2-0.5c0-0.2-0.1-0.4-0.1-0.7v-3.5
				h-1.1v-0.6h1.7v4.1c0,0.2,0,0.3,0,0.5s0.1,0.2,0.1,0.3c0,0.1,0.1,0.1,0.2,0.1c0.1,0,0.2,0,0.3,0c0.2,0,0.3,0,0.4-0.1
				c0.1,0,0.2-0.1,0.3-0.1l0.1,0.6c0,0-0.1,0-0.1,0.1c-0.1,0-0.1,0-0.2,0.1s-0.2,0-0.3,0.1C161.7,621.1,161.6,621.1,161.5,621.1z"/>
			<path class="st2" d="M164.9,617.2c0.5,0,0.9,0.2,1.2,0.5c0.3,0.3,0.4,0.8,0.4,1.4v0.2h-2.7c0,0.4,0.2,0.7,0.4,0.9s0.5,0.3,1,0.3
				c0.2,0,0.4,0,0.6-0.1c0.2,0,0.3-0.1,0.4-0.1l0.1,0.6c-0.1,0-0.2,0.1-0.4,0.1c-0.2,0-0.4,0.1-0.7,0.1c-0.3,0-0.6,0-0.8-0.1
				c-0.2-0.1-0.4-0.2-0.6-0.4c-0.2-0.2-0.3-0.4-0.4-0.6s-0.1-0.5-0.1-0.8c0-0.3,0.1-0.6,0.2-0.9c0.1-0.2,0.2-0.4,0.4-0.6
				s0.4-0.3,0.6-0.4S164.7,617.2,164.9,617.2z M165.8,618.8c0-0.3-0.1-0.6-0.2-0.7c-0.2-0.2-0.4-0.3-0.7-0.3c-0.2,0-0.3,0-0.4,0.1
				c-0.1,0.1-0.2,0.1-0.3,0.2s-0.2,0.2-0.2,0.3c-0.1,0.1-0.1,0.2-0.1,0.4H165.8z"/>
			<path class="st2" d="M167.4,617.4c0.2-0.1,0.5-0.1,0.7-0.1s0.5,0,0.7,0c0.5,0,0.9,0.1,1.1,0.4s0.4,0.7,0.4,1.2v2.2h-0.7v-2.1
				c0-0.2,0-0.4-0.1-0.6s-0.1-0.3-0.2-0.3c-0.1-0.1-0.2-0.1-0.3-0.2s-0.2,0-0.4,0c-0.1,0-0.2,0-0.3,0c-0.1,0-0.2,0-0.3,0.1v3.1h-0.7
				V617.4z"/>
			<path class="st2" d="M171.2,619.2c0-0.3,0.1-0.6,0.2-0.9c0.1-0.2,0.3-0.4,0.4-0.6s0.4-0.3,0.7-0.4c0.2-0.1,0.5-0.1,0.8-0.1
				c0.2,0,0.4,0,0.5,0c0.2,0,0.4,0.1,0.6,0.1l-0.2,0.6c-0.2-0.1-0.3-0.1-0.5-0.1c-0.1,0-0.3,0-0.4,0c-0.2,0-0.4,0-0.5,0.1
				c-0.2,0.1-0.3,0.1-0.4,0.2c-0.1,0.1-0.2,0.3-0.3,0.4c-0.1,0.2-0.1,0.4-0.1,0.6c0,0.2,0,0.4,0.1,0.6s0.2,0.3,0.3,0.4
				c0.1,0.1,0.3,0.2,0.5,0.2c0.2,0.1,0.4,0.1,0.6,0.1c0.2,0,0.3,0,0.5,0s0.3-0.1,0.5-0.1l0.1,0.6c-0.2,0.1-0.4,0.1-0.6,0.1
				c-0.2,0-0.4,0-0.6,0c-0.3,0-0.6,0-0.8-0.1c-0.2-0.1-0.5-0.2-0.6-0.4c-0.2-0.2-0.3-0.4-0.4-0.6
				C171.2,619.8,171.2,619.5,171.2,619.2z"/>
			<path class="st2" d="M176.3,617.8h-1.1v-0.6h1.7v2.3c0,0.4,0.1,0.6,0.2,0.7c0.1,0.1,0.3,0.2,0.5,0.2c0.2,0,0.3,0,0.4-0.1
				c0.1,0,0.2-0.1,0.3-0.1l0.1,0.6c0,0-0.1,0-0.1,0.1c-0.1,0-0.1,0-0.2,0.1c-0.1,0-0.2,0-0.3,0.1c-0.1,0-0.2,0-0.3,0
				c-0.2,0-0.4,0-0.6-0.1c-0.2-0.1-0.3-0.2-0.4-0.3c-0.1-0.1-0.2-0.3-0.2-0.5c0-0.2-0.1-0.4-0.1-0.7V617.8z M176.5,616.7
				c-0.1,0-0.3,0-0.4-0.1c-0.1-0.1-0.2-0.2-0.2-0.4c0-0.2,0.1-0.3,0.2-0.4c0.1-0.1,0.2-0.1,0.4-0.1c0.1,0,0.3,0,0.4,0.1
				s0.1,0.2,0.1,0.4c0,0.2,0,0.3-0.1,0.4C176.7,616.7,176.6,616.7,176.5,616.7z"/>
			<path class="st2" d="M180.8,617.2c0.3,0,0.5,0,0.7,0.1c0.2,0.1,0.3,0.2,0.5,0.3c0.1,0.1,0.2,0.3,0.2,0.4c0,0.2,0.1,0.4,0.1,0.6
				v2.3c-0.2,0-0.4,0.1-0.6,0.1c-0.3,0-0.5,0.1-0.8,0.1c-0.2,0-0.4,0-0.6-0.1c-0.2,0-0.4-0.1-0.5-0.2c-0.1-0.1-0.3-0.2-0.4-0.4
				c-0.1-0.2-0.1-0.4-0.1-0.6c0-0.2,0-0.4,0.1-0.5c0.1-0.1,0.2-0.3,0.4-0.4c0.1-0.1,0.3-0.2,0.5-0.2c0.2,0,0.4-0.1,0.6-0.1
				c0.3,0,0.5,0,0.8,0.1v-0.2c0-0.1,0-0.2,0-0.3c0-0.1-0.1-0.2-0.1-0.3c-0.1-0.1-0.2-0.2-0.3-0.2c-0.1-0.1-0.3-0.1-0.4-0.1
				c-0.2,0-0.4,0-0.6,0c-0.2,0-0.3,0.1-0.4,0.1l-0.1-0.5c0.1,0,0.2-0.1,0.5-0.1C180.3,617.2,180.5,617.2,180.8,617.2z M180.8,620.5
				c0.2,0,0.3,0,0.4,0s0.2,0,0.3,0v-1.1c-0.1,0-0.2,0-0.3-0.1c-0.1,0-0.2,0-0.4,0c-0.1,0-0.2,0-0.4,0c-0.1,0-0.2,0.1-0.3,0.1
				s-0.2,0.1-0.2,0.2c-0.1,0.1-0.1,0.2-0.1,0.3c0,0.2,0.1,0.4,0.2,0.5C180.3,620.5,180.6,620.5,180.8,620.5z"/>
		</g>
		<g class="st1">
			<path class="st2" d="M244.8,608.6c0,0.3-0.1,0.6-0.2,0.8c-0.2,0.2-0.4,0.4-0.6,0.5c0.1,0.1,0.2,0.3,0.3,0.4
				c0.1,0.2,0.2,0.3,0.3,0.5c0.1,0.2,0.2,0.4,0.3,0.6c0.1,0.2,0.2,0.4,0.3,0.6h-0.7c-0.2-0.4-0.3-0.8-0.5-1.1
				c-0.2-0.4-0.4-0.6-0.5-0.9c0,0-0.1,0-0.1,0c-0.1,0-0.1,0-0.1,0h-0.6v2h-0.7v-4.9c0.1,0,0.2,0,0.3-0.1c0.1,0,0.2,0,0.3,0
				c0.1,0,0.2,0,0.3,0c0.1,0,0.2,0,0.3,0c0.6,0,1,0.1,1.3,0.4C244.7,607.7,244.8,608,244.8,608.6z M243.1,607.6c-0.1,0-0.2,0-0.4,0
				s-0.2,0-0.2,0v1.9h0.4c0.2,0,0.4,0,0.5,0c0.2,0,0.3-0.1,0.4-0.1c0.1-0.1,0.2-0.2,0.3-0.3c0.1-0.1,0.1-0.3,0.1-0.5
				c0-0.2,0-0.3-0.1-0.5c-0.1-0.1-0.1-0.2-0.2-0.3c-0.1-0.1-0.2-0.1-0.3-0.2C243.4,607.6,243.2,607.6,243.1,607.6z"/>
			<path class="st2" d="M249.1,610.1c0,0.3,0,0.6-0.1,0.8s-0.2,0.4-0.3,0.6c-0.1,0.2-0.3,0.3-0.5,0.4c-0.2,0.1-0.4,0.1-0.7,0.1
				c-0.2,0-0.5,0-0.7-0.1c-0.2-0.1-0.4-0.2-0.5-0.4c-0.1-0.2-0.3-0.4-0.3-0.6c-0.1-0.2-0.1-0.5-0.1-0.8c0-0.3,0-0.6,0.1-0.8
				c0.1-0.2,0.2-0.4,0.3-0.6s0.3-0.3,0.5-0.4c0.2-0.1,0.4-0.1,0.7-0.1c0.2,0,0.5,0,0.7,0.1c0.2,0.1,0.4,0.2,0.5,0.4s0.3,0.4,0.3,0.6
				S249.1,609.9,249.1,610.1z M248.4,610.1c0-0.4-0.1-0.8-0.3-1c-0.2-0.2-0.4-0.4-0.7-0.4c-0.3,0-0.5,0.1-0.7,0.4
				c-0.2,0.2-0.3,0.6-0.3,1c0,0.4,0.1,0.7,0.3,1c0.2,0.2,0.4,0.4,0.7,0.4c0.3,0,0.6-0.1,0.7-0.4
				C248.3,610.9,248.4,610.6,248.4,610.1z"/>
			<path class="st2" d="M250.6,608.4c0.1,0,0.2-0.1,0.3-0.1c0.2-0.1,0.3-0.1,0.5-0.1c0.3,0,0.5,0,0.7,0.1c0.2,0.1,0.4,0.2,0.5,0.4
				s0.2,0.4,0.3,0.6c0.1,0.2,0.1,0.5,0.1,0.8c0,0.3,0,0.6-0.1,0.8s-0.2,0.4-0.4,0.6c-0.2,0.2-0.3,0.3-0.6,0.4s-0.5,0.1-0.7,0.1
				c-0.3,0-0.6,0-0.8-0.1c-0.2,0-0.4-0.1-0.6-0.1v-5.3l0.7-0.1V608.4z M250.6,611.4c0.1,0,0.2,0,0.3,0.1c0.1,0,0.2,0,0.3,0
				c0.4,0,0.7-0.1,0.9-0.3s0.3-0.6,0.3-1c0-0.2,0-0.4-0.1-0.5c0-0.2-0.1-0.3-0.2-0.4s-0.2-0.2-0.3-0.3c-0.1-0.1-0.3-0.1-0.5-0.1
				c-0.2,0-0.3,0-0.4,0.1c-0.1,0.1-0.3,0.1-0.3,0.2V611.4z"/>
			<path class="st2" d="M257.1,610.1c0,0.3,0,0.6-0.1,0.8s-0.2,0.4-0.3,0.6c-0.1,0.2-0.3,0.3-0.5,0.4c-0.2,0.1-0.4,0.1-0.7,0.1
				c-0.2,0-0.5,0-0.7-0.1c-0.2-0.1-0.4-0.2-0.5-0.4c-0.1-0.2-0.3-0.4-0.3-0.6c-0.1-0.2-0.1-0.5-0.1-0.8c0-0.3,0-0.6,0.1-0.8
				c0.1-0.2,0.2-0.4,0.3-0.6s0.3-0.3,0.5-0.4c0.2-0.1,0.4-0.1,0.7-0.1c0.2,0,0.5,0,0.7,0.1c0.2,0.1,0.4,0.2,0.5,0.4s0.3,0.4,0.3,0.6
				S257.1,609.9,257.1,610.1z M256.4,610.1c0-0.4-0.1-0.8-0.3-1c-0.2-0.2-0.4-0.4-0.7-0.4c-0.3,0-0.5,0.1-0.7,0.4
				c-0.2,0.2-0.3,0.6-0.3,1c0,0.4,0.1,0.7,0.3,1c0.2,0.2,0.4,0.4,0.7,0.4c0.3,0,0.6-0.1,0.7-0.4
				C256.3,610.9,256.4,610.6,256.4,610.1z"/>
			<path class="st2" d="M261.8,610.2c0-0.3,0.1-0.6,0.2-0.9s0.3-0.4,0.4-0.6c0.2-0.2,0.4-0.3,0.7-0.4c0.2-0.1,0.5-0.1,0.8-0.1
				c0.2,0,0.4,0,0.5,0c0.2,0,0.4,0.1,0.6,0.1l-0.2,0.6c-0.2-0.1-0.3-0.1-0.5-0.1c-0.1,0-0.3,0-0.4,0c-0.2,0-0.4,0-0.5,0.1
				s-0.3,0.1-0.4,0.2c-0.1,0.1-0.2,0.3-0.3,0.4c-0.1,0.2-0.1,0.4-0.1,0.6c0,0.2,0,0.4,0.1,0.6s0.2,0.3,0.3,0.4s0.3,0.2,0.5,0.2
				s0.4,0.1,0.6,0.1c0.2,0,0.3,0,0.5,0s0.3-0.1,0.5-0.1l0.1,0.6c-0.2,0.1-0.4,0.1-0.6,0.1c-0.2,0-0.4,0-0.6,0c-0.3,0-0.6,0-0.8-0.1
				c-0.2-0.1-0.5-0.2-0.6-0.4c-0.2-0.2-0.3-0.4-0.4-0.6C261.8,610.8,261.8,610.5,261.8,610.2z"/>
			<path class="st2" d="M269.1,610.1c0,0.3,0,0.6-0.1,0.8s-0.2,0.4-0.3,0.6c-0.1,0.2-0.3,0.3-0.5,0.4c-0.2,0.1-0.4,0.1-0.7,0.1
				c-0.2,0-0.5,0-0.7-0.1c-0.2-0.1-0.4-0.2-0.5-0.4c-0.1-0.2-0.3-0.4-0.3-0.6c-0.1-0.2-0.1-0.5-0.1-0.8c0-0.3,0-0.6,0.1-0.8
				c0.1-0.2,0.2-0.4,0.3-0.6s0.3-0.3,0.5-0.4c0.2-0.1,0.4-0.1,0.7-0.1c0.2,0,0.5,0,0.7,0.1c0.2,0.1,0.4,0.2,0.5,0.4s0.3,0.4,0.3,0.6
				S269.1,609.9,269.1,610.1z M268.4,610.1c0-0.4-0.1-0.8-0.3-1c-0.2-0.2-0.4-0.4-0.7-0.4c-0.3,0-0.5,0.1-0.7,0.4
				c-0.2,0.2-0.3,0.6-0.3,1c0,0.4,0.1,0.7,0.3,1c0.2,0.2,0.4,0.4,0.7,0.4c0.3,0,0.6-0.1,0.7-0.4
				C268.3,610.9,268.4,610.6,268.4,610.1z"/>
			<path class="st2" d="M270,608.4c0.2-0.1,0.5-0.1,0.7-0.1c0.2,0,0.5,0,0.7,0c0.5,0,0.9,0.1,1.1,0.4c0.3,0.3,0.4,0.7,0.4,1.2v2.2
				h-0.7v-2.1c0-0.2,0-0.4-0.1-0.6c0-0.1-0.1-0.3-0.2-0.3c-0.1-0.1-0.2-0.1-0.3-0.2s-0.2,0-0.4,0c-0.1,0-0.2,0-0.3,0
				c-0.1,0-0.2,0-0.3,0.1v3.1H270V608.4z"/>
		</g>
		<g class="st1">
			<path class="st2" d="M243.2,617.3c-0.1,0.3-0.2,0.7-0.3,1c-0.1,0.3-0.2,0.7-0.4,1s-0.3,0.6-0.4,0.9c-0.1,0.3-0.3,0.6-0.4,0.8
				h-0.6c-0.3-0.5-0.5-1.1-0.8-1.7s-0.5-1.3-0.7-2h0.7c0.1,0.2,0.1,0.5,0.2,0.7c0.1,0.3,0.2,0.5,0.3,0.8c0.1,0.3,0.2,0.5,0.3,0.8
				c0.1,0.2,0.2,0.5,0.3,0.7c0.1-0.2,0.2-0.4,0.3-0.7c0.1-0.2,0.2-0.5,0.3-0.8c0.1-0.3,0.2-0.5,0.3-0.8c0.1-0.3,0.2-0.5,0.2-0.7
				H243.2z"/>
			<path class="st2" d="M244.9,617.8h-1.1v-0.6h1.7v2.3c0,0.4,0,0.6,0.2,0.7c0.1,0.1,0.3,0.2,0.5,0.2c0.2,0,0.3,0,0.4-0.1
				c0.1,0,0.2-0.1,0.3-0.1l0.1,0.6c0,0-0.1,0-0.1,0.1c-0.1,0-0.1,0-0.2,0.1s-0.2,0-0.3,0.1c-0.1,0-0.2,0-0.3,0c-0.2,0-0.4,0-0.6-0.1
				c-0.2-0.1-0.3-0.2-0.4-0.3c-0.1-0.1-0.2-0.3-0.2-0.5c0-0.2-0.1-0.4-0.1-0.7V617.8z M245.1,616.7c-0.1,0-0.3,0-0.4-0.1
				c-0.1-0.1-0.2-0.2-0.2-0.4c0-0.2,0-0.3,0.2-0.4s0.2-0.1,0.4-0.1c0.1,0,0.3,0,0.4,0.1c0.1,0.1,0.1,0.2,0.1,0.4
				c0,0.2,0,0.3-0.1,0.4C245.3,616.7,245.2,616.7,245.1,616.7z"/>
			<path class="st2" d="M251.1,619.1c0,0.3,0,0.6-0.1,0.8s-0.2,0.4-0.3,0.6c-0.1,0.2-0.3,0.3-0.5,0.4c-0.2,0.1-0.4,0.1-0.7,0.1
				c-0.2,0-0.5,0-0.7-0.1c-0.2-0.1-0.4-0.2-0.5-0.4c-0.1-0.2-0.3-0.4-0.3-0.6c-0.1-0.2-0.1-0.5-0.1-0.8c0-0.3,0-0.6,0.1-0.8
				c0.1-0.2,0.2-0.4,0.3-0.6s0.3-0.3,0.5-0.4c0.2-0.1,0.4-0.1,0.7-0.1c0.2,0,0.5,0,0.7,0.1c0.2,0.1,0.4,0.2,0.5,0.4s0.3,0.4,0.3,0.6
				S251.1,618.9,251.1,619.1z M250.4,619.1c0-0.4-0.1-0.8-0.3-1c-0.2-0.2-0.4-0.4-0.7-0.4c-0.3,0-0.5,0.1-0.7,0.4
				c-0.2,0.2-0.3,0.6-0.3,1c0,0.4,0.1,0.7,0.3,1c0.2,0.2,0.4,0.4,0.7,0.4c0.3,0,0.6-0.1,0.7-0.4
				C250.3,619.9,250.4,619.6,250.4,619.1z"/>
			<path class="st2" d="M254.1,621.1c-0.2,0-0.4,0-0.6-0.1c-0.2-0.1-0.3-0.2-0.4-0.3s-0.2-0.3-0.2-0.5c0-0.2-0.1-0.4-0.1-0.7v-3.5
				h-1.1v-0.6h1.7v4.1c0,0.2,0,0.3,0,0.5c0,0.1,0.1,0.2,0.1,0.3c0.1,0.1,0.1,0.1,0.2,0.1c0.1,0,0.2,0,0.3,0c0.2,0,0.3,0,0.4-0.1
				c0.1,0,0.2-0.1,0.3-0.1l0.1,0.6c0,0-0.1,0-0.1,0.1c-0.1,0-0.1,0-0.2,0.1s-0.2,0-0.3,0.1C254.3,621.1,254.2,621.1,254.1,621.1z"/>
			<path class="st2" d="M257.5,617.2c0.5,0,0.9,0.2,1.2,0.5c0.3,0.3,0.4,0.8,0.4,1.4v0.2h-2.7c0,0.4,0.2,0.7,0.4,0.9
				c0.2,0.2,0.5,0.3,1,0.3c0.2,0,0.4,0,0.6-0.1c0.2,0,0.3-0.1,0.4-0.1l0.1,0.6c-0.1,0-0.2,0.1-0.4,0.1c-0.2,0-0.4,0.1-0.7,0.1
				c-0.3,0-0.6,0-0.8-0.1c-0.2-0.1-0.4-0.2-0.6-0.4s-0.3-0.4-0.4-0.6s-0.1-0.5-0.1-0.8c0-0.3,0.1-0.6,0.2-0.9s0.2-0.4,0.4-0.6
				c0.2-0.2,0.4-0.3,0.6-0.4S257.3,617.2,257.5,617.2z M258.4,618.8c0-0.3-0.1-0.6-0.2-0.7c-0.2-0.2-0.4-0.3-0.7-0.3
				c-0.2,0-0.3,0-0.4,0.1c-0.1,0.1-0.2,0.1-0.3,0.2c-0.1,0.1-0.2,0.2-0.2,0.3c-0.1,0.1-0.1,0.2-0.1,0.4H258.4z"/>
			<path class="st2" d="M260,617.4c0.2-0.1,0.5-0.1,0.7-0.1c0.2,0,0.5,0,0.7,0c0.5,0,0.9,0.1,1.1,0.4c0.3,0.3,0.4,0.7,0.4,1.2v2.2
				h-0.7v-2.1c0-0.2,0-0.4-0.1-0.6c0-0.1-0.1-0.3-0.2-0.3c-0.1-0.1-0.2-0.1-0.3-0.2s-0.2,0-0.4,0c-0.1,0-0.2,0-0.3,0
				c-0.1,0-0.2,0-0.3,0.1v3.1H260V617.4z"/>
			<path class="st2" d="M263.8,619.2c0-0.3,0.1-0.6,0.2-0.9s0.3-0.4,0.4-0.6c0.2-0.2,0.4-0.3,0.7-0.4c0.2-0.1,0.5-0.1,0.8-0.1
				c0.2,0,0.4,0,0.5,0c0.2,0,0.4,0.1,0.6,0.1l-0.2,0.6c-0.2-0.1-0.3-0.1-0.5-0.1c-0.1,0-0.3,0-0.4,0c-0.2,0-0.4,0-0.5,0.1
				s-0.3,0.1-0.4,0.2c-0.1,0.1-0.2,0.3-0.3,0.4c-0.1,0.2-0.1,0.4-0.1,0.6c0,0.2,0,0.4,0.1,0.6s0.2,0.3,0.3,0.4s0.3,0.2,0.5,0.2
				s0.4,0.1,0.6,0.1c0.2,0,0.3,0,0.5,0s0.3-0.1,0.5-0.1l0.1,0.6c-0.2,0.1-0.4,0.1-0.6,0.1c-0.2,0-0.4,0-0.6,0c-0.3,0-0.6,0-0.8-0.1
				c-0.2-0.1-0.5-0.2-0.6-0.4c-0.2-0.2-0.3-0.4-0.4-0.6C263.8,619.8,263.8,619.5,263.8,619.2z"/>
			<path class="st2" d="M268.9,617.8h-1.1v-0.6h1.7v2.3c0,0.4,0,0.6,0.2,0.7c0.1,0.1,0.3,0.2,0.5,0.2c0.2,0,0.3,0,0.4-0.1
				c0.1,0,0.2-0.1,0.3-0.1l0.1,0.6c0,0-0.1,0-0.1,0.1c-0.1,0-0.1,0-0.2,0.1s-0.2,0-0.3,0.1c-0.1,0-0.2,0-0.3,0c-0.2,0-0.4,0-0.6-0.1
				c-0.2-0.1-0.3-0.2-0.4-0.3c-0.1-0.1-0.2-0.3-0.2-0.5c0-0.2-0.1-0.4-0.1-0.7V617.8z M269.1,616.7c-0.1,0-0.3,0-0.4-0.1
				c-0.1-0.1-0.2-0.2-0.2-0.4c0-0.2,0-0.3,0.2-0.4s0.2-0.1,0.4-0.1c0.1,0,0.3,0,0.4,0.1c0.1,0.1,0.1,0.2,0.1,0.4
				c0,0.2,0,0.3-0.1,0.4C269.3,616.7,269.2,616.7,269.1,616.7z"/>
			<path class="st2" d="M273.4,617.2c0.3,0,0.5,0,0.7,0.1s0.3,0.2,0.5,0.3c0.1,0.1,0.2,0.3,0.2,0.4s0.1,0.4,0.1,0.6v2.3
				c-0.2,0-0.4,0.1-0.6,0.1s-0.5,0.1-0.8,0.1c-0.2,0-0.4,0-0.6-0.1c-0.2,0-0.4-0.1-0.5-0.2c-0.1-0.1-0.3-0.2-0.4-0.4
				c-0.1-0.2-0.1-0.4-0.1-0.6c0-0.2,0-0.4,0.1-0.5c0.1-0.1,0.2-0.3,0.4-0.4s0.3-0.2,0.5-0.2s0.4-0.1,0.6-0.1c0.3,0,0.5,0,0.8,0.1
				v-0.2c0-0.1,0-0.2,0-0.3c0-0.1-0.1-0.2-0.1-0.3s-0.2-0.2-0.3-0.2c-0.1-0.1-0.3-0.1-0.4-0.1c-0.2,0-0.4,0-0.6,0
				c-0.2,0-0.3,0.1-0.4,0.1l-0.1-0.5c0.1,0,0.2-0.1,0.5-0.1S273.1,617.2,273.4,617.2z M273.4,620.5c0.2,0,0.3,0,0.4,0s0.2,0,0.3,0
				v-1.1c-0.1,0-0.2,0-0.3-0.1c-0.1,0-0.2,0-0.4,0c-0.1,0-0.2,0-0.4,0c-0.1,0-0.2,0.1-0.3,0.1c-0.1,0-0.2,0.1-0.2,0.2
				c-0.1,0.1-0.1,0.2-0.1,0.3c0,0.2,0.1,0.4,0.2,0.5C272.9,620.5,273.2,620.5,273.4,620.5z"/>
		</g>
		<g id="Group_57" transform="translate(15 599.472)">
			<path id="Path_99" class="st3" d="M24.9,4.1c0.5-0.6,0.5-1.5-0.2-2.1c-0.5-0.5-1.4-0.5-1.9,0L24.9,4.1z"/>
			<path id="Path_100" class="st2" d="M25.1,2.5L25.1,2.5c-0.3-0.7-1.1-1.1-1.9-0.8C23.1,1.8,23,1.9,22.8,2l0.8,0.8
				C24,2.4,24.6,2.4,25.1,2.5z"/>
			
				<rect id="Rectangle_1464" x="19.9" y="4.1" transform="matrix(0.7071 -0.7071 0.7071 0.7071 2.5037 16.8213)" class="st3" width="3.4" height="2.6"/>
			
				<rect id="Rectangle_1465" x="19.4" y="4.3" transform="matrix(0.7071 -0.7071 0.7071 0.7071 2.7123 16.3221)" class="st2" width="3.4" height="1.2"/>
			<path id="Path_101" class="st3" d="M5.8,19.4l-1.2,1.2c-0.3,0.3-0.3,0.8,0,1.1l0.7,0.7c0.3,0.3,0.8,0.3,1.1,0l1.2-1.2L5.8,19.4z"
				/>
			<path id="Path_102" class="st2" d="M5.5,21.5l1.2-1.2l-0.9-0.8l-1.2,1.2c-0.3,0.3-0.3,0.8,0,1.1l0.6,0.6
				C5.2,22,5.2,21.7,5.5,21.5z"/>
			<path id="Path_103" class="st4" d="M17.6,6.1L5.5,18.2c-0.3,0.3-0.3,0.7,0,0.9c0,0,0,0,0,0l2.3,2.3c0.3,0.3,0.7,0.3,0.9,0
				c0,0,0,0,0,0L20.9,9.3L17.6,6.1z"/>
			<path id="Path_104" class="st5" d="M6.2,19L18.3,6.9l2.5,2.5l0,0l-3.3-3.3L5.5,18.2c-0.3,0.3-0.3,0.7,0,0.9c0,0,0,0,0,0l0.6,0.6
				C5.9,19.6,5.9,19.2,6.2,19z"/>
			<path id="Path_105" class="st6" d="M15,8.7c-0.4,2.1-0.3,4.2,0.3,6.2l5.6-5.6l-3.3-3.3L15,8.7z"/>
			<path id="Path_106" class="st7" d="M14.8,10.4l3.6-3.6l2.5,2.5l0,0l-3.3-3.3L15,8.7C14.9,9.3,14.8,9.8,14.8,10.4z"/>
			<path id="Path_107" class="st2" d="M6.3,17.4l-0.9,0.9c-0.3,0.3-0.3,0.7,0,0.9c0,0,0,0,0,0l2.3,2.3c0.3,0.3,0.7,0.3,0.9,0
				c0,0,0,0,0,0l0.9-0.9C9.2,20.3,6.7,17.8,6.3,17.4z"/>
			<path id="Path_108" class="st3" d="M6.2,19L7,18.1l-0.7-0.7l-0.9,0.9c-0.3,0.3-0.3,0.7,0,0.9c0,0,0,0,0,0l0.6,0.6
				C5.9,19.5,6,19.2,6.2,19z"/>
			<path id="Path_109" class="st2" d="M18.1,4.2l4.7,4.7c0.3,0.3,0.3,0.8,0,1.1l-0.2,0.2c-0.3,0.3-0.8,0.3-1.1,0l-4.7-4.7
				c-0.3-0.3-0.3-0.8,0-1.1L17,4.1C17.3,3.9,17.8,3.9,18.1,4.2z"/>
			<path id="Path_110" class="st3" d="M22.1,9.6l-4.7-4.7c-0.3-0.2-0.3-0.6-0.1-0.9c-0.2,0.1-0.4,0.2-0.5,0.4
				c-0.3,0.3-0.3,0.8,0,1.1l4.7,4.7c0.3,0.3,0.8,0.3,1.1,0l0.3-0.3C22.6,9.9,22.3,9.8,22.1,9.6z"/>
			<path id="Path_111" class="st7" d="M20.5,0.6c0.3-0.3,0.8-0.3,1.1,0l4.7,4.7c0.3,0.3,0.3,0.8,0,1.1l-0.2,0.2
				c-0.3,0.3-0.8,0.3-1.1,0l-4.7-4.7c-0.3-0.3-0.3-0.8,0-1.1L20.5,0.6z"/>
			<path id="Path_112" class="st5" d="M25.6,6l-4.7-4.7c-0.2-0.2-0.3-0.6-0.2-0.9c-0.2,0.1-0.3,0.2-0.4,0.3c-0.3,0.3-0.3,0.8,0,1.1
				L25,6.6c0.3,0.3,0.8,0.3,1.1,0c0.1-0.1,0.2-0.2,0.3-0.4C26.1,6.3,25.8,6.2,25.6,6z"/>
			<path id="Path_113" class="st8" d="M26.5,5l-1.1-1.1c0.4-0.7,0.3-1.6-0.3-2.2C24.6,1.1,23.7,1,23,1.4l-1.1-1.1
				C21.7,0.1,21.4,0,21.1,0c-0.4,0-0.8,0.2-1,0.5c-0.4,0.4-0.4,1.2,0,1.6c0,0,0,0,0,0l1.2,1.2l-1.8,1.8L18.3,4
				c-0.2-0.2-0.5-0.3-0.8-0.3c-0.4,0-0.8,0.2-1,0.5c-0.4,0.4-0.4,1.2,0,1.6c0,0,0,0,0,0l0.4,0.4C16.2,6.9,5.6,17.5,5.2,17.9
				c-0.4,0.4-0.4,1.1,0,1.5l-0.9,0.9c-0.5,0.5-0.4,1.2,0,1.7c0,0,0,0,0,0c0,0-4.2,4.3-4.3,4.3c-0.1,0.2-0.1,0.4,0,0.6
				c0.2,0.1,0.4,0.1,0.6,0L5,22.5C5.4,23,6.1,23,6.6,22.6c0,0,0,0,0.1-0.1l0.8-0.9c0.4,0.4,1,0.4,1.4,0.1c0.1,0-0.5,0.5,10.1-10.1
				c0.2-0.1,0.2-0.4,0.1-0.6c-0.1-0.2-0.4-0.2-0.6-0.1c0,0-0.1,0-0.1,0.1L9.6,20l-0.4-0.4c-0.2-0.1-0.4-0.1-0.6,0.1
				c-0.1,0.1-0.1,0.3,0,0.5L9,20.6l-0.6,0.6c-0.1,0.1-0.2,0.1-0.4,0c0,0,0,0,0,0l-2.3-2.3c-0.1-0.1-0.1-0.2,0-0.4c0,0,0,0,0,0
				l0.6-0.6l1.3,1.3c0.2,0.1,0.4,0.1,0.6-0.1c0.1-0.1,0.1-0.3,0-0.5l-1.3-1.3l0.7-0.7l0.8,0.8c0.2,0.1,0.4,0.1,0.6-0.1
				c0.1-0.1,0.1-0.3,0-0.5L8.2,16L9,15.2c0.9,0.9,0.9,0.9,1.1,0.9c0.2,0,0.4-0.2,0.4-0.4c0-0.1,0-0.2-0.1-0.3l-0.8-0.8l0.8-0.8
				l0.8,0.8c0.1,0.2,0.4,0.2,0.6,0.1c0.2-0.1,0.2-0.4,0.1-0.6c0,0,0-0.1-0.1-0.1L11,13.3l0.8-0.8c0.9,0.9,0.9,0.9,1.1,0.9
				c0.2,0,0.4-0.2,0.4-0.4c0-0.1,0-0.2-0.1-0.3l-0.8-0.8l0.8-0.8c0.9,0.9,0.9,0.9,1.1,0.9c0.2,0,0.4-0.2,0.4-0.4
				c0-0.1,0-0.2-0.1-0.3l-0.8-0.8l0.8-0.8c0.9,0.9,0.9,0.9,1.1,0.9c0.2,0,0.4-0.2,0.4-0.4c0-0.1,0-0.2-0.1-0.3l-0.8-0.8L16,8.3
				l0.8,0.8c0.2,0.1,0.4,0.1,0.6-0.1c0.1-0.1,0.1-0.3,0-0.5l-0.8-0.8l0.9-0.9l2.7,2.7l-0.9,0.9c-0.1,0.2-0.1,0.4,0.1,0.6
				c0.1,0.1,0.3,0.1,0.5,0l0.9-0.9c0.4,0.4,0.6,0.7,1.2,0.7c0.4,0,0.8-0.2,1-0.5c0.4-0.4,0.4-1.2,0-1.6c0,0,0,0,0,0l-1.1-1.1
				l1.8-1.8l1.1,1.1c0.2,0.2,0.5,0.3,0.8,0.3c0.4,0,0.8-0.2,1-0.5C26.9,6.2,27,5.5,26.5,5C26.6,5,26.5,5,26.5,5z M4.9,21.3
				c-0.1-0.1-0.2-0.3,0-0.4c0,0,0,0,0,0L5.8,20l1.2,1.2C5.7,22.4,6,22.4,4.9,21.3z M24.8,3.3L23.6,2c0.5-0.2,1.1,0.1,1.3,0.7
				C24.9,2.9,24.9,3.1,24.8,3.3z M22.4,9.6l-0.2,0.2c-0.1,0.1-0.3,0.2-0.4,0c0,0,0,0,0,0c-5-5-4.7-4.7-4.7-4.9s0.1-0.3,0.3-0.4
				c0.1-0.1,0.3-0.2,0.4,0c0,0,0,0,0,0l4.6,4.6C22.5,9.3,22.5,9.5,22.4,9.6L22.4,9.6z M21.2,6.9L20,5.6l1.8-1.8L23.1,5L21.2,6.9z
				 M25.8,6.2c-0.1,0.1-0.2,0.1-0.3,0.1c-0.2,0,0.1,0.3-4.9-4.7c-0.1-0.1-0.2-0.3,0-0.4c0,0,0,0,0,0c0.2-0.2,0.3-0.3,0.4-0.3
				c0.2,0-0.1-0.3,4.9,4.7C26,5.6,26,5.7,26,5.8C26.1,5.9,25.9,6,25.8,6.2z"/>
		</g>
		<g id="Group_55" transform="translate(115.79 600.968)">
			<path id="Path_128" class="st5" d="M22.8,2.5H2.4c-1.2,0-2.1,0.9-2.1,2.1s0.9,2.1,2.1,2.1h20.3c1.2,0,2.1,0.9,2.1,2.1
				c0,0,0,0,0,0V4.6C24.9,3.5,24,2.5,22.8,2.5C22.8,2.5,22.8,2.5,22.8,2.5z"/>
			<path id="Path_129" class="st9" d="M24.9,21.4c0,1.2-0.9,2.1-2.1,2.1c0,0,0,0,0,0H2.4c-1.2,0-2.1-0.9-2.1-2.1c0,0,0,0,0,0l0,0
				V4.6c0,1.2,0.9,2.1,2.1,2.1c0,0,0,0,0,0h20.3c1.2,0,2.1,0.9,2.1,2.1c0,0,0,0,0,0V21.4z"/>
			<g id="Group_46" transform="translate(21.162 6.693)">
				<path id="Path_130" class="st10" d="M1.6,0H0c1.2,0,2.1,0.9,2.1,2.1c0,0,0,0,0,0v12.6c0,1.2-0.9,2.1-2.1,2.1c0,0,0,0,0,0h1.6
					c1.2,0,2.1-0.9,2.1-2.1c0,0,0,0,0,0V2.1C3.7,1,2.8,0,1.6,0C1.6,0,1.6,0,1.6,0z"/>
				<path id="Path_131" class="st10" d="M4.5,3.7c0.4,0,0.8,0.4,0.8,0.8c0,0.4-0.4,0.8-0.8,0.8c0,0,0,0,0,0H3.7V3.7H4.5z"/>
			</g>
			<path id="Path_132" class="st2" d="M26.4,11.2v6.3c0,0.4-0.3,0.8-0.7,0.8c0,0,0,0,0,0h-5.5L18,15.1l2.1-3.1h5.5
				C26.1,12,26.4,11.6,26.4,11.2z"/>
			<path id="Path_133" class="st9" d="M25.6,12h-0.8v5.5c0,0.4-0.3,0.8-0.8,0.8c0,0,0,0,0,0h1.6c0.4,0,0.8-0.3,0.8-0.7c0,0,0,0,0,0
				v-6.3C26.4,11.6,26.1,12,25.6,12C25.7,12,25.7,12,25.6,12z"/>
			<path id="Path_134" class="st6" d="M19.2,4.6H3.4L4,2.5l0.5-2.1l7.4,2.1L19.2,4.6z"/>
			<path id="Path_135" class="st10" d="M22.8,2.5h-1.6c1.2,0,2.1,0.9,2.1,2.1c0,0,0,0,0,0v2.2c0.9,0.2,1.6,1.1,1.6,2V4.6
				C24.9,3.5,24,2.5,22.8,2.5C22.8,2.5,22.8,2.5,22.8,2.5z"/>
			<path id="Path_136" class="st4" d="M21.7,14.1c0.6,0,1,0.5,1,1s-0.5,1-1,1c-0.6,0-1-0.5-1-1c0,0,0,0,0,0
				C20.7,14.5,21.1,14.1,21.7,14.1z"/>
			<path id="Path_137" class="st8" d="M25.6,10h-0.4V4.6c0-1.4-1.1-2.5-2.5-2.5l0,0H11.9L4.6,0H4.2v0l0,0L3.8,1.8H2.5
				C1.1,1.8,0,3,0,4.3c0,0,0,0,0,0l0,0V18c0,0.2,0.2,0.4,0.4,0.4s0.4-0.2,0.4-0.4l0,0V6.4c0.5,0.4,1.1,0.7,1.7,0.7h20.3
				c0.9,0,1.7,0.8,1.7,1.7v2.8H20c0,0,0,0,0,0l0,0l0,0l-2.1,3.1c0,0,0,0,0,0.1v0l0,0v0l0,0v0l0,0v0l0,0v0l0,0v0l0,0v0l0,0v0
				c0,0,0,0,0,0.1l2.1,3.1l0,0c0,0,0,0,0,0l0,0l0,0l0,0l0,0l0,0l0,0c0,0,0,0,0,0c0,0,0,0,0,0h4.5v2.8c0,0.9-0.8,1.7-1.7,1.7H2.5
				c-0.9,0-1.7-0.8-1.7-1.7l0,0v-1.6c0-0.2-0.2-0.4-0.4-0.4S0,19.5,0,19.7v1.6l0,0c0,1.4,1.1,2.5,2.5,2.5c0,0,0,0,0,0h20.3
				c1.4,0,2.5-1.1,2.5-2.5c0,0,0,0,0,0l0,0v-2.8h0.4c0.7,0,1.2-0.5,1.2-1.2v-6.1C26.9,10.5,26.3,10,25.6,10z M26,17.5
				c0,0.2-0.2,0.4-0.4,0.4h-5.3l-1.8-2.8l1.8-2.8h5.3c0.1,0,0.3,0,0.4-0.1L26,17.5L26,17.5z M4.8,0.9l7,2l0,0l4.7,1.3H4L4.8,0.9z
				 M22.8,6.3H2.4c-0.9,0-1.7-0.8-1.7-1.7s0.8-1.7,1.7-1.7h1.1L3.2,4.2H2.4C2.2,4.2,2,4.4,2,4.6S2.2,5,2.4,5h19.8
				c0.2,0,0.4-0.2,0.4-0.4s-0.2-0.4-0.4-0.4h-3l-4.6-1.3h8.1c0.9,0,1.7,0.8,1.7,1.7V7C24,6.6,23.4,6.3,22.8,6.3L22.8,6.3z
				 M25.2,10.8h0.4c0.2,0,0.4,0.2,0.4,0.4c0,0.2-0.2,0.4-0.4,0.4h-0.4L25.2,10.8L25.2,10.8z"/>
			<path id="Path_138" class="st8" d="M21.7,13.7c-0.8,0-1.5,0.7-1.5,1.5c0,0.8,0.6,1.4,1.4,1.5c0,0,0,0,0,0c0.8,0,1.5-0.7,1.5-1.5
				C23.2,14.3,22.5,13.7,21.7,13.7C21.7,13.7,21.7,13.7,21.7,13.7z M21.7,15.8c-0.4,0-0.7-0.3-0.7-0.7s0.3-0.7,0.7-0.7
				c0.4,0,0.7,0.3,0.7,0.7C22.4,15.5,22.1,15.8,21.7,15.8C21.7,15.8,21.7,15.8,21.7,15.8z"/>
		</g>
		<g id="Group_56" transform="translate(213.8 599)">
			<path id="Path_114" class="st11" d="M18.5,0.5l-0.8,0.5c0,0-0.1,0-0.1,0.1l-2.4,3.1l0.4,0.6l4.3-2.7l-1-1.6
				C18.8,0.4,18.6,0.4,18.5,0.5z"/>
			<path id="Path_115" class="st3" d="M19.9,5l1-0.6C21,4.3,21.1,4.1,21,4l-1.5-2.5l-8.6,5.3l2.3,3.7l6.3-3.9
				c0.3-0.2,0.4-0.5,0.2-0.8l0,0C19.5,5.6,19.6,5.2,19.9,5C19.8,5,19.8,5,19.9,5z"/>
			<path id="Path_116" class="st12" d="M20.5,3.2l-8.6,5.3l1.2,2l6.3-3.9c0.3-0.2,0.4-0.5,0.2-0.8c-0.2-0.3-0.1-0.6,0.2-0.8l1-0.6
				C21,4.3,21.1,4.1,21,3.9L20.5,3.2z"/>
			<path id="Path_117" class="st11" d="M0.5,14.5L1,14.1C1.3,14,1.5,14,1.8,14l0.4,0.1c0.2,0.1,0.5,0,0.7-0.1l1.7-1.1l1.5,2.4
				l-2.3,0.8l-3.2-1.2c-0.1,0-0.2-0.2-0.2-0.3C0.4,14.6,0.5,14.5,0.5,14.5z"/>
			<path id="Path_118" class="st4" d="M11.4,6.6l-7.5,4.7c-0.3,0.2-0.4,0.5-0.3,0.8C4.4,14,3.8,16.2,2,17.4l0,0
				c-0.3,0.2-0.4,0.6-0.2,0.9c0,0,0,0,0,0c0.1,0.1,0.2,0.2,0.2,0.4c0.5,0.7,0.7,1.6,0.6,2.4l-0.2,2.8c0,0.8,0.1,1.7,0.4,2.5l1,2.5
				c0.2,0.5,0.8,0.7,1.2,0.5c0.1,0,0.1-0.1,0.2-0.1l3.3-2.1c0.8-0.5,1-1.5,0.5-2.3c0,0,0,0,0,0l-0.4-0.6c-0.5-0.8-0.8-1.6-0.9-2.5
				l-0.2-1.5c0.4,0.3,0.8,0.5,1.2,0.6c0.6,0.1,1.3,0,1.9-0.4c0.1,0,0.2-0.1,0.3-0.2l2.2-1.8c1-0.8,1.3-2.3,0.6-3.5l-0.5-0.8l1-0.6
				c0.6-0.4,0.8-1.2,0.4-1.8c0,0,0,0,0,0L11.4,6.6z M12.7,15.8c0.4,0.6,0.2,1.4-0.3,1.9l-2.1,1.7c-0.3,0.3-0.7,0.4-1.2,0.3
				c-0.4-0.1-0.8-0.3-1-0.7l0,0c-0.4-0.6-0.2-1.3,0.4-1.7c0,0,0,0,0,0l3-1.8C11.8,15.3,12.4,15.4,12.7,15.8
				C12.7,15.8,12.7,15.8,12.7,15.8L12.7,15.8z"/>
			<path id="Path_119" class="st5" d="M14.7,11.9l-3.4-5.4l-2,1.2l2.6,4.1c0.4,0.6,0.2,1.4-0.4,1.8c0,0,0,0,0,0l-1,0.6
				c0,0-4.6,2.8-4.9,3c0,0-0.1,0.1-0.2,0.1c-0.8,0.8-1,1.9-0.7,2.9L5,21.8c0.3,2.2,1.3,4.2,2.8,5.8l0.7-0.4c0.8-0.5,1-1.5,0.5-2.3
				c0,0,0,0,0,0l-0.4-0.6c-0.5-0.8-0.8-1.6-0.9-2.5l-0.2-1.5c0.4,0.3,0.8,0.5,1.2,0.6c0.6,0.1,1.3,0,1.9-0.4c0.1,0,0.2-0.1,0.3-0.2
				l2.2-1.8c1-0.8,1.3-2.3,0.6-3.5l-0.5-0.8l1-0.6C14.9,13.3,15.1,12.6,14.7,11.9C14.8,12,14.7,12,14.7,11.9z M12.4,17.7l-2.1,1.7
				c-0.3,0.3-0.7,0.4-1.2,0.3c-0.4-0.1-0.8-0.3-1-0.7c-0.4-0.6-0.2-1.3,0.4-1.7c0,0,0,0,0,0l3-1.8c0.4-0.3,1-0.1,1.3,0.3
				c0,0,0,0,0,0C13.1,16.4,12.9,17.2,12.4,17.7L12.4,17.7z"/>
			<path id="Path_120" class="st3" d="M3.3,18l-1.6-0.2c0,0.2,0,0.3,0.1,0.4c0.1,0.1,0.2,0.3,0.2,0.4c0.5,0.7,0.7,1.5,0.6,2.4
				l-0.2,2.8c0,0.8,0.1,1.7,0.4,2.5l1,2.5c0.2,0.5,0.8,0.7,1.2,0.5c0.1,0,0.1-0.1,0.2-0.1l3.3-2.1c0.8-0.5,1-1.5,0.5-2.3
				c0,0,0,0,0,0l-0.4-0.6c-0.5-0.8-0.8-1.6-0.9-2.5l-0.2-1.5l-1.2-0.3c-0.6-0.1-1.1-0.5-1.4-1l0,0C4.6,18.5,4,18.1,3.3,18z"/>
			<path id="Path_121" class="st2" d="M9.1,25l-0.4-0.6c-0.2-0.3-0.4-0.7-0.6-1.1l-0.1-0.3C8,22.8,8,22.7,8,22.6c0-0.1,0-0.1,0-0.2
				c0-0.2-0.1-0.3-0.1-0.5l-0.1-0.7l-0.1-0.7l-1.2-0.3c-0.6-0.1-1.1-0.5-1.4-1l0,0c-0.1-0.1-0.2-0.2-0.2-0.3c-0.1,0.5-0.1,1.1,0,1.6
				L5,21.9c0.3,2.2,1.3,4.2,2.8,5.8l0.7-0.4c0.1,0,0.1-0.1,0.2-0.2L8.9,27c0.2-0.2,0.4-0.5,0.4-0.7c0,0,0-0.1,0-0.1
				c0-0.1,0-0.2,0-0.2v-0.2C9.4,25.5,9.3,25.2,9.1,25z"/>
			<path id="Path_122" class="st3" d="M13.3,12.7l-5.1,3.2c-0.1,0.1-0.3,0-0.4-0.1l-2.2-3.5c-0.1-0.1,0-0.3,0.1-0.4l5.1-3.2
				c0.1-0.1,0.3,0,0.4,0.1l2.2,3.5C13.4,12.4,13.4,12.6,13.3,12.7z"/>
			<g id="Group_44" transform="translate(7.602 8.688)">
				<path id="Path_123" class="st13" d="M3.2,0L0.3,1.8C0,2-0.1,2.4,0.1,2.8c0,0,0,0,0,0C0.3,3.1,0.7,3.2,1,3l3.1-1.9L3.5,0.1
					C3.5,0,3.4,0,3.2,0z"/>
				<path id="Path_124" class="st13" d="M1.9,5.5L1.9,5.5C2,5.9,2.5,6,2.8,5.8c0,0,0,0,0,0L5.7,4c0.1-0.1,0.2-0.2,0.1-0.4L5.1,2.7
					L2,4.6C1.7,4.8,1.6,5.2,1.9,5.5z"/>
			</g>
			<path id="Path_125" class="st8" d="M11.2,15.2l-3,1.8c-0.8,0.5-1,1.5-0.6,2.3c0,0,0,0,0,0C8,19.8,8.4,20.1,9,20.2
				c0.1,0,0.2,0,0.3,0c0.4,0,0.9-0.1,1.2-0.4l2.1-1.7c0.8-0.6,0.9-1.7,0.4-2.5c-0.2-0.3-0.5-0.5-0.9-0.6
				C11.8,14.9,11.5,15,11.2,15.2z M12.3,16.1L12.3,16.1c0.3,0.4,0.2,1-0.2,1.3l-2.1,1.7c-0.2,0.2-0.5,0.3-0.8,0.2
				c-0.3,0-0.5-0.2-0.7-0.4c-0.1-0.2-0.2-0.5,0-0.7l0.3,0.2c0.3,0.1,0.6,0.2,0.9,0.2c0.3,0,0.7-0.1,1-0.3l0.2-0.1
				c0.2-0.1,0.3-0.4,0.1-0.6c-0.1-0.2-0.4-0.3-0.6-0.1l0,0l-0.2,0.1c-0.3,0.2-0.7,0.2-1,0l2.5-1.6c0.1,0,0.2-0.1,0.3-0.1h0.1
				C12.2,15.9,12.3,16,12.3,16.1L12.3,16.1z"/>
			<path id="Path_126" class="st8" d="M21.4,3.7l-1.5-2.5l-0.6-0.9C19.2,0.2,19,0,18.8,0c-0.2,0-0.4,0-0.6,0.1l-0.8,0.5
				c-0.1,0-0.1,0.1-0.2,0.2l-2.4,3.1l-3.7,2.3l0,0l-7.5,4.7c-0.5,0.3-0.6,0.9-0.4,1.4c0.1,0.3,0.2,0.6,0.3,0.9l-0.9,0.6
				c-0.1,0.1-0.2,0.1-0.4,0.1l-0.4-0.1c-0.3-0.1-0.7,0-1,0.2l-0.5,0.3C0.1,14.4,0,14.6,0,14.9c0,0.3,0.2,0.5,0.4,0.6l2.2,0.9
				c-0.3,0.3-0.6,0.6-0.9,0.7c-0.3,0.2-0.5,0.5-0.5,0.8v0.2l0,0v0.1l0,0c0,0,0,0.1,0,0.1v0c0,0,0,0,0,0.1v0c0,0,0,0,0,0.1v0
				c0,0,0,0.1,0,0.1l0,0c0,0,0,0.1,0.1,0.1c0,0,0.1,0,0.1,0.1c0,0,0,0,0,0.1c0,0,0,0,0,0l0,0l0,0c0.4,0.6,0.6,1.4,0.6,2.2l-0.2,2.8
				c-0.1,0.9,0.1,1.8,0.4,2.7l1,2.5c0.2,0.4,0.5,0.7,0.9,0.8C4.5,30,4.6,30,4.8,30c0.2,0,0.4,0,0.6-0.1c0.1,0,0.1-0.1,0.2-0.1
				l3.3-2.1c0.5-0.3,0.8-0.8,0.9-1.3c0.1-0.5,0-1.1-0.3-1.6l-0.4-0.6C9,24,8.8,23.7,8.7,23.4c-0.2-0.5-0.4-1-0.4-1.5l-0.1-0.5
				c0.2,0.1,0.4,0.1,0.6,0.1c0.7,0.1,1.5,0,2.2-0.4c0.1-0.1,0.2-0.1,0.3-0.2l2.2-1.8c1.2-1,1.5-2.7,0.7-4l-0.3-0.4l0.7-0.4
				c0.4-0.3,0.7-0.6,0.8-1.1c0.1-0.4,0-0.9-0.2-1.3l-0.8-1.3l5.5-3.4c0.5-0.3,0.6-0.9,0.3-1.4c0,0,0,0,0,0c0,0,0-0.1,0-0.1
				c0,0,0,0,0,0c0,0,0-0.1,0.1-0.1l0.4-0.3l0,0l0.6-0.4c0.2-0.1,0.3-0.3,0.3-0.4C21.5,4.2,21.5,3.9,21.4,3.7z M17.9,1.3l0.7-0.4
				l0.3,0.5L17,2.6L17.9,1.3z M1,14.7l0.2-0.1c0.1-0.1,0.2-0.1,0.4-0.1L2,14.6c0.4,0.1,0.7,0,1-0.2l0.4-0.3c0,0.5-0.2,0.9-0.4,1.3
				L1,14.7z M8.4,24.6l0.4,0.6c0.2,0.3,0.2,0.6,0.2,0.9c-0.1,0.3-0.2,0.5-0.4,0.7c0,0-0.1,0-0.1,0.1L5,29c-0.1,0.1-0.3,0.1-0.4,0
				c-0.2,0-0.3-0.2-0.3-0.3l-1-2.5c-0.3-0.7-0.4-1.5-0.4-2.3L3,21.1l0,0c0.1-0.9-0.2-1.9-0.7-2.7v0c0,0,0,0,0,0l0,0l0.9,0.1
				c0.6,0.1,1.1,0.4,1.4,0.9c0.4,0.6,1,1.1,1.7,1.2l0.9,0.2L7.4,22c0,0.1,0,0.1,0,0.2C7.6,23.1,7.9,23.9,8.4,24.6z M14.4,12.2
				c0.1,0.2,0.2,0.4,0.1,0.6c0,0.2-0.2,0.4-0.4,0.5L13,14c-0.1,0.1-0.2,0.1-0.2,0.3c0,0.1,0,0.2,0,0.3l0.5,0.8
				c0.6,1,0.4,2.2-0.5,2.9l-2.2,1.8c-0.1,0-0.2,0.1-0.2,0.1c-0.5,0.3-1,0.4-1.5,0.3c-0.4-0.1-0.7-0.2-1-0.5l0,0c0,0,0,0,0,0
				c0,0,0,0,0,0H7.7l-1.2-0.3c-0.5-0.1-0.9-0.4-1.2-0.8c-0.4-0.7-1.2-1.2-2-1.3l-0.8-0.1c0.5-0.3,0.9-0.8,1.2-1.2l0,0
				c0.6-0.9,0.8-1.9,0.7-3v0c-0.1-0.5-0.2-0.9-0.4-1.4c0-0.1,0-0.2,0.1-0.3l7.1-4.4L14.4,12.2z M19.6,4.6L19.6,4.6l-3.1,1.9
				c-0.2,0.1-0.3,0.4-0.2,0.6c0.1,0.1,0.2,0.2,0.4,0.2c0.1,0,0.2,0,0.2-0.1L19.2,6c0,0,0,0.1,0.1,0.2s0,0.2,0,0.2l-5.5,3.4l-0.2-0.3
				l1.6-1c0.2-0.1,0.3-0.4,0.1-0.6c-0.1-0.2-0.4-0.3-0.6-0.1l-1.6,1l-1.2-2l3.4-2.1l0,0l3.9-2.4l1.2,2L19.6,4.6z"/>
			<path id="Path_127" class="st8" d="M10.6,8.4L10.6,8.4l-5.1,3.2c-0.3,0.2-0.4,0.6-0.3,0.9c0,0,0,0,0,0L7.4,16
				c0.1,0.2,0.3,0.3,0.4,0.3c0,0,0.1,0,0.2,0c0.1,0,0.3,0,0.4-0.1l5.1-3.2c0,0,0,0,0.1,0l0,0l0,0l0,0c0.1-0.1,0.2-0.2,0.2-0.3
				c0-0.1,0-0.3,0-0.4l0,0c0,0,0,0,0-0.1l-2.2-3.5c-0.1-0.1-0.2-0.3-0.4-0.3C11,8.2,10.8,8.2,10.6,8.4z M8.2,10.9l0.5-0.3l2.2-1.3
				l0.3,0.4l-2.7,1.7c-0.1,0.1-0.3,0-0.3-0.1c0,0,0,0,0,0C8,11.1,8.1,10.9,8.2,10.9z M12.9,12.4l-2.7,1.7c-0.1,0.1-0.3,0-0.3-0.1
				c-0.1-0.1,0-0.2,0.1-0.3l2.7-1.7L12.9,12.4z M11.6,10.4l0.5,0.9l-2.7,1.7c-0.5,0.3-0.7,1-0.4,1.6c0,0.1,0.1,0.1,0.2,0.2L8,15.4
				l-2-3.2l1.2-0.7l0.1,0.2c0.2,0.3,0.6,0.5,1,0.5c0.2,0,0.4-0.1,0.6-0.2L11.6,10.4z"/>
		</g>
	</g>
</g>
</svg>
