<?xml version="1.0" encoding="utf-8"?>
<!-- Generator: Adobe Illustrator 22.1.0, SVG Export Plug-In . SVG Version: 6.00 Build 0)  -->
<svg version="1.1" id="Capa_1" xmlns="http://www.w3.org/2000/svg" xmlns:xlink="http://www.w3.org/1999/xlink" x="0px" y="0px"
	 viewBox="0 0 108 378" style="enable-background:new 0 0 108 378;" xml:space="preserve">
<style type="text/css">
	.st0{fill:#3B3530;}
	.st1{enable-background:new    ;}
	.st2{fill:#EF8D39;}
	.st3{fill:#F3A96A;}
	.st4{fill:#F3D3B7;}
	.st5{fill:#EBB688;}
	.st6{fill:#FBF0E7;}
	.st7{fill:#EFC4A0;}
	.st8{fill:#EB832A;}
	.st9{fill:#F3B57F;}
	.st10{fill:#EF9C54;}
	.st11{fill:#F7E2CF;}
	.st12{fill:#F7C69C;}
	.st13{fill:#DD6B36;}
</style>
<g id="Group_84" transform="translate(-231 -384)">
	<g transform="matrix(1, 0, 0, 1, 231, 384)">
		<rect id="Rectangle_105-2" x="9" y="6" class="st0" width="90" height="360"/>
	</g>
	<g class="st1">
		<path class="st2" d="M263.4,462.3c0,0.8-0.1,1.5-0.3,2c-0.2,0.6-0.5,1-0.8,1.4c-0.4,0.3-0.8,0.6-1.2,0.8c-0.5,0.2-1,0.2-1.6,0.2
			c-0.6,0-1.2-0.1-1.8-0.2v-8.4c0.6-0.1,1.2-0.2,1.8-0.2c0.6,0,1.1,0.1,1.6,0.2c0.5,0.2,0.9,0.4,1.2,0.8c0.4,0.4,0.6,0.8,0.8,1.4
			C263.3,460.9,263.4,461.5,263.4,462.3z M258.9,465.7c0.2,0,0.5,0,0.7,0c0.4,0,0.8-0.1,1.1-0.2s0.6-0.3,0.8-0.6s0.4-0.6,0.5-1.1
			c0.1-0.4,0.2-1,0.2-1.6c0-1.2-0.2-2-0.7-2.6s-1.1-0.8-2-0.8c-0.1,0-0.2,0-0.4,0c-0.1,0-0.2,0-0.3,0V465.7z"/>
		<path class="st2" d="M267.6,460c0.9,0,1.6,0.3,2,0.8c0.5,0.5,0.7,1.4,0.7,2.5v0.4h-4.6c0,0.7,0.3,1.2,0.7,1.5
			c0.4,0.4,1,0.5,1.7,0.5c0.4,0,0.8,0,1-0.1c0.3-0.1,0.5-0.1,0.7-0.2l0.2,1c-0.1,0.1-0.4,0.2-0.8,0.2c-0.4,0.1-0.8,0.1-1.2,0.1
			c-0.6,0-1.1-0.1-1.5-0.3c-0.4-0.2-0.8-0.4-1.1-0.7c-0.3-0.3-0.5-0.7-0.6-1.1s-0.2-0.9-0.2-1.4c0-0.6,0.1-1.1,0.3-1.5
			c0.2-0.4,0.4-0.8,0.7-1.1c0.3-0.3,0.6-0.5,1-0.6C266.9,460.1,267.2,460,267.6,460z M269.2,462.8c0-0.6-0.1-1-0.4-1.3
			c-0.3-0.3-0.7-0.5-1.1-0.5c-0.3,0-0.5,0.1-0.7,0.2s-0.4,0.2-0.6,0.4s-0.3,0.4-0.4,0.6c-0.1,0.2-0.2,0.4-0.2,0.7H269.2z"/>
		<path class="st2" d="M275.7,466.8c-0.4,0-0.8-0.1-1-0.2c-0.3-0.1-0.5-0.3-0.6-0.5c-0.2-0.2-0.3-0.5-0.3-0.8
			c-0.1-0.3-0.1-0.7-0.1-1.2V458h-1.9v-1h3v7.1c0,0.3,0,0.6,0.1,0.8s0.1,0.4,0.2,0.5c0.1,0.1,0.2,0.2,0.3,0.3c0.1,0,0.3,0.1,0.5,0.1
			c0.3,0,0.5,0,0.8-0.1c0.2-0.1,0.4-0.1,0.5-0.2l0.2,1c-0.1,0-0.1,0.1-0.2,0.1c-0.1,0-0.2,0.1-0.4,0.1c-0.1,0-0.3,0.1-0.5,0.1
			C276.1,466.8,275.9,466.8,275.7,466.8z"/>
		<path class="st2" d="M280.6,461.1h-1.9v-1h3v4c0,0.6,0.1,1.1,0.3,1.3s0.4,0.3,0.8,0.3c0.3,0,0.5,0,0.7-0.1
			c0.2-0.1,0.4-0.1,0.5-0.2l0.2,1c-0.1,0-0.1,0.1-0.2,0.1c-0.1,0-0.2,0.1-0.4,0.1s-0.3,0.1-0.4,0.1c-0.2,0-0.3,0-0.5,0
			c-0.4,0-0.8-0.1-1-0.2c-0.3-0.1-0.5-0.3-0.7-0.5c-0.2-0.2-0.3-0.5-0.3-0.8c-0.1-0.3-0.1-0.7-0.1-1.2V461.1z M280.9,459.2
			c-0.2,0-0.5-0.1-0.6-0.3s-0.3-0.4-0.3-0.7c0-0.3,0.1-0.5,0.3-0.7s0.4-0.3,0.6-0.3c0.3,0,0.5,0.1,0.6,0.3c0.2,0.2,0.3,0.4,0.3,0.7
			c0,0.3-0.1,0.5-0.3,0.7C281.4,459.1,281.2,459.2,280.9,459.2z"/>
		<path class="st2" d="M288.4,460.2h2.7v1h-2.7v3c0,0.3,0,0.6,0.1,0.8c0,0.2,0.1,0.4,0.2,0.5s0.2,0.2,0.4,0.3s0.4,0.1,0.6,0.1
			c0.3,0,0.6,0,0.8-0.1c0.2-0.1,0.4-0.1,0.6-0.2l0.2,1c-0.1,0.1-0.3,0.1-0.6,0.2c-0.3,0.1-0.6,0.1-1.1,0.1c-0.5,0-0.9-0.1-1.2-0.2
			c-0.3-0.1-0.5-0.3-0.7-0.5c-0.2-0.2-0.3-0.5-0.4-0.8c-0.1-0.3-0.1-0.7-0.1-1.2v-3h-1.4v-1h1.4v-1.8l1.1-0.2V460.2z"/>
		<path class="st2" d="M298.4,463.4c0,0.5-0.1,1-0.2,1.4c-0.1,0.4-0.3,0.8-0.6,1.1c-0.3,0.3-0.6,0.5-0.9,0.7
			c-0.4,0.2-0.8,0.2-1.2,0.2c-0.4,0-0.8-0.1-1.2-0.2s-0.7-0.4-0.9-0.7c-0.3-0.3-0.5-0.7-0.6-1.1c-0.1-0.4-0.2-0.9-0.2-1.4
			c0-0.5,0.1-1,0.2-1.4c0.1-0.4,0.3-0.8,0.6-1.1c0.3-0.3,0.6-0.5,0.9-0.7c0.4-0.2,0.8-0.2,1.2-0.2c0.4,0,0.8,0.1,1.2,0.2
			c0.4,0.2,0.7,0.4,0.9,0.7c0.3,0.3,0.5,0.7,0.6,1.1C298.4,462.4,298.4,462.9,298.4,463.4z M297.2,463.4c0-0.7-0.2-1.3-0.5-1.7
			c-0.3-0.4-0.7-0.6-1.3-0.6c-0.5,0-1,0.2-1.3,0.6s-0.5,1-0.5,1.7c0,0.7,0.2,1.3,0.5,1.7s0.7,0.6,1.3,0.6c0.5,0,1-0.2,1.3-0.6
			C297.1,464.7,297.2,464.2,297.2,463.4z"/>
		<path class="st2" d="M303.9,465.1c0-0.2-0.1-0.4-0.3-0.6s-0.4-0.3-0.7-0.4s-0.6-0.2-0.9-0.3s-0.6-0.2-0.9-0.4
			c-0.3-0.2-0.5-0.4-0.7-0.6s-0.3-0.5-0.3-0.9c0-0.5,0.2-1,0.6-1.3c0.4-0.3,1.1-0.5,2-0.5c0.4,0,0.7,0,1.1,0.1
			c0.4,0.1,0.7,0.1,1,0.2l-0.2,1c-0.1,0-0.2-0.1-0.3-0.1s-0.3-0.1-0.4-0.1c-0.2,0-0.3-0.1-0.5-0.1s-0.4,0-0.6,0
			c-1,0-1.5,0.3-1.5,0.8c0,0.2,0.1,0.4,0.3,0.5c0.2,0.1,0.4,0.3,0.7,0.4c0.3,0.1,0.6,0.2,0.9,0.3c0.3,0.1,0.6,0.3,0.9,0.4
			s0.5,0.4,0.7,0.6c0.2,0.2,0.3,0.5,0.3,0.9c0,0.6-0.2,1-0.7,1.4c-0.5,0.3-1.2,0.5-2.2,0.5c-0.4,0-0.9,0-1.2-0.1s-0.7-0.2-1.1-0.3
			l0.2-1c0.3,0.1,0.7,0.3,1,0.4c0.4,0.1,0.7,0.1,1.2,0.1C303.4,465.9,303.9,465.6,303.9,465.1z"/>
	</g>
	<g class="st1">
		<path class="st2" d="M250.7,481.4c0-0.6,0.1-1.1,0.3-1.5c0.2-0.4,0.4-0.8,0.8-1.1c0.3-0.3,0.7-0.5,1.1-0.6
			c0.4-0.1,0.9-0.2,1.4-0.2c0.3,0,0.6,0,0.9,0.1c0.3,0,0.6,0.1,1,0.2l-0.3,1c-0.3-0.1-0.6-0.2-0.8-0.2c-0.3,0-0.5,0-0.8,0
			c-0.3,0-0.7,0-1,0.1c-0.3,0.1-0.6,0.2-0.8,0.4c-0.2,0.2-0.4,0.4-0.5,0.7c-0.1,0.3-0.2,0.7-0.2,1.1c0,0.4,0.1,0.8,0.2,1.1
			c0.1,0.3,0.3,0.5,0.5,0.7s0.5,0.3,0.8,0.4c0.3,0.1,0.6,0.1,1,0.1c0.3,0,0.6,0,0.9,0c0.3,0,0.6-0.1,0.9-0.2l0.2,1
			c-0.3,0.1-0.7,0.2-1,0.3c-0.3,0.1-0.7,0.1-1.1,0.1c-0.5,0-1-0.1-1.4-0.2c-0.4-0.1-0.8-0.4-1.1-0.6s-0.6-0.6-0.7-1.1
			S250.7,482,250.7,481.4z"/>
		<path class="st2" d="M263.4,481.4c0,0.5-0.1,1-0.2,1.4c-0.1,0.4-0.3,0.8-0.6,1.1s-0.6,0.5-0.9,0.7c-0.4,0.2-0.8,0.2-1.2,0.2
			c-0.4,0-0.8-0.1-1.2-0.2s-0.7-0.4-0.9-0.7c-0.3-0.3-0.5-0.7-0.6-1.1c-0.1-0.4-0.2-0.9-0.2-1.4c0-0.5,0.1-1,0.2-1.4
			c0.1-0.4,0.3-0.8,0.6-1.1c0.3-0.3,0.6-0.5,0.9-0.7c0.4-0.2,0.7-0.2,1.2-0.2c0.4,0,0.8,0.1,1.2,0.2c0.4,0.2,0.7,0.4,0.9,0.7
			s0.5,0.7,0.6,1.1C263.4,480.4,263.4,480.9,263.4,481.4z M262.2,481.4c0-0.7-0.2-1.3-0.5-1.7s-0.7-0.6-1.3-0.6
			c-0.5,0-1,0.2-1.3,0.6c-0.3,0.4-0.5,1-0.5,1.7c0,0.7,0.2,1.3,0.5,1.7c0.3,0.4,0.7,0.6,1.3,0.6c0.5,0,1-0.2,1.3-0.6
			S262.2,482.2,262.2,481.4z"/>
		<path class="st2" d="M265,478.4c0.4-0.1,0.8-0.2,1.3-0.2c0.4-0.1,0.8-0.1,1.2-0.1c0.9,0,1.5,0.2,2,0.7s0.7,1.2,0.7,2.2v3.8h-1.1
			v-3.6c0-0.4,0-0.8-0.1-1c-0.1-0.3-0.2-0.5-0.3-0.6c-0.1-0.1-0.3-0.2-0.5-0.3c-0.2-0.1-0.4-0.1-0.6-0.1c-0.2,0-0.4,0-0.6,0
			s-0.4,0.1-0.6,0.1v5.5H265V478.4z"/>
		<path class="st2" d="M274.4,478.2h2.7v1h-2.7v3c0,0.3,0,0.6,0.1,0.8c0,0.2,0.1,0.4,0.2,0.5c0.1,0.1,0.2,0.2,0.4,0.3
			s0.4,0.1,0.6,0.1c0.3,0,0.6,0,0.8-0.1c0.2-0.1,0.4-0.1,0.6-0.2l0.2,1c-0.1,0.1-0.3,0.1-0.6,0.2c-0.3,0.1-0.6,0.1-1.1,0.1
			c-0.5,0-0.9-0.1-1.2-0.2c-0.3-0.1-0.5-0.3-0.7-0.5c-0.2-0.2-0.3-0.5-0.4-0.8c-0.1-0.3-0.1-0.7-0.1-1.2v-3h-1.4v-1h1.4v-1.8
			l1.1-0.2V478.2z"/>
		<path class="st2" d="M279.5,484.7v-6.1c1-0.3,1.9-0.5,2.9-0.5c0.3,0,0.6,0,0.9,0c0.3,0,0.6,0.1,0.9,0.1l-0.2,1
			c-0.3-0.1-0.6-0.1-0.8-0.2s-0.5,0-0.7,0c-0.6,0-1.1,0.1-1.7,0.2v5.4H279.5z"/>
		<path class="st2" d="M288.5,478c0.5,0,0.9,0.1,1.2,0.2c0.3,0.1,0.6,0.3,0.8,0.5s0.3,0.5,0.4,0.8c0.1,0.3,0.1,0.6,0.1,1v4.1
			c-0.3,0-0.6,0.1-1.1,0.2c-0.4,0.1-0.9,0.1-1.4,0.1c-0.4,0-0.7,0-1-0.1c-0.3-0.1-0.6-0.2-0.9-0.3c-0.3-0.2-0.5-0.4-0.6-0.6
			c-0.2-0.3-0.2-0.6-0.2-1c0-0.4,0.1-0.7,0.2-0.9c0.2-0.3,0.4-0.5,0.6-0.6c0.3-0.2,0.6-0.3,0.9-0.3c0.3-0.1,0.7-0.1,1-0.1
			c0.5,0,0.9,0.1,1.3,0.2v-0.3c0-0.2,0-0.4-0.1-0.6c0-0.2-0.1-0.3-0.2-0.5c-0.1-0.1-0.3-0.3-0.5-0.4s-0.5-0.1-0.8-0.1
			c-0.4,0-0.8,0-1,0.1c-0.3,0.1-0.5,0.1-0.7,0.2l-0.1-1c0.2-0.1,0.4-0.1,0.8-0.2C287.6,478.1,288,478,288.5,478z M288.6,483.9
			c0.3,0,0.5,0,0.8,0c0.2,0,0.4,0,0.6-0.1v-1.9c-0.1,0-0.3-0.1-0.5-0.1c-0.2,0-0.4,0-0.7,0c-0.2,0-0.4,0-0.6,0
			c-0.2,0-0.4,0.1-0.5,0.2c-0.2,0.1-0.3,0.2-0.4,0.3c-0.1,0.1-0.2,0.3-0.2,0.5c0,0.4,0.1,0.7,0.4,0.9
			C287.7,483.8,288.1,483.9,288.6,483.9z"/>
		<path class="st2" d="M303.7,484.8c-0.4,0-0.8-0.1-1-0.2c-0.3-0.1-0.5-0.3-0.6-0.5c-0.2-0.2-0.3-0.5-0.3-0.8
			c-0.1-0.3-0.1-0.7-0.1-1.2V476h-1.9v-1h3v7.1c0,0.3,0,0.6,0.1,0.8s0.1,0.4,0.2,0.5c0.1,0.1,0.2,0.2,0.3,0.3c0.1,0,0.3,0.1,0.5,0.1
			c0.3,0,0.5,0,0.8-0.1c0.2-0.1,0.4-0.1,0.5-0.2l0.2,1c-0.1,0-0.1,0.1-0.2,0.1c-0.1,0-0.2,0.1-0.4,0.1s-0.3,0.1-0.5,0.1
			C304.1,484.8,303.9,484.8,303.7,484.8z"/>
		<path class="st2" d="M309.5,478c0.5,0,0.9,0.1,1.2,0.2c0.3,0.1,0.6,0.3,0.8,0.5s0.3,0.5,0.4,0.8c0.1,0.3,0.1,0.6,0.1,1v4.1
			c-0.3,0-0.6,0.1-1.1,0.2c-0.4,0.1-0.9,0.1-1.4,0.1c-0.4,0-0.7,0-1-0.1c-0.3-0.1-0.6-0.2-0.9-0.3c-0.3-0.2-0.5-0.4-0.6-0.6
			c-0.2-0.3-0.2-0.6-0.2-1c0-0.4,0.1-0.7,0.2-0.9c0.2-0.3,0.4-0.5,0.6-0.6c0.3-0.2,0.6-0.3,0.9-0.3c0.3-0.1,0.7-0.1,1-0.1
			c0.5,0,0.9,0.1,1.3,0.2v-0.3c0-0.2,0-0.4-0.1-0.6c0-0.2-0.1-0.3-0.2-0.5c-0.1-0.1-0.3-0.3-0.5-0.4s-0.5-0.1-0.8-0.1
			c-0.4,0-0.8,0-1,0.1c-0.3,0.1-0.5,0.1-0.7,0.2l-0.1-1c0.2-0.1,0.4-0.1,0.8-0.2C308.6,478.1,309,478,309.5,478z M309.6,483.9
			c0.3,0,0.5,0,0.8,0c0.2,0,0.4,0,0.6-0.1v-1.9c-0.1,0-0.3-0.1-0.5-0.1c-0.2,0-0.4,0-0.7,0c-0.2,0-0.4,0-0.6,0
			c-0.2,0-0.4,0.1-0.5,0.2c-0.2,0.1-0.3,0.2-0.4,0.3c-0.1,0.1-0.2,0.3-0.2,0.5c0,0.4,0.1,0.7,0.4,0.9
			C308.7,483.8,309.1,483.9,309.6,483.9z"/>
	</g>
	<g class="st1">
		<path class="st2" d="M272.4,501.1c0-0.2-0.1-0.4-0.3-0.6s-0.4-0.3-0.7-0.4s-0.6-0.2-0.9-0.3s-0.6-0.2-0.9-0.4
			c-0.3-0.2-0.5-0.4-0.7-0.6s-0.3-0.5-0.3-0.9c0-0.5,0.2-1,0.6-1.3s1.1-0.5,2-0.5c0.4,0,0.7,0,1.1,0.1c0.4,0.1,0.7,0.1,1,0.2l-0.2,1
			c-0.1,0-0.2-0.1-0.3-0.1s-0.3-0.1-0.4-0.1c-0.2,0-0.3-0.1-0.5-0.1s-0.4,0-0.6,0c-1,0-1.5,0.3-1.5,0.8c0,0.2,0.1,0.4,0.3,0.5
			c0.2,0.1,0.4,0.3,0.7,0.4c0.3,0.1,0.6,0.2,0.9,0.3c0.3,0.1,0.6,0.3,0.9,0.4c0.3,0.2,0.5,0.4,0.7,0.6c0.2,0.2,0.3,0.5,0.3,0.9
			c0,0.6-0.2,1-0.7,1.4c-0.5,0.3-1.2,0.5-2.2,0.5c-0.4,0-0.9,0-1.2-0.1c-0.4-0.1-0.7-0.2-1.1-0.3l0.2-1c0.3,0.1,0.7,0.3,1,0.4
			c0.4,0.1,0.7,0.1,1.2,0.1C271.9,501.9,272.4,501.6,272.4,501.1z"/>
		<path class="st2" d="M278,496c0.5,0,0.9,0.1,1.2,0.2c0.3,0.1,0.6,0.3,0.8,0.5c0.2,0.2,0.4,0.5,0.4,0.8c0.1,0.3,0.1,0.6,0.1,1v4.1
			c-0.3,0-0.6,0.1-1.1,0.2c-0.4,0.1-0.9,0.1-1.4,0.1c-0.4,0-0.7,0-1-0.1c-0.3-0.1-0.6-0.2-0.9-0.3c-0.3-0.2-0.5-0.4-0.6-0.6
			c-0.2-0.3-0.2-0.6-0.2-1c0-0.4,0.1-0.7,0.2-0.9c0.2-0.3,0.4-0.5,0.6-0.6c0.3-0.2,0.6-0.3,0.9-0.3c0.3-0.1,0.7-0.1,1-0.1
			c0.5,0,0.9,0.1,1.3,0.2v-0.3c0-0.2,0-0.4-0.1-0.6c0-0.2-0.1-0.3-0.2-0.5s-0.3-0.3-0.5-0.4c-0.2-0.1-0.5-0.1-0.8-0.1
			c-0.4,0-0.8,0-1,0.1c-0.3,0.1-0.5,0.1-0.7,0.2l-0.1-1c0.2-0.1,0.4-0.1,0.8-0.2C277.1,496.1,277.5,496,278,496z M278.1,501.9
			c0.3,0,0.5,0,0.8,0c0.2,0,0.4,0,0.6-0.1v-1.9c-0.1,0-0.3-0.1-0.5-0.1c-0.2,0-0.4,0-0.7,0c-0.2,0-0.4,0-0.6,0
			c-0.2,0-0.4,0.1-0.5,0.2c-0.2,0.1-0.3,0.2-0.4,0.3c-0.1,0.1-0.2,0.3-0.2,0.5c0,0.4,0.1,0.7,0.4,0.9
			C277.2,501.8,277.6,501.9,278.1,501.9z"/>
		<path class="st2" d="M286.2,502.8c-0.4,0-0.8-0.1-1-0.2c-0.3-0.1-0.5-0.3-0.6-0.5c-0.2-0.2-0.3-0.5-0.3-0.8
			c-0.1-0.3-0.1-0.7-0.1-1.2V494h-1.9v-1h3v7.1c0,0.3,0,0.6,0.1,0.8s0.1,0.4,0.2,0.5c0.1,0.1,0.2,0.2,0.3,0.3c0.1,0,0.3,0.1,0.5,0.1
			c0.3,0,0.5,0,0.8-0.1c0.2-0.1,0.4-0.1,0.5-0.2l0.2,1c-0.1,0-0.1,0.1-0.2,0.1c-0.1,0-0.2,0.1-0.4,0.1s-0.3,0.1-0.5,0.1
			C286.6,502.8,286.4,502.8,286.2,502.8z"/>
		<path class="st2" d="M294.5,502.5c-0.3,0.1-0.6,0.1-1,0.2c-0.4,0.1-0.9,0.1-1.5,0.1c-0.5,0-0.9-0.1-1.2-0.2
			c-0.3-0.1-0.6-0.3-0.8-0.6c-0.2-0.3-0.3-0.6-0.4-0.9c-0.1-0.4-0.1-0.8-0.1-1.2v-3.7h1.1v3.4c0,0.8,0.1,1.4,0.4,1.7
			s0.6,0.5,1.2,0.5c0.1,0,0.2,0,0.4,0c0.1,0,0.2,0,0.4,0c0.1,0,0.2,0,0.3,0c0.1,0,0.1,0,0.2,0v-5.5h1.2V502.5z"/>
		<path class="st2" d="M300.3,493.2l1.2-0.2v9.5c-0.3,0.1-0.6,0.1-1,0.2s-0.8,0.1-1.4,0.1c-0.5,0-0.9-0.1-1.3-0.2
			c-0.4-0.2-0.7-0.4-1-0.7c-0.3-0.3-0.5-0.7-0.6-1.1s-0.2-0.9-0.2-1.4c0-0.5,0.1-1,0.2-1.4s0.3-0.8,0.6-1.1s0.5-0.5,0.9-0.7
			s0.7-0.3,1.2-0.3c0.3,0,0.6,0,0.9,0.1s0.5,0.2,0.6,0.3V493.2z M300.3,497.6c-0.1-0.1-0.3-0.2-0.6-0.3s-0.5-0.2-0.8-0.2
			c-0.3,0-0.6,0.1-0.8,0.2c-0.2,0.1-0.4,0.3-0.5,0.5c-0.1,0.2-0.2,0.5-0.3,0.8c-0.1,0.3-0.1,0.6-0.1,0.9c0,0.8,0.2,1.3,0.5,1.8
			c0.4,0.4,0.8,0.6,1.4,0.6c0.3,0,0.5,0,0.7,0c0.2,0,0.3-0.1,0.4-0.1V497.6z"/>
	</g>
	<g class="st1">
		<path class="st2" d="M259.5,589.8c0,0.5-0.1,1-0.4,1.4c-0.3,0.4-0.7,0.7-1.1,0.9c0.1,0.2,0.3,0.5,0.5,0.8c0.2,0.3,0.3,0.6,0.5,0.9
			c0.2,0.3,0.4,0.7,0.5,1c0.2,0.3,0.3,0.7,0.5,1h-1.2c-0.3-0.7-0.6-1.3-0.9-1.9c-0.3-0.6-0.7-1.1-1-1.5c-0.1,0-0.1,0-0.2,0
			s-0.2,0-0.2,0h-1v3.4h-1.2v-8.5c0.1,0,0.3-0.1,0.5-0.1c0.2,0,0.4,0,0.6-0.1c0.2,0,0.4,0,0.6,0c0.2,0,0.4,0,0.5,0
			c1,0,1.8,0.2,2.4,0.7C259.3,588.2,259.5,588.9,259.5,589.8z M256.5,588.1c-0.2,0-0.4,0-0.6,0c-0.2,0-0.3,0-0.4,0v3.3h0.7
			c0.3,0,0.6,0,0.9-0.1c0.3,0,0.5-0.1,0.7-0.3c0.2-0.1,0.3-0.3,0.4-0.5c0.1-0.2,0.2-0.5,0.2-0.9c0-0.3-0.1-0.6-0.2-0.8
			c-0.1-0.2-0.2-0.4-0.4-0.5c-0.2-0.1-0.4-0.2-0.6-0.3C257,588.1,256.7,588.1,256.5,588.1z"/>
		<path class="st2" d="M266.9,592.6c0,0.5-0.1,1-0.2,1.4c-0.1,0.4-0.3,0.8-0.6,1.1s-0.6,0.5-0.9,0.7c-0.4,0.2-0.8,0.2-1.2,0.2
			c-0.4,0-0.8-0.1-1.2-0.2c-0.4-0.2-0.7-0.4-0.9-0.7c-0.3-0.3-0.5-0.7-0.6-1.1c-0.1-0.4-0.2-0.9-0.2-1.4c0-0.5,0.1-1,0.2-1.4
			c0.1-0.4,0.3-0.8,0.6-1.1c0.3-0.3,0.6-0.5,0.9-0.7s0.7-0.2,1.2-0.2c0.4,0,0.8,0.1,1.2,0.2c0.4,0.2,0.7,0.4,0.9,0.7
			c0.3,0.3,0.5,0.7,0.6,1.1C266.9,591.6,266.9,592.1,266.9,592.6z M265.8,592.6c0-0.7-0.2-1.3-0.5-1.7c-0.3-0.4-0.7-0.6-1.3-0.6
			c-0.5,0-1,0.2-1.3,0.6c-0.3,0.4-0.5,1-0.5,1.7c0,0.7,0.2,1.3,0.5,1.7c0.3,0.4,0.7,0.6,1.3,0.6c0.5,0,1-0.2,1.3-0.6
			C265.6,593.9,265.8,593.3,265.8,592.6z"/>
		<path class="st2" d="M269.7,589.6c0.1-0.1,0.3-0.2,0.6-0.3c0.3-0.1,0.6-0.1,0.9-0.1c0.4,0,0.8,0.1,1.2,0.3
			c0.3,0.2,0.6,0.4,0.9,0.7c0.2,0.3,0.4,0.7,0.5,1.1c0.1,0.4,0.2,0.9,0.2,1.4c0,0.5-0.1,1-0.2,1.4s-0.4,0.8-0.6,1.1
			c-0.3,0.3-0.6,0.5-1,0.7s-0.8,0.2-1.3,0.2c-0.5,0-1,0-1.4-0.1s-0.7-0.2-1-0.2v-9.3l1.2-0.2V589.6z M269.7,594.8
			c0.2,0,0.4,0.1,0.5,0.1s0.3,0,0.5,0c0.6,0,1.1-0.2,1.5-0.6c0.4-0.4,0.5-1,0.5-1.8c0-0.3,0-0.7-0.1-0.9c-0.1-0.3-0.2-0.5-0.3-0.8
			c-0.1-0.2-0.3-0.4-0.5-0.5c-0.2-0.1-0.5-0.2-0.8-0.2c-0.3,0-0.5,0.1-0.8,0.2s-0.4,0.2-0.6,0.3V594.8z"/>
		<path class="st2" d="M280.9,592.6c0,0.5-0.1,1-0.2,1.4c-0.1,0.4-0.3,0.8-0.6,1.1s-0.6,0.5-0.9,0.7c-0.4,0.2-0.8,0.2-1.2,0.2
			c-0.4,0-0.8-0.1-1.2-0.2c-0.4-0.2-0.7-0.4-0.9-0.7c-0.3-0.3-0.5-0.7-0.6-1.1c-0.1-0.4-0.2-0.9-0.2-1.4c0-0.5,0.1-1,0.2-1.4
			c0.1-0.4,0.3-0.8,0.6-1.1c0.3-0.3,0.6-0.5,0.9-0.7s0.7-0.2,1.2-0.2c0.4,0,0.8,0.1,1.2,0.2c0.4,0.2,0.7,0.4,0.9,0.7
			c0.3,0.3,0.5,0.7,0.6,1.1C280.9,591.6,280.9,592.1,280.9,592.6z M279.8,592.6c0-0.7-0.2-1.3-0.5-1.7c-0.3-0.4-0.7-0.6-1.3-0.6
			c-0.5,0-1,0.2-1.3,0.6c-0.3,0.4-0.5,1-0.5,1.7c0,0.7,0.2,1.3,0.5,1.7c0.3,0.4,0.7,0.6,1.3,0.6c0.5,0,1-0.2,1.3-0.6
			C279.6,593.9,279.8,593.3,279.8,592.6z"/>
		<path class="st2" d="M293.4,594.2c0-0.2-0.1-0.4-0.3-0.6c-0.2-0.2-0.4-0.3-0.7-0.4c-0.3-0.1-0.6-0.2-0.9-0.3s-0.6-0.2-0.9-0.4
			c-0.3-0.2-0.5-0.4-0.7-0.6c-0.2-0.2-0.3-0.5-0.3-0.9c0-0.5,0.2-1,0.6-1.3c0.4-0.3,1.1-0.5,2-0.5c0.4,0,0.7,0,1.1,0.1
			c0.4,0.1,0.7,0.1,1,0.2l-0.2,1c-0.1,0-0.2-0.1-0.3-0.1c-0.1,0-0.3-0.1-0.4-0.1s-0.3-0.1-0.5-0.1c-0.2,0-0.4,0-0.6,0
			c-1,0-1.5,0.3-1.5,0.8c0,0.2,0.1,0.4,0.3,0.5c0.2,0.1,0.4,0.3,0.7,0.4c0.3,0.1,0.6,0.2,0.9,0.3s0.6,0.3,0.9,0.4s0.5,0.4,0.7,0.6
			c0.2,0.2,0.3,0.5,0.3,0.9c0,0.6-0.2,1-0.7,1.4c-0.5,0.3-1.2,0.5-2.2,0.5c-0.4,0-0.9,0-1.2-0.1s-0.7-0.2-1.1-0.3l0.2-1.1
			c0.3,0.2,0.7,0.3,1,0.4s0.7,0.1,1.2,0.1C292.9,595,293.4,594.7,293.4,594.2z"/>
		<path class="st2" d="M298.1,590.3h-1.9v-1h3v4c0,0.6,0.1,1.1,0.3,1.3c0.2,0.2,0.4,0.3,0.8,0.3c0.3,0,0.5,0,0.7-0.1
			c0.2-0.1,0.4-0.1,0.5-0.2l0.2,1c-0.1,0-0.1,0.1-0.2,0.1c-0.1,0-0.2,0.1-0.4,0.1s-0.3,0.1-0.4,0.1c-0.2,0-0.3,0-0.5,0
			c-0.4,0-0.8-0.1-1-0.2c-0.3-0.1-0.5-0.3-0.7-0.5s-0.3-0.5-0.3-0.8c-0.1-0.3-0.1-0.7-0.1-1.2V590.3z M298.4,588.3
			c-0.2,0-0.5-0.1-0.6-0.3s-0.3-0.4-0.3-0.7s0.1-0.5,0.3-0.7s0.4-0.3,0.6-0.3c0.3,0,0.5,0.1,0.6,0.3c0.2,0.2,0.3,0.4,0.3,0.7
			s-0.1,0.5-0.3,0.7C298.9,588.2,298.7,588.3,298.4,588.3z"/>
		<path class="st2" d="M303.5,589.5c0.4-0.1,0.8-0.2,1.3-0.2c0.4-0.1,0.8-0.1,1.2-0.1c0.9,0,1.5,0.2,2,0.7c0.4,0.4,0.7,1.2,0.7,2.2
			v3.8h-1.1v-3.6c0-0.4,0-0.8-0.1-1s-0.2-0.5-0.3-0.6c-0.1-0.1-0.3-0.2-0.5-0.3s-0.4-0.1-0.6-0.1c-0.2,0-0.4,0-0.6,0
			c-0.2,0-0.4,0.1-0.6,0.1v5.5h-1.2V589.5z"/>
	</g>
	<g class="st1">
		<path class="st2" d="M260.1,607.3c-0.2,0.6-0.4,1.2-0.6,1.8c-0.2,0.6-0.4,1.2-0.7,1.7c-0.2,0.6-0.5,1.1-0.7,1.6
			c-0.2,0.5-0.5,1-0.7,1.4h-1.1c-0.4-0.9-0.9-1.9-1.3-3c-0.4-1.1-0.8-2.3-1.2-3.5h1.3c0.1,0.4,0.2,0.8,0.4,1.3s0.3,0.9,0.5,1.4
			c0.2,0.5,0.3,0.9,0.5,1.3c0.2,0.4,0.3,0.8,0.5,1.1c0.2-0.3,0.3-0.7,0.5-1.1c0.2-0.4,0.3-0.9,0.5-1.3c0.2-0.5,0.3-0.9,0.5-1.4
			s0.3-0.9,0.4-1.3H260.1z"/>
		<path class="st2" d="M263.1,608.3h-1.9v-1h3v4c0,0.6,0.1,1.1,0.3,1.3c0.2,0.2,0.4,0.3,0.8,0.3c0.3,0,0.5,0,0.7-0.1
			c0.2-0.1,0.4-0.1,0.5-0.2l0.2,1c-0.1,0-0.1,0.1-0.2,0.1c-0.1,0-0.2,0.1-0.4,0.1s-0.3,0.1-0.4,0.1c-0.2,0-0.3,0-0.5,0
			c-0.4,0-0.8-0.1-1-0.2c-0.3-0.1-0.5-0.3-0.7-0.5c-0.2-0.2-0.3-0.5-0.3-0.8c-0.1-0.3-0.1-0.7-0.1-1.2V608.3z M263.4,606.3
			c-0.2,0-0.5-0.1-0.6-0.3s-0.3-0.4-0.3-0.7s0.1-0.5,0.3-0.7s0.4-0.3,0.6-0.3c0.3,0,0.5,0.1,0.6,0.3c0.2,0.2,0.3,0.4,0.3,0.7
			s-0.1,0.5-0.3,0.7C263.9,606.2,263.7,606.3,263.4,606.3z"/>
		<path class="st2" d="M273.9,610.6c0,0.5-0.1,1-0.2,1.4c-0.1,0.4-0.3,0.8-0.6,1.1s-0.6,0.5-0.9,0.7c-0.4,0.2-0.8,0.2-1.2,0.2
			c-0.4,0-0.8-0.1-1.2-0.2c-0.4-0.2-0.7-0.4-0.9-0.7c-0.3-0.3-0.5-0.7-0.6-1.1c-0.1-0.4-0.2-0.9-0.2-1.4c0-0.5,0.1-1,0.2-1.4
			c0.1-0.4,0.3-0.8,0.6-1.1c0.3-0.3,0.6-0.5,0.9-0.7s0.7-0.2,1.2-0.2c0.4,0,0.8,0.1,1.2,0.2c0.4,0.2,0.7,0.4,0.9,0.7
			c0.3,0.3,0.5,0.7,0.6,1.1C273.9,609.6,273.9,610.1,273.9,610.6z M272.8,610.6c0-0.7-0.2-1.3-0.5-1.7c-0.3-0.4-0.7-0.6-1.3-0.6
			c-0.5,0-1,0.2-1.3,0.6c-0.3,0.4-0.5,1-0.5,1.7c0,0.7,0.2,1.3,0.5,1.7c0.3,0.4,0.7,0.6,1.3,0.6c0.5,0,1-0.2,1.3-0.6
			C272.6,611.9,272.8,611.3,272.8,610.6z"/>
		<path class="st2" d="M279.2,614c-0.4,0-0.8-0.1-1-0.2c-0.3-0.1-0.5-0.3-0.6-0.5s-0.3-0.5-0.3-0.8c-0.1-0.3-0.1-0.7-0.1-1.2v-6.1
			h-1.9v-1h3v7.1c0,0.3,0,0.6,0.1,0.8s0.1,0.4,0.2,0.5c0.1,0.1,0.2,0.2,0.3,0.3c0.1,0,0.3,0.1,0.5,0.1c0.3,0,0.5,0,0.8-0.1
			c0.2-0.1,0.4-0.1,0.5-0.2l0.2,1c-0.1,0-0.1,0.1-0.2,0.1c-0.1,0-0.2,0.1-0.4,0.1c-0.1,0-0.3,0.1-0.5,0.1
			C279.6,614,279.4,614,279.2,614z"/>
		<path class="st2" d="M285.1,607.2c0.9,0,1.6,0.3,2,0.8c0.5,0.5,0.7,1.4,0.7,2.5v0.4h-4.6c0,0.7,0.3,1.2,0.7,1.5
			c0.4,0.3,1,0.5,1.7,0.5c0.4,0,0.8,0,1-0.1c0.3-0.1,0.5-0.1,0.7-0.2l0.2,1c-0.1,0.1-0.4,0.2-0.8,0.2c-0.4,0.1-0.8,0.1-1.2,0.1
			c-0.6,0-1.1-0.1-1.5-0.3c-0.4-0.2-0.8-0.4-1.1-0.7c-0.3-0.3-0.5-0.7-0.6-1.1c-0.1-0.4-0.2-0.9-0.2-1.4c0-0.6,0.1-1.1,0.3-1.5
			c0.2-0.4,0.4-0.8,0.7-1.1c0.3-0.3,0.6-0.5,1-0.6C284.4,607.3,284.7,607.2,285.1,607.2z M286.7,610c0-0.6-0.1-1-0.4-1.3
			c-0.3-0.3-0.7-0.5-1.1-0.5c-0.3,0-0.5,0.1-0.7,0.2c-0.2,0.1-0.4,0.2-0.6,0.4s-0.3,0.4-0.4,0.6c-0.1,0.2-0.2,0.4-0.2,0.7H286.7z"/>
		<path class="st2" d="M289.5,607.5c0.4-0.1,0.8-0.2,1.3-0.2c0.4-0.1,0.8-0.1,1.2-0.1c0.9,0,1.5,0.2,2,0.7c0.4,0.4,0.7,1.2,0.7,2.2
			v3.8h-1.1v-3.6c0-0.4,0-0.8-0.1-1s-0.2-0.5-0.3-0.6c-0.1-0.1-0.3-0.2-0.5-0.3s-0.4-0.1-0.6-0.1c-0.2,0-0.4,0-0.6,0
			c-0.2,0-0.4,0.1-0.6,0.1v5.5h-1.2V607.5z"/>
		<path class="st2" d="M296.2,610.6c0-0.6,0.1-1.1,0.3-1.5s0.4-0.8,0.8-1.1c0.3-0.3,0.7-0.5,1.1-0.6c0.4-0.1,0.9-0.2,1.4-0.2
			c0.3,0,0.6,0,0.9,0.1c0.3,0,0.6,0.1,1,0.2l-0.3,1c-0.3-0.1-0.6-0.2-0.8-0.2c-0.3,0-0.5,0-0.8,0c-0.3,0-0.7,0-1,0.1
			c-0.3,0.1-0.6,0.2-0.8,0.4c-0.2,0.2-0.4,0.4-0.5,0.7s-0.2,0.7-0.2,1.1c0,0.4,0.1,0.8,0.2,1.1c0.1,0.3,0.3,0.5,0.5,0.7
			c0.2,0.2,0.5,0.3,0.8,0.4c0.3,0.1,0.6,0.1,1,0.1c0.3,0,0.6,0,0.9,0c0.3,0,0.6-0.1,0.9-0.2l0.2,1c-0.3,0.1-0.7,0.2-1,0.3
			c-0.3,0.1-0.7,0.1-1.1,0.1c-0.5,0-1-0.1-1.4-0.2s-0.8-0.4-1.1-0.6c-0.3-0.3-0.6-0.6-0.7-1.1C296.3,611.6,296.2,611.2,296.2,610.6z
			"/>
		<path class="st2" d="M305.1,608.3h-1.9v-1h3v4c0,0.6,0.1,1.1,0.3,1.3c0.2,0.2,0.4,0.3,0.8,0.3c0.3,0,0.5,0,0.7-0.1
			c0.2-0.1,0.4-0.1,0.5-0.2l0.2,1c-0.1,0-0.1,0.1-0.2,0.1c-0.1,0-0.2,0.1-0.4,0.1s-0.3,0.1-0.4,0.1c-0.2,0-0.3,0-0.5,0
			c-0.4,0-0.8-0.1-1-0.2c-0.3-0.1-0.5-0.3-0.7-0.5s-0.3-0.5-0.3-0.8c-0.1-0.3-0.1-0.7-0.1-1.2V608.3z M305.4,606.3
			c-0.2,0-0.5-0.1-0.6-0.3s-0.3-0.4-0.3-0.7s0.1-0.5,0.3-0.7s0.4-0.3,0.6-0.3c0.3,0,0.5,0.1,0.6,0.3c0.2,0.2,0.3,0.4,0.3,0.7
			s-0.1,0.5-0.3,0.7C305.9,606.2,305.7,606.3,305.4,606.3z"/>
		<path class="st2" d="M313,607.2c0.5,0,0.9,0.1,1.2,0.2c0.3,0.1,0.6,0.3,0.8,0.5s0.3,0.5,0.4,0.8s0.1,0.6,0.1,1v4.1
			c-0.3,0-0.6,0.1-1.1,0.2s-0.9,0.1-1.4,0.1c-0.4,0-0.7,0-1-0.1c-0.3-0.1-0.6-0.2-0.9-0.3c-0.3-0.2-0.5-0.4-0.6-0.6
			c-0.2-0.3-0.2-0.6-0.2-1c0-0.4,0.1-0.7,0.2-0.9c0.2-0.3,0.4-0.5,0.6-0.6c0.3-0.2,0.6-0.3,0.9-0.3c0.3-0.1,0.7-0.1,1-0.1
			c0.5,0,0.9,0.1,1.3,0.2v-0.3c0-0.2,0-0.4-0.1-0.6c0-0.2-0.1-0.3-0.2-0.5c-0.1-0.1-0.3-0.3-0.5-0.4c-0.2-0.1-0.5-0.1-0.8-0.1
			c-0.4,0-0.8,0-1,0.1c-0.3,0.1-0.5,0.1-0.7,0.2l-0.1-1c0.2-0.1,0.4-0.1,0.8-0.2C312.1,607.2,312.5,607.2,313,607.2z M313.1,613
			c0.3,0,0.5,0,0.8,0c0.2,0,0.4,0,0.6-0.1V611c-0.1,0-0.3-0.1-0.5-0.1c-0.2,0-0.4,0-0.7,0c-0.2,0-0.4,0-0.6,0
			c-0.2,0-0.4,0.1-0.5,0.2c-0.2,0.1-0.3,0.2-0.4,0.3c-0.1,0.1-0.2,0.3-0.2,0.5c0,0.4,0.1,0.7,0.4,0.9S312.6,613,313.1,613z"/>
	</g>
	<g class="st1">
		<path class="st2" d="M259.5,701c0,0.5-0.1,1-0.4,1.4c-0.3,0.4-0.7,0.7-1.1,0.9c0.1,0.2,0.3,0.5,0.5,0.8c0.2,0.3,0.3,0.6,0.5,0.9
			c0.2,0.3,0.4,0.7,0.5,1c0.2,0.3,0.3,0.7,0.5,1h-1.2c-0.3-0.7-0.6-1.3-0.9-1.9c-0.3-0.6-0.7-1.1-1-1.5c-0.1,0-0.1,0-0.2,0
			s-0.2,0-0.2,0h-1v3.4h-1.2v-8.5c0.1,0,0.3-0.1,0.5-0.1c0.2,0,0.4,0,0.6-0.1c0.2,0,0.4,0,0.6,0c0.2,0,0.4,0,0.5,0
			c1,0,1.8,0.2,2.4,0.7C259.3,699.4,259.5,700.1,259.5,701z M256.5,699.2c-0.2,0-0.4,0-0.6,0s-0.3,0-0.4,0v3.3h0.7
			c0.3,0,0.6,0,0.9-0.1c0.3,0,0.5-0.1,0.7-0.3c0.2-0.1,0.3-0.3,0.4-0.5c0.1-0.2,0.2-0.5,0.2-0.9c0-0.3-0.1-0.6-0.2-0.8
			c-0.1-0.2-0.2-0.4-0.4-0.5s-0.4-0.2-0.6-0.3C257,699.3,256.7,699.2,256.5,699.2z"/>
		<path class="st2" d="M266.9,703.8c0,0.5-0.1,1-0.2,1.4c-0.1,0.4-0.3,0.8-0.6,1.1s-0.6,0.5-0.9,0.7c-0.4,0.2-0.8,0.2-1.2,0.2
			c-0.4,0-0.8-0.1-1.2-0.2s-0.7-0.4-0.9-0.7c-0.3-0.3-0.5-0.7-0.6-1.1c-0.1-0.4-0.2-0.9-0.2-1.4c0-0.5,0.1-1,0.2-1.4
			c0.1-0.4,0.3-0.8,0.6-1.1c0.3-0.3,0.6-0.5,0.9-0.7c0.4-0.2,0.7-0.2,1.2-0.2c0.4,0,0.8,0.1,1.2,0.2c0.4,0.2,0.7,0.4,0.9,0.7
			s0.5,0.7,0.6,1.1C266.9,702.8,266.9,703.2,266.9,703.8z M265.8,703.8c0-0.7-0.2-1.3-0.5-1.7s-0.7-0.6-1.3-0.6
			c-0.5,0-1,0.2-1.3,0.6c-0.3,0.4-0.5,1-0.5,1.7c0,0.7,0.2,1.3,0.5,1.7c0.3,0.4,0.7,0.6,1.3,0.6c0.5,0,1-0.2,1.3-0.6
			S265.8,704.5,265.8,703.8z"/>
		<path class="st2" d="M269.7,700.7c0.1-0.1,0.3-0.2,0.6-0.3c0.3-0.1,0.6-0.1,0.9-0.1c0.4,0,0.8,0.1,1.2,0.3
			c0.3,0.2,0.6,0.4,0.9,0.7c0.2,0.3,0.4,0.7,0.5,1.1s0.2,0.9,0.2,1.4c0,0.5-0.1,1-0.2,1.4s-0.4,0.8-0.6,1.1s-0.6,0.5-1,0.7
			s-0.8,0.2-1.3,0.2c-0.5,0-1,0-1.4-0.1s-0.7-0.1-1-0.2v-9.3l1.2-0.2V700.7z M269.7,706c0.2,0,0.4,0.1,0.5,0.1c0.2,0,0.3,0,0.5,0
			c0.6,0,1.1-0.2,1.5-0.6c0.4-0.4,0.5-1,0.5-1.8c0-0.3,0-0.7-0.1-0.9s-0.2-0.5-0.3-0.8c-0.1-0.2-0.3-0.4-0.5-0.5
			c-0.2-0.1-0.5-0.2-0.8-0.2c-0.3,0-0.5,0.1-0.8,0.2s-0.4,0.2-0.6,0.3V706z"/>
		<path class="st2" d="M280.9,703.8c0,0.5-0.1,1-0.2,1.4c-0.1,0.4-0.3,0.8-0.6,1.1s-0.6,0.5-0.9,0.7c-0.4,0.2-0.8,0.2-1.2,0.2
			c-0.4,0-0.8-0.1-1.2-0.2s-0.7-0.4-0.9-0.7c-0.3-0.3-0.5-0.7-0.6-1.1c-0.1-0.4-0.2-0.9-0.2-1.4c0-0.5,0.1-1,0.2-1.4
			c0.1-0.4,0.3-0.8,0.6-1.1c0.3-0.3,0.6-0.5,0.9-0.7c0.4-0.2,0.7-0.2,1.2-0.2c0.4,0,0.8,0.1,1.2,0.2c0.4,0.2,0.7,0.4,0.9,0.7
			s0.5,0.7,0.6,1.1C280.9,702.8,280.9,703.2,280.9,703.8z M279.8,703.8c0-0.7-0.2-1.3-0.5-1.7s-0.7-0.6-1.3-0.6
			c-0.5,0-1,0.2-1.3,0.6c-0.3,0.4-0.5,1-0.5,1.7c0,0.7,0.2,1.3,0.5,1.7c0.3,0.4,0.7,0.6,1.3,0.6c0.5,0,1-0.2,1.3-0.6
			S279.8,704.5,279.8,703.8z"/>
		<path class="st2" d="M289.2,703.8c0-0.6,0.1-1.1,0.3-1.5c0.2-0.4,0.4-0.8,0.8-1.1c0.3-0.3,0.7-0.5,1.1-0.6
			c0.4-0.1,0.9-0.2,1.4-0.2c0.3,0,0.6,0,0.9,0.1s0.6,0.1,1,0.2l-0.3,1c-0.3-0.1-0.6-0.2-0.8-0.2c-0.3,0-0.5,0-0.8,0
			c-0.3,0-0.7,0-1,0.1c-0.3,0.1-0.6,0.2-0.8,0.4c-0.2,0.2-0.4,0.4-0.5,0.7c-0.1,0.3-0.2,0.7-0.2,1.1c0,0.4,0.1,0.8,0.2,1.1
			c0.1,0.3,0.3,0.5,0.5,0.7c0.2,0.2,0.5,0.3,0.8,0.4c0.3,0.1,0.6,0.1,1,0.1c0.3,0,0.6,0,0.9,0c0.3,0,0.6-0.1,0.9-0.2l0.2,1
			c-0.3,0.1-0.7,0.2-1,0.3c-0.3,0.1-0.7,0.1-1.1,0.1c-0.5,0-1-0.1-1.4-0.2c-0.4-0.1-0.8-0.4-1.1-0.6s-0.6-0.6-0.7-1.1
			C289.3,704.8,289.2,704.3,289.2,703.8z"/>
		<path class="st2" d="M301.9,703.8c0,0.5-0.1,1-0.2,1.4c-0.1,0.4-0.3,0.8-0.6,1.1c-0.3,0.3-0.6,0.5-0.9,0.7
			c-0.4,0.2-0.8,0.2-1.2,0.2c-0.4,0-0.8-0.1-1.2-0.2s-0.7-0.4-0.9-0.7c-0.3-0.3-0.5-0.7-0.6-1.1c-0.1-0.4-0.2-0.9-0.2-1.4
			c0-0.5,0.1-1,0.2-1.4c0.1-0.4,0.3-0.8,0.6-1.1c0.3-0.3,0.6-0.5,0.9-0.7c0.4-0.2,0.8-0.2,1.2-0.2c0.4,0,0.8,0.1,1.2,0.2
			c0.4,0.2,0.7,0.4,0.9,0.7c0.3,0.3,0.5,0.7,0.6,1.1C301.9,702.8,301.9,703.2,301.9,703.8z M300.8,703.8c0-0.7-0.2-1.3-0.5-1.7
			c-0.3-0.4-0.7-0.6-1.3-0.6c-0.5,0-1,0.2-1.3,0.6s-0.5,1-0.5,1.7c0,0.7,0.2,1.3,0.5,1.7s0.7,0.6,1.3,0.6c0.5,0,1-0.2,1.3-0.6
			C300.6,705.1,300.8,704.5,300.8,703.8z"/>
		<path class="st2" d="M303.5,700.7c0.4-0.1,0.8-0.2,1.3-0.2c0.4-0.1,0.8-0.1,1.2-0.1c0.9,0,1.5,0.2,2,0.7s0.7,1.2,0.7,2.2v3.8h-1.1
			v-3.6c0-0.4,0-0.8-0.1-1c-0.1-0.3-0.2-0.5-0.3-0.6c-0.1-0.1-0.3-0.2-0.5-0.3c-0.2-0.1-0.4-0.1-0.6-0.1c-0.2,0-0.4,0-0.6,0
			c-0.2,0-0.4,0.1-0.6,0.1v5.5h-1.2V700.7z"/>
	</g>
	<g class="st1">
		<path class="st2" d="M260.1,718.5c-0.2,0.6-0.4,1.2-0.6,1.8s-0.4,1.2-0.7,1.7c-0.2,0.6-0.5,1.1-0.7,1.6c-0.2,0.5-0.5,1-0.7,1.4
			h-1.1c-0.4-0.9-0.9-1.9-1.3-3c-0.4-1.1-0.8-2.3-1.2-3.5h1.3c0.1,0.4,0.2,0.8,0.4,1.3c0.1,0.5,0.3,0.9,0.5,1.4
			c0.2,0.5,0.3,0.9,0.5,1.3c0.2,0.4,0.3,0.8,0.5,1.1c0.2-0.3,0.3-0.7,0.5-1.1s0.3-0.9,0.5-1.3c0.2-0.5,0.3-0.9,0.5-1.4
			c0.2-0.5,0.3-0.9,0.4-1.3H260.1z"/>
		<path class="st2" d="M263.1,719.5h-1.9v-1h3v4c0,0.6,0.1,1.1,0.3,1.3s0.4,0.3,0.8,0.3c0.3,0,0.5,0,0.7-0.1
			c0.2-0.1,0.4-0.1,0.5-0.2l0.2,1c-0.1,0-0.1,0.1-0.2,0.1c-0.1,0-0.2,0.1-0.4,0.1s-0.3,0.1-0.4,0.1c-0.2,0-0.3,0-0.5,0
			c-0.4,0-0.8-0.1-1-0.2c-0.3-0.1-0.5-0.3-0.7-0.5c-0.2-0.2-0.3-0.5-0.3-0.8c-0.1-0.3-0.1-0.7-0.1-1.2V719.5z M263.4,717.5
			c-0.2,0-0.5-0.1-0.6-0.3s-0.3-0.4-0.3-0.7c0-0.3,0.1-0.5,0.3-0.7s0.4-0.3,0.6-0.3c0.3,0,0.5,0.1,0.6,0.3c0.2,0.2,0.3,0.4,0.3,0.7
			c0,0.3-0.1,0.5-0.3,0.7C263.9,717.4,263.7,717.5,263.4,717.5z"/>
		<path class="st2" d="M273.9,721.8c0,0.5-0.1,1-0.2,1.4c-0.1,0.4-0.3,0.8-0.6,1.1s-0.6,0.5-0.9,0.7c-0.4,0.2-0.8,0.2-1.2,0.2
			c-0.4,0-0.8-0.1-1.2-0.2s-0.7-0.4-0.9-0.7c-0.3-0.3-0.5-0.7-0.6-1.1c-0.1-0.4-0.2-0.9-0.2-1.4c0-0.5,0.1-1,0.2-1.4
			c0.1-0.4,0.3-0.8,0.6-1.1c0.3-0.3,0.6-0.5,0.9-0.7c0.4-0.2,0.7-0.2,1.2-0.2c0.4,0,0.8,0.1,1.2,0.2c0.4,0.2,0.7,0.4,0.9,0.7
			s0.5,0.7,0.6,1.1C273.9,720.8,273.9,721.2,273.9,721.8z M272.8,721.8c0-0.7-0.2-1.3-0.5-1.7s-0.7-0.6-1.3-0.6
			c-0.5,0-1,0.2-1.3,0.6c-0.3,0.4-0.5,1-0.5,1.7c0,0.7,0.2,1.3,0.5,1.7c0.3,0.4,0.7,0.6,1.3,0.6c0.5,0,1-0.2,1.3-0.6
			S272.8,722.5,272.8,721.8z"/>
		<path class="st2" d="M279.2,725.2c-0.4,0-0.8-0.1-1-0.2c-0.3-0.1-0.5-0.3-0.6-0.5c-0.2-0.2-0.3-0.5-0.3-0.8
			c-0.1-0.3-0.1-0.7-0.1-1.2v-6.1h-1.9v-1h3v7.1c0,0.3,0,0.6,0.1,0.8s0.1,0.4,0.2,0.5c0.1,0.1,0.2,0.2,0.3,0.3
			c0.1,0,0.3,0.1,0.5,0.1c0.3,0,0.5,0,0.8-0.1c0.2-0.1,0.4-0.1,0.5-0.2l0.2,1c-0.1,0-0.1,0.1-0.2,0.1c-0.1,0-0.2,0.1-0.4,0.1
			c-0.1,0-0.3,0.1-0.5,0.1C279.6,725.1,279.4,725.2,279.2,725.2z"/>
		<path class="st2" d="M285.1,718.4c0.9,0,1.6,0.3,2,0.8c0.5,0.5,0.7,1.4,0.7,2.5v0.4h-4.6c0,0.7,0.3,1.2,0.7,1.5
			c0.4,0.4,1,0.5,1.7,0.5c0.4,0,0.8,0,1-0.1c0.3-0.1,0.5-0.1,0.7-0.2l0.2,1c-0.1,0.1-0.4,0.2-0.8,0.2c-0.4,0.1-0.8,0.1-1.2,0.1
			c-0.6,0-1.1-0.1-1.5-0.3c-0.4-0.2-0.8-0.4-1.1-0.7c-0.3-0.3-0.5-0.7-0.6-1.1s-0.2-0.9-0.2-1.4c0-0.6,0.1-1.1,0.3-1.5
			c0.2-0.4,0.4-0.8,0.7-1.1c0.3-0.3,0.6-0.5,1-0.6C284.4,718.4,284.7,718.4,285.1,718.4z M286.7,721.1c0-0.6-0.1-1-0.4-1.3
			c-0.3-0.3-0.7-0.5-1.1-0.5c-0.3,0-0.5,0.1-0.7,0.2s-0.4,0.2-0.6,0.4s-0.3,0.4-0.4,0.6c-0.1,0.2-0.2,0.4-0.2,0.7H286.7z"/>
		<path class="st2" d="M289.5,718.7c0.4-0.1,0.8-0.2,1.3-0.2c0.4-0.1,0.8-0.1,1.2-0.1c0.9,0,1.5,0.2,2,0.7s0.7,1.2,0.7,2.2v3.8h-1.1
			v-3.6c0-0.4,0-0.8-0.1-1c-0.1-0.3-0.2-0.5-0.3-0.6c-0.1-0.1-0.3-0.2-0.5-0.3c-0.2-0.1-0.4-0.1-0.6-0.1c-0.2,0-0.4,0-0.6,0
			c-0.2,0-0.4,0.1-0.6,0.1v5.5h-1.2V718.7z"/>
		<path class="st2" d="M296.2,721.8c0-0.6,0.1-1.1,0.3-1.5c0.2-0.4,0.4-0.8,0.8-1.1c0.3-0.3,0.7-0.5,1.1-0.6
			c0.4-0.1,0.9-0.2,1.4-0.2c0.3,0,0.6,0,0.9,0.1s0.6,0.1,1,0.2l-0.3,1c-0.3-0.1-0.6-0.2-0.8-0.2c-0.3,0-0.5,0-0.8,0
			c-0.3,0-0.7,0-1,0.1c-0.3,0.1-0.6,0.2-0.8,0.4c-0.2,0.2-0.4,0.4-0.5,0.7c-0.1,0.3-0.2,0.7-0.2,1.1c0,0.4,0.1,0.8,0.2,1.1
			c0.1,0.3,0.3,0.5,0.5,0.7c0.2,0.2,0.5,0.3,0.8,0.4c0.3,0.1,0.6,0.1,1,0.1c0.3,0,0.6,0,0.9,0c0.3,0,0.6-0.1,0.9-0.2l0.2,1
			c-0.3,0.1-0.7,0.2-1,0.3c-0.3,0.1-0.7,0.1-1.1,0.1c-0.5,0-1-0.1-1.4-0.2c-0.4-0.1-0.8-0.4-1.1-0.6s-0.6-0.6-0.7-1.1
			C296.3,722.8,296.2,722.3,296.2,721.8z"/>
		<path class="st2" d="M305.1,719.5h-1.9v-1h3v4c0,0.6,0.1,1.1,0.3,1.3s0.4,0.3,0.8,0.3c0.3,0,0.5,0,0.7-0.1
			c0.2-0.1,0.4-0.1,0.5-0.2l0.2,1c-0.1,0-0.1,0.1-0.2,0.1c-0.1,0-0.2,0.1-0.4,0.1s-0.3,0.1-0.4,0.1c-0.2,0-0.3,0-0.5,0
			c-0.4,0-0.8-0.1-1-0.2c-0.3-0.1-0.5-0.3-0.7-0.5c-0.2-0.2-0.3-0.5-0.3-0.8c-0.1-0.3-0.1-0.7-0.1-1.2V719.5z M305.4,717.5
			c-0.2,0-0.5-0.1-0.6-0.3s-0.3-0.4-0.3-0.7c0-0.3,0.1-0.5,0.3-0.7s0.4-0.3,0.6-0.3c0.3,0,0.5,0.1,0.6,0.3c0.2,0.2,0.3,0.4,0.3,0.7
			c0,0.3-0.1,0.5-0.3,0.7C305.9,717.4,305.7,717.5,305.4,717.5z"/>
		<path class="st2" d="M313,718.4c0.5,0,0.9,0.1,1.2,0.2c0.3,0.1,0.6,0.3,0.8,0.5s0.3,0.5,0.4,0.8c0.1,0.3,0.1,0.6,0.1,1v4.1
			c-0.3,0-0.6,0.1-1.1,0.2c-0.4,0.1-0.9,0.1-1.4,0.1c-0.4,0-0.7,0-1-0.1c-0.3-0.1-0.6-0.2-0.9-0.3c-0.3-0.2-0.5-0.4-0.6-0.6
			c-0.2-0.3-0.2-0.6-0.2-1c0-0.4,0.1-0.7,0.2-0.9c0.2-0.3,0.4-0.5,0.6-0.6c0.3-0.2,0.6-0.3,0.9-0.3c0.3-0.1,0.7-0.1,1-0.1
			c0.5,0,0.9,0.1,1.3,0.2v-0.3c0-0.2,0-0.4-0.1-0.6c0-0.2-0.1-0.3-0.2-0.5c-0.1-0.1-0.3-0.3-0.5-0.4s-0.5-0.1-0.8-0.1
			c-0.4,0-0.8,0-1,0.1c-0.3,0.1-0.5,0.1-0.7,0.2l-0.1-1c0.2-0.1,0.4-0.1,0.8-0.2C312.1,718.4,312.5,718.4,313,718.4z M313.1,724.2
			c0.3,0,0.5,0,0.8,0c0.2,0,0.4,0,0.6-0.1v-1.9c-0.1,0-0.3-0.1-0.5-0.1c-0.2,0-0.4,0-0.7,0c-0.2,0-0.4,0-0.6,0
			c-0.2,0-0.4,0.1-0.5,0.2c-0.2,0.1-0.3,0.2-0.4,0.3c-0.1,0.1-0.2,0.3-0.2,0.5c0,0.4,0.1,0.7,0.4,0.9
			C312.2,724.1,312.6,724.2,313.1,724.2z"/>
	</g>
	<g id="Group_57" transform="translate(263 405.808)">
		<path id="Path_99" class="st3" d="M40.9,6.7c0.9-1,0.7-2.5-0.3-3.4c-0.9-0.8-2.2-0.8-3.1,0L40.9,6.7z"/>
		<path id="Path_100" class="st2" d="M41.2,4.2L41.2,4.2c-0.5-1.2-1.9-1.8-3.1-1.3c-0.2,0.1-0.4,0.2-0.6,0.4l1.3,1.3
			C39.5,4,40.4,3.9,41.2,4.2z"/>
		
			<rect id="Rectangle_1464" x="32.6" y="6.7" transform="matrix(0.7071 -0.7071 0.7071 0.7071 4.11 27.6139)" class="st3" width="5.6" height="4.2"/>
		
			<rect id="Rectangle_1465" x="31.8" y="7" transform="matrix(0.7071 -0.7071 0.7071 0.7071 4.4523 26.7945)" class="st2" width="5.6" height="2"/>
		<path id="Path_101" class="st3" d="M9.5,31.9l-1.9,1.9c-0.5,0.5-0.5,1.3,0,1.8l1.1,1.1c0.5,0.5,1.3,0.5,1.8,0l1.9-1.9L9.5,31.9z"
			/>
		<path id="Path_102" class="st2" d="M9,35.2l2-2l-1.4-1.3l-1.9,1.9c-0.5,0.5-0.5,1.3,0,1.8l0.9,0.9C8.5,36,8.6,35.6,9,35.2z"/>
		<path id="Path_103" class="st4" d="M28.9,10.1L9,30c-0.4,0.4-0.4,1.1,0,1.5c0,0,0,0,0,0l3.8,3.8c0.4,0.4,1.1,0.4,1.5,0
			c0,0,0,0,0,0l20-19.9L28.9,10.1z"/>
		<path id="Path_104" class="st5" d="M10.1,31.2l19.9-19.9l4.2,4.2l0,0l-5.3-5.3L9,30c-0.4,0.4-0.4,1.1,0,1.5c0,0,0,0,0,0l1,1
			C9.7,32.1,9.8,31.5,10.1,31.2z"/>
		<path id="Path_105" class="st6" d="M24.6,14.4c-0.6,3.4-0.4,6.9,0.5,10.2l9.1-9.1l-5.3-5.3L24.6,14.4z"/>
		<path id="Path_106" class="st7" d="M24.2,17.1l5.8-5.8l4.2,4.2l0,0l-5.3-5.3l-4.3,4.3C24.4,15.3,24.3,16.2,24.2,17.1z"/>
		<path id="Path_107" class="st2" d="M10.4,28.5L9,30c-0.4,0.4-0.4,1.1,0,1.5c0,0,0,0,0,0l3.8,3.8c0.4,0.4,1.1,0.4,1.5,0
			c0,0,0,0,0,0l1.4-1.4C15.2,33.3,10.9,29.2,10.4,28.5z"/>
		<path id="Path_108" class="st3" d="M10.1,31.2l1.4-1.4l-1.2-1.2L8.9,30c-0.4,0.4-0.4,1.1,0,1.5c0,0,0,0,0,0l1,1
			C9.7,32.1,9.8,31.5,10.1,31.2z"/>
		<path id="Path_109" class="st2" d="M29.6,6.9l7.7,7.7c0.5,0.5,0.5,1.3,0,1.8L37,16.6c-0.5,0.5-1.3,0.5-1.8,0l-7.7-7.7
			c-0.5-0.5-0.5-1.3,0-1.8l0.3-0.3C28.4,6.4,29.2,6.4,29.6,6.9z"/>
		<path id="Path_110" class="st3" d="M36.3,15.8l-7.7-7.7c-0.4-0.4-0.5-1-0.2-1.5c-0.3,0.1-0.6,0.3-0.9,0.6c-0.5,0.5-0.5,1.3,0,1.8
			l7.7,7.7c0.5,0.5,1.3,0.5,1.8,0l0.5-0.5C37.1,16.2,36.6,16.1,36.3,15.8z"/>
		<path id="Path_111" class="st7" d="M33.7,1c0.5-0.5,1.3-0.5,1.8,0l7.7,7.7c0.5,0.5,0.5,1.3,0,1.8l-0.3,0.3c-0.5,0.5-1.3,0.5-1.8,0
			l-7.7-7.7c-0.5-0.5-0.5-1.3,0-1.8L33.7,1z"/>
		<path id="Path_112" class="st5" d="M42,9.9l-7.7-7.7c-0.4-0.4-0.5-0.9-0.2-1.4c-0.3,0.1-0.5,0.3-0.7,0.6c-0.5,0.5-0.5,1.3,0,1.8
			l7.7,7.7c0.5,0.5,1.3,0.5,1.8,0c0.2-0.2,0.4-0.4,0.6-0.6C42.9,10.3,42.4,10.2,42,9.9z"/>
		<path id="Path_113" class="st8" d="M43.5,8.2l-1.8-1.8c0.6-1.2,0.4-2.6-0.5-3.6c-0.9-1-2.4-1.2-3.6-0.5l-1.8-1.8
			C35.6,0.2,35.1,0,34.6,0C34,0,33.4,0.3,33,0.9c-0.7,0.7-0.7,1.9,0,2.6c0,0,0,0,0,0l1.9,1.9l-3,3L30,6.5c-0.4-0.4-0.8-0.6-1.4-0.6
			c-0.6,0-1.2,0.3-1.6,0.9c-0.7,0.7-0.7,1.9,0,2.6c0,0,0,0,0,0l0.7,0.7C26.6,11.4,9.2,28.8,8.5,29.4c-0.7,0.7-0.7,1.8,0,2.5
			l-1.4,1.4c-0.7,0.8-0.7,2,0,2.7c0,0,0,0,0,0c0,0.1-6.9,7-7,7.1c-0.2,0.3-0.2,0.7,0,0.9c0.3,0.2,0.7,0.2,0.9,0l7.1-7.1
			c0.7,0.8,1.9,0.8,2.7,0.1c0,0,0.1-0.1,0.1-0.1l1.4-1.4c0.6,0.6,1.6,0.7,2.3,0.1c0.1-0.1-0.8,0.8,16.5-16.5c0.3-0.3,0.3-0.7,0-0.9
			s-0.7-0.3-0.9,0L15.7,32.8L15,32.1c-0.3-0.3-0.7-0.3-0.9,0c-0.3,0.3-0.3,0.7,0,0.9l0.7,0.7l-0.9,0.9c-0.2,0.2-0.4,0.2-0.6,0
			c0,0,0,0,0,0l-3.7-3.7c-0.2-0.2-0.2-0.4,0-0.6c0,0,0,0,0,0l0.9-0.9l2.2,2.2c0.3,0.3,0.7,0.3,0.9,0c0.3-0.3,0.3-0.7,0-0.9l0,0
			l-2.2-2.2l1.2-1.2l1.3,1.3c0.3,0.3,0.7,0.3,0.9,0s0.3-0.7,0-0.9l-1.3-1.3l1.4-1.4c1.4,1.4,1.4,1.5,1.8,1.5c0.4,0,0.6-0.3,0.6-0.6
			c0-0.2-0.1-0.3-0.2-0.5l-1.3-1.3l1.4-1.4l1.3,1.3c0.3,0.3,0.7,0.3,0.9,0s0.3-0.7,0-0.9l0,0L18,21.8l1.4-1.4
			c1.4,1.4,1.4,1.5,1.8,1.5c0.4,0,0.6-0.3,0.6-0.6c0-0.2-0.1-0.3-0.2-0.5l-1.3-1.3l1.4-1.4c1.4,1.4,1.4,1.5,1.8,1.5
			c0.4,0,0.6-0.3,0.6-0.6c0-0.2-0.1-0.3-0.2-0.5l-1.3-1.4l1.4-1.4c1.4,1.4,1.4,1.5,1.8,1.5c0.4,0,0.6-0.3,0.6-0.6
			c0-0.2-0.1-0.3-0.2-0.5l-1.3-1.3l1.4-1.4l1.3,1.3c0.3,0.3,0.7,0.3,0.9,0s0.3-0.7,0-0.9l-1.3-1.3l1.5-1.5l4.4,4.4l-1.5,1.5
			c-0.3,0.3-0.3,0.7,0,0.9c0.3,0.3,0.7,0.3,0.9,0l1.5-1.5c0.7,0.7,1,1.2,2,1.2c0.6,0,1.2-0.3,1.6-0.9c0.7-0.7,0.7-1.9,0-2.6
			c0,0,0,0,0,0l-1.8-1.8l3-3l1.8,1.8c0.4,0.4,0.8,0.6,1.3,0.6c0.6,0,1.2-0.3,1.6-0.9c0.7-0.6,0.8-1.7,0.2-2.4
			C43.6,8.3,43.6,8.2,43.5,8.2z M8,35c-0.2-0.2-0.2-0.5-0.1-0.7c0,0,0,0,0.1-0.1l1.4-1.4l1.9,1.9C9.3,36.8,9.8,36.8,8,35z M40.8,5.4
			l-2.1-2.1c0.9-0.3,1.8,0.2,2.1,1.1C40.8,4.8,40.8,5.1,40.8,5.4z M36.7,15.8l-0.3,0.3c-0.2,0.2-0.5,0.2-0.7,0.1c0,0,0,0-0.1-0.1
			c-8.2-8.2-7.8-7.7-7.8-8c0-0.3,0.2-0.4,0.4-0.7c0.2-0.2,0.5-0.2,0.7-0.1c0,0,0,0,0.1,0.1l7.6,7.6C36.9,15.2,36.9,15.6,36.7,15.8z
			 M34.9,11.3l-2-2l3-3l2,2L34.9,11.3z M42.3,10.2c-0.1,0.1-0.3,0.2-0.4,0.2c-0.4,0,0.2,0.4-8-7.8c-0.2-0.2-0.2-0.5-0.1-0.7
			c0,0,0,0,0.1-0.1c0.3-0.3,0.4-0.4,0.7-0.4c0.4,0-0.2-0.5,8,7.8c0.1,0.1,0.2,0.3,0.2,0.4C42.8,9.8,42.6,9.9,42.3,10.2L42.3,10.2z"
			/>
	</g>
	<g id="Group_55" transform="translate(263 540)">
		<path id="Path_128" class="st5" d="M37.4,4.1H3.9C2,4.1,0.5,5.7,0.5,7.6C0.5,9.4,2,11,3.9,11h33.4c1.9,0,3.4,1.5,3.4,3.4
			c0,0,0,0,0,0V7.5c0.1-1.8-1.4-3.4-3.2-3.4C37.5,4.1,37.4,4.1,37.4,4.1z"/>
		<path id="Path_129" class="st9" d="M40.8,35.2c0,1.9-1.5,3.4-3.4,3.4c0,0,0,0,0,0H4c-1.9,0-3.4-1.5-3.4-3.4c0,0,0,0,0,0l0,0V7.5
			C0.5,9.4,2.1,11,4,11c0,0,0,0,0,0h33.4c1.9,0,3.4,1.5,3.4,3.4c0,0,0,0,0,0L40.8,35.2z"/>
		<g id="Group_46" transform="translate(34.74 10.987)">
			<path id="Path_130" class="st10" d="M2.6,0H0c1.9,0,3.4,1.5,3.4,3.4c0,0,0,0,0,0v20.7c0,1.9-1.5,3.4-3.4,3.4c0,0,0,0,0,0h2.6
				c1.9,0,3.4-1.5,3.4-3.4c0,0,0,0,0,0V3.5C6.1,1.6,4.6,0.1,2.6,0C2.7,0,2.7,0,2.6,0z"/>
			<path id="Path_131" class="st10" d="M7.4,6.1c0.7,0,1.3,0.6,1.3,1.3S8.1,8.7,7.4,8.7c0,0,0,0,0,0H6.1V6.1H7.4z"/>
		</g>
		<path id="Path_132" class="st2" d="M43.4,18.4v10.4c0,0.7-0.5,1.3-1.2,1.3c0,0,0,0-0.1,0H33l-3.4-5.2l3.4-5.2h9.1
			C42.8,19.7,43.4,19.1,43.4,18.4z"/>
		<path id="Path_133" class="st9" d="M42.1,19.6h-1.3v9.1c0,0.7-0.5,1.3-1.2,1.3c0,0,0,0-0.1,0h2.6c0.7,0,1.3-0.5,1.3-1.2
			c0,0,0,0,0-0.1V18.4C43.4,19,42.9,19.6,42.1,19.6C42.1,19.6,42.1,19.6,42.1,19.6z"/>
		<path id="Path_134" class="st6" d="M31.5,7.5H5.6l0.9-3.4l0.9-3.4l12.1,3.4L31.5,7.5z"/>
		<path id="Path_135" class="st10" d="M37.4,4.1h-2.6c1.9,0,3.4,1.5,3.4,3.4c0,0,0,0,0,0v3.6c1.5,0.4,2.6,1.8,2.6,3.3V7.5
			c0.1-1.8-1.4-3.4-3.2-3.4C37.5,4.1,37.4,4.1,37.4,4.1z"/>
		<path id="Path_136" class="st4" d="M35.6,23.1c0.9,0,1.7,0.8,1.7,1.7s-0.8,1.7-1.7,1.7c-0.9,0-1.7-0.8-1.7-1.7v0
			C33.9,23.9,34.7,23.1,35.6,23.1z"/>
		<path id="Path_137" class="st8" d="M42.1,16.4h-0.7V7.5c0-2.3-1.8-4.1-4.1-4.1H19.5L7.5,0H6.9v0.1l0,0L6.2,3H4.1
			C1.8,3,0,4.8,0,7.1l0,0v22.5c0,0.4,0.3,0.7,0.7,0.7s0.7-0.3,0.7-0.7v-19c0.8,0.7,1.8,1.1,2.8,1.1h33.4c1.6,0,2.8,1.3,2.8,2.8V19
			h-7.5c0,0,0,0.1-0.1,0.1c0,0,0,0,0,0l0,0l-3.4,5.2c0,0.1-0.1,0.1-0.1,0.1v0.1l0,0v0.1l0,0v0.1l0,0v0.1l0,0v0.1l0,0v0.1l0,0v0.1
			l0,0v0.1c0,0.1,0.1,0.1,0.1,0.1l3.4,5.2l0,0c0,0,0,0.1,0.1,0.1c0,0,0,0,0,0l0,0l0.1,0.1l0,0l0.1,0.1l0,0c0,0,0.1,0,0.1,0.1
			c0,0,0,0,0,0h7.4v4.5c0,1.6-1.3,2.8-2.8,2.8H4.2c-1.6,0-2.8-1.3-2.8-2.8l0,0v-2.6c0-0.4-0.3-0.7-0.7-0.7S0,32,0,32.3v2.6l0,0
			C0,37.2,1.8,39,4.1,39c0,0,0,0,0,0h33.4c2.3,0,4.1-1.8,4.1-4.1l0,0v-4.5h0.7c1.1,0,2-0.9,2-2v-10C44.1,17.3,43.2,16.4,42.1,16.4z
			 M42.7,28.7c0,0.4-0.3,0.7-0.7,0.7h-8.7l-3-4.5l3-4.5h8.8c0.2,0,0.4,0,0.6-0.1V28.7L42.7,28.7z M7.9,1.5l11.4,3.3l0,0l7.7,2.2H6.5
			L7.9,1.5z M37.4,10.4H4c-1.6,0-2.8-1.3-2.8-2.8S2.4,4.7,4,4.7h1.8L5.2,6.9H4c-0.4,0-0.7,0.3-0.7,0.7c0,0.4,0.3,0.7,0.7,0.7h32.5
			c0.4,0,0.7-0.3,0.7-0.7s-0.3-0.7-0.7-0.7h-4.8l-7.5-2.1h13.3c1.6,0,2.8,1.3,2.8,2.8v3.9C39.4,10.8,38.4,10.4,37.4,10.4L37.4,10.4z
			 M41.4,17.7h0.7c0.4,0,0.7,0.3,0.7,0.7c0,0.4-0.3,0.7-0.7,0.7h-0.6L41.4,17.7L41.4,17.7z"/>
		<path id="Path_138" class="st8" d="M35.6,22.5c-1.3,0-2.4,1.1-2.4,2.4c0,1.3,1,2.4,2.3,2.4c0,0,0,0,0.1,0c1.3,0,2.4-1.1,2.4-2.4
			C38,23.6,37,22.5,35.6,22.5C35.6,22.5,35.6,22.5,35.6,22.5z M35.6,25.9c-0.6,0-1.1-0.5-1.1-1.1c0-0.6,0.5-1.1,1.1-1.1
			s1.1,0.5,1.1,1.1C36.7,25.4,36.2,25.9,35.6,25.9L35.6,25.9z"/>
	</g>
	<g id="Group_56" transform="translate(267 641)">
		<path id="Path_114" class="st11" d="M30.3,0.8L29,1.6c-0.1,0.1-0.1,0.1-0.1,0.1L25,6.8l0.7,1l7.1-4.4l-1.6-2.6
			C30.9,0.7,30.6,0.7,30.3,0.8z"/>
		<path id="Path_115" class="st3" d="M32.6,8.2l1.7-1c0.2-0.1,0.3-0.4,0.2-0.7L32,2.5l-14.1,8.8l3.8,6.1L32,10.9
			c0.5-0.3,0.6-0.9,0.3-1.4l0,0C32.1,9.1,32.2,8.6,32.6,8.2C32.6,8.3,32.6,8.3,32.6,8.2z"/>
		<path id="Path_116" class="st12" d="M33.7,5.2L19.6,14l2,3.3L32,10.9c0.5-0.3,0.6-0.9,0.3-1.4c-0.3-0.5-0.1-1.1,0.3-1.4l1.7-1
			c0.2-0.1,0.3-0.4,0.2-0.7L33.7,5.2z"/>
		<path id="Path_117" class="st11" d="M0.9,23.8l0.9-0.6C2.1,23,2.5,22.9,2.9,23l0.6,0.1c0.4,0.1,0.8,0,1.2-0.2l2.8-1.8l2.5,3.9
			l-3.7,1.3l-5.3-2c-0.2-0.1-0.3-0.3-0.3-0.4C0.7,23.9,0.8,23.8,0.9,23.8z"/>
		<path id="Path_118" class="st4" d="M18.7,10.8L6.3,18.4c-0.4,0.3-0.6,0.9-0.4,1.4c1.4,3.2,0.3,6.9-2.6,8.7l0,0
			c-0.5,0.3-0.7,1-0.4,1.5c0,0,0,0,0,0c0.1,0.2,0.3,0.4,0.4,0.6c0.8,1.2,1.2,2.6,1,4L4,39.2c-0.1,1.4,0.1,2.8,0.6,4.1l1.7,4.1
			c0.3,0.8,1.2,1.2,2,0.9c0.1,0,0.2-0.1,0.3-0.2l5.5-3.4c1.3-0.8,1.7-2.4,0.9-3.7c0,0,0,0,0,0l-0.6-1c-0.8-1.2-1.3-2.6-1.5-4.1
			l-0.4-2.4c0.6,0.5,1.3,0.8,2,0.9c1.1,0.2,2.2,0,3.1-0.6c0.2-0.1,0.3-0.2,0.4-0.3l3.7-2.9c1.7-1.4,2.1-3.8,1-5.7l-0.9-1.4l1.7-1
			c1-0.6,1.3-1.9,0.7-2.9c0,0,0,0,0,0L18.7,10.8z M20.8,26c0.6,1,0.4,2.4-0.6,3.1l-3.5,2.8c-0.5,0.4-1.2,0.6-1.9,0.5
			c-0.7-0.1-1.3-0.5-1.6-1.1l0,0c-0.6-0.9-0.3-2.2,0.6-2.8c0,0,0,0,0.1,0l4.8-3C19.4,25.1,20.3,25.3,20.8,26
			C20.8,26,20.8,26,20.8,26L20.8,26z"/>
		<path id="Path_119" class="st5" d="M24.2,19.6l-5.5-8.8l-3.3,2l4.2,6.8c0.6,1,0.3,2.3-0.7,2.9c0,0,0,0,0,0l-1.7,1c0,0-7.6,4.7-8,5
			c-0.1,0.1-0.2,0.1-0.2,0.2c-0.8,0.7-1.7,2.2-1.1,4.8l0.4,2.4c1,5.3,3.3,8.3,4.7,9.6l1.2-0.7c1.3-0.8,1.7-2.4,0.9-3.7c0,0,0,0,0,0
			l-0.6-1c-0.8-1.2-1.3-2.6-1.5-4.1l-0.4-2.4c0.6,0.5,1.3,0.8,2,0.9c1.1,0.2,2.2,0,3.1-0.6c0.2-0.1,0.3-0.2,0.4-0.3l3.7-2.9
			c1.7-1.4,2.1-3.8,1-5.7l-0.9-1.4l1.7-1C24.5,21.9,24.8,20.6,24.2,19.6C24.2,19.7,24.2,19.6,24.2,19.6z M20.3,29.1l-3.5,2.8
			c-0.5,0.4-1.2,0.6-1.9,0.5c-0.7-0.1-1.3-0.5-1.6-1.1c-0.6-0.9-0.3-2.2,0.6-2.8c0,0,0,0,0.1,0l4.8-3c0.7-0.4,1.6-0.2,2.1,0.5
			c0,0,0,0,0,0C21.5,27,21.2,28.3,20.3,29.1L20.3,29.1z"/>
		<path id="Path_120" class="st3" d="M5.4,29.6l-2.6-0.3c0,0.3,0,0.5,0.2,0.7c0.1,0.2,0.2,0.4,0.4,0.6c0.8,1.1,1.2,2.5,1,3.9L4,39.1
			c-0.1,1.4,0.1,2.8,0.6,4.1l1.7,4.1c0.3,0.8,1.2,1.2,2,0.9c0.1,0,0.2-0.1,0.3-0.2l5.5-3.4c1.3-0.8,1.7-2.4,0.9-3.7c0,0,0,0,0,0
			l-0.6-1c-0.8-1.2-1.3-2.6-1.5-4.1l-0.4-2.4l-1.9-0.4c-1-0.2-1.8-0.9-2.3-1.7l0,0C7.5,30.3,6.5,29.8,5.4,29.6z"/>
		<path id="Path_121" class="st2" d="M15,41l-0.6-1c-0.4-0.6-0.7-1.2-0.9-1.8l-0.2-0.6c-0.1-0.2-0.1-0.4-0.2-0.6
			c0-0.1-0.1-0.2-0.1-0.4c-0.1-0.2-0.1-0.6-0.2-0.8l-0.2-1.2l-0.2-1.2l-1.9-0.4c-1-0.2-1.8-0.9-2.3-1.7l0,0
			c-0.1-0.2-0.2-0.3-0.4-0.5c-0.2,0.9-0.1,1.8,0.1,2.6l0.4,2.4c1,5.3,3.3,8.3,4.7,9.6l1.2-0.7c0.1,0,0.2-0.1,0.3-0.2l0.1-0.1
			c0.4-0.3,0.6-0.8,0.7-1.2c0-0.1,0-0.1,0.1-0.1c0-0.1,0.1-0.2,0.1-0.4v-0.4C15.4,41.8,15.2,41.4,15,41z"/>
		<path id="Path_122" class="st3" d="M21.8,20.8L13.4,26c-0.2,0.1-0.5,0.1-0.6-0.1l-3.6-5.7c-0.1-0.2-0.1-0.5,0.1-0.6l8.4-5.2
			c0.2-0.1,0.5-0.1,0.6,0.1l3.6,5.7C22,20.4,22,20.6,21.8,20.8z"/>
		<g id="Group_44" transform="translate(12.479 14.263)">
			<path id="Path_123" class="st13" d="M5.3,0.1L0.5,3C0,3.3-0.2,4,0.2,4.5c0,0,0,0,0,0c0.3,0.5,1,0.7,1.5,0.4l5.1-3.1l-1-1.5
				C5.8,0,5.5-0.1,5.3,0.1z"/>
			<path id="Path_124" class="st13" d="M3,9.1L3,9.1c0.3,0.5,1,0.7,1.5,0.4c0,0,0,0,0,0l4.7-2.9c0.2-0.1,0.2-0.4,0.1-0.6l-1-1.5
				L3.4,7.5C2.8,7.8,2.7,8.6,3,9.1z"/>
		</g>
		<path id="Path_125" class="st8" d="M18.4,24.9l-4.8,3c-1.3,0.8-1.7,2.5-0.9,3.7c0,0,0,0,0,0.1c0.5,0.7,1.2,1.3,2.1,1.4
			c0.2,0,0.4,0.1,0.6,0.1c0.7,0,1.4-0.2,2-0.7l3.5-2.8c1.2-1,1.5-2.7,0.7-4.1c-0.3-0.5-0.8-0.9-1.4-1C19.4,24.5,18.8,24.6,18.4,24.9
			z M20.2,26.4L20.2,26.4c0.5,0.7,0.3,1.6-0.4,2.1l-3.5,2.8c-0.4,0.3-0.8,0.4-1.3,0.4c-0.5-0.1-0.9-0.3-1.1-0.7
			c-0.2-0.4-0.3-0.8-0.1-1.2l0.4,0.2c0.5,0.2,1,0.4,1.5,0.4c0.6,0,1.1-0.1,1.6-0.4l0.3-0.2c0.3-0.2,0.4-0.6,0.2-1
			c-0.2-0.3-0.6-0.4-1-0.2l-0.3,0.2C16.2,29,15.5,29,15,28.7l4.2-2.6c0.1-0.1,0.3-0.1,0.4-0.1h0.2C20,26.1,20.1,26.2,20.2,26.4z"/>
		<path id="Path_126" class="st8" d="M35.1,6.1L32.6,2l-1-1.5c-0.2-0.3-0.5-0.5-0.8-0.6c-0.3-0.1-0.7,0-0.9,0.2L28.6,1
			c-0.1,0.1-0.2,0.2-0.3,0.3l-3.9,5.1l-6.1,3.8l0,0L6,17.9c-0.7,0.5-1,1.5-0.7,2.3c0.2,0.5,0.3,0.9,0.4,1.4l-1.4,0.9
			c-0.2,0.1-0.4,0.1-0.6,0.1l-0.6-0.1c-0.6-0.1-1.2,0-1.7,0.3l-0.9,0.6C0.2,23.6,0,24,0,24.4c0.1,0.4,0.3,0.8,0.7,1l3.7,1.4
			C4,27.3,3.5,27.7,2.9,28c-0.5,0.3-0.8,0.8-0.9,1.4v0.4l0,0v0.2l0,0c0,0.1,0,0.1,0.1,0.2v0.1c0,0.1,0,0.1,0.1,0.1v0.1
			c0,0.1,0.1,0.1,0.1,0.1v0.1c0,0,0,0.1,0.1,0.1l0,0c0.1,0.1,0.1,0.1,0.1,0.2c0,0,0.1,0.1,0.1,0.1c0,0.1,0.1,0.1,0.1,0.1
			c0,0,0,0.1,0.1,0.1c0,0,0,0,0,0l0.1,0.1c0.7,1.1,1,2.3,0.9,3.6l-0.3,4.5c-0.1,1.5,0.1,3,0.7,4.4l1.7,4.1c0.3,0.6,0.8,1.1,1.4,1.3
			c0.2,0.1,0.5,0.1,0.7,0.1c0.3,0,0.6-0.1,0.9-0.2C8.9,49,9,48.9,9.1,48.9l5.5-3.4c0.8-0.5,1.4-1.2,1.5-2.1c0.2-0.9,0.1-1.8-0.4-2.6
			l-0.6-1c-0.3-0.4-0.5-0.9-0.7-1.3c-0.4-0.8-0.6-1.6-0.7-2.5l-0.1-0.9c0.3,0.1,0.6,0.2,1,0.2c1.2,0.2,2.5-0.1,3.6-0.7
			c0.2-0.1,0.3-0.2,0.5-0.4l3.7-2.9c2-1.6,2.5-4.4,1.2-6.6L22.9,24l1.1-0.7c0.6-0.4,1.1-1.1,1.3-1.8c0.2-0.7,0.1-1.5-0.4-2.1
			l-1.4-2.1l9-5.5c0.8-0.5,1-1.5,0.6-2.3c0,0,0,0,0,0c-0.1,0-0.1-0.1,0-0.2c0,0,0,0,0,0c0-0.1,0.1-0.1,0.1-0.1l0.7-0.5l0,0L34.9,8
			c0.3-0.2,0.5-0.4,0.6-0.7C35.4,6.9,35.3,6.5,35.1,6.1z M29.4,2.2l1.1-0.7L31,2.3l-3.1,2L29.4,2.2z M1.7,24.1l0.4-0.2
			c0.2-0.1,0.4-0.1,0.6-0.1l0.6,0.1c0.6,0.1,1.2,0,1.7-0.3l0.7-0.5c-0.1,0.8-0.3,1.5-0.6,2.2L1.7,24.1z M13.7,40.4l0.6,1
			c0.3,0.4,0.4,1,0.2,1.5c-0.1,0.4-0.4,0.8-0.7,1.1c-0.1,0.1-0.1,0.1-0.2,0.1l-5.5,3.4c-0.2,0.1-0.5,0.2-0.7,0.1
			c-0.2-0.1-0.4-0.3-0.6-0.5L5.3,43c-0.5-1.2-0.7-2.5-0.6-3.7L5,34.7l0,0c0.1-1.5-0.3-3.1-1.2-4.4v-0.1c0,0,0-0.1-0.1-0.1
			c0,0,0,0,0,0l1.5,0.2C6.1,30.5,7,31,7.5,31.8c0.6,1,1.7,1.8,2.8,2l1.5,0.4l0.3,1.9c0,0.1,0.1,0.2,0.1,0.4
			C12.4,37.9,13,39.2,13.7,40.4z M23.6,20c0.2,0.3,0.2,0.7,0.2,1c-0.1,0.4-0.3,0.7-0.6,0.9l-1.7,1c-0.2,0.1-0.3,0.2-0.3,0.4
			c0,0.2,0,0.4,0.1,0.6l0.9,1.4c1,1.6,0.6,3.6-0.8,4.8L17.6,33c-0.1,0.1-0.2,0.2-0.4,0.2c-0.7,0.5-1.6,0.7-2.5,0.5
			c-0.6-0.1-1.2-0.4-1.7-0.8l0,0c0,0-0.1,0-0.1-0.1c0,0,0,0,0,0h-0.3l-1.9-0.4c-0.8-0.2-1.5-0.7-1.9-1.4c-0.7-1.2-1.9-1.9-3.3-2.1
			l-1.3-0.2c0.8-0.6,1.4-1.2,1.9-2l0.1-0.1c0.9-1.4,1.3-3.2,1.1-4.8v-0.1c-0.1-0.8-0.3-1.5-0.6-2.3c-0.1-0.2,0-0.3,0.1-0.4l11.7-7.3
			L23.6,20z M32.2,7.6L32.2,7.6l-5.1,3.2c-0.3,0.2-0.4,0.6-0.2,1c0.1,0.2,0.4,0.4,0.6,0.4c0.1,0,0.3-0.1,0.4-0.1l3.7-2.3
			c0.1,0.1,0.1,0.1,0.1,0.2s0.1,0.2-0.1,0.3l-9,5.5l-0.2-0.4l2.6-1.7c0.3-0.2,0.4-0.6,0.2-1c-0.2-0.3-0.6-0.4-1-0.2l-2.6,1.7l-2-3.3
			l5.6-3.5l0,0l6.4-4l2,3.3L32.2,7.6z"/>
		<path id="Path_127" class="st8" d="M17.4,13.7L17.4,13.7L9,18.9c-0.5,0.3-0.7,1-0.4,1.5c0,0,0,0.1,0,0.1l3.6,5.7
			c0.2,0.3,0.4,0.4,0.7,0.5c0.1,0,0.2,0.1,0.2,0.1c0.2,0,0.4-0.1,0.6-0.2l8.4-5.2c0.1,0,0.1-0.1,0.1-0.1l0,0l0.1-0.1l0,0
			c0.1-0.2,0.3-0.3,0.3-0.6c0.1-0.2,0.1-0.5-0.1-0.7l0,0c0-0.1-0.1-0.1-0.1-0.1L19,14.1c-0.1-0.2-0.3-0.4-0.6-0.5
			C18,13.5,17.7,13.5,17.4,13.7z M13.4,17.8l0.9-0.6l3.6-2.2l0.4,0.7l-4.5,2.8c-0.2,0.1-0.4,0.1-0.6-0.1
			C13.2,18.2,13.3,18,13.4,17.8z M21.2,20.3l-4.5,2.8c-0.2,0.1-0.4,0.1-0.6-0.1c-0.1-0.2-0.1-0.4,0.1-0.6l4.5-2.8L21.2,20.3z
			 M19.1,17l0.9,1.4l-4.5,2.8c-0.9,0.6-1.1,1.7-0.6,2.6c0.1,0.1,0.1,0.2,0.2,0.3l-1.9,1.2L9.9,20l1.9-1.2l0.2,0.4
			c0.4,0.5,1,0.9,1.6,0.9c0.4,0,0.7-0.1,1-0.3L19.1,17z"/>
	</g>
</g>
</svg>
