<?xml version="1.0" encoding="utf-8"?>
<!-- Generator: Adobe Illustrator 22.1.0, SVG Export Plug-In . SVG Version: 6.00 Build 0)  -->
<svg version="1.1" id="Capa_1" xmlns="http://www.w3.org/2000/svg" xmlns:xlink="http://www.w3.org/1999/xlink" x="0px" y="0px"
	 viewBox="0 0 98 63" style="enable-background:new 0 0 98 63;" xml:space="preserve">
<style type="text/css">
	.st0{fill:#E6E6E6;}
	.st1{fill:#F3A96A;}
	.st2{fill:#EF8D39;}
	.st3{fill:#F3D3B7;}
	.st4{fill:#EBB688;}
	.st5{fill:#FBF0E7;}
	.st6{fill:#EFC4A0;}
	.st7{fill:#EB832A;}
	.st8{enable-background:new    ;}
	.st9{fill:#3B3530;}
</style>
<g id="Group_132" transform="translate(-26 -100)">
	<g transform="matrix(1, 0, 0, 1, 26, 100)">
		<circle id="Ellipse_104-2" class="st0" cx="31.5" cy="28.5" r="22.5"/>
	</g>
	<g id="Group_115" transform="translate(44 115)">
		<path id="Path_99" class="st1" d="M24.9,4.1c0.5-0.6,0.5-1.5-0.2-2.1c-0.5-0.5-1.4-0.5-1.9,0L24.9,4.1z"/>
		<path id="Path_100" class="st2" d="M25.1,2.5L25.1,2.5c-0.3-0.7-1.1-1.1-1.9-0.8C23.1,1.8,23,1.9,22.8,2l0.8,0.8
			C24,2.4,24.6,2.4,25.1,2.5z"/>
		
			<rect id="Rectangle_1464" x="19.9" y="4.1" transform="matrix(0.7071 -0.7071 0.7071 0.7071 2.5037 16.8213)" class="st1" width="3.4" height="2.6"/>
		
			<rect id="Rectangle_1465" x="19.4" y="4.3" transform="matrix(0.7071 -0.7071 0.7071 0.7071 2.7123 16.3221)" class="st2" width="3.4" height="1.2"/>
		<path id="Path_101" class="st1" d="M5.8,19.4l-1.2,1.2c-0.3,0.3-0.3,0.8,0,1.1l0.7,0.7c0.3,0.3,0.8,0.3,1.1,0l1.2-1.2L5.8,19.4z"
			/>
		<path id="Path_102" class="st2" d="M5.5,21.5l1.2-1.2l-0.9-0.8l-1.2,1.2c-0.3,0.3-0.3,0.8,0,1.1l0.6,0.6C5.2,22,5.2,21.7,5.5,21.5
			z"/>
		<path id="Path_103" class="st3" d="M17.6,6.1L5.5,18.2c-0.3,0.3-0.3,0.7,0,0.9c0,0,0,0,0,0l2.3,2.3c0.3,0.3,0.7,0.3,0.9,0
			c0,0,0,0,0,0L20.9,9.3L17.6,6.1z"/>
		<path id="Path_104" class="st4" d="M6.2,19L18.3,6.9l2.5,2.5l0,0l-3.3-3.3L5.5,18.2c-0.3,0.3-0.3,0.7,0,0.9c0,0,0,0,0,0l0.6,0.6
			C5.9,19.6,5.9,19.2,6.2,19z"/>
		<path id="Path_105" class="st5" d="M15,8.7c-0.4,2.1-0.3,4.2,0.3,6.2l5.6-5.6l-3.3-3.3L15,8.7z"/>
		<path id="Path_106" class="st6" d="M14.8,10.4l3.6-3.6l2.5,2.5l0,0l-3.3-3.3L15,8.7C14.9,9.3,14.8,9.8,14.8,10.4z"/>
		<path id="Path_107" class="st2" d="M6.3,17.4l-0.9,0.9c-0.3,0.3-0.3,0.7,0,0.9c0,0,0,0,0,0l2.3,2.3c0.3,0.3,0.7,0.3,0.9,0
			c0,0,0,0,0,0l0.9-0.9C9.2,20.3,6.7,17.8,6.3,17.4z"/>
		<path id="Path_108" class="st1" d="M6.2,19L7,18.1l-0.7-0.7l-0.9,0.9c-0.3,0.3-0.3,0.7,0,0.9c0,0,0,0,0,0l0.6,0.6
			C5.9,19.5,6,19.2,6.2,19z"/>
		<path id="Path_109" class="st2" d="M18.1,4.2l4.7,4.7c0.3,0.3,0.3,0.8,0,1.1l-0.2,0.2c-0.3,0.3-0.8,0.3-1.1,0l-4.7-4.7
			c-0.3-0.3-0.3-0.8,0-1.1L17,4.1C17.3,3.9,17.8,3.9,18.1,4.2z"/>
		<path id="Path_110" class="st1" d="M22.1,9.6l-4.7-4.7c-0.3-0.2-0.3-0.6-0.1-0.9c-0.2,0.1-0.4,0.2-0.5,0.4c-0.3,0.3-0.3,0.8,0,1.1
			l4.7,4.7c0.3,0.3,0.8,0.3,1.1,0l0.3-0.3C22.6,9.9,22.3,9.8,22.1,9.6z"/>
		<path id="Path_111" class="st6" d="M20.5,0.6c0.3-0.3,0.8-0.3,1.1,0l4.7,4.7c0.3,0.3,0.3,0.8,0,1.1l-0.2,0.2
			c-0.3,0.3-0.8,0.3-1.1,0l-4.7-4.7c-0.3-0.3-0.3-0.8,0-1.1L20.5,0.6z"/>
		<path id="Path_112" class="st4" d="M25.6,6l-4.7-4.7c-0.2-0.2-0.3-0.6-0.2-0.9c-0.2,0.1-0.3,0.2-0.4,0.3c-0.3,0.3-0.3,0.8,0,1.1
			L25,6.6c0.3,0.3,0.8,0.3,1.1,0c0.1-0.1,0.2-0.2,0.3-0.4C26.1,6.3,25.8,6.2,25.6,6z"/>
		<path id="Path_113" class="st7" d="M26.5,5l-1.1-1.1c0.4-0.7,0.3-1.6-0.3-2.2C24.6,1.1,23.7,1,23,1.4l-1.1-1.1
			C21.7,0.1,21.4,0,21.1,0c-0.4,0-0.8,0.2-1,0.5c-0.4,0.4-0.4,1.2,0,1.6c0,0,0,0,0,0l1.2,1.2l-1.8,1.8L18.3,4
			c-0.2-0.2-0.5-0.3-0.8-0.3c-0.4,0-0.8,0.2-1,0.5c-0.4,0.4-0.4,1.2,0,1.6c0,0,0,0,0,0l0.4,0.4C16.2,6.9,5.6,17.5,5.2,17.9
			c-0.4,0.4-0.4,1.1,0,1.5l-0.9,0.9c-0.5,0.5-0.4,1.2,0,1.7c0,0,0,0,0,0c0,0-4.2,4.3-4.3,4.3c-0.1,0.2-0.1,0.4,0,0.6
			c0.2,0.1,0.4,0.1,0.6,0L5,22.5C5.4,23,6.1,23,6.6,22.6c0,0,0,0,0.1-0.1l0.8-0.9c0.4,0.4,1,0.4,1.4,0.1c0.1,0-0.5,0.5,10.1-10.1
			c0.2-0.1,0.2-0.4,0.1-0.6c-0.1-0.2-0.4-0.2-0.6-0.1c0,0-0.1,0-0.1,0.1L9.6,20l-0.4-0.4c-0.2-0.1-0.4-0.1-0.6,0.1
			c-0.1,0.1-0.1,0.3,0,0.5L9,20.6l-0.6,0.6c-0.1,0.1-0.2,0.1-0.4,0c0,0,0,0,0,0l-2.3-2.3c-0.1-0.1-0.1-0.2,0-0.4c0,0,0,0,0,0
			l0.6-0.6l1.3,1.3c0.2,0.1,0.4,0.1,0.6-0.1c0.1-0.1,0.1-0.3,0-0.5l-1.3-1.3l0.7-0.7l0.8,0.8c0.2,0.1,0.4,0.1,0.6-0.1
			c0.1-0.1,0.1-0.3,0-0.5L8.2,16L9,15.2c0.9,0.9,0.9,0.9,1.1,0.9c0.2,0,0.4-0.2,0.4-0.4c0-0.1,0-0.2-0.1-0.3l-0.8-0.8l0.8-0.8
			l0.8,0.8c0.1,0.2,0.4,0.2,0.6,0.1c0.2-0.1,0.2-0.4,0.1-0.6c0,0,0-0.1-0.1-0.1L11,13.3l0.8-0.8c0.9,0.9,0.9,0.9,1.1,0.9
			c0.2,0,0.4-0.2,0.4-0.4c0-0.1,0-0.2-0.1-0.3l-0.8-0.8l0.8-0.8c0.9,0.9,0.9,0.9,1.1,0.9c0.2,0,0.4-0.2,0.4-0.4c0-0.1,0-0.2-0.1-0.3
			l-0.8-0.8l0.8-0.8c0.9,0.9,0.9,0.9,1.1,0.9c0.2,0,0.4-0.2,0.4-0.4c0-0.1,0-0.2-0.1-0.3l-0.8-0.8L16,8.3l0.8,0.8
			c0.2,0.1,0.4,0.1,0.6-0.1c0.1-0.1,0.1-0.3,0-0.5l-0.8-0.8l0.9-0.9l2.7,2.7l-0.9,0.9c-0.1,0.2-0.1,0.4,0.1,0.6
			c0.1,0.1,0.3,0.1,0.5,0l0.9-0.9c0.4,0.4,0.6,0.7,1.2,0.7c0.4,0,0.8-0.2,1-0.5c0.4-0.4,0.4-1.2,0-1.6c0,0,0,0,0,0l-1.1-1.1l1.8-1.8
			l1.1,1.1c0.2,0.2,0.5,0.3,0.8,0.3c0.4,0,0.8-0.2,1-0.5C26.9,6.2,27,5.5,26.5,5C26.6,5,26.5,5,26.5,5z M4.9,21.3
			c-0.1-0.1-0.2-0.3,0-0.4c0,0,0,0,0,0L5.8,20l1.2,1.2C5.7,22.4,6,22.4,4.9,21.3z M24.8,3.3L23.6,2c0.5-0.2,1.1,0.1,1.3,0.7
			C24.9,2.9,24.9,3.1,24.8,3.3z M22.4,9.6l-0.2,0.2c-0.1,0.1-0.3,0.2-0.4,0c0,0,0,0,0,0c-5-5-4.7-4.7-4.7-4.9s0.1-0.3,0.3-0.4
			c0.1-0.1,0.3-0.2,0.4,0c0,0,0,0,0,0l4.6,4.6C22.5,9.3,22.5,9.5,22.4,9.6L22.4,9.6z M21.2,6.9L20,5.6l1.8-1.8L23.1,5L21.2,6.9z
			 M25.8,6.2c-0.1,0.1-0.2,0.1-0.3,0.1c-0.2,0,0.1,0.3-4.9-4.7c-0.1-0.1-0.2-0.3,0-0.4c0,0,0,0,0,0c0.2-0.2,0.3-0.3,0.4-0.3
			c0.2,0-0.1-0.3,4.9,4.7C26,5.6,26,5.7,26,5.8C26.1,5.9,25.9,6,25.8,6.2z"/>
	</g>
	<g class="st8">
		<path class="st9" d="M93.2,123.5c0,0.5-0.1,0.8-0.2,1.2c-0.1,0.3-0.3,0.6-0.5,0.8s-0.4,0.3-0.7,0.4c-0.3,0.1-0.6,0.1-0.9,0.1
			c-0.3,0-0.7,0-1-0.1v-4.8c0.3-0.1,0.7-0.1,1-0.1c0.3,0,0.6,0,0.9,0.1c0.3,0.1,0.5,0.2,0.7,0.4c0.2,0.2,0.4,0.5,0.5,0.8
			C93.1,122.7,93.2,123.1,93.2,123.5z M90.6,125.4c0.1,0,0.3,0,0.4,0c0.2,0,0.5,0,0.6-0.1c0.2-0.1,0.3-0.2,0.5-0.3
			c0.1-0.2,0.2-0.4,0.3-0.6c0.1-0.2,0.1-0.5,0.1-0.9c0-0.7-0.1-1.2-0.4-1.5s-0.6-0.5-1.1-0.5c-0.1,0-0.1,0-0.2,0s-0.1,0-0.2,0V125.4
			z"/>
		<path class="st9" d="M95.6,122.2c0.5,0,0.9,0.2,1.2,0.5c0.3,0.3,0.4,0.8,0.4,1.4v0.2h-2.7c0,0.4,0.2,0.7,0.4,0.9
			c0.2,0.2,0.5,0.3,1,0.3c0.2,0,0.4,0,0.6-0.1c0.2,0,0.3-0.1,0.4-0.1l0.1,0.6c-0.1,0-0.2,0.1-0.4,0.1c-0.2,0-0.4,0.1-0.7,0.1
			c-0.3,0-0.6,0-0.8-0.1c-0.2-0.1-0.4-0.2-0.6-0.4c-0.2-0.2-0.3-0.4-0.4-0.6s-0.1-0.5-0.1-0.8c0-0.3,0.1-0.6,0.2-0.9
			c0.1-0.2,0.2-0.4,0.4-0.6s0.4-0.3,0.6-0.4C95.1,122.2,95.4,122.2,95.6,122.2z M96.5,123.8c0-0.3-0.1-0.6-0.2-0.7
			c-0.2-0.2-0.4-0.3-0.7-0.3c-0.2,0-0.3,0-0.4,0.1c-0.1,0.1-0.2,0.1-0.3,0.2c-0.1,0.1-0.2,0.2-0.2,0.3c-0.1,0.1-0.1,0.2-0.1,0.4
			H96.5z"/>
		<path class="st9" d="M100.2,126.1c-0.2,0-0.4,0-0.6-0.1c-0.2-0.1-0.3-0.2-0.4-0.3s-0.2-0.3-0.2-0.5c0-0.2-0.1-0.4-0.1-0.7v-3.5
			h-1.1v-0.6h1.7v4.1c0,0.2,0,0.3,0,0.5c0,0.1,0.1,0.2,0.1,0.3c0,0.1,0.1,0.1,0.2,0.1s0.2,0,0.3,0c0.2,0,0.3,0,0.4-0.1
			c0.1,0,0.2-0.1,0.3-0.1l0.1,0.6c0,0-0.1,0-0.1,0.1c-0.1,0-0.1,0-0.2,0.1s-0.2,0-0.3,0.1C100.4,126.1,100.3,126.1,100.2,126.1z"/>
		<path class="st9" d="M103,122.8h-1.1v-0.6h1.7v2.3c0,0.4,0.1,0.6,0.2,0.7c0.1,0.1,0.3,0.2,0.5,0.2c0.2,0,0.3,0,0.4-0.1
			c0.1,0,0.2-0.1,0.3-0.1l0.1,0.6c0,0-0.1,0-0.1,0.1c-0.1,0-0.1,0-0.2,0.1c-0.1,0-0.2,0-0.3,0.1c-0.1,0-0.2,0-0.3,0
			c-0.2,0-0.4,0-0.6-0.1c-0.2-0.1-0.3-0.2-0.4-0.3s-0.2-0.3-0.2-0.5c0-0.2-0.1-0.4-0.1-0.7V122.8z M103.2,121.7
			c-0.1,0-0.3,0-0.4-0.1c-0.1-0.1-0.2-0.2-0.2-0.4c0-0.2,0.1-0.3,0.2-0.4c0.1-0.1,0.2-0.1,0.4-0.1c0.1,0,0.3,0,0.4,0.1
			s0.1,0.2,0.1,0.4c0,0.2,0,0.3-0.1,0.4C103.4,121.7,103.3,121.7,103.2,121.7z"/>
		<path class="st9" d="M107.4,122.3h1.6v0.6h-1.6v1.7c0,0.2,0,0.3,0,0.5c0,0.1,0.1,0.2,0.1,0.3c0.1,0.1,0.1,0.1,0.2,0.1
			c0.1,0,0.2,0,0.4,0c0.2,0,0.3,0,0.5,0s0.2-0.1,0.3-0.1l0.1,0.6c-0.1,0-0.2,0.1-0.4,0.1c-0.2,0.1-0.4,0.1-0.6,0.1
			c-0.3,0-0.5,0-0.7-0.1c-0.2-0.1-0.3-0.2-0.4-0.3s-0.2-0.3-0.2-0.5c0-0.2-0.1-0.4-0.1-0.7v-1.7H106v-0.6h0.8v-1l0.7-0.1V122.3z"/>
		<path class="st9" d="M113.2,124.1c0,0.3,0,0.6-0.1,0.8c-0.1,0.2-0.2,0.4-0.3,0.6c-0.1,0.2-0.3,0.3-0.5,0.4
			c-0.2,0.1-0.4,0.1-0.7,0.1c-0.2,0-0.5,0-0.7-0.1c-0.2-0.1-0.4-0.2-0.5-0.4c-0.1-0.2-0.3-0.4-0.3-0.6c-0.1-0.2-0.1-0.5-0.1-0.8
			c0-0.3,0-0.6,0.1-0.8c0.1-0.2,0.2-0.4,0.3-0.6s0.3-0.3,0.5-0.4c0.2-0.1,0.4-0.1,0.7-0.1c0.2,0,0.5,0,0.7,0.1
			c0.2,0.1,0.4,0.2,0.5,0.4s0.3,0.4,0.3,0.6C113.1,123.6,113.2,123.9,113.2,124.1z M112.5,124.1c0-0.4-0.1-0.8-0.3-1
			c-0.2-0.2-0.4-0.4-0.7-0.4c-0.3,0-0.5,0.1-0.7,0.4c-0.2,0.2-0.3,0.6-0.3,1c0,0.4,0.1,0.7,0.3,1c0.2,0.2,0.4,0.4,0.7,0.4
			c0.3,0,0.6-0.1,0.7-0.4C112.4,124.9,112.5,124.6,112.5,124.1z"/>
		<path class="st9" d="M116.3,125.1c0-0.1-0.1-0.2-0.2-0.3s-0.2-0.2-0.4-0.2c-0.2-0.1-0.3-0.1-0.5-0.2s-0.4-0.1-0.5-0.2
			c-0.2-0.1-0.3-0.2-0.4-0.3c-0.1-0.1-0.2-0.3-0.2-0.5c0-0.3,0.1-0.5,0.4-0.7s0.6-0.3,1.1-0.3c0.2,0,0.4,0,0.6,0
			c0.2,0,0.4,0.1,0.6,0.1l-0.1,0.6c0,0-0.1,0-0.2-0.1c-0.1,0-0.2,0-0.3-0.1s-0.2,0-0.3,0s-0.2,0-0.3,0c-0.6,0-0.9,0.2-0.9,0.5
			c0,0.1,0.1,0.2,0.2,0.3c0.1,0.1,0.2,0.1,0.4,0.2c0.2,0.1,0.3,0.1,0.5,0.2c0.2,0.1,0.4,0.1,0.5,0.2c0.2,0.1,0.3,0.2,0.4,0.3
			c0.1,0.1,0.2,0.3,0.2,0.5c0,0.3-0.1,0.6-0.4,0.8c-0.3,0.2-0.7,0.3-1.2,0.3c-0.3,0-0.5,0-0.7-0.1c-0.2,0-0.4-0.1-0.6-0.2l0.1-0.6
			c0.2,0.1,0.4,0.2,0.6,0.2c0.2,0.1,0.4,0.1,0.7,0.1C116,125.5,116.3,125.4,116.3,125.1z"/>
	</g>
	<g class="st8">
		<path class="st9" d="M85.9,133.2c0-0.3,0.1-0.6,0.2-0.9s0.3-0.4,0.4-0.6c0.2-0.2,0.4-0.3,0.7-0.4c0.2-0.1,0.5-0.1,0.8-0.1
			c0.2,0,0.4,0,0.5,0c0.2,0,0.4,0.1,0.6,0.1l-0.2,0.6c-0.2-0.1-0.3-0.1-0.5-0.1c-0.1,0-0.3,0-0.4,0c-0.2,0-0.4,0-0.5,0.1
			c-0.2,0.1-0.3,0.1-0.4,0.2c-0.1,0.1-0.2,0.3-0.3,0.4c-0.1,0.2-0.1,0.4-0.1,0.6c0,0.2,0,0.4,0.1,0.6s0.2,0.3,0.3,0.4
			c0.1,0.1,0.3,0.2,0.5,0.2s0.4,0.1,0.6,0.1c0.2,0,0.3,0,0.5,0s0.3-0.1,0.5-0.1l0.1,0.6c-0.2,0.1-0.4,0.1-0.6,0.1s-0.4,0-0.6,0
			c-0.3,0-0.6,0-0.8-0.1c-0.2-0.1-0.5-0.2-0.6-0.4c-0.2-0.2-0.3-0.4-0.4-0.6C85.9,133.8,85.9,133.5,85.9,133.2z"/>
		<path class="st9" d="M93.2,133.1c0,0.3,0,0.6-0.1,0.8c-0.1,0.2-0.2,0.4-0.3,0.6c-0.1,0.2-0.3,0.3-0.5,0.4
			c-0.2,0.1-0.4,0.1-0.7,0.1c-0.2,0-0.5,0-0.7-0.1c-0.2-0.1-0.4-0.2-0.5-0.4c-0.1-0.2-0.3-0.4-0.3-0.6c-0.1-0.2-0.1-0.5-0.1-0.8
			c0-0.3,0-0.6,0.1-0.8c0.1-0.2,0.2-0.4,0.3-0.6s0.3-0.3,0.5-0.4c0.2-0.1,0.4-0.1,0.7-0.1c0.2,0,0.5,0,0.7,0.1
			c0.2,0.1,0.4,0.2,0.5,0.4s0.3,0.4,0.3,0.6C93.1,132.6,93.2,132.9,93.2,133.1z M92.5,133.1c0-0.4-0.1-0.8-0.3-1
			c-0.2-0.2-0.4-0.4-0.7-0.4c-0.3,0-0.5,0.1-0.7,0.4c-0.2,0.2-0.3,0.6-0.3,1c0,0.4,0.1,0.7,0.3,1c0.2,0.2,0.4,0.4,0.7,0.4
			c0.3,0,0.6-0.1,0.7-0.4C92.4,133.9,92.5,133.6,92.5,133.1z"/>
		<path class="st9" d="M94.1,131.4c0.2-0.1,0.5-0.1,0.7-0.1s0.5,0,0.7,0c0.5,0,0.9,0.1,1.1,0.4c0.3,0.3,0.4,0.7,0.4,1.2v2.2h-0.7
			v-2.1c0-0.2,0-0.4-0.1-0.6s-0.1-0.3-0.2-0.3c-0.1-0.1-0.2-0.1-0.3-0.2s-0.2,0-0.4,0c-0.1,0-0.2,0-0.3,0c-0.1,0-0.2,0-0.3,0.1v3.1
			h-0.7V131.4z"/>
		<path class="st9" d="M99.4,131.3h1.6v0.6h-1.6v1.7c0,0.2,0,0.3,0,0.5c0,0.1,0.1,0.2,0.1,0.3c0.1,0.1,0.1,0.1,0.2,0.1
			c0.1,0,0.2,0,0.4,0c0.2,0,0.3,0,0.5,0s0.2-0.1,0.3-0.1l0.1,0.6c-0.1,0-0.2,0.1-0.4,0.1c-0.2,0.1-0.4,0.1-0.6,0.1
			c-0.3,0-0.5,0-0.7-0.1c-0.2-0.1-0.3-0.2-0.4-0.3s-0.2-0.3-0.2-0.5c0-0.2-0.1-0.4-0.1-0.7v-1.7H98v-0.6h0.8v-1l0.7-0.1V131.3z"/>
		<path class="st9" d="M102.4,135v-3.5c0.5-0.2,1.1-0.3,1.6-0.3c0.2,0,0.3,0,0.5,0c0.2,0,0.3,0,0.5,0.1l-0.1,0.6
			c-0.2,0-0.3-0.1-0.5-0.1c-0.1,0-0.3,0-0.4,0c-0.3,0-0.7,0-1,0.1v3.1H102.4z"/>
		<path class="st9" d="M107.5,131.2c0.3,0,0.5,0,0.7,0.1s0.3,0.2,0.5,0.3c0.1,0.1,0.2,0.3,0.2,0.4s0.1,0.4,0.1,0.6v2.3
			c-0.2,0-0.4,0.1-0.6,0.1c-0.3,0-0.5,0.1-0.8,0.1c-0.2,0-0.4,0-0.6-0.1c-0.2,0-0.4-0.1-0.5-0.2c-0.1-0.1-0.3-0.2-0.4-0.4
			c-0.1-0.2-0.1-0.4-0.1-0.6c0-0.2,0-0.4,0.1-0.5c0.1-0.1,0.2-0.3,0.4-0.4c0.1-0.1,0.3-0.2,0.5-0.2c0.2,0,0.4-0.1,0.6-0.1
			c0.3,0,0.5,0,0.8,0.1v-0.2c0-0.1,0-0.2,0-0.3c0-0.1-0.1-0.2-0.1-0.3c-0.1-0.1-0.2-0.2-0.3-0.2c-0.1-0.1-0.3-0.1-0.4-0.1
			c-0.2,0-0.4,0-0.6,0c-0.2,0-0.3,0.1-0.4,0.1l-0.1-0.5c0.1,0,0.2-0.1,0.5-0.1C107,131.2,107.2,131.2,107.5,131.2z M107.5,134.5
			c0.2,0,0.3,0,0.4,0s0.2,0,0.3,0v-1.1c-0.1,0-0.2,0-0.3-0.1c-0.1,0-0.2,0-0.4,0c-0.1,0-0.2,0-0.4,0c-0.1,0-0.2,0.1-0.3,0.1
			s-0.2,0.1-0.2,0.2c-0.1,0.1-0.1,0.2-0.1,0.3c0,0.2,0.1,0.4,0.2,0.5C107,134.5,107.3,134.5,107.5,134.5z"/>
		<path class="st9" d="M116.2,135.1c-0.2,0-0.4,0-0.6-0.1c-0.2-0.1-0.3-0.2-0.4-0.3s-0.2-0.3-0.2-0.5c0-0.2-0.1-0.4-0.1-0.7v-3.5
			h-1.1v-0.6h1.7v4.1c0,0.2,0,0.3,0,0.5c0,0.1,0.1,0.2,0.1,0.3c0,0.1,0.1,0.1,0.2,0.1s0.2,0,0.3,0c0.2,0,0.3,0,0.4-0.1
			c0.1,0,0.2-0.1,0.3-0.1l0.1,0.6c0,0-0.1,0-0.1,0.1c-0.1,0-0.1,0-0.2,0.1s-0.2,0-0.3,0.1C116.4,135.1,116.3,135.1,116.2,135.1z"/>
		<path class="st9" d="M119.5,131.2c0.3,0,0.5,0,0.7,0.1s0.3,0.2,0.5,0.3c0.1,0.1,0.2,0.3,0.2,0.4s0.1,0.4,0.1,0.6v2.3
			c-0.2,0-0.4,0.1-0.6,0.1c-0.3,0-0.5,0.1-0.8,0.1c-0.2,0-0.4,0-0.6-0.1c-0.2,0-0.4-0.1-0.5-0.2c-0.1-0.1-0.3-0.2-0.4-0.4
			c-0.1-0.2-0.1-0.4-0.1-0.6c0-0.2,0-0.4,0.1-0.5c0.1-0.1,0.2-0.3,0.4-0.4c0.1-0.1,0.3-0.2,0.5-0.2c0.2,0,0.4-0.1,0.6-0.1
			c0.3,0,0.5,0,0.8,0.1v-0.2c0-0.1,0-0.2,0-0.3c0-0.1-0.1-0.2-0.1-0.3c-0.1-0.1-0.2-0.2-0.3-0.2c-0.1-0.1-0.3-0.1-0.4-0.1
			c-0.2,0-0.4,0-0.6,0c-0.2,0-0.3,0.1-0.4,0.1l-0.1-0.5c0.1,0,0.2-0.1,0.5-0.1C119,131.2,119.2,131.2,119.5,131.2z M119.5,134.5
			c0.2,0,0.3,0,0.4,0s0.2,0,0.3,0v-1.1c-0.1,0-0.2,0-0.3-0.1c-0.1,0-0.2,0-0.4,0c-0.1,0-0.2,0-0.4,0c-0.1,0-0.2,0.1-0.3,0.1
			s-0.2,0.1-0.2,0.2c-0.1,0.1-0.1,0.2-0.1,0.3c0,0.2,0.1,0.4,0.2,0.5C119,134.5,119.3,134.5,119.5,134.5z"/>
	</g>
	<g class="st8">
		<path class="st9" d="M96.3,143.1c0-0.1-0.1-0.2-0.2-0.3s-0.2-0.2-0.4-0.2c-0.2-0.1-0.3-0.1-0.5-0.2s-0.4-0.1-0.5-0.2
			c-0.2-0.1-0.3-0.2-0.4-0.3c-0.1-0.1-0.2-0.3-0.2-0.5c0-0.3,0.1-0.5,0.4-0.7s0.6-0.3,1.1-0.3c0.2,0,0.4,0,0.6,0
			c0.2,0,0.4,0.1,0.6,0.1l-0.1,0.6c0,0-0.1,0-0.2-0.1c-0.1,0-0.2,0-0.3-0.1s-0.2,0-0.3,0s-0.2,0-0.3,0c-0.6,0-0.9,0.2-0.9,0.5
			c0,0.1,0.1,0.2,0.2,0.3c0.1,0.1,0.2,0.1,0.4,0.2c0.2,0.1,0.3,0.1,0.5,0.2c0.2,0.1,0.4,0.1,0.5,0.2c0.2,0.1,0.3,0.2,0.4,0.3
			c0.1,0.1,0.2,0.3,0.2,0.5c0,0.3-0.1,0.6-0.4,0.8c-0.3,0.2-0.7,0.3-1.2,0.3c-0.3,0-0.5,0-0.7-0.1c-0.2,0-0.4-0.1-0.6-0.2l0.1-0.6
			c0.2,0.1,0.4,0.2,0.6,0.2c0.2,0.1,0.4,0.1,0.7,0.1C96,143.5,96.3,143.4,96.3,143.1z"/>
		<path class="st9" d="M99.5,140.2c0.3,0,0.5,0,0.7,0.1s0.3,0.2,0.5,0.3c0.1,0.1,0.2,0.3,0.2,0.4s0.1,0.4,0.1,0.6v2.3
			c-0.2,0-0.4,0.1-0.6,0.1c-0.3,0-0.5,0.1-0.8,0.1c-0.2,0-0.4,0-0.6-0.1c-0.2,0-0.4-0.1-0.5-0.2c-0.1-0.1-0.3-0.2-0.4-0.4
			c-0.1-0.2-0.1-0.4-0.1-0.6c0-0.2,0-0.4,0.1-0.5c0.1-0.1,0.2-0.3,0.4-0.4c0.1-0.1,0.3-0.2,0.5-0.2c0.2,0,0.4-0.1,0.6-0.1
			c0.3,0,0.5,0,0.8,0.1v-0.2c0-0.1,0-0.2,0-0.3c0-0.1-0.1-0.2-0.1-0.3c-0.1-0.1-0.2-0.2-0.3-0.2c-0.1-0.1-0.3-0.1-0.4-0.1
			c-0.2,0-0.4,0-0.6,0c-0.2,0-0.3,0.1-0.4,0.1l-0.1-0.5c0.1,0,0.2-0.1,0.5-0.1C99,140.2,99.2,140.2,99.5,140.2z M99.5,143.5
			c0.2,0,0.3,0,0.4,0s0.2,0,0.3,0v-1.1c-0.1,0-0.2,0-0.3-0.1c-0.1,0-0.2,0-0.4,0c-0.1,0-0.2,0-0.4,0c-0.1,0-0.2,0.1-0.3,0.1
			s-0.2,0.1-0.2,0.2c-0.1,0.1-0.1,0.2-0.1,0.3c0,0.2,0.1,0.4,0.2,0.5C99,143.5,99.3,143.5,99.5,143.5z"/>
		<path class="st9" d="M104.2,144.1c-0.2,0-0.4,0-0.6-0.1c-0.2-0.1-0.3-0.2-0.4-0.3s-0.2-0.3-0.2-0.5c0-0.2-0.1-0.4-0.1-0.7v-3.5
			h-1.1v-0.6h1.7v4.1c0,0.2,0,0.3,0,0.5c0,0.1,0.1,0.2,0.1,0.3c0,0.1,0.1,0.1,0.2,0.1s0.2,0,0.3,0c0.2,0,0.3,0,0.4-0.1
			c0.1,0,0.2-0.1,0.3-0.1l0.1,0.6c0,0-0.1,0-0.1,0.1c-0.1,0-0.1,0-0.2,0.1s-0.2,0-0.3,0.1C104.4,144.1,104.3,144.1,104.2,144.1z"/>
		<path class="st9" d="M108.9,143.9c-0.1,0-0.3,0.1-0.6,0.1c-0.2,0-0.5,0.1-0.8,0.1c-0.3,0-0.5,0-0.7-0.1c-0.2-0.1-0.3-0.2-0.5-0.4
			c-0.1-0.2-0.2-0.3-0.2-0.5s-0.1-0.4-0.1-0.7v-2.1h0.7v1.9c0,0.5,0.1,0.8,0.2,1c0.1,0.2,0.4,0.3,0.7,0.3c0.1,0,0.1,0,0.2,0
			c0.1,0,0.1,0,0.2,0s0.1,0,0.2,0c0,0,0.1,0,0.1,0v-3.1h0.7V143.9z"/>
		<path class="st9" d="M112.3,138.6l0.7-0.1v5.4c-0.1,0-0.3,0.1-0.6,0.1c-0.2,0-0.5,0.1-0.8,0.1c-0.3,0-0.5,0-0.7-0.1
			c-0.2-0.1-0.4-0.2-0.6-0.4c-0.2-0.2-0.3-0.4-0.4-0.6s-0.1-0.5-0.1-0.8c0-0.3,0-0.5,0.1-0.8s0.2-0.4,0.3-0.6s0.3-0.3,0.5-0.4
			c0.2-0.1,0.4-0.1,0.7-0.1c0.2,0,0.4,0,0.5,0.1c0.1,0,0.3,0.1,0.3,0.2V138.6z M112.3,141.1c-0.1-0.1-0.2-0.1-0.3-0.2
			c-0.1-0.1-0.3-0.1-0.4-0.1c-0.2,0-0.3,0-0.5,0.1c-0.1,0.1-0.2,0.2-0.3,0.3s-0.1,0.3-0.2,0.4c0,0.2-0.1,0.3-0.1,0.5
			c0,0.4,0.1,0.8,0.3,1c0.2,0.2,0.5,0.4,0.8,0.4c0.2,0,0.3,0,0.4,0c0.1,0,0.2,0,0.3,0V141.1z"/>
	</g>
</g>
</svg>
