<?xml version="1.0" encoding="utf-8"?>
<!-- Generator: Adobe Illustrator 22.1.0, SVG Export Plug-In . SVG Version: 6.00 Build 0)  -->
<svg version="1.1" id="Capa_1" xmlns="http://www.w3.org/2000/svg" xmlns:xlink="http://www.w3.org/1999/xlink" x="0px" y="0px"
	 viewBox="0 0 141.1 94.2" style="enable-background:new 0 0 141.1 94.2;" xml:space="preserve">
<style type="text/css">
	.st0{fill:#19BADE;}
	.st1{fill:#F3A96A;}
	.st2{fill:#EF8D39;}
	.st3{fill:#F3D3B7;}
	.st4{fill:#EBB688;}
	.st5{fill:#FBF0E7;}
	.st6{fill:#EFC4A0;}
	.st7{fill:#EB832A;}
	.st8{enable-background:new    ;}
	.st9{fill:#3B3530;}
</style>
<g id="Group_81" transform="translate(-366 -369)">
	<g transform="matrix(1, 0, 0, 1, 366, 369)">
		<ellipse id="Ellipse_26-2" class="st0" cx="47.1" cy="44.1" rx="38.1" ry="38.1"/>
	</g>
	<g id="Group_74" transform="translate(390.23 390.231)">
		<path id="Path_99" class="st1" d="M42.1,6.9c0.9-1,0.8-2.6-0.3-3.5c-0.9-0.8-2.3-0.8-3.2,0L42.1,6.9z"/>
		<path id="Path_100" class="st2" d="M42.5,4.3L42.5,4.3C42,3,40.5,2.4,39.3,3c-0.2,0.1-0.4,0.2-0.6,0.4L40,4.7
			C40.7,4.1,41.6,4,42.5,4.3z"/>
		
			<rect id="Rectangle_1464" x="33.6" y="6.9" transform="matrix(0.7071 -0.7071 0.7071 0.7071 4.2372 28.4671)" class="st1" width="5.8" height="4.4"/>
		
			<rect id="Rectangle_1465" x="32.8" y="7.3" transform="matrix(0.7071 -0.7071 0.7071 0.7071 4.5901 27.6219)" class="st2" width="5.8" height="2"/>
		<path id="Path_101" class="st1" d="M9.8,32.9l-2,2c-0.5,0.5-0.5,1.3,0,1.8L9,37.8c0.5,0.5,1.3,0.5,1.8,0l2-2L9.8,32.9z"/>
		<path id="Path_102" class="st2" d="M9.2,36.3l2-2l-1.5-1.4l-2,2c-0.5,0.5-0.5,1.3,0,1.8l0.9,0.9C8.7,37.2,8.9,36.7,9.2,36.3z"/>
		<path id="Path_103" class="st3" d="M29.8,10.4L9.2,30.9c-0.4,0.4-0.4,1.1,0,1.6c0,0,0,0,0,0l3.9,3.9c0.4,0.4,1.1,0.4,1.6,0
			c0,0,0,0,0,0l20.6-20.6L29.8,10.4z"/>
		<path id="Path_104" class="st4" d="M10.4,32.1L31,11.6l4.3,4.3l0,0l-5.5-5.5L9.2,30.9c-0.4,0.4-0.4,1.1,0,1.6c0,0,0,0,0,0l1.1,1.1
			C10,33.1,10.1,32.5,10.4,32.1z"/>
		<path id="Path_105" class="st5" d="M25.3,14.8c-0.6,3.5-0.5,7.1,0.5,10.5l9.4-9.4l-5.5-5.5L25.3,14.8z"/>
		<path id="Path_106" class="st6" d="M25,17.6l6-6l4.3,4.3l0,0l-5.5-5.5l-4.4,4.4C25.2,15.7,25.1,16.7,25,17.6z"/>
		<path id="Path_107" class="st2" d="M10.7,29.4l-1.5,1.5c-0.4,0.4-0.4,1.1,0,1.6c0,0,0,0,0,0l3.9,3.9c0.4,0.4,1.1,0.4,1.6,0
			c0,0,0,0,0,0l1.5-1.5C15.6,34.4,11.3,30.1,10.7,29.4z"/>
		<path id="Path_108" class="st1" d="M10.4,32.1l1.5-1.5l-1.3-1.3l-1.5,1.5c-0.4,0.4-0.4,1.1,0,1.6c0,0,0,0,0,0l1.1,1.1
			C10,33.1,10.1,32.5,10.4,32.1z"/>
		<path id="Path_109" class="st2" d="M30.6,7.1l7.9,7.9c0.5,0.5,0.5,1.3,0,1.8l-0.3,0.3c-0.5,0.5-1.3,0.5-1.8,0l-7.9-8
			c-0.5-0.5-0.5-1.3,0-1.8L28.7,7C29.3,6.6,30.1,6.6,30.6,7.1z"/>
		<path id="Path_110" class="st1" d="M37.4,16.3l-7.9-7.9c-0.4-0.4-0.5-1.1-0.2-1.6c-0.4,0.1-0.7,0.3-0.9,0.6
			c-0.5,0.5-0.5,1.3,0,1.8l7.9,7.9c0.5,0.5,1.3,0.5,1.8,0l0.5-0.5C38.2,16.7,37.7,16.6,37.4,16.3z"/>
		<path id="Path_111" class="st6" d="M34.7,1.1c0.5-0.5,1.3-0.5,1.8,0L44.5,9c0.5,0.5,0.5,1.3,0,1.8l-0.3,0.3
			c-0.5,0.5-1.3,0.5-1.8,0l-7.9-7.9c-0.5-0.5-0.5-1.3,0-1.8L34.7,1.1z"/>
		<path id="Path_112" class="st4" d="M43.3,10.2l-7.9-7.9c-0.4-0.4-0.5-1-0.3-1.5c-0.3,0.1-0.6,0.3-0.8,0.6c-0.5,0.5-0.5,1.3,0,1.8
			l7.9,7.9c0.5,0.5,1.3,0.5,1.8,0c0.2-0.2,0.4-0.4,0.6-0.6C44.2,10.6,43.7,10.5,43.3,10.2z"/>
		<path id="Path_113" class="st7" d="M44.9,8.4L43,6.6c0.6-1.2,0.4-2.7-0.5-3.7c-1-1-2.5-1.2-3.7-0.5L37,0.6C36.7,0.2,36.2,0,35.7,0
			C35,0,34.4,0.3,34,0.9c-0.8,0.7-0.8,1.9,0,2.7c0,0,0,0,0,0l2,2l-3.1,3.1l-2-2c-0.4-0.4-0.9-0.6-1.4-0.6c-0.7,0-1.3,0.3-1.6,0.9
			c-0.8,0.7-0.8,1.9,0,2.7c0,0,0,0,0,0l0.8,0.8C27.5,11.7,9.5,29.7,8.8,30.3c-0.7,0.7-0.7,1.8,0,2.5l-1.5,1.5
			c-0.8,0.8-0.8,2.1,0,2.8c0,0,0,0,0,0c0,0.1-7.1,7.2-7.2,7.3c-0.3,0.3-0.3,0.7,0,0.9c0.3,0.3,0.7,0.3,0.9,0l7.3-7.3
			c0.7,0.8,2,0.9,2.8,0.1c0,0,0.1-0.1,0.1-0.1l1.4-1.5c0.7,0.6,1.7,0.7,2.4,0.1c0.1-0.1-0.8,0.8,17-17c0.3-0.3,0.3-0.7,0-0.9
			s-0.7-0.3-0.9,0l-14.9,15l-0.8-0.8c-0.3-0.3-0.7-0.3-0.9,0s-0.3,0.7,0,0.9l0,0l0.8,0.8l-0.9,0.9c-0.2,0.2-0.4,0.2-0.6,0
			c0,0,0,0,0,0l-3.9-3.9c-0.2-0.2-0.2-0.4,0-0.6c0,0,0,0,0,0l0.9-0.9l2.3,2.3c0.3,0.3,0.7,0.3,0.9,0s0.3-0.7,0-0.9l-2.3-2.3l1.3-1.3
			l1.3,1.3c0.3,0.3,0.7,0.3,0.9,0s0.3-0.7,0-0.9l0,0l-1.3-1.3l1.4-1.4c1.5,1.5,1.5,1.5,1.8,1.5c0.4,0,0.7-0.3,0.7-0.7
			c0-0.2-0.1-0.4-0.2-0.5l-1.3-1.3l1.4-1.4l1.3,1.3c0.3,0.3,0.7,0.3,0.9,0s0.3-0.7,0-0.9l0,0l-1.3-1.3l1.4-1.4
			c1.5,1.5,1.5,1.5,1.8,1.5c0.4,0,0.7-0.3,0.7-0.7c0-0.2-0.1-0.4-0.2-0.5l-1.3-1.3l1.4-1.4c1.5,1.5,1.5,1.5,1.8,1.5
			c0.4,0,0.7-0.3,0.7-0.7c0-0.2-0.1-0.4-0.2-0.5l-1.3-1.4l1.4-1.4c1.5,1.5,1.5,1.5,1.8,1.5c0.4,0,0.7-0.3,0.7-0.7
			c0-0.2-0.1-0.4-0.2-0.5l-1.3-1.3L27,14l1.3,1.3c0.3,0.3,0.7,0.3,0.9,0s0.3-0.7,0-0.9L28,13l1.6-1.6l4.5,4.5l-1.5,1.5
			c-0.3,0.3-0.3,0.7,0,0.9c0.3,0.3,0.7,0.3,0.9,0l1.5-1.5c0.7,0.7,1.1,1.2,2,1.2c0.7,0,1.3-0.3,1.6-0.9c0.8-0.7,0.8-1.9,0-2.7
			c0,0,0,0,0,0l-1.9-1.9l3.1-3.1l1.9,1.9c0.4,0.4,0.9,0.6,1.4,0.6c0.7,0,1.3-0.3,1.6-0.9c0.7-0.6,0.8-1.8,0.2-2.5
			C45,8.5,44.9,8.5,44.9,8.4z M8.3,36.1c-0.2-0.2-0.3-0.5-0.1-0.8c0,0,0,0,0.1-0.1l1.5-1.5l2,2C9.6,37.9,10.1,37.9,8.3,36.1z
			 M42,5.6l-2.2-2.2c0.9-0.3,1.9,0.2,2.2,1.2C42.1,4.9,42.1,5.2,42,5.6z M37.8,16.3l-0.3,0.3c-0.2,0.2-0.5,0.3-0.8,0.1
			c0,0,0,0-0.1-0.1c-8.4-8.4-8-7.9-8-8.2s0.2-0.4,0.4-0.7c0.2-0.2,0.5-0.3,0.8-0.1c0,0,0,0,0.1,0.1l7.8,7.8
			C38,15.7,38,16.1,37.8,16.3z M35.9,11.6l-2.1-2.1l3.1-3.1L39,8.5L35.9,11.6z M43.6,10.5c-0.1,0.1-0.3,0.2-0.4,0.2
			c-0.4,0,0.2,0.4-8.2-8c-0.2-0.2-0.3-0.5-0.1-0.8c0,0,0,0,0.1-0.1c0.3-0.3,0.4-0.4,0.7-0.4c0.4,0-0.3-0.5,8.2,8
			C44,9.5,44.1,9.7,44,9.9C44.1,10.1,43.9,10.2,43.6,10.5z"/>
	</g>
	<g class="st8">
		<path class="st9" d="M466.7,401.9c0,0.6-0.1,1.1-0.2,1.5c-0.1,0.4-0.3,0.7-0.6,1s-0.5,0.4-0.9,0.5c-0.3,0.1-0.7,0.2-1.1,0.2
			c-0.4,0-0.8,0-1.2-0.1v-6c0.4-0.1,0.8-0.2,1.2-0.2c0.4,0,0.8,0.1,1.1,0.2c0.3,0.1,0.6,0.3,0.9,0.5c0.2,0.3,0.4,0.6,0.6,1
			C466.6,400.8,466.7,401.3,466.7,401.9z M463.4,404.3c0.2,0,0.3,0,0.5,0c0.3,0,0.6,0,0.8-0.1s0.4-0.2,0.6-0.4
			c0.2-0.2,0.3-0.5,0.4-0.8c0.1-0.3,0.1-0.7,0.1-1.1c0-0.8-0.2-1.5-0.5-1.9s-0.8-0.6-1.4-0.6c-0.1,0-0.2,0-0.3,0c-0.1,0-0.2,0-0.2,0
			V404.3z"/>
		<path class="st9" d="M469.7,400.2c0.6,0,1.1,0.2,1.5,0.6s0.5,1,0.5,1.8v0.3h-3.3c0,0.5,0.2,0.8,0.5,1.1c0.3,0.2,0.7,0.4,1.2,0.4
			c0.3,0,0.5,0,0.8-0.1c0.2,0,0.4-0.1,0.5-0.1l0.1,0.7c-0.1,0.1-0.3,0.1-0.5,0.2c-0.3,0.1-0.6,0.1-0.9,0.1c-0.4,0-0.8-0.1-1.1-0.2
			c-0.3-0.1-0.6-0.3-0.8-0.5c-0.2-0.2-0.4-0.5-0.5-0.8s-0.2-0.6-0.2-1c0-0.4,0.1-0.8,0.2-1.1s0.3-0.6,0.5-0.8
			c0.2-0.2,0.4-0.3,0.7-0.4C469.1,400.3,469.4,400.2,469.7,400.2z M470.8,402.2c0-0.4-0.1-0.7-0.3-0.9c-0.2-0.2-0.5-0.3-0.8-0.3
			c-0.2,0-0.4,0-0.5,0.1c-0.2,0.1-0.3,0.2-0.4,0.3c-0.1,0.1-0.2,0.3-0.3,0.4s-0.1,0.3-0.1,0.5H470.8z"/>
		<path class="st9" d="M475.5,405.1c-0.3,0-0.5,0-0.7-0.1s-0.3-0.2-0.5-0.4s-0.2-0.4-0.2-0.6c0-0.2-0.1-0.5-0.1-0.8v-4.4h-1.3v-0.7
			h2.2v5.1c0,0.2,0,0.4,0,0.6c0,0.1,0.1,0.3,0.1,0.4s0.1,0.2,0.2,0.2c0.1,0,0.2,0,0.3,0c0.2,0,0.4,0,0.5-0.1c0.2,0,0.3-0.1,0.4-0.1
			l0.1,0.7c0,0-0.1,0-0.2,0.1c-0.1,0-0.2,0.1-0.3,0.1c-0.1,0-0.2,0-0.3,0.1C475.7,405.1,475.6,405.1,475.5,405.1z"/>
		<path class="st9" d="M479,401h-1.3v-0.7h2.2v2.8c0,0.5,0.1,0.8,0.2,0.9c0.1,0.2,0.3,0.2,0.6,0.2c0.2,0,0.4,0,0.5-0.1
			c0.2,0,0.3-0.1,0.4-0.1l0.1,0.7c0,0-0.1,0-0.2,0.1c-0.1,0-0.2,0.1-0.3,0.1c-0.1,0-0.2,0-0.3,0.1c-0.1,0-0.2,0-0.4,0
			c-0.3,0-0.5,0-0.7-0.1s-0.3-0.2-0.5-0.4c-0.1-0.2-0.2-0.4-0.2-0.6c0-0.2-0.1-0.5-0.1-0.8V401z M479.2,399.6
			c-0.2,0-0.3-0.1-0.5-0.2s-0.2-0.3-0.2-0.5c0-0.2,0.1-0.4,0.2-0.5c0.1-0.1,0.3-0.2,0.5-0.2c0.2,0,0.3,0.1,0.5,0.2
			c0.1,0.1,0.2,0.3,0.2,0.5c0,0.2-0.1,0.4-0.2,0.5C479.5,399.6,479.3,399.6,479.2,399.6z"/>
		<path class="st9" d="M484.5,400.4h2v0.7h-2v2.2c0,0.2,0,0.4,0,0.6s0.1,0.3,0.2,0.4c0.1,0.1,0.2,0.2,0.3,0.2s0.3,0,0.4,0
			c0.2,0,0.4,0,0.6-0.1s0.3-0.1,0.4-0.2l0.1,0.7c-0.1,0-0.2,0.1-0.4,0.2s-0.5,0.1-0.8,0.1c-0.3,0-0.6,0-0.8-0.1
			c-0.2-0.1-0.4-0.2-0.5-0.4s-0.2-0.4-0.3-0.6s-0.1-0.5-0.1-0.8V401h-1v-0.7h1v-1.3l0.8-0.1V400.4z"/>
		<path class="st9" d="M491.7,402.7c0,0.4-0.1,0.7-0.2,1c-0.1,0.3-0.2,0.6-0.4,0.8c-0.2,0.2-0.4,0.4-0.7,0.5
			c-0.3,0.1-0.5,0.2-0.8,0.2c-0.3,0-0.6-0.1-0.8-0.2c-0.3-0.1-0.5-0.3-0.7-0.5c-0.2-0.2-0.3-0.5-0.4-0.8c-0.1-0.3-0.2-0.6-0.2-1
			c0-0.4,0.1-0.7,0.2-1c0.1-0.3,0.2-0.6,0.4-0.8c0.2-0.2,0.4-0.4,0.7-0.5c0.3-0.1,0.5-0.2,0.8-0.2c0.3,0,0.6,0.1,0.8,0.2
			c0.3,0.1,0.5,0.3,0.7,0.5s0.3,0.5,0.4,0.8C491.6,402,491.7,402.3,491.7,402.7z M490.8,402.7c0-0.5-0.1-0.9-0.3-1.2
			c-0.2-0.3-0.5-0.5-0.9-0.5c-0.4,0-0.7,0.2-0.9,0.5c-0.2,0.3-0.3,0.7-0.3,1.2c0,0.5,0.1,0.9,0.3,1.2c0.2,0.3,0.5,0.5,0.9,0.5
			c0.4,0,0.7-0.2,0.9-0.5C490.7,403.6,490.8,403.2,490.8,402.7z"/>
		<path class="st9" d="M495.6,403.8c0-0.2-0.1-0.3-0.2-0.4c-0.1-0.1-0.3-0.2-0.5-0.3s-0.4-0.2-0.7-0.2c-0.2-0.1-0.5-0.2-0.7-0.3
			s-0.4-0.3-0.5-0.4s-0.2-0.4-0.2-0.7c0-0.4,0.2-0.7,0.5-0.9c0.3-0.2,0.8-0.4,1.4-0.4c0.3,0,0.5,0,0.8,0.1c0.3,0,0.5,0.1,0.7,0.1
			l-0.1,0.7c-0.1,0-0.1-0.1-0.2-0.1c-0.1,0-0.2-0.1-0.3-0.1s-0.2,0-0.4-0.1c-0.1,0-0.3,0-0.4,0c-0.7,0-1.1,0.2-1.1,0.6
			c0,0.1,0.1,0.3,0.2,0.4c0.1,0.1,0.3,0.2,0.5,0.3c0.2,0.1,0.4,0.2,0.7,0.2c0.2,0.1,0.5,0.2,0.7,0.3c0.2,0.1,0.4,0.3,0.5,0.4
			c0.1,0.2,0.2,0.4,0.2,0.6c0,0.4-0.2,0.7-0.5,1c-0.3,0.2-0.8,0.3-1.5,0.3c-0.3,0-0.6,0-0.9-0.1c-0.3-0.1-0.5-0.1-0.8-0.2l0.2-0.8
			c0.2,0.1,0.5,0.2,0.7,0.3c0.3,0.1,0.5,0.1,0.8,0.1C495.2,404.4,495.6,404.2,495.6,403.8z"/>
	</g>
	<g class="st8">
		<path class="st9" d="M457.6,414.7c0-0.4,0.1-0.8,0.2-1.1c0.1-0.3,0.3-0.6,0.6-0.8c0.2-0.2,0.5-0.3,0.8-0.4c0.3-0.1,0.6-0.1,1-0.1
			c0.2,0,0.5,0,0.7,0s0.5,0.1,0.7,0.2l-0.2,0.7c-0.2-0.1-0.4-0.1-0.6-0.2c-0.2,0-0.4,0-0.6,0c-0.2,0-0.5,0-0.7,0.1
			c-0.2,0.1-0.4,0.2-0.6,0.3c-0.2,0.1-0.3,0.3-0.4,0.5c-0.1,0.2-0.1,0.5-0.1,0.8c0,0.3,0,0.5,0.1,0.8s0.2,0.4,0.4,0.5
			c0.2,0.1,0.3,0.2,0.6,0.3c0.2,0.1,0.5,0.1,0.7,0.1c0.2,0,0.4,0,0.6,0c0.2,0,0.4-0.1,0.6-0.2l0.1,0.7c-0.2,0.1-0.5,0.1-0.7,0.2
			c-0.2,0-0.5,0.1-0.8,0.1c-0.4,0-0.7-0.1-1-0.2c-0.3-0.1-0.6-0.3-0.8-0.5c-0.2-0.2-0.4-0.5-0.5-0.8S457.6,415.1,457.6,414.7z"/>
		<path class="st9" d="M466.7,414.7c0,0.4-0.1,0.7-0.2,1c-0.1,0.3-0.2,0.6-0.4,0.8c-0.2,0.2-0.4,0.4-0.7,0.5
			c-0.3,0.1-0.5,0.2-0.8,0.2c-0.3,0-0.6-0.1-0.8-0.2c-0.3-0.1-0.5-0.3-0.7-0.5c-0.2-0.2-0.3-0.5-0.4-0.8c-0.1-0.3-0.2-0.6-0.2-1
			c0-0.4,0.1-0.7,0.2-1c0.1-0.3,0.2-0.6,0.4-0.8c0.2-0.2,0.4-0.4,0.7-0.5c0.3-0.1,0.5-0.2,0.8-0.2c0.3,0,0.6,0.1,0.8,0.2
			c0.3,0.1,0.5,0.3,0.7,0.5s0.3,0.5,0.4,0.8C466.6,414,466.7,414.3,466.7,414.7z M465.8,414.7c0-0.5-0.1-0.9-0.3-1.2
			c-0.2-0.3-0.5-0.5-0.9-0.5c-0.4,0-0.7,0.2-0.9,0.5c-0.2,0.3-0.3,0.7-0.3,1.2c0,0.5,0.1,0.9,0.3,1.2c0.2,0.3,0.5,0.5,0.9,0.5
			c0.4,0,0.7-0.2,0.9-0.5C465.7,415.6,465.8,415.2,465.8,414.7z"/>
		<path class="st9" d="M467.8,412.5c0.3-0.1,0.6-0.1,0.9-0.2s0.6-0.1,0.8-0.1c0.6,0,1.1,0.2,1.4,0.5c0.3,0.3,0.5,0.8,0.5,1.5v2.7
			h-0.8v-2.6c0-0.3,0-0.5-0.1-0.7c-0.1-0.2-0.1-0.3-0.2-0.4c-0.1-0.1-0.2-0.2-0.3-0.2s-0.3-0.1-0.4-0.1c-0.1,0-0.3,0-0.4,0
			c-0.1,0-0.3,0-0.4,0.1v3.9h-0.8V412.5z"/>
		<path class="st9" d="M474.5,412.4h2v0.7h-2v2.2c0,0.2,0,0.4,0,0.6s0.1,0.3,0.2,0.4c0.1,0.1,0.2,0.2,0.3,0.2s0.3,0,0.4,0
			c0.2,0,0.4,0,0.6-0.1s0.3-0.1,0.4-0.2l0.1,0.7c-0.1,0-0.2,0.1-0.4,0.2s-0.5,0.1-0.8,0.1c-0.3,0-0.6,0-0.8-0.1
			c-0.2-0.1-0.4-0.2-0.5-0.4s-0.2-0.4-0.3-0.6s-0.1-0.5-0.1-0.8V413h-1v-0.7h1v-1.3l0.8-0.1V412.4z"/>
		<path class="st9" d="M478.1,417v-4.4c0.7-0.2,1.4-0.4,2.1-0.4c0.2,0,0.4,0,0.6,0c0.2,0,0.4,0.1,0.6,0.1l-0.2,0.7
			c-0.2-0.1-0.4-0.1-0.6-0.1c-0.2,0-0.3,0-0.5,0c-0.4,0-0.8,0.1-1.2,0.2v3.8H478.1z"/>
		<path class="st9" d="M484.5,412.2c0.3,0,0.6,0,0.9,0.1s0.4,0.2,0.6,0.4s0.2,0.3,0.3,0.6c0.1,0.2,0.1,0.5,0.1,0.7v2.9
			c-0.2,0-0.4,0.1-0.8,0.1s-0.6,0.1-1,0.1c-0.3,0-0.5,0-0.7-0.1s-0.5-0.1-0.6-0.2c-0.2-0.1-0.3-0.3-0.5-0.5s-0.2-0.4-0.2-0.7
			c0-0.3,0.1-0.5,0.2-0.7c0.1-0.2,0.3-0.3,0.5-0.4c0.2-0.1,0.4-0.2,0.6-0.2c0.2,0,0.5-0.1,0.7-0.1c0.3,0,0.6,0,1,0.1v-0.2
			c0-0.1,0-0.3,0-0.4s-0.1-0.2-0.2-0.4c-0.1-0.1-0.2-0.2-0.3-0.3c-0.1-0.1-0.3-0.1-0.6-0.1c-0.3,0-0.5,0-0.8,0.1
			c-0.2,0-0.4,0.1-0.5,0.1l-0.1-0.7c0.1-0.1,0.3-0.1,0.6-0.1C484,412.3,484.2,412.2,484.5,412.2z M484.6,416.4c0.2,0,0.4,0,0.6,0
			c0.2,0,0.3,0,0.4,0V415c-0.1,0-0.2-0.1-0.4-0.1c-0.2,0-0.3,0-0.5,0c-0.2,0-0.3,0-0.4,0c-0.1,0-0.3,0.1-0.4,0.1
			c-0.1,0.1-0.2,0.1-0.3,0.2c-0.1,0.1-0.1,0.2-0.1,0.4c0,0.3,0.1,0.5,0.3,0.6C484,416.4,484.3,416.4,484.6,416.4z"/>
		<path class="st9" d="M495.5,417.1c-0.3,0-0.5,0-0.7-0.1s-0.3-0.2-0.5-0.4s-0.2-0.4-0.2-0.6c0-0.2-0.1-0.5-0.1-0.8v-4.4h-1.3v-0.7
			h2.2v5.1c0,0.2,0,0.4,0,0.6c0,0.1,0.1,0.3,0.1,0.4s0.1,0.2,0.2,0.2c0.1,0,0.2,0,0.3,0c0.2,0,0.4,0,0.5-0.1c0.2,0,0.3-0.1,0.4-0.1
			l0.1,0.7c0,0-0.1,0-0.2,0.1c-0.1,0-0.2,0.1-0.3,0.1c-0.1,0-0.2,0-0.3,0.1C495.7,417.1,495.6,417.1,495.5,417.1z"/>
		<path class="st9" d="M499.5,412.2c0.3,0,0.6,0,0.9,0.1s0.4,0.2,0.6,0.4s0.2,0.3,0.3,0.6c0.1,0.2,0.1,0.5,0.1,0.7v2.9
			c-0.2,0-0.4,0.1-0.8,0.1s-0.6,0.1-1,0.1c-0.3,0-0.5,0-0.7-0.1s-0.5-0.1-0.6-0.2c-0.2-0.1-0.3-0.3-0.5-0.5s-0.2-0.4-0.2-0.7
			c0-0.3,0.1-0.5,0.2-0.7c0.1-0.2,0.3-0.3,0.5-0.4c0.2-0.1,0.4-0.2,0.6-0.2c0.2,0,0.5-0.1,0.7-0.1c0.3,0,0.6,0,1,0.1v-0.2
			c0-0.1,0-0.3,0-0.4s-0.1-0.2-0.2-0.4c-0.1-0.1-0.2-0.2-0.3-0.3c-0.1-0.1-0.3-0.1-0.6-0.1c-0.3,0-0.5,0-0.8,0.1
			c-0.2,0-0.4,0.1-0.5,0.1l-0.1-0.7c0.1-0.1,0.3-0.1,0.6-0.1C499,412.3,499.2,412.2,499.5,412.2z M499.6,416.4c0.2,0,0.4,0,0.6,0
			c0.2,0,0.3,0,0.4,0V415c-0.1,0-0.2-0.1-0.4-0.1c-0.2,0-0.3,0-0.5,0c-0.2,0-0.3,0-0.4,0c-0.1,0-0.3,0.1-0.4,0.1
			c-0.1,0.1-0.2,0.1-0.3,0.2c-0.1,0.1-0.1,0.2-0.1,0.4c0,0.3,0.1,0.5,0.3,0.6C499,416.4,499.3,416.4,499.6,416.4z"/>
	</g>
	<g class="st8">
		<path class="st9" d="M473.1,427.8c0-0.2-0.1-0.3-0.2-0.4c-0.1-0.1-0.3-0.2-0.5-0.3s-0.4-0.2-0.7-0.2c-0.2-0.1-0.5-0.2-0.7-0.3
			s-0.4-0.3-0.5-0.4s-0.2-0.4-0.2-0.7c0-0.4,0.2-0.7,0.5-0.9c0.3-0.2,0.8-0.4,1.4-0.4c0.3,0,0.5,0,0.8,0.1c0.3,0,0.5,0.1,0.7,0.1
			l-0.1,0.7c-0.1,0-0.1-0.1-0.2-0.1c-0.1,0-0.2-0.1-0.3-0.1s-0.2,0-0.4-0.1c-0.1,0-0.3,0-0.4,0c-0.7,0-1.1,0.2-1.1,0.6
			c0,0.1,0.1,0.3,0.2,0.4c0.1,0.1,0.3,0.2,0.5,0.3c0.2,0.1,0.4,0.2,0.7,0.2c0.2,0.1,0.5,0.2,0.7,0.3c0.2,0.1,0.4,0.3,0.5,0.4
			c0.1,0.2,0.2,0.4,0.2,0.6c0,0.4-0.2,0.7-0.5,1c-0.3,0.2-0.8,0.3-1.5,0.3c-0.3,0-0.6,0-0.9-0.1c-0.3-0.1-0.5-0.1-0.8-0.2l0.2-0.8
			c0.2,0.1,0.5,0.2,0.7,0.3c0.3,0.1,0.5,0.1,0.8,0.1C472.7,428.4,473.1,428.2,473.1,427.8z"/>
		<path class="st9" d="M477,424.2c0.3,0,0.6,0,0.9,0.1s0.4,0.2,0.6,0.4s0.2,0.3,0.3,0.6c0.1,0.2,0.1,0.5,0.1,0.7v2.9
			c-0.2,0-0.4,0.1-0.8,0.1s-0.6,0.1-1,0.1c-0.3,0-0.5,0-0.7-0.1s-0.5-0.1-0.6-0.2c-0.2-0.1-0.3-0.3-0.5-0.5s-0.2-0.4-0.2-0.7
			c0-0.3,0.1-0.5,0.2-0.7c0.1-0.2,0.3-0.3,0.5-0.4c0.2-0.1,0.4-0.2,0.6-0.2c0.2,0,0.5-0.1,0.7-0.1c0.3,0,0.6,0,1,0.1v-0.2
			c0-0.1,0-0.3,0-0.4s-0.1-0.2-0.2-0.4c-0.1-0.1-0.2-0.2-0.3-0.3c-0.1-0.1-0.3-0.1-0.6-0.1c-0.3,0-0.5,0-0.8,0.1
			c-0.2,0-0.4,0.1-0.5,0.1l-0.1-0.7c0.1-0.1,0.3-0.1,0.6-0.1C476.5,424.3,476.7,424.2,477,424.2z M477.1,428.4c0.2,0,0.4,0,0.6,0
			c0.2,0,0.3,0,0.4,0V427c-0.1,0-0.2-0.1-0.4-0.1c-0.2,0-0.3,0-0.5,0c-0.2,0-0.3,0-0.4,0c-0.1,0-0.3,0.1-0.4,0.1
			c-0.1,0.1-0.2,0.1-0.3,0.2c-0.1,0.1-0.1,0.2-0.1,0.4c0,0.3,0.1,0.5,0.3,0.6C476.5,428.4,476.8,428.4,477.1,428.4z"/>
		<path class="st9" d="M483,429.1c-0.3,0-0.5,0-0.7-0.1s-0.3-0.2-0.5-0.4s-0.2-0.4-0.2-0.6c0-0.2-0.1-0.5-0.1-0.8v-4.4h-1.3v-0.7
			h2.2v5.1c0,0.2,0,0.4,0,0.6c0,0.1,0.1,0.3,0.1,0.4s0.1,0.2,0.2,0.2c0.1,0,0.2,0,0.3,0c0.2,0,0.4,0,0.5-0.1c0.2,0,0.3-0.1,0.4-0.1
			l0.1,0.7c0,0-0.1,0-0.2,0.1c-0.1,0-0.2,0.1-0.3,0.1c-0.1,0-0.2,0-0.3,0.1C483.2,429.1,483.1,429.1,483,429.1z"/>
		<path class="st9" d="M488.9,428.9c-0.2,0-0.4,0.1-0.7,0.1c-0.3,0.1-0.6,0.1-1,0.1c-0.4,0-0.6-0.1-0.9-0.2
			c-0.2-0.1-0.4-0.2-0.6-0.4c-0.1-0.2-0.2-0.4-0.3-0.7c-0.1-0.3-0.1-0.5-0.1-0.9v-2.6h0.8v2.4c0,0.6,0.1,1,0.3,1.2s0.5,0.4,0.9,0.4
			c0.1,0,0.2,0,0.3,0s0.2,0,0.3,0s0.1,0,0.2,0c0.1,0,0.1,0,0.1,0v-3.9h0.8V428.9z"/>
		<path class="st9" d="M493,422.2l0.8-0.1v6.8c-0.2,0.1-0.4,0.1-0.7,0.2c-0.3,0.1-0.6,0.1-1,0.1c-0.3,0-0.6-0.1-0.9-0.2
			s-0.5-0.3-0.7-0.5s-0.3-0.5-0.5-0.8c-0.1-0.3-0.2-0.6-0.2-1c0-0.4,0-0.7,0.1-1c0.1-0.3,0.2-0.6,0.4-0.8c0.2-0.2,0.4-0.4,0.6-0.5
			s0.5-0.2,0.8-0.2c0.2,0,0.5,0,0.7,0.1c0.2,0.1,0.3,0.1,0.4,0.2V422.2z M493,425.3c-0.1-0.1-0.2-0.2-0.4-0.2
			c-0.2-0.1-0.4-0.1-0.6-0.1c-0.2,0-0.4,0-0.6,0.1c-0.2,0.1-0.3,0.2-0.4,0.4c-0.1,0.2-0.2,0.3-0.2,0.5c0,0.2-0.1,0.4-0.1,0.7
			c0,0.5,0.1,1,0.4,1.2c0.3,0.3,0.6,0.4,1,0.4c0.2,0,0.4,0,0.5,0c0.1,0,0.2,0,0.3-0.1V425.3z"/>
	</g>
</g>
</svg>
