<?xml version="1.0" encoding="utf-8"?>
<!-- Generator: Adobe Illustrator 22.1.0, SVG Export Plug-In . SVG Version: 6.00 Build 0)  -->
<svg version="1.1" id="Capa_1" xmlns="http://www.w3.org/2000/svg" xmlns:xlink="http://www.w3.org/1999/xlink" x="0px" y="0px"
	 viewBox="0 0 72.3 54.5" style="enable-background:new 0 0 72.3 54.5;" xml:space="preserve">
<style type="text/css">
	.st0{fill:#F3A96A;}
	.st1{fill:#EF8D39;}
	.st2{fill:#F3D3B7;}
	.st3{fill:#EBB688;}
	.st4{fill:#FBF0E7;}
	.st5{fill:#EFC4A0;}
	.st6{fill:#EB832A;}
	.st7{fill:#F3B57F;}
	.st8{fill:#EF9C54;}
	.st9{fill:#F7E2CF;}
	.st10{fill:#F7C69C;}
	.st11{fill:#DD6B36;}
	.st12{fill:none;stroke:#EB832A;}
</style>
<g transform="translate(-535.653 -732)">
	<g transform="translate(74.266 157)">
		<g transform="translate(461.387 576)">
			<path class="st0" d="M17.3,2.8c0.4-0.4,0.3-1.1-0.1-1.4c-0.4-0.3-0.9-0.3-1.3,0L17.3,2.8z"/>
			<path class="st1" d="M17.4,1.8L17.4,1.8c-0.2-0.5-0.8-0.8-1.3-0.5c-0.1,0-0.2,0.1-0.3,0.2l0.5,0.5C16.7,1.7,17.1,1.6,17.4,1.8z"
				/>
			<rect x="13.8" y="2.8" transform="matrix(0.7071 -0.7071 0.7071 0.7071 1.7362 11.6646)" class="st0" width="2.4" height="1.8"/>
			<rect x="13.4" y="3" transform="matrix(0.7071 -0.7071 0.7071 0.7071 1.8806 11.319)" class="st1" width="2.4" height="0.8"/>
			<path class="st0" d="M4,13.5l-0.8,0.8C3,14.5,3,14.8,3.2,15l0.5,0.5c0.2,0.2,0.5,0.2,0.8,0l0.8-0.8L4,13.5z"/>
			<path class="st1" d="M3.8,14.9l0.8-0.8L4,13.5l-0.8,0.8C3,14.5,3,14.8,3.2,15l0.4,0.4C3.6,15.2,3.6,15,3.8,14.9z"/>
			<path class="st2" d="M12.2,4.3l-8.4,8.4c-0.2,0.2-0.2,0.5,0,0.6c0,0,0,0,0,0l1.6,1.6c0.2,0.2,0.5,0.2,0.6,0c0,0,0,0,0,0l8.4-8.4
				L12.2,4.3z"/>
			<path class="st3" d="M4.3,13.2l8.4-8.4l1.8,1.8l0,0l-2.3-2.3l-8.4,8.4c-0.2,0.2-0.2,0.5,0,0.6c0,0,0,0,0,0l0.4,0.4
				C4.1,13.6,4.1,13.3,4.3,13.2z"/>
			<path class="st4" d="M10.4,6.1c-0.3,1.4-0.2,2.9,0.2,4.3l3.9-3.9l-2.3-2.3L10.4,6.1z"/>
			<path class="st5" d="M10.2,7.2l2.5-2.5l1.8,1.8l0,0l-2.3-2.3l-1.8,1.8C10.3,6.4,10.3,6.8,10.2,7.2z"/>
			<path class="st1" d="M4.4,12.1l-0.6,0.6c-0.2,0.2-0.2,0.5,0,0.6c0,0,0,0,0,0l1.6,1.6c0.2,0.2,0.5,0.2,0.6,0c0,0,0,0,0,0l0.6-0.6
				C6.4,14.1,4.6,12.3,4.4,12.1z"/>
			<path class="st0" d="M4.3,13.2l0.6-0.6l-0.5-0.5l-0.6,0.6c-0.2,0.2-0.2,0.5,0,0.6c0,0,0,0,0,0l0.4,0.4
				C4.1,13.6,4.1,13.3,4.3,13.2z"/>
			<path class="st1" d="M12.5,2.9l3.2,3.2c0.2,0.2,0.2,0.5,0,0.8L15.6,7c-0.2,0.2-0.5,0.2-0.8,0l-3.2-3.3c-0.2-0.2-0.2-0.5,0-0.8
				l0.1-0.1C12,2.7,12.3,2.7,12.5,2.9z"/>
			<path class="st0" d="M15.3,6.7l-3.2-3.2C11.9,3.3,11.9,3,12,2.8c-0.1,0-0.3,0.1-0.4,0.3c-0.2,0.2-0.2,0.5,0,0.8L14.9,7
				c0.2,0.2,0.5,0.2,0.8,0l0.2-0.2C15.7,6.8,15.5,6.8,15.3,6.7z"/>
			<path class="st5" d="M14.2,0.4c0.2-0.2,0.5-0.2,0.8,0l3.2,3.2c0.2,0.2,0.2,0.5,0,0.8l-0.1,0.1c-0.2,0.2-0.5,0.2-0.8,0l-3.2-3.2
				c-0.2-0.2-0.2-0.5,0-0.8L14.2,0.4z"/>
			<path class="st3" d="M17.8,4.2l-3.2-3.2c-0.1-0.2-0.2-0.4-0.1-0.6c-0.1,0.1-0.2,0.1-0.3,0.2c-0.2,0.2-0.2,0.5,0,0.8l3.2,3.2
				c0.2,0.2,0.5,0.2,0.8,0c0.1-0.1,0.2-0.2,0.2-0.3C18.1,4.4,17.9,4.3,17.8,4.2z"/>
			<path class="st6" d="M18.4,3.4l-0.8-0.7c0.3-0.5,0.2-1.1-0.2-1.5c-0.4-0.4-1-0.5-1.5-0.2l-0.8-0.8C15,0.1,14.8,0,14.6,0
				c-0.3,0-0.5,0.1-0.7,0.4c-0.3,0.3-0.3,0.8,0,1.1c0,0,0,0,0,0l0.8,0.8l-1.3,1.3l-0.8-0.8c-0.1-0.2-0.4-0.2-0.6-0.2
				c-0.3,0-0.5,0.1-0.7,0.4c-0.3,0.3-0.3,0.8,0,1.1c0,0,0,0,0,0l0.3,0.3c-0.5,0.5-7.9,7.9-8.1,8.1c-0.3,0.3-0.3,0.8,0,1L3,14.1
				c-0.3,0.3-0.3,0.8,0,1.2c0,0,0,0,0,0c0,0-2.9,3-3,3c-0.1,0.1-0.1,0.3,0,0.4c0.1,0.1,0.3,0.1,0.4,0l3-3c0.3,0.3,0.8,0.4,1.1,0.1
				c0,0,0,0,0,0L5.2,15c0.3,0.3,0.7,0.3,1,0.1c0.1,0-0.3,0.3,7-7c0.1-0.1,0.1-0.3,0-0.4s-0.3-0.1-0.4,0l-6.1,6.1l-0.3-0.3
				c-0.1-0.1-0.3-0.1-0.4,0s-0.1,0.3,0,0.4l0,0l0.3,0.3l-0.4,0.4c-0.1,0.1-0.2,0.1-0.2,0c0,0,0,0,0,0L4,13.1c-0.1-0.1-0.1-0.2,0-0.2
				c0,0,0,0,0,0l0.4-0.4l0.9,0.9c0.1,0.1,0.3,0.1,0.4,0s0.1-0.3,0-0.4l0,0L4.8,12l0.5-0.5l0.5,0.5c0.1,0.1,0.3,0.1,0.4,0
				c0.1-0.1,0.1-0.3,0-0.4l-0.6-0.5l0.6-0.6c0.6,0.6,0.6,0.6,0.8,0.6c0.1,0,0.3-0.1,0.3-0.3c0-0.1,0-0.1-0.1-0.2l-0.5-0.5l0.6-0.6
				l0.5,0.5c0.1,0.1,0.3,0.1,0.4,0c0.1-0.1,0.1-0.3,0-0.4l0,0L7.6,9.2l0.6-0.6c0.6,0.6,0.6,0.6,0.8,0.6c0.1,0,0.3-0.1,0.3-0.3
				c0-0.1,0-0.1-0.1-0.2L8.6,8.2l0.6-0.6c0.6,0.6,0.6,0.6,0.8,0.6c0.1,0,0.3-0.1,0.3-0.3c0-0.1,0-0.1-0.1-0.2L9.5,7.3l0.6-0.6
				c0.6,0.6,0.6,0.6,0.8,0.6c0.1,0,0.3-0.1,0.3-0.3c0-0.1,0-0.1-0.1-0.2l-0.5-0.5l0.6-0.6l0.5,0.5c0.1,0.1,0.3,0.1,0.4,0
				c0.1-0.1,0.1-0.2,0-0.3l-0.5-0.5l0.6-0.6l1.8,1.8l-0.6,0.6c-0.1,0.1-0.1,0.3,0,0.4s0.3,0.1,0.4,0l0,0l0.6-0.6
				c0.3,0.3,0.4,0.5,0.8,0.5c0.3,0,0.5-0.1,0.7-0.4c0.3-0.3,0.3-0.8,0-1.1c0,0,0,0,0,0l-0.8-0.8l1.3-1.3l0.8,0.8
				c0.1,0.2,0.4,0.2,0.6,0.2c0.3,0,0.5-0.1,0.7-0.4C18.7,4.3,18.7,3.8,18.4,3.4C18.4,3.5,18.4,3.5,18.4,3.4z M3.4,14.8
				c-0.1-0.1-0.1-0.2,0-0.3c0,0,0,0,0,0L4,13.9l0.8,0.8C3.9,15.5,4.1,15.5,3.4,14.8z M17.2,2.3l-0.9-0.9c0.4-0.1,0.8,0.1,0.9,0.5
				C17.3,2,17.3,2.2,17.2,2.3z M15.5,6.7l-0.1,0.1c-0.1,0.1-0.2,0.1-0.3,0c0,0,0,0,0,0c-3.4-3.4-3.3-3.2-3.3-3.4s0.1-0.2,0.2-0.3
				c0.1-0.1,0.2-0.1,0.3,0c0,0,0,0,0,0l3.2,3.2C15.6,6.4,15.6,6.6,15.5,6.7z M14.7,4.8l-0.9-0.9l1.3-1.3L16,3.5L14.7,4.8z M17.9,4.3
				c0,0.1-0.1,0.1-0.2,0.1c-0.2,0,0.1,0.2-3.4-3.3c-0.1-0.1-0.1-0.2,0-0.3c0,0,0,0,0,0c0.1-0.1,0.2-0.2,0.3-0.2
				c0.2,0-0.1-0.2,3.4,3.3C18,3.9,18,4,18,4C18.1,4.1,18,4.2,17.9,4.3z"/>
		</g>
		<g transform="translate(490 577)">
			<path class="st3" d="M15.8,1.7H1.7c-0.8,0-1.5,0.6-1.5,1.4c0,0.8,0.6,1.5,1.4,1.5c0.1,0,0.1,0,0.2,0h14.1c0.8,0,1.5,0.6,1.5,1.4
				c0,0,0,0,0,0V3.2C17.2,2.4,16.6,1.8,15.8,1.7C15.8,1.7,15.8,1.7,15.8,1.7z"/>
			<path class="st7" d="M17.2,14.9c0,0.8-0.6,1.5-1.4,1.5c0,0,0,0,0,0H1.7c-0.8,0-1.5-0.6-1.5-1.4c0,0,0,0,0,0l0,0V3.2
				c0,0.8,0.6,1.5,1.4,1.5c0,0,0,0,0,0h14.1c0.8,0,1.5,0.6,1.5,1.4c0,0,0,0,0,0V14.9z"/>
			<g transform="translate(14.675 4.641)">
				<path class="st8" d="M1.1,0H0c0.8,0,1.5,0.6,1.5,1.4c0,0,0,0,0,0v8.8c0,0.8-0.6,1.5-1.4,1.5c0,0,0,0,0,0h1.1
					c0.8,0,1.5-0.6,1.5-1.4c0,0,0,0,0,0V1.5C2.6,0.7,1.9,0,1.1,0C1.1,0,1.1,0,1.1,0z"/>
				<path class="st8" d="M3.1,2.6c0.3,0,0.5,0.2,0.5,0.5c0,0.3-0.2,0.5-0.5,0.5H2.6V2.6H3.1z"/>
			</g>
			<path class="st1" d="M18.3,7.8v4.4c0,0.3-0.2,0.5-0.5,0.5c0,0,0,0,0,0h-3.8l-1.5-2.2l1.5-2.2h3.8C18.1,8.3,18.3,8.1,18.3,7.8z"/>
			<path class="st7" d="M17.8,8.3h-0.5v3.8c0,0.3-0.2,0.5-0.5,0.5c0,0,0,0,0,0h1.1c0.3,0,0.5-0.2,0.5-0.5c0,0,0,0,0,0V7.8
				C18.3,8,18.1,8.3,17.8,8.3C17.8,8.3,17.8,8.3,17.8,8.3z"/>
			<path class="st4" d="M13.3,3.2H2.4l0.4-1.5l0.4-1.5l5.1,1.5L13.3,3.2z"/>
			<path class="st8" d="M15.8,1.7h-1.1c0.8,0,1.5,0.6,1.5,1.4c0,0,0,0,0,0v1.5c0.6,0.2,1.1,0.7,1.1,1.4V3.2
				C17.2,2.4,16.6,1.8,15.8,1.7C15.8,1.7,15.8,1.7,15.8,1.7z"/>
			<path class="st2" d="M15,9.7c0.4,0,0.7,0.3,0.7,0.7s-0.3,0.7-0.7,0.7c-0.4,0-0.7-0.3-0.7-0.7C14.3,10.1,14.6,9.8,15,9.7z"/>
			<path class="st6" d="M17.8,6.9h-0.3V3.2c0-1-0.8-1.7-1.7-1.7H8.2L3.2,0H2.9v0l0,0L2.6,1.3H1.7C0.8,1.3,0,2,0,3l0,0v9.5
				c0,0.2,0.1,0.3,0.3,0.3s0.3-0.1,0.3-0.3v-8c0.3,0.3,0.8,0.5,1.2,0.5h14.1c0.7,0,1.2,0.5,1.2,1.2V8h-3.2c0,0,0,0,0,0c0,0,0,0,0,0
				l0,0l-1.5,2.2c0,0,0,0,0,0.1v0l0,0v0l0,0v0l0,0v0l0,0v0l0,0v0l0,0v0l0,0v0c0,0,0,0,0,0.1l1.5,2.2l0,0c0,0,0,0,0,0c0,0,0,0,0,0
				l0,0l0,0l0,0l0,0l0,0c0,0,0,0,0,0c0,0,0,0,0,0h3.1v1.9c0,0.7-0.5,1.2-1.2,1.2H1.8c-0.7,0-1.2-0.5-1.2-1.2l0,0v-1.1
				c0-0.2-0.1-0.3-0.3-0.3S0,13.5,0,13.7v1.1l0,0c0,0.9,0.8,1.7,1.7,1.7c0,0,0,0,0,0h14.1c1,0,1.7-0.8,1.7-1.7l0,0v-1.9h0.3
				c0.5,0,0.8-0.4,0.8-0.8V7.8C18.6,7.3,18.2,6.9,17.8,6.9z M18,12.1c0,0.2-0.1,0.3-0.3,0.3h-3.7l-1.3-1.9l1.3-1.9h3.7
				c0.1,0,0.2,0,0.3-0.1L18,12.1L18,12.1z M3.3,0.6L8.1,2l0,0l3.2,0.9H2.7L3.3,0.6z M15.8,4.4H1.7C1,4.4,0.5,3.9,0.5,3.2S1,2,1.6,2
				c0,0,0,0,0.1,0h0.8L2.2,2.9H1.7C1.5,2.9,1.4,3,1.4,3.2c0,0.2,0.1,0.3,0.3,0.3h13.7c0.2,0,0.3-0.1,0.3-0.3c0-0.2-0.1-0.3-0.3-0.3
				h-2L10.2,2h5.6C16.4,2,17,2.5,17,3.2v1.7C16.7,4.6,16.2,4.4,15.8,4.4L15.8,4.4z M17.5,7.5h0.3c0.2,0,0.3,0.1,0.3,0.3
				c0,0.2-0.1,0.3-0.3,0.3h-0.3L17.5,7.5L17.5,7.5z"/>
			<path class="st6" d="M15,9.5c-0.6,0-1,0.5-1,1c0,0.6,0.4,1,1,1c0,0,0,0,0,0c0.6,0,1-0.5,1-1C16.1,9.9,15.6,9.5,15,9.5
				C15.1,9.5,15,9.5,15,9.5z M15,10.9c-0.3,0-0.5-0.2-0.5-0.5c0-0.3,0.2-0.5,0.5-0.5c0.3,0,0.5,0.2,0.5,0.5
				C15.5,10.7,15.3,10.9,15,10.9C15,10.9,15,10.9,15,10.9z"/>
		</g>
		<g transform="translate(518.774 575)">
			<path class="st9" d="M12.8,0.3l-0.5,0.3c0,0-0.1,0-0.1,0.1l-1.7,2.2l0.3,0.4l3-1.9l-0.7-1.1C13,0.3,12.9,0.3,12.8,0.3z"/>
			<path class="st0" d="M13.8,3.5L14.5,3c0.1-0.1,0.1-0.2,0.1-0.3L13.5,1l-6,3.7l1.6,2.6l4.4-2.7c0.2-0.1,0.2-0.4,0.1-0.6l0,0
				C13.5,3.9,13.6,3.6,13.8,3.5C13.8,3.5,13.8,3.5,13.8,3.5z"/>
			<path class="st10" d="M14.2,2.2l-6,3.7l0.9,1.4l4.4-2.7c0.2-0.1,0.2-0.4,0.1-0.6c-0.1-0.2-0.1-0.4,0.1-0.6L14.5,3
				c0.1-0.1,0.1-0.2,0.1-0.3L14.2,2.2z"/>
			<path class="st9" d="M0.4,10l0.4-0.2c0.1-0.1,0.3-0.1,0.5-0.1l0.3,0.1c0.2,0,0.3,0,0.5-0.1L3.2,9l1,1.7l-1.6,0.6l-2.2-0.9
				C0.3,10.3,0.3,10.2,0.4,10C0.3,10.1,0.3,10.1,0.4,10z"/>
			<path class="st2" d="M7.9,4.5L2.7,7.8C2.5,7.9,2.4,8.1,2.5,8.4c0.6,1.3,0.1,2.9-1.1,3.7l0,0c-0.2,0.1-0.3,0.4-0.2,0.6
				c0,0,0,0,0,0c0.1,0.1,0.1,0.2,0.2,0.3c0.3,0.5,0.5,1.1,0.4,1.7l-0.1,1.9c0,0.6,0.1,1.2,0.3,1.7L2.6,20c0.1,0.3,0.5,0.5,0.9,0.4
				c0,0,0.1,0,0.1-0.1l2.3-1.5c0.5-0.3,0.7-1,0.4-1.6c0,0,0,0,0,0L6,16.9c-0.3-0.5-0.6-1.1-0.6-1.7l-0.2-1c0.2,0.2,0.5,0.3,0.9,0.4
				c0.5,0.1,0.9,0,1.3-0.3c0.1,0,0.1-0.1,0.2-0.1l1.6-1.2c0.7-0.6,0.9-1.6,0.4-2.4L9.2,9.9l0.7-0.4c0.4-0.3,0.5-0.8,0.3-1.2
				c0,0,0,0,0,0L7.9,4.5z M8.8,11c0.3,0.4,0.2,1-0.2,1.3l-1.5,1.2c-0.2,0.2-0.5,0.3-0.8,0.2c-0.3,0-0.5-0.2-0.7-0.5l0,0
				c-0.3-0.4-0.1-0.9,0.3-1.2c0,0,0,0,0,0l2-1.3C8.2,10.6,8.6,10.7,8.8,11C8.8,11,8.8,11,8.8,11L8.8,11z"/>
			<path class="st3" d="M10.2,8.3L7.9,4.5L6.5,5.4l1.8,2.9c0.3,0.4,0.1,1-0.3,1.2c0,0,0,0,0,0L7.3,9.9c0,0-3.2,2-3.4,2.1
				c0,0-0.1,0.1-0.1,0.1c-0.5,0.5-0.7,1.3-0.5,2l0.2,1c0.2,1.5,0.9,2.9,2,4L6,18.9c0.5-0.3,0.7-1,0.4-1.6c0,0,0,0,0,0l-0.3-0.4
				c-0.3-0.5-0.6-1.1-0.6-1.7l-0.2-1c0.2,0.2,0.5,0.3,0.9,0.4c0.5,0.1,0.9,0,1.3-0.3c0.1,0,0.1-0.1,0.2-0.1l1.6-1.2
				c0.7-0.6,0.9-1.6,0.4-2.4L9.2,9.9l0.7-0.4C10.3,9.2,10.5,8.7,10.2,8.3C10.2,8.3,10.2,8.3,10.2,8.3z M8.6,12.3l-1.5,1.2
				c-0.2,0.2-0.5,0.3-0.8,0.2c-0.3,0-0.5-0.2-0.7-0.5c-0.3-0.4-0.1-0.9,0.3-1.2c0,0,0,0,0,0l2-1.3c0.3-0.2,0.7-0.1,0.9,0.2
				c0,0,0,0,0,0C9.1,11.4,9,12,8.6,12.3z"/>
			<path class="st0" d="M2.3,12.5l-1.1-0.1c0,0.1,0,0.2,0.1,0.3c0.1,0.1,0.1,0.2,0.2,0.3c0.3,0.5,0.5,1.1,0.4,1.7l-0.1,1.9
				c0,0.6,0.1,1.2,0.3,1.7L2.7,20c0.1,0.3,0.5,0.5,0.9,0.4c0,0,0.1,0,0.1-0.1L6,18.8c0.5-0.3,0.7-1,0.4-1.6c0,0,0,0,0,0l-0.3-0.4
				c-0.3-0.5-0.6-1.1-0.6-1.7l-0.2-1l-0.8-0.2c-0.4-0.1-0.8-0.4-1-0.7l0,0C3.2,12.8,2.8,12.6,2.3,12.5z"/>
			<path class="st1" d="M6.3,17.3l-0.3-0.4c-0.2-0.2-0.3-0.5-0.4-0.8l-0.1-0.2c0-0.1-0.1-0.2-0.1-0.3c0,0,0-0.1,0-0.2
				c0-0.1-0.1-0.2-0.1-0.3l-0.1-0.5l-0.1-0.5L4.5,14c-0.4-0.1-0.8-0.4-1-0.7l0,0c-0.1-0.1-0.1-0.1-0.2-0.2c-0.1,0.4-0.1,0.7,0,1.1
				l0.2,1c0.2,1.5,0.9,2.9,2,4L6,18.9c0.1,0,0.1-0.1,0.1-0.1l0.1-0.1c0.2-0.1,0.3-0.3,0.3-0.5c0,0,0-0.1,0-0.1c0-0.1,0-0.1,0-0.2
				v-0.2C6.5,17.7,6.4,17.5,6.3,17.3z"/>
			<path class="st0" d="M9.2,8.8L5.7,11c-0.1,0.1-0.2,0-0.3-0.1L3.9,8.5c-0.1-0.1,0-0.2,0.1-0.3l3.6-2.2C7.6,6,7.7,6,7.8,6.1
				l1.5,2.4C9.3,8.6,9.3,8.7,9.2,8.8z"/>
			<g transform="translate(5.272 6.025)">
				<path class="st11" d="M2.2,0l-2,1.2C0,1.4-0.1,1.7,0.1,1.9c0,0,0,0,0,0c0.1,0.2,0.4,0.3,0.6,0.2l2.2-1.3L2.5,0.1
					C2.4,0,2.3,0,2.2,0z"/>
				<path class="st11" d="M1.3,3.8L1.3,3.8C1.4,4.1,1.7,4.1,1.9,4c0,0,0,0,0,0l2-1.2C4,2.7,4,2.6,4,2.5L3.6,1.8L1.4,3.2
					C1.2,3.3,1.1,3.6,1.3,3.8z"/>
			</g>
			<path class="st6" d="M7.8,10.5l-2,1.3c-0.5,0.3-0.7,1-0.4,1.6c0,0,0,0,0,0c0.2,0.3,0.5,0.5,0.9,0.6c0.1,0,0.2,0,0.2,0
				c0.3,0,0.6-0.1,0.8-0.3l1.5-1.2c0.5-0.4,0.6-1.2,0.3-1.7c-0.1-0.2-0.4-0.4-0.6-0.4C8.2,10.3,8,10.4,7.8,10.5z M8.5,11.1L8.5,11.1
				c0.2,0.3,0.1,0.7-0.2,0.9l-1.5,1.2c-0.2,0.1-0.3,0.2-0.5,0.2c-0.2,0-0.4-0.1-0.5-0.3c-0.1-0.2-0.1-0.4,0-0.5L6,12.7
				c0.2,0.1,0.4,0.2,0.6,0.2c0.2,0,0.5-0.1,0.7-0.2l0.1-0.1c0.1-0.1,0.2-0.3,0.1-0.4C7.5,12,7.3,12,7.2,12L7,12.1
				c-0.2,0.1-0.5,0.1-0.7,0l1.8-1.1C8.2,11,8.2,11,8.3,11h0.1C8.4,11,8.5,11.1,8.5,11.1z"/>
			<path class="st6" d="M14.8,2.6l-1.1-1.7l-0.4-0.6C13.3,0.1,13.2,0,13,0c-0.1,0-0.3,0-0.4,0.1l-0.5,0.3C12,0.5,12,0.5,12,0.6
				l-1.6,2.2L7.7,4.3L2.5,7.6c-0.3,0.2-0.4,0.6-0.3,1c0.1,0.2,0.1,0.4,0.2,0.6L1.8,9.5c-0.1,0-0.2,0.1-0.3,0.1L1.3,9.5
				c-0.2-0.1-0.5,0-0.7,0.1L0.2,9.9C0.1,10,0,10.1,0,10.3c0,0.2,0.1,0.3,0.3,0.4l1.6,0.6c-0.2,0.2-0.4,0.4-0.6,0.5
				C1,12,0.9,12.2,0.9,12.4v0.2v0.1c0,0,0,0.1,0,0.1v0c0,0,0,0,0,0.1v0c0,0,0,0,0,0.1v0c0,0,0,0,0,0.1c0,0,0.1,0.2,0.1,0.2
				c0,0,0,0,0,0c0,0,0,0,0,0l0,0c0.3,0.4,0.4,1,0.4,1.5l-0.1,1.9c0,0.6,0,1.3,0.3,1.8l0.7,1.7c0.1,0.3,0.3,0.5,0.6,0.6
				c0.1,0,0.2,0,0.3,0.1c0.1,0,0.3,0,0.4-0.1c0.1,0,0.1-0.1,0.1-0.1l2.3-1.5c0.3-0.2,0.6-0.5,0.6-0.9c0.1-0.4,0-0.8-0.2-1.1
				l-0.3-0.4c-0.1-0.2-0.2-0.4-0.3-0.6c-0.2-0.3-0.3-0.7-0.3-1l-0.1-0.4c0.1,0.1,0.3,0.1,0.4,0.1c0.5,0.1,1,0,1.5-0.3
				c0.1-0.1,0.1-0.1,0.2-0.2l1.6-1.2c0.9-0.7,1.1-1.9,0.5-2.8l-0.2-0.3l0.5-0.3c0.3-0.2,0.5-0.4,0.5-0.8c0.1-0.3,0-0.6-0.2-0.9
				L10,7.3L13.7,5c0.3-0.2,0.4-0.6,0.2-1c0,0,0,0,0-0.1c0,0,0,0,0,0c0,0,0-0.1,0.1-0.1l0.3-0.2l0.4-0.3c0.1-0.1,0.2-0.2,0.2-0.3
				C14.9,2.9,14.9,2.7,14.8,2.6z M12.4,0.9l0.5-0.3L13.1,1l-1.3,0.8L12.4,0.9z M0.7,10.2l0.2-0.1C1,10.1,1.1,10,1.1,10l0.3,0.1
				c0.2,0.1,0.5,0,0.7-0.1l0.3-0.2c0,0.3-0.1,0.6-0.3,0.9L0.7,10.2z M5.8,17.1L5.8,17.1l0.3,0.4c0.1,0.2,0.2,0.4,0.1,0.6
				c0,0.2-0.2,0.4-0.3,0.5c0,0-0.1,0-0.1,0.1l-2.3,1.5c-0.1,0.1-0.2,0.1-0.3,0c-0.1,0-0.2-0.1-0.2-0.2l-0.7-1.7
				c-0.2-0.5-0.3-1-0.3-1.6l0.1-1.9c0-0.7-0.1-1.3-0.5-1.8v0c0,0,0,0,0,0l0,0c0,0,0,0,0,0c0,0,0,0,0,0l0.6,0.1c0.4,0,0.7,0.3,1,0.6
				c0.3,0.4,0.7,0.7,1.2,0.9L5,14.5l0.1,0.8c0,0.1,0,0.1,0,0.2C5.3,16,5.5,16.6,5.8,17.1z M10,8.9C10,9,9.9,9.2,9.8,9.2L9,9.7
				C9,9.7,8.9,9.8,8.9,9.9c0,0.1,0,0.2,0,0.2l0.4,0.6c0.4,0.7,0.3,1.5-0.3,2l-1.6,1.2C7.4,14,7.3,14,7.3,14
				c-0.3,0.2-0.7,0.3-1.1,0.2c-0.3,0-0.5-0.2-0.7-0.3c0,0,0,0,0,0c0,0,0,0,0,0H5.3l-0.8-0.2c-0.3-0.1-0.6-0.3-0.8-0.6
				c-0.3-0.5-0.8-0.8-1.4-0.9l-0.6-0.1c0.3-0.2,0.6-0.5,0.8-0.9l0,0C3,10.7,3.1,10,3,9.2v0c0-0.3-0.1-0.7-0.3-1c0-0.1,0-0.1,0.1-0.2
				l5-3.1L10,8.4C10,8.6,10.1,8.7,10,8.9z M13.6,3.2l-2.2,1.3c-0.1,0.1-0.2,0.3-0.1,0.4c0,0.1,0.1,0.2,0.3,0.2c0.1,0,0.1,0,0.2-0.1
				l1.6-1c0,0,0,0.1,0.1,0.1c0,0,0,0.1,0,0.1L9.6,6.7L9.5,6.5l1.1-0.7c0.1-0.1,0.2-0.3,0.1-0.4c-0.1-0.1-0.3-0.2-0.4-0.1L9.2,6
				L8.3,4.6l2.4-1.5l2.7-1.7l0.9,1.4L13.6,3.2z"/>
			<polygon class="st6" points="1.6,12.8 1.6,12.8 1.6,12.8 			"/>
			<path class="st6" d="M7.3,5.8L7.3,5.8L3.8,8C3.6,8.1,3.5,8.4,3.6,8.6c0,0,0,0,0,0l1.5,2.4c0.1,0.1,0.2,0.2,0.3,0.2
				c0,0,0.1,0,0.1,0c0.1,0,0.2,0,0.3-0.1L9.4,9c0,0,0,0,0.1,0l0,0l0,0l0,0c0.1-0.1,0.1-0.1,0.1-0.2c0-0.1,0-0.2,0-0.3l0,0
				c0,0,0,0,0-0.1L8,5.9C8,5.8,7.9,5.8,7.7,5.7C7.6,5.7,7.5,5.7,7.3,5.8z M5.7,7.5L6,7.3l1.5-0.9l0.2,0.3L5.8,7.8
				c-0.1,0-0.2,0-0.2-0.1C5.6,7.7,5.6,7.6,5.7,7.5z M8.9,8.6L7.1,9.8C7,9.8,6.9,9.8,6.8,9.7c-0.1-0.1,0-0.2,0.1-0.2l1.9-1.2L8.9,8.6
				z M8.1,7.2l0.4,0.6L6.5,9C6.2,9.2,6.1,9.7,6.3,10c0,0,0.1,0.1,0.1,0.1l-0.8,0.5L4.2,8.5L5,8l0.1,0.2c0.2,0.2,0.4,0.4,0.7,0.4
				c0.1,0,0.3,0,0.4-0.1L8.1,7.2z"/>
		</g>
	</g>
	<line class="st12" x1="570.8" y1="755.5" x2="570.8" y2="786.5"/>
	<line class="st12" x1="540.8" y1="765" x2="600.8" y2="765"/>
	<line class="st12" x1="541.3" y1="755.5" x2="541.3" y2="765.5"/>
	<line class="st12" x1="600.3" y1="755.5" x2="600.3" y2="765.5"/>
</g>
</svg>
