<svg xmlns="http://www.w3.org/2000/svg" viewBox="0 0 29.5 48">
  <defs>
    <style>
      .cls-1 {
        fill: none;
        stroke: #eb832a;
      }

      .cls-2 {
        fill: #f3a96a;
      }

      .cls-3 {
        fill: #ef8d39;
      }

      .cls-4 {
        fill: #f3d3b7;
      }

      .cls-5 {
        fill: #ebb688;
      }

      .cls-6 {
        fill: #fbf0e7;
      }

      .cls-7 {
        fill: #efc4a0;
      }

      .cls-8 {
        fill: #eb832a;
      }

      .cls-9 {
        fill: #f3b57f;
      }

      .cls-10 {
        fill: #ef9c54;
      }

      .cls-11 {
        fill: #f7e2cf;
      }

      .cls-12 {
        fill: #f7c69c;
      }

      .cls-13 {
        fill: #dd6b36;
      }
    </style>
  </defs>
  <g id="Group_113" data-name="Group 113" transform="translate(-914.5 -1224)">
    <g id="Group_108" data-name="Group 108" transform="translate(711.5 952.5)">
      <line id="Line_71" data-name="Line 71" class="cls-1" x2="15" transform="translate(217.5 281.5)"/>
      <line id="Line_72" data-name="Line 72" class="cls-1" y2="33.5" transform="translate(225 282)"/>
      <line id="Line_73" data-name="Line 73" class="cls-1" x2="7.5" transform="translate(218 296)"/>
      <line id="Line_74" data-name="Line 74" class="cls-1" x2="7.5" transform="translate(218 315)"/>
    </g>
    <g id="Group_109" data-name="Group 109" transform="translate(915.5 1224)">
      <path id="Path_99" data-name="Path 99" class="cls-2" d="M62.128,9.684A.729.729,0,0,0,61.1,8.656Z" transform="translate(-49.678 -7.646)"/>
      <path id="Path_100" data-name="Path 100" class="cls-3" d="M62.222,8.844h.019a.731.731,0,0,0-1.14-.28l.393.393A.736.736,0,0,1,62.222,8.844Z" transform="translate(-49.678 -7.572)"/>
      <rect id="Rectangle_1464" data-name="Rectangle 1464" class="cls-2" width="1.701" height="1.29" transform="translate(9.721 2.84) rotate(-45)"/>
      <rect id="Rectangle_1465" data-name="Rectangle 1465" class="cls-3" width="1.701" height="0.598" transform="translate(9.716 2.834) rotate(-45)"/>
      <path id="Path_101" data-name="Path 101" class="cls-2" d="M12.492,56l-.58.58a.384.384,0,0,0,0,.542l.337.337a.384.384,0,0,0,.542,0l.58-.58Z" transform="translate(-9.594 -46.279)"/>
      <path id="Path_102" data-name="Path 102" class="cls-3" d="M12.323,57.01l.6-.6L12.492,56l-.58.58a.384.384,0,0,0,0,.542l.28.28A.445.445,0,0,1,12.323,57.01Z" transform="translate(-9.594 -46.279)"/>
      <path id="Path_103" data-name="Path 103" class="cls-4" d="M20.249,20.4l-6.076,6.057a.327.327,0,0,0,0,.467l1.159,1.159a.327.327,0,0,0,.467,0l6.076-6.076Z" transform="translate(-11.444 -17.334)"/>
      <path id="Path_104" data-name="Path 104" class="cls-5" d="M14.528,26.912,20.6,20.855l1.271,1.271h0L20.249,20.5l-6.076,6.038a.327.327,0,0,0,0,.467l.318.318A.316.316,0,0,1,14.528,26.912Z" transform="translate(-11.444 -17.415)"/>
      <path id="Path_105" data-name="Path 105" class="cls-6" d="M39.526,21.709a6.967,6.967,0,0,0,.15,3.1l2.785-2.785L40.835,20.4Z" transform="translate(-32.048 -17.334)"/>
      <path id="Path_106" data-name="Path 106" class="cls-7" d="M39.5,22.531l1.776-1.776,1.271,1.271h0L40.921,20.4l-1.309,1.309A6.659,6.659,0,0,0,39.5,22.531Z" transform="translate(-32.116 -17.334)"/>
      <path id="Path_107" data-name="Path 107" class="cls-3" d="M14.6,50.5l-.43.43a.327.327,0,0,0,0,.467l1.159,1.159a.327.327,0,0,0,.467,0l.43-.43C16.061,51.958,14.771,50.687,14.6,50.5Z" transform="translate(-11.444 -41.807)"/>
      <path id="Path_108" data-name="Path 108" class="cls-2" d="M14.447,51.3l.43-.43L14.5,50.5l-.43.43a.327.327,0,0,0,0,.467l.318.318A.344.344,0,0,1,14.447,51.3Z" transform="translate(-11.362 -41.807)"/>
      <path id="Path_109" data-name="Path 109" class="cls-3" d="M45.048,14.7l2.337,2.337a.384.384,0,0,1,0,.542l-.093.093a.384.384,0,0,1-.542,0l-2.337-2.356a.384.384,0,0,1,0-.542l.093-.093A.4.4,0,0,1,45.048,14.7Z" transform="translate(-36.018 -12.608)"/>
      <path id="Path_110" data-name="Path 110" class="cls-2" d="M47.067,17.5,44.73,15.167a.37.37,0,0,1-.056-.467.524.524,0,0,0-.262.187.384.384,0,0,0,0,.542l2.337,2.337a.384.384,0,0,0,.542,0l.15-.15A.471.471,0,0,1,47.067,17.5Z" transform="translate(-36.018 -12.7)"/>
      <path id="Path_111" data-name="Path 111" class="cls-7" d="M54.006,5.212a.384.384,0,0,1,.542,0l2.337,2.337a.384.384,0,0,1,0,.542l-.093.093a.384.384,0,0,1-.542,0L53.912,5.848a.384.384,0,0,1,0-.542Z" transform="translate(-43.742 -4.894)"/>
      <path id="Path_112" data-name="Path 112" class="cls-5" d="M56.548,8.067,54.211,5.73a.4.4,0,0,1-.075-.43.588.588,0,0,0-.224.168.384.384,0,0,0,0,.542l2.337,2.337a.384.384,0,0,0,.542,0,1.22,1.22,0,0,0,.168-.187A.462.462,0,0,1,56.548,8.067Z" transform="translate(-43.742 -5.057)"/>
      <path id="Path_113" data-name="Path 113" class="cls-8" d="M13.254,6.486l-.542-.542a.933.933,0,0,0-.15-1.084.885.885,0,0,0-1.084-.15l-.542-.542A.509.509,0,0,0,10.544,4a.594.594,0,0,0-.486.262.564.564,0,0,0,0,.8l.58.58-.916.916-.58-.58a.55.55,0,0,0-.411-.168.594.594,0,0,0-.486.262.564.564,0,0,0,0,.8l.224.224c-.355.355-5.664,5.664-5.87,5.851a.53.53,0,0,0,0,.748l-.43.43a.592.592,0,0,0,.019.841c0,.019-2.112,2.131-2.131,2.15a.2.2,0,0,0,0,.28.2.2,0,0,0,.28,0l2.15-2.15a.577.577,0,0,0,.841.019l.411-.43a.541.541,0,0,0,.71.037c.037-.019-.243.243,5.029-5.029a.2.2,0,0,0-.28-.28L4.786,14l-.224-.224a.2.2,0,0,0-.28.28l.224.224-.28.28a.125.125,0,0,1-.187,0L2.9,13.422a.125.125,0,0,1,0-.187l.28-.28.673.673a.2.2,0,0,0,.28-.28l-.673-.673.374-.374.393.393a.2.2,0,1,0,.28-.28l-.393-.393.411-.411c.43.43.43.449.542.449a.194.194,0,0,0,.131-.337L4.8,11.328l.411-.411.393.393a.2.2,0,1,0,.28-.28L5.5,10.637l.411-.411c.43.43.43.449.542.449a.194.194,0,0,0,.131-.337l-.393-.393L6.6,9.534c.43.43.43.449.542.449a.194.194,0,0,0,.131-.337L6.88,9.234l.411-.411c.43.43.43.449.542.449a.194.194,0,0,0,.131-.337l-.393-.393.411-.411.393.393a.2.2,0,1,0,.28-.28l-.393-.393.467-.467,1.327,1.327-.449.449a.2.2,0,0,0,.28.28l.449-.449c.206.206.318.355.6.355a.594.594,0,0,0,.486-.262.564.564,0,0,0,0-.8l-.561-.561.916-.916.561.561a.55.55,0,0,0,.411.168.594.594,0,0,0,.486-.262A.527.527,0,0,0,13.254,6.486ZM2.449,14.675a.159.159,0,0,1,0-.243l.43-.43.58.58C2.842,15.2,2.991,15.2,2.449,14.675Zm9.964-9.029-.636-.636A.511.511,0,0,1,12.413,5.645ZM11.179,8.823l-.093.093a.159.159,0,0,1-.243,0C8.356,6.43,8.469,6.58,8.469,6.486s.056-.131.131-.206a.159.159,0,0,1,.243,0L11.161,8.6C11.235,8.636,11.235,8.748,11.179,8.823ZM10.618,7.44,10,6.823l.916-.916.617.617ZM12.881,7.1a.17.17,0,0,1-.131.056c-.112,0,.056.131-2.43-2.374a.159.159,0,0,1,0-.243c.093-.093.131-.131.206-.131.112,0-.075-.15,2.43,2.374a.17.17,0,0,1,.056.131C13.03,6.972,12.974,7.01,12.881,7.1Z" transform="translate(0 -4)"/>
    </g>
    <g id="Group_110" data-name="Group 110" transform="translate(914.5 1241.129)">
      <path id="Path_128" data-name="Path 128" class="cls-5" d="M221.435,14.7H211.247a1.047,1.047,0,0,0,0,2.094h10.17a1.045,1.045,0,0,1,1.047,1.047V15.747A1.018,1.018,0,0,0,221.435,14.7Z" transform="translate(-210.05 -13.447)"/>
      <path id="Path_129" data-name="Path 129" class="cls-9" d="M222.564,28.713a1.045,1.045,0,0,1-1.047,1.047h-10.17a1.045,1.045,0,0,1-1.047-1.047h0V20.3a1.045,1.045,0,0,0,1.047,1.047h10.17a1.045,1.045,0,0,1,1.047,1.047Z" transform="translate(-210.132 -18.001)"/>
      <g id="Group_46" data-name="Group 46" transform="translate(10.581 3.346)">
        <path id="Path_130" data-name="Path 130" class="cls-10" d="M266.8,25.9H266a1.045,1.045,0,0,1,1.047,1.047v6.319A1.045,1.045,0,0,1,266,34.313h.785a1.045,1.045,0,0,0,1.047-1.047v-6.3A1.034,1.034,0,0,0,266.8,25.9Z" transform="translate(-266 -25.9)"/>
        <path id="Path_131" data-name="Path 131" class="cls-10" d="M276.293,35.8a.393.393,0,0,1,0,.785H275.9V35.8Z" transform="translate(-274.049 -33.949)"/>
      </g>
      <path id="Path_132" data-name="Path 132" class="cls-3" d="M261.806,37.9v3.159a.383.383,0,0,1-.393.393h-2.767l-1.047-1.57,1.047-1.57h2.767A.411.411,0,0,0,261.806,37.9Z" transform="translate(-248.589 -32.31)"/>
      <path id="Path_133" data-name="Path 133" class="cls-9" d="M274.585,38.293h-.393v2.767a.383.383,0,0,1-.393.393h.785a.383.383,0,0,0,.393-.393V37.9A.383.383,0,0,1,274.585,38.293Z" transform="translate(-261.761 -32.31)"/>
      <path id="Path_134" data-name="Path 134" class="cls-6" d="M226.489,11.194H218.6l.262-1.047.262-1.047,3.683,1.047Z" transform="translate(-216.88 -8.894)"/>
      <path id="Path_135" data-name="Path 135" class="cls-10" d="M266.8,14.7H266a1.045,1.045,0,0,1,1.047,1.047v1.084a1.043,1.043,0,0,1,.785,1.01V15.747A1.018,1.018,0,0,0,266.8,14.7Z" transform="translate(-255.419 -13.447)"/>
      <path id="Path_136" data-name="Path 136" class="cls-4" d="M265.123,45.6a.523.523,0,1,1-.523.523A.535.535,0,0,1,265.123,45.6Z" transform="translate(-254.281 -38.571)"/>
      <path id="Path_137" data-name="Path 137" class="cls-8" d="M222.224,12.991h-.206V10.3a1.253,1.253,0,0,0-1.253-1.253h-5.421L211.7,8h-.187v.019h0l-.224.9h-.636a1.253,1.253,0,0,0-1.253,1.253h0v6.842a.206.206,0,0,0,.411,0v-5.8a1.266,1.266,0,0,0,.86.337h10.17a.87.87,0,0,1,.86.86V13.8h-2.3a.018.018,0,0,1-.019.019h0l-1.047,1.57c0,.019-.019.019-.019.037v.019h0v.019h0v.019h0V15.5h0v.019h0v.019h0v.019h0v.019c0,.019.019.019.019.037l1.047,1.57h0a.018.018,0,0,0,.019.019h0l.019.019h0l.019.019h0a.018.018,0,0,1,.019.019H221.7v1.383a.87.87,0,0,1-.86.86h-10.17a.87.87,0,0,1-.86-.86h0v-.785a.206.206,0,0,0-.411,0v.785h0a1.237,1.237,0,0,0,1.253,1.234h10.17a1.253,1.253,0,0,0,1.253-1.253h0V17.235h.206a.6.6,0,0,0,.6-.6V13.59A.7.7,0,0,0,222.224,12.991Zm.187,3.758a.207.207,0,0,1-.206.206h-2.655l-.916-1.383.916-1.383h2.673a.553.553,0,0,0,.187-.037v2.6Zm-10.618-8.3,3.477.991h0l2.337.673h-6.225Zm8.992,2.711h-10.17a.86.86,0,1,1,0-1.72h.542l-.168.654h-.374a.206.206,0,1,0,0,.411h9.908a.206.206,0,1,0,0-.411h-1.477l-2.3-.654h4.038a.87.87,0,0,1,.86.86v1.2A1.34,1.34,0,0,0,220.785,11.159Zm1.234,2.225h.206a.206.206,0,1,1,0,.411h-.187v-.411Z" transform="translate(-209.4 -8)"/>
      <path id="Path_138" data-name="Path 138" class="cls-8" d="M264.229,44.6a.73.73,0,0,0-.729.729.718.718,0,0,0,.729.729.73.73,0,0,0,.729-.729A.718.718,0,0,0,264.229,44.6Zm0,1.047a.336.336,0,1,1,.337-.336A.335.335,0,0,1,264.229,45.647Z" transform="translate(-253.386 -37.758)"/>
    </g>
    <g id="Group_111" data-name="Group 111" transform="translate(916.5 1257)">
      <path id="Path_114" data-name="Path 114" class="cls-11" d="M147.426,1.211l-.393.243c-.019.019-.037.019-.037.037l-1.2,1.57.206.318,2.15-1.346-.486-.8A.28.28,0,0,0,147.426,1.211Z" transform="translate(-138.191 -0.98)"/>
      <path id="Path_115" data-name="Path 115" class="cls-2" d="M138.687,5.857l.523-.318a.155.155,0,0,0,.056-.206L138.5,4.1l-4.3,2.673,1.159,1.851,3.159-1.963a.3.3,0,0,0,.093-.411h0A.277.277,0,0,1,138.687,5.857Z" transform="translate(-128.76 -3.345)"/>
      <path id="Path_116" data-name="Path 116" class="cls-12" d="M141.3,8.6,137,11.273l.617,1.01,3.159-1.963a.3.3,0,0,0,.093-.411.3.3,0,0,1,.093-.411l.523-.318a.155.155,0,0,0,.056-.206Z" transform="translate(-131.036 -7.004)"/>
      <path id="Path_117" data-name="Path 117" class="cls-11" d="M106.233,35.385l.262-.168a.47.47,0,0,1,.355-.056l.187.037a.484.484,0,0,0,.355-.056l.86-.542L109,35.8l-1.14.411-1.608-.617A.11.11,0,0,1,106.233,35.385Z" transform="translate(-105.971 -28.143)"/>
      <path id="Path_118" data-name="Path 118" class="cls-4" d="M114.387,17.6l-3.758,2.337a.355.355,0,0,0-.131.411,2.118,2.118,0,0,1-.8,2.655h0a.338.338,0,0,0-.112.467,1.643,1.643,0,0,1,.112.187,1.866,1.866,0,0,1,.318,1.215l-.093,1.383a3.051,3.051,0,0,0,.187,1.234l.5,1.253a.48.48,0,0,0,.71.224l1.664-1.047a.821.821,0,0,0,.262-1.14l-.187-.3a3,3,0,0,1-.467-1.253l-.112-.729a1.245,1.245,0,0,0,.617.28,1.375,1.375,0,0,0,.935-.187.568.568,0,0,0,.131-.093l1.122-.9a1.335,1.335,0,0,0,.3-1.739l-.262-.411.523-.318a.638.638,0,0,0,.206-.879Zm.654,4.636a.728.728,0,0,1-.168.953l-1.066.86a.725.725,0,0,1-.58.15.694.694,0,0,1-.486-.336h0a.616.616,0,0,1,.206-.86l1.477-.916a.438.438,0,0,1,.617.15Z" transform="translate(-108.704 -14.321)"/>
      <path id="Path_119" data-name="Path 119" class="cls-5" d="M122.608,20.292,120.925,17.6l-.991.617,1.29,2.075a.638.638,0,0,1-.206.879l-.523.318s-2.318,1.421-2.449,1.514a.258.258,0,0,1-.075.056,1.412,1.412,0,0,0-.337,1.458l.112.729a5.277,5.277,0,0,0,1.421,2.916l.374-.224a.821.821,0,0,0,.262-1.14l-.187-.3a3,3,0,0,1-.467-1.253l-.112-.729a1.245,1.245,0,0,0,.617.28,1.375,1.375,0,0,0,.935-.187.568.568,0,0,0,.131-.093l1.122-.9a1.335,1.335,0,0,0,.3-1.739l-.262-.411.523-.318A.608.608,0,0,0,122.608,20.292Zm-1.178,2.879-1.066.86a.725.725,0,0,1-.58.15.694.694,0,0,1-.486-.337.616.616,0,0,1,.206-.86l1.477-.916a.456.456,0,0,1,.636.15A.773.773,0,0,1,121.43,23.171Z" transform="translate(-115.242 -14.321)"/>
      <path id="Path_120" data-name="Path 120" class="cls-2" d="M110.4,47.893l-.8-.093a.337.337,0,0,0,.056.224c.037.056.075.131.112.187a1.843,1.843,0,0,1,.318,1.2l-.093,1.383a3.051,3.051,0,0,0,.187,1.234l.5,1.253a.48.48,0,0,0,.71.224l1.664-1.047a.821.821,0,0,0,.262-1.14l-.187-.3a3,3,0,0,1-.467-1.253l-.112-.729-.58-.131a1.13,1.13,0,0,1-.71-.523h0A1.334,1.334,0,0,0,110.4,47.893Z" transform="translate(-108.759 -38.876)"/>
      <path id="Path_121" data-name="Path 121" class="cls-3" d="M119.926,53.466l-.187-.3a2.979,2.979,0,0,1-.28-.542l-.056-.168c-.019-.056-.037-.131-.056-.187a.237.237,0,0,1-.019-.112c-.019-.075-.037-.168-.056-.243l-.056-.355-.056-.355-.58-.131a1.13,1.13,0,0,1-.71-.523h0c-.037-.056-.075-.093-.112-.15a1.966,1.966,0,0,0,.019.8l.112.729a5.277,5.277,0,0,0,1.421,2.916l.374-.224a.187.187,0,0,0,.093-.075l.037-.037a.776.776,0,0,0,.224-.374c0-.019,0-.037.019-.037,0-.037.019-.075.019-.112v-.112A1.545,1.545,0,0,0,119.926,53.466Z" transform="translate(-115.365 -40.99)"/>
      <path id="Path_122" data-name="Path 122" class="cls-2" d="M123.848,25.278l-2.561,1.589a.145.145,0,0,1-.187-.037l-1.084-1.739a.145.145,0,0,1,.037-.187l2.561-1.589a.145.145,0,0,1,.187.037l1.084,1.739A.14.14,0,0,1,123.848,25.278Z" transform="translate(-117.211 -18.953)"/>
      <g id="Group_44" data-name="Group 44" transform="translate(3.801 4.344)">
        <path id="Path_123" data-name="Path 123" class="cls-13" d="M127.034,23.319l-1.439.9a.338.338,0,0,0-.112.467.356.356,0,0,0,.467.112l1.552-.953-.3-.467C127.183,23.3,127.109,23.281,127.034,23.319Z" transform="translate(-125.432 -23.3)"/>
        <path id="Path_124" data-name="Path 124" class="cls-13" d="M130.142,31.839h0a.338.338,0,0,0,.467.112l1.439-.9a.14.14,0,0,0,.037-.187l-.3-.467-1.552.953A.355.355,0,0,0,130.142,31.839Z" transform="translate(-129.214 -29.073)"/>
      </g>
      <path id="Path_125" data-name="Path 125" class="cls-8" d="M126.846,40.16l-1.477.916a.827.827,0,0,0-.262,1.159.942.942,0,0,0,.636.43c.056,0,.112.019.168.019a1.007,1.007,0,0,0,.6-.206l1.066-.86a.929.929,0,0,0,.206-1.234.656.656,0,0,0-.43-.3A.614.614,0,0,0,126.846,40.16Zm.561.449h0a.491.491,0,0,1-.112.654l-1.066.86a.513.513,0,0,1-.393.112.479.479,0,0,1-.337-.224.382.382,0,0,1-.019-.374l.131.075a.939.939,0,0,0,.449.112.906.906,0,0,0,.486-.131l.093-.056a.218.218,0,1,0-.224-.374l-.093.056a.5.5,0,0,1-.486.019l1.271-.785a.27.27,0,0,1,.131-.037h.056A.138.138,0,0,1,127.407,40.609Z" transform="translate(-121.257 -32.582)"/>
      <path id="Path_126" data-name="Path 126" class="cls-8" d="M115.793,1.92,115.027.686l-.3-.449a.329.329,0,0,0-.243-.168.368.368,0,0,0-.28.056l-.393.243a.225.225,0,0,0-.093.093L112.54,2.014l-1.869,1.159h0L106.913,5.51a.563.563,0,0,0-.206.692,1.889,1.889,0,0,1,.131.43l-.43.28a.337.337,0,0,1-.187.037l-.187-.037a.612.612,0,0,0-.5.093l-.262.168a.367.367,0,0,0-.168.318.371.371,0,0,0,.224.3l1.122.43a1.709,1.709,0,0,1-.449.374.554.554,0,0,0-.262.411v.112h0v.056h0a.069.069,0,0,0,.019.056v.019c0,.019,0,.019.019.037V9.3c0,.019.019.019.019.037v.019a.065.065,0,0,0,.019.037h0c.019.019.019.037.037.056a1036.431,1036.431,0,0,1,.037.037c0,.019.019.019.019.037a.018.018,0,0,0,.019.019l.019.019a1.724,1.724,0,0,1,.28,1.084l-.093,1.383a2.917,2.917,0,0,0,.206,1.327l.5,1.253a.774.774,0,0,0,.43.411.938.938,0,0,0,.224.037.75.75,0,0,0,.28-.056c.037-.019.056-.037.093-.037l1.664-1.047a.987.987,0,0,0,.467-.654,1.035,1.035,0,0,0-.131-.785l-.187-.3a2.234,2.234,0,0,1-.224-.411,2.653,2.653,0,0,1-.224-.748l-.037-.262a.88.88,0,0,0,.3.075,1.676,1.676,0,0,0,1.084-.206c.056-.037.093-.075.15-.112l1.122-.9A1.54,1.54,0,0,0,112.2,7.6l-.131-.224.336-.206a.959.959,0,0,0,.393-.542.819.819,0,0,0-.112-.654l-.411-.654,2.729-1.683a.516.516,0,0,0,.168-.71.035.035,0,0,1,0-.056.04.04,0,0,1,.037-.037l.224-.15h0l.28-.187a.334.334,0,0,0,.168-.224A1.2,1.2,0,0,0,115.793,1.92Zm-1.739-1.2.337-.206.15.243-.953.6ZM105.623,7.4l.112-.056a.307.307,0,0,1,.187-.037l.187.037a.654.654,0,0,0,.523-.093l.224-.15a2,2,0,0,1-.187.673Zm3.664,4.973.187.3a.547.547,0,0,1,.075.449.6.6,0,0,1-.224.337c-.019.019-.037.019-.056.037l-1.664,1.047a.241.241,0,0,1-.224.019.265.265,0,0,1-.168-.15l-.5-1.253a2.619,2.619,0,0,1-.187-1.14l.093-1.383h0a2.1,2.1,0,0,0-.355-1.327V9.286a.018.018,0,0,0-.019-.019l.449.056a.953.953,0,0,1,.692.43,1.384,1.384,0,0,0,.86.617l.449.112.093.58c0,.037.019.075.019.112A3.67,3.67,0,0,0,109.288,12.37Zm2.991-6.225a.466.466,0,0,1,.056.318.387.387,0,0,1-.187.262l-.523.318c-.056.037-.093.075-.093.131a.264.264,0,0,0,.019.168l.262.411a1.122,1.122,0,0,1-.243,1.458l-1.122.9c-.037.019-.075.056-.112.075a1.012,1.012,0,0,1-.766.15,1.123,1.123,0,0,1-.523-.243h0a.018.018,0,0,1-.019-.019h-.093l-.58-.131a.936.936,0,0,1-.58-.411,1.356,1.356,0,0,0-1.01-.636l-.411-.056a2.279,2.279,0,0,0,.58-.617l.019-.019a2.309,2.309,0,0,0,.337-1.477V6.706a2.383,2.383,0,0,0-.187-.692.107.107,0,0,1,.037-.131l3.571-2.225Zm2.636-3.758h0l-1.552.972a.234.234,0,0,0-.075.3.206.206,0,0,0,.187.112.266.266,0,0,0,.112-.037l1.122-.692c.019.019.019.037.037.075s.019.075-.019.093L112,4.893l-.075-.131.8-.5a.218.218,0,0,0-.224-.374l-.8.5-.617-.991,1.72-1.066h0l1.963-1.215.617.991Z" transform="translate(-105.1 -0.063)"/>
      <path id="Path_127" data-name="Path 127" class="cls-8" d="M121.52,22.153h0l-2.561,1.589a.34.34,0,0,0-.112.486l1.084,1.739a.372.372,0,0,0,.224.15c.019,0,.056.019.075.019a.361.361,0,0,0,.187-.056l2.561-1.589c.019,0,.019-.019.037-.019h0l.019-.019h0a.382.382,0,0,0,.093-.168.3.3,0,0,0-.019-.224h0c0-.019-.019-.019-.019-.037l-1.084-1.757a.3.3,0,0,0-.187-.15A.344.344,0,0,0,121.52,22.153Zm-1.2,1.253.262-.168,1.084-.673.131.206-1.365.841a.122.122,0,0,1-.168-.037A.16.16,0,0,1,120.323,23.405Zm2.356.766-1.365.841a.122.122,0,0,1-.131-.206l1.365-.841Zm-.636-1.01.262.43-1.365.841a.589.589,0,0,0-.187.785.408.408,0,0,0,.075.093l-.58.355-.991-1.589.58-.355.056.112a.588.588,0,0,0,.486.262.471.471,0,0,0,.3-.093Z" transform="translate(-116.229 -17.977)"/>
    </g>
  </g>
</svg>
