<?xml version="1.0" encoding="utf-8"?>
<!-- Generator: Adobe Illustrator 22.1.0, SVG Export Plug-In . SVG Version: 6.00 Build 0)  -->
<svg version="1.1" id="Capa_1" xmlns="http://www.w3.org/2000/svg" xmlns:xlink="http://www.w3.org/1999/xlink" x="0px" y="0px"
	 viewBox="0 0 378 73" style="enable-background:new 0 0 378 73;" xml:space="preserve">
<style type="text/css">
	.st0{fill:#3B3530;}
	.st1{fill:#8D188E;}
	.st2{fill:#BFBDBE;}
	.st3{fill:#B19A3A;}
	.st4{fill:#F14A9D;}
	.st5{fill:#1675C7;}
	.st6{fill:#BBAC02;}
	.st7{fill:#79CFB4;}
	.st8{fill:#FFDC00;}
	.st9{fill:#EF2622;}
	.st10{fill:#F57019;}
	.st11{fill:#00A060;}
	.st12{fill:#4E1801;}
	.st13{enable-background:new    ;}
	.st14{fill:#FAF7F2;}
</style>
<g id="Group_134" transform="translate(9 -579)">
	<g transform="matrix(1, 0, 0, 1, -9, 579)">
		<rect id="Rectangle_1475-2" x="9" y="6" class="st0" width="360" height="55"/>
	</g>
	<ellipse id="Ellipse_18" class="st1" cx="272" cy="610" rx="5.5" ry="5.5"/>
	<ellipse id="Ellipse_19" class="st2" cx="298.2" cy="610" rx="5.5" ry="5.5"/>
	<ellipse id="Ellipse_20" class="st3" cx="324.5" cy="610" rx="5.5" ry="5.5"/>
	<ellipse id="Ellipse_9" class="st4" cx="35.5" cy="610" rx="5.5" ry="5.5"/>
	<ellipse id="Ellipse_10" class="st5" cx="61.8" cy="610" rx="5.5" ry="5.5"/>
	<ellipse id="Ellipse_11" class="st6" cx="88" cy="610" rx="5.5" ry="5.5"/>
	<ellipse id="Ellipse_12" class="st7" cx="114.3" cy="610" rx="5.5" ry="5.5"/>
	<ellipse id="Ellipse_13" class="st8" cx="140.6" cy="610" rx="5.5" ry="5.5"/>
	<ellipse id="Ellipse_14" class="st9" cx="166.9" cy="610" rx="5.5" ry="5.5"/>
	<ellipse id="Ellipse_15" class="st10" cx="193.1" cy="610" rx="5.5" ry="5.5"/>
	<ellipse id="Ellipse_16" class="st11" cx="219.4" cy="610" rx="5.5" ry="5.5"/>
	<ellipse id="Ellipse_17" class="st12" cx="245.7" cy="610" rx="5.5" ry="5.5"/>
	<g class="st13">
		<path class="st14" d="M33.6,621.1c0.3-0.1,0.5-0.2,0.8-0.4c0.3-0.2,0.5-0.4,0.7-0.6h0.5v4.4h0.9v0.6h-2.7v-0.6h1.1V621
			c-0.1,0.1-0.1,0.1-0.2,0.2c-0.1,0.1-0.2,0.1-0.3,0.2c-0.1,0.1-0.2,0.1-0.3,0.2c-0.1,0-0.2,0.1-0.3,0.1L33.6,621.1z"/>
	</g>
	<g class="st13">
		<path class="st14" d="M62.4,621.3c0,0.2,0,0.3-0.1,0.5c-0.1,0.2-0.2,0.3-0.3,0.5c-0.1,0.2-0.2,0.3-0.4,0.5s-0.3,0.3-0.4,0.4
			c-0.1,0.1-0.2,0.2-0.3,0.3c-0.1,0.1-0.2,0.2-0.3,0.3c-0.1,0.1-0.2,0.2-0.2,0.3c-0.1,0.1-0.1,0.2-0.1,0.3h2.3v0.6h-3
			c0,0,0-0.1,0-0.1s0-0.1,0-0.1c0-0.2,0-0.4,0.1-0.6s0.2-0.4,0.3-0.5c0.1-0.2,0.2-0.3,0.4-0.5c0.1-0.2,0.3-0.3,0.4-0.4
			c0.1-0.1,0.2-0.2,0.3-0.3c0.1-0.1,0.2-0.2,0.3-0.3c0.1-0.1,0.1-0.2,0.2-0.3s0.1-0.2,0.1-0.4c0-0.1,0-0.3-0.1-0.4
			c0-0.1-0.1-0.2-0.2-0.3c-0.1-0.1-0.2-0.1-0.3-0.1c-0.1,0-0.2,0-0.3,0c-0.1,0-0.3,0-0.4,0.1s-0.2,0.1-0.3,0.1
			c-0.1,0.1-0.2,0.1-0.2,0.2c-0.1,0.1-0.1,0.1-0.1,0.1l-0.3-0.5c0,0,0.1-0.1,0.2-0.2c0.1-0.1,0.2-0.1,0.3-0.2s0.3-0.1,0.4-0.2
			s0.3-0.1,0.5-0.1c0.5,0,0.9,0.1,1.1,0.4C62.2,620.5,62.4,620.9,62.4,621.3z"/>
	</g>
	<g class="st13">
		<path class="st14" d="M87.7,624.5c0.4,0,0.7-0.1,0.9-0.3c0.2-0.2,0.3-0.4,0.3-0.7c0-0.2,0-0.3-0.1-0.5c-0.1-0.1-0.2-0.2-0.3-0.3
			c-0.1-0.1-0.3-0.1-0.4-0.2c-0.2,0-0.3,0-0.5,0h-0.2v-0.5h0.2c0.1,0,0.2,0,0.4,0c0.1,0,0.2-0.1,0.3-0.1c0.1-0.1,0.2-0.1,0.3-0.3
			c0.1-0.1,0.1-0.2,0.1-0.4c0-0.3-0.1-0.5-0.3-0.6c-0.2-0.1-0.4-0.2-0.6-0.2c-0.2,0-0.4,0-0.6,0.1c-0.2,0.1-0.3,0.1-0.4,0.2
			l-0.3-0.5c0.1-0.1,0.3-0.2,0.5-0.3c0.2-0.1,0.5-0.1,0.8-0.1c0.3,0,0.5,0,0.7,0.1c0.2,0.1,0.3,0.2,0.5,0.3c0.1,0.1,0.2,0.3,0.3,0.4
			s0.1,0.3,0.1,0.5c0,0.3-0.1,0.5-0.2,0.7c-0.1,0.2-0.3,0.3-0.5,0.4c0.3,0.1,0.5,0.2,0.7,0.4s0.3,0.5,0.3,0.9c0,0.2,0,0.4-0.1,0.6
			c-0.1,0.2-0.2,0.3-0.3,0.5c-0.1,0.1-0.3,0.2-0.6,0.3c-0.2,0.1-0.5,0.1-0.8,0.1c-0.1,0-0.2,0-0.4,0c-0.1,0-0.3,0-0.4-0.1
			s-0.2-0.1-0.3-0.1c-0.1,0-0.2-0.1-0.2-0.1l0.1-0.6c0.1,0,0.2,0.1,0.4,0.2C87.2,624.5,87.4,624.5,87.7,624.5z"/>
	</g>
	<g class="st13">
		<path class="st14" d="M112.3,623.3c0.1-0.2,0.2-0.5,0.4-0.7c0.2-0.3,0.3-0.6,0.5-0.9s0.4-0.6,0.6-0.9c0.2-0.3,0.5-0.5,0.7-0.8h0.6
			v3.1h0.6v0.5h-0.6v1.3h-0.6v-1.3h-2.2V623.3z M114.5,620.8c-0.1,0.2-0.3,0.3-0.4,0.5c-0.1,0.2-0.3,0.4-0.4,0.6
			c-0.1,0.2-0.3,0.4-0.4,0.6c-0.1,0.2-0.2,0.4-0.3,0.6h1.6V620.8z"/>
	</g>
	<g class="st13">
		<path class="st14" d="M139.5,622c0.7,0,1.2,0.2,1.6,0.5s0.5,0.7,0.5,1.2c0,0.2,0,0.4-0.1,0.6s-0.2,0.3-0.3,0.5
			c-0.1,0.1-0.3,0.2-0.6,0.3c-0.2,0.1-0.5,0.1-0.8,0.1c-0.1,0-0.3,0-0.4,0c-0.1,0-0.2,0-0.4-0.1c-0.1,0-0.2-0.1-0.3-0.1
			s-0.1-0.1-0.2-0.1l0.1-0.6c0.1,0,0.2,0.1,0.4,0.2c0.2,0.1,0.4,0.1,0.7,0.1c0.2,0,0.4,0,0.5-0.1s0.3-0.1,0.3-0.2
			c0.1-0.1,0.2-0.2,0.2-0.3c0-0.1,0.1-0.2,0.1-0.3c0-0.2,0-0.3-0.1-0.5c-0.1-0.1-0.2-0.3-0.3-0.4c-0.2-0.1-0.4-0.2-0.6-0.2
			c-0.3-0.1-0.6-0.1-1-0.1c0-0.2,0.1-0.5,0.1-0.7c0-0.2,0-0.4,0-0.6c0-0.2,0-0.4,0-0.6c0-0.2,0-0.4,0-0.6h2.4v0.6h-1.8
			c0,0.1,0,0.2,0,0.3c0,0.1,0,0.2,0,0.4c0,0.1,0,0.3,0,0.4C139.5,621.8,139.5,621.9,139.5,622z"/>
	</g>
	<g class="st13">
		<path class="st14" d="M164.4,623c0-0.5,0.1-0.9,0.2-1.3c0.1-0.4,0.3-0.7,0.6-0.9c0.2-0.2,0.5-0.4,0.9-0.6c0.3-0.1,0.7-0.2,1.2-0.2
			l0.1,0.6c-0.3,0-0.5,0-0.8,0.1c-0.2,0.1-0.4,0.1-0.6,0.3c-0.2,0.1-0.3,0.3-0.5,0.5c-0.1,0.2-0.2,0.4-0.3,0.7
			c0.1-0.1,0.3-0.1,0.4-0.1c0.2,0,0.3-0.1,0.5-0.1c0.3,0,0.5,0,0.7,0.1c0.2,0.1,0.4,0.2,0.5,0.3c0.1,0.1,0.2,0.3,0.3,0.5
			c0.1,0.2,0.1,0.4,0.1,0.6c0,0.2,0,0.4-0.1,0.6s-0.1,0.4-0.3,0.5s-0.3,0.3-0.5,0.4c-0.2,0.1-0.4,0.1-0.7,0.1c-0.5,0-1-0.2-1.2-0.6
			S164.4,623.7,164.4,623z M166,622.5c-0.2,0-0.3,0-0.5,0c-0.1,0-0.3,0.1-0.4,0.1c0,0.1,0,0.1,0,0.2c0,0.1,0,0.1,0,0.2
			c0,0.2,0,0.4,0,0.6c0,0.2,0.1,0.3,0.2,0.5c0.1,0.1,0.2,0.3,0.3,0.3c0.1,0.1,0.3,0.1,0.5,0.1c0.2,0,0.3,0,0.4-0.1
			c0.1-0.1,0.2-0.2,0.3-0.3s0.1-0.2,0.1-0.3c0-0.1,0-0.2,0-0.4c0-0.3-0.1-0.6-0.2-0.7C166.6,622.6,166.3,622.5,166,622.5z"/>
	</g>
	<g class="st13">
		<path class="st14" d="M192.2,625c0-0.4,0.1-0.8,0.2-1.2s0.2-0.8,0.4-1.2c0.2-0.4,0.3-0.8,0.5-1.1c0.2-0.3,0.4-0.6,0.6-0.8h-2.4
			V620h3.1v0.6c-0.2,0.2-0.3,0.4-0.5,0.8c-0.2,0.3-0.4,0.7-0.5,1.1c-0.2,0.4-0.3,0.8-0.4,1.3c-0.1,0.4-0.2,0.9-0.2,1.3H192.2z"/>
	</g>
	<g class="st13">
		<path class="st14" d="M220.6,623.7c0,0.4-0.1,0.8-0.4,1c-0.3,0.3-0.7,0.4-1.2,0.4c-0.3,0-0.6,0-0.8-0.1c-0.2-0.1-0.4-0.2-0.5-0.3
			c-0.1-0.1-0.2-0.3-0.3-0.4c-0.1-0.2-0.1-0.3-0.1-0.5c0-0.3,0.1-0.5,0.2-0.8c0.2-0.2,0.3-0.4,0.6-0.5c-0.5-0.3-0.7-0.6-0.7-1.2
			c0-0.2,0-0.4,0.1-0.5c0.1-0.2,0.2-0.3,0.3-0.4c0.1-0.1,0.3-0.2,0.5-0.3c0.2-0.1,0.4-0.1,0.6-0.1c0.3,0,0.5,0,0.7,0.1
			s0.3,0.2,0.5,0.3c0.1,0.1,0.2,0.3,0.3,0.4c0.1,0.2,0.1,0.3,0.1,0.4c0,0.3-0.1,0.5-0.2,0.7c-0.1,0.2-0.3,0.4-0.5,0.5
			C220.3,622.7,220.6,623.1,220.6,623.7z M218,623.8c0,0.1,0,0.2,0,0.3c0,0.1,0.1,0.2,0.2,0.3s0.2,0.1,0.3,0.2
			c0.1,0.1,0.3,0.1,0.4,0.1c0.2,0,0.3,0,0.4-0.1c0.1,0,0.2-0.1,0.3-0.2c0.1-0.1,0.1-0.2,0.2-0.3c0-0.1,0.1-0.2,0.1-0.3
			c0-0.3-0.1-0.5-0.3-0.7c-0.2-0.2-0.5-0.3-0.9-0.4c-0.2,0.1-0.4,0.3-0.5,0.4C218.1,623.3,218,623.5,218,623.8z M219.8,621.2
			c0-0.1,0-0.1,0-0.2s-0.1-0.2-0.1-0.2c-0.1-0.1-0.2-0.1-0.3-0.2s-0.2-0.1-0.4-0.1c-0.2,0-0.3,0-0.4,0.1c-0.1,0-0.2,0.1-0.3,0.2
			c-0.1,0.1-0.1,0.2-0.1,0.2c0,0.1,0,0.2,0,0.3c0,0.2,0.1,0.4,0.2,0.6c0.2,0.2,0.4,0.3,0.8,0.4c0.2-0.1,0.4-0.3,0.5-0.4
			C219.8,621.7,219.8,621.5,219.8,621.2z"/>
	</g>
	<g class="st13">
		<path class="st14" d="M246.6,622c0,1-0.2,1.7-0.7,2.2c-0.5,0.5-1.2,0.8-2.2,0.8l0-0.6c0.6,0,1.1-0.1,1.4-0.4s0.6-0.6,0.7-1.2
			c-0.1,0.1-0.3,0.1-0.4,0.1c-0.2,0-0.3,0.1-0.5,0.1c-0.3,0-0.5,0-0.7-0.1c-0.2-0.1-0.3-0.2-0.5-0.3c-0.1-0.1-0.2-0.3-0.3-0.5
			c-0.1-0.2-0.1-0.4-0.1-0.6c0-0.2,0-0.4,0.1-0.6s0.1-0.4,0.3-0.5c0.1-0.2,0.3-0.3,0.5-0.4c0.2-0.1,0.4-0.2,0.7-0.2
			c0.5,0,1,0.2,1.2,0.6S246.6,621.4,246.6,622z M245,622.5c0.2,0,0.3,0,0.5,0c0.1,0,0.3-0.1,0.4-0.1c0-0.1,0-0.1,0-0.2
			c0,0,0-0.1,0-0.2c0-0.2,0-0.4,0-0.6c0-0.2-0.1-0.3-0.2-0.5s-0.2-0.2-0.3-0.3s-0.3-0.1-0.5-0.1c-0.2,0-0.3,0-0.4,0.1
			c-0.1,0.1-0.2,0.1-0.3,0.2c-0.1,0.1-0.1,0.2-0.1,0.3c0,0.1,0,0.2,0,0.4c0,0.3,0.1,0.6,0.2,0.7C244.4,622.4,244.7,622.5,245,622.5z
			"/>
	</g>
	<g class="st13">
		<path class="st14" d="M272.2,625l-0.3-1.3H270l-0.3,1.3h-0.7c0.1-0.4,0.2-0.7,0.3-1.1c0.1-0.4,0.2-0.8,0.4-1.3
			c0.1-0.4,0.3-0.9,0.4-1.3c0.1-0.4,0.3-0.8,0.5-1.2h0.8c0.2,0.4,0.3,0.8,0.4,1.2s0.3,0.9,0.4,1.3c0.1,0.4,0.2,0.9,0.4,1.3
			c0.1,0.4,0.2,0.8,0.3,1.1H272.2z M271,620.6c-0.1,0.3-0.3,0.7-0.4,1.2c-0.1,0.4-0.3,0.9-0.4,1.4h1.6c-0.1-0.5-0.3-0.9-0.4-1.4
			C271.2,621.3,271.1,620.9,271,620.6z"/>
	</g>
	<g class="st13">
		<path class="st14" d="M297.6,625c-0.1,0-0.2,0-0.3,0c-0.1,0-0.2,0-0.3,0s-0.2,0-0.3,0c-0.1,0-0.2,0-0.3-0.1v-4.8
			c0.1,0,0.2,0,0.3-0.1c0.1,0,0.2,0,0.3,0c0.1,0,0.2,0,0.3,0c0.1,0,0.2,0,0.3,0c0.2,0,0.5,0,0.7,0.1c0.2,0,0.4,0.1,0.6,0.2
			s0.3,0.2,0.4,0.4c0.1,0.2,0.1,0.4,0.1,0.6c0,0.1,0,0.2-0.1,0.3s-0.1,0.2-0.2,0.3c-0.1,0.1-0.1,0.2-0.2,0.3
			c-0.1,0.1-0.2,0.1-0.3,0.2c0.3,0.1,0.5,0.2,0.7,0.4c0.2,0.2,0.3,0.5,0.3,0.8c0,0.5-0.2,0.9-0.5,1.1
			C298.8,624.9,298.3,625,297.6,625z M297.1,622.1h0.5c0.1,0,0.3,0,0.4,0c0.1,0,0.3-0.1,0.4-0.1c0.1-0.1,0.2-0.1,0.3-0.2
			c0.1-0.1,0.1-0.2,0.1-0.4c0-0.1,0-0.3-0.1-0.4c-0.1-0.1-0.1-0.2-0.2-0.2c-0.1-0.1-0.2-0.1-0.3-0.1c-0.1,0-0.3,0-0.4,0
			s-0.3,0-0.4,0c-0.1,0-0.2,0-0.2,0V622.1z M297.1,622.7v1.8c0,0,0.1,0,0.2,0c0.1,0,0.2,0,0.4,0c0.2,0,0.3,0,0.5,0
			c0.2,0,0.3-0.1,0.4-0.1c0.1-0.1,0.2-0.2,0.3-0.3c0.1-0.1,0.1-0.3,0.1-0.5c0-0.2,0-0.3-0.1-0.4c-0.1-0.1-0.2-0.2-0.3-0.3
			s-0.2-0.1-0.4-0.1s-0.3,0-0.4,0H297.1z"/>
	</g>
	<g class="st13">
		<path class="st14" d="M320.6,621.1c0.3-0.1,0.5-0.2,0.8-0.4c0.3-0.2,0.5-0.4,0.7-0.6h0.5v4.4h0.9v0.6h-2.7v-0.6h1.1V621
			c-0.1,0.1-0.1,0.1-0.2,0.2c-0.1,0.1-0.2,0.1-0.3,0.2c-0.1,0.1-0.2,0.1-0.3,0.2s-0.2,0.1-0.3,0.1L320.6,621.1z"/>
		<path class="st14" d="M327.4,621.3c0,0.2,0,0.3-0.1,0.5c-0.1,0.2-0.2,0.3-0.3,0.5c-0.1,0.2-0.2,0.3-0.4,0.5s-0.3,0.3-0.4,0.4
			c-0.1,0.1-0.2,0.2-0.3,0.3c-0.1,0.1-0.2,0.2-0.3,0.3c-0.1,0.1-0.2,0.2-0.2,0.3c-0.1,0.1-0.1,0.2-0.1,0.3h2.3v0.6h-3
			c0,0,0-0.1,0-0.1s0-0.1,0-0.1c0-0.2,0-0.4,0.1-0.6s0.2-0.4,0.3-0.5c0.1-0.2,0.2-0.3,0.4-0.5c0.1-0.2,0.3-0.3,0.4-0.4
			c0.1-0.1,0.2-0.2,0.3-0.3c0.1-0.1,0.2-0.2,0.3-0.3c0.1-0.1,0.1-0.2,0.2-0.3s0.1-0.2,0.1-0.4c0-0.1,0-0.3-0.1-0.4
			c0-0.1-0.1-0.2-0.2-0.3c-0.1-0.1-0.2-0.1-0.3-0.1c-0.1,0-0.2,0-0.3,0c-0.1,0-0.3,0-0.4,0.1s-0.2,0.1-0.3,0.1
			c-0.1,0.1-0.2,0.1-0.2,0.2s-0.1,0.1-0.1,0.1l-0.3-0.5c0,0,0.1-0.1,0.2-0.2c0.1-0.1,0.2-0.1,0.3-0.2s0.3-0.1,0.4-0.2
			c0.2,0,0.3-0.1,0.5-0.1c0.5,0,0.9,0.1,1.1,0.4S327.4,620.9,327.4,621.3z"/>
	</g>
	<g class="st13">
		<path class="st14" d="M151.7,596.4v0.6h-3v-5h0.7v4.4H151.7z"/>
		<path class="st14" d="M153.5,593.8h-1.1v-0.6h1.7v2.3c0,0.4,0.1,0.6,0.2,0.7c0.1,0.1,0.3,0.2,0.5,0.2c0.2,0,0.3,0,0.4-0.1
			c0.1,0,0.2-0.1,0.3-0.1l0.1,0.6c0,0-0.1,0-0.1,0.1c-0.1,0-0.1,0-0.2,0.1c-0.1,0-0.2,0-0.3,0.1c-0.1,0-0.2,0-0.3,0
			c-0.2,0-0.4,0-0.6-0.1c-0.2-0.1-0.3-0.2-0.4-0.3s-0.2-0.3-0.2-0.5c0-0.2-0.1-0.4-0.1-0.7V593.8z M154.5,591.9l-1,1l-0.3-0.3
			l0.9-1.1L154.5,591.9z"/>
		<path class="st14" d="M156.6,593.4c0.2-0.1,0.5-0.1,0.7-0.1c0.2,0,0.5,0,0.7,0c0.5,0,0.9,0.1,1.1,0.4c0.3,0.3,0.4,0.7,0.4,1.2v2.2
			h-0.7v-2.1c0-0.2,0-0.4-0.1-0.6c0-0.1-0.1-0.3-0.2-0.3c-0.1-0.1-0.2-0.1-0.3-0.2s-0.2,0-0.4,0c-0.1,0-0.2,0-0.3,0
			c-0.1,0-0.2,0-0.3,0.1v3.1h-0.7V593.4z"/>
		<path class="st14" d="M162.1,593.2c0.5,0,0.9,0.2,1.2,0.5c0.3,0.3,0.4,0.8,0.4,1.4v0.2H161c0,0.4,0.2,0.7,0.4,0.9
			c0.2,0.2,0.5,0.3,1,0.3c0.2,0,0.4,0,0.6-0.1c0.2,0,0.3-0.1,0.4-0.1l0.1,0.6c-0.1,0-0.2,0.1-0.4,0.1c-0.2,0-0.4,0.1-0.7,0.1
			c-0.3,0-0.6,0-0.8-0.1s-0.4-0.2-0.6-0.4c-0.2-0.2-0.3-0.4-0.4-0.6s-0.1-0.5-0.1-0.8c0-0.3,0.1-0.6,0.2-0.9
			c0.1-0.2,0.2-0.4,0.4-0.6c0.2-0.2,0.4-0.3,0.6-0.4S161.9,593.2,162.1,593.2z M163,594.8c0-0.3-0.1-0.6-0.2-0.7
			c-0.2-0.2-0.4-0.3-0.7-0.3c-0.2,0-0.3,0-0.4,0.1c-0.1,0.1-0.2,0.1-0.3,0.2c-0.1,0.1-0.2,0.2-0.2,0.3c-0.1,0.1-0.1,0.2-0.1,0.4H163
			z"/>
		<path class="st14" d="M166,593.2c0.3,0,0.5,0,0.7,0.1c0.2,0.1,0.3,0.2,0.5,0.3c0.1,0.1,0.2,0.3,0.2,0.4c0,0.2,0.1,0.4,0.1,0.6v2.3
			c-0.2,0-0.4,0.1-0.6,0.1c-0.3,0-0.5,0.1-0.8,0.1c-0.2,0-0.4,0-0.6-0.1c-0.2,0-0.4-0.1-0.5-0.2c-0.1-0.1-0.3-0.2-0.4-0.4
			c-0.1-0.2-0.1-0.4-0.1-0.6c0-0.2,0-0.4,0.1-0.5c0.1-0.1,0.2-0.3,0.4-0.4c0.1-0.1,0.3-0.2,0.5-0.2c0.2,0,0.4-0.1,0.6-0.1
			c0.3,0,0.5,0,0.8,0.1v-0.2c0-0.1,0-0.2,0-0.3c0-0.1-0.1-0.2-0.1-0.3c-0.1-0.1-0.2-0.2-0.3-0.2s-0.3-0.1-0.4-0.1
			c-0.2,0-0.4,0-0.6,0c-0.2,0-0.3,0.1-0.4,0.1l-0.1-0.5c0.1,0,0.2-0.1,0.5-0.1C165.5,593.2,165.7,593.2,166,593.2z M166,596.5
			c0.2,0,0.3,0,0.4,0s0.2,0,0.3,0v-1.1c-0.1,0-0.2,0-0.3-0.1c-0.1,0-0.2,0-0.4,0c-0.1,0-0.2,0-0.4,0c-0.1,0-0.2,0.1-0.3,0.1
			c-0.1,0-0.2,0.1-0.2,0.2c-0.1,0.1-0.1,0.2-0.1,0.3c0,0.2,0.1,0.4,0.2,0.5C165.5,596.5,165.8,596.5,166,596.5z"/>
		<path class="st14" d="M170.8,596.1c0-0.1-0.1-0.2-0.2-0.3s-0.2-0.2-0.4-0.2c-0.2-0.1-0.3-0.1-0.5-0.2s-0.4-0.1-0.5-0.2
			c-0.2-0.1-0.3-0.2-0.4-0.3c-0.1-0.1-0.2-0.3-0.2-0.5c0-0.3,0.1-0.5,0.4-0.7s0.6-0.3,1.1-0.3c0.2,0,0.4,0,0.6,0
			c0.2,0,0.4,0.1,0.6,0.1l-0.1,0.6c0,0-0.1,0-0.2-0.1c-0.1,0-0.2,0-0.3-0.1c-0.1,0-0.2,0-0.3,0c-0.1,0-0.2,0-0.3,0
			c-0.6,0-0.9,0.2-0.9,0.5c0,0.1,0.1,0.2,0.2,0.3c0.1,0.1,0.2,0.1,0.4,0.2c0.2,0.1,0.3,0.1,0.5,0.2c0.2,0.1,0.4,0.1,0.5,0.2
			c0.2,0.1,0.3,0.2,0.4,0.3c0.1,0.1,0.2,0.3,0.2,0.5c0,0.3-0.1,0.6-0.4,0.8c-0.3,0.2-0.7,0.3-1.2,0.3c-0.3,0-0.5,0-0.7-0.1
			c-0.2,0-0.4-0.1-0.6-0.2l0.1-0.6c0.2,0.1,0.4,0.2,0.6,0.2c0.2,0.1,0.4,0.1,0.7,0.1C170.5,596.5,170.8,596.4,170.8,596.1z"/>
		<path class="st14" d="M178.8,591.6l0.7-0.1v5.4c-0.1,0-0.3,0.1-0.6,0.1c-0.2,0-0.5,0.1-0.8,0.1c-0.3,0-0.5,0-0.7-0.1
			c-0.2-0.1-0.4-0.2-0.6-0.4c-0.2-0.2-0.3-0.4-0.4-0.6c-0.1-0.2-0.1-0.5-0.1-0.8c0-0.3,0-0.5,0.1-0.8c0.1-0.2,0.2-0.4,0.3-0.6
			s0.3-0.3,0.5-0.4c0.2-0.1,0.4-0.1,0.7-0.1c0.2,0,0.4,0,0.5,0.1c0.1,0,0.3,0.1,0.3,0.2V591.6z M178.8,594.1
			c-0.1-0.1-0.2-0.1-0.3-0.2s-0.3-0.1-0.4-0.1c-0.2,0-0.3,0-0.5,0.1c-0.1,0.1-0.2,0.2-0.3,0.3s-0.1,0.3-0.2,0.4
			c0,0.2-0.1,0.3-0.1,0.5c0,0.4,0.1,0.8,0.3,1c0.2,0.2,0.5,0.4,0.8,0.4c0.2,0,0.3,0,0.4,0c0.1,0,0.2,0,0.3,0V594.1z"/>
		<path class="st14" d="M182.1,593.2c0.5,0,0.9,0.2,1.2,0.5c0.3,0.3,0.4,0.8,0.4,1.4v0.2H181c0,0.4,0.2,0.7,0.4,0.9
			c0.2,0.2,0.5,0.3,1,0.3c0.2,0,0.4,0,0.6-0.1c0.2,0,0.3-0.1,0.4-0.1l0.1,0.6c-0.1,0-0.2,0.1-0.4,0.1c-0.2,0-0.4,0.1-0.7,0.1
			c-0.3,0-0.6,0-0.8-0.1c-0.2-0.1-0.4-0.2-0.6-0.4c-0.2-0.2-0.3-0.4-0.4-0.6s-0.1-0.5-0.1-0.8c0-0.3,0.1-0.6,0.2-0.9
			c0.1-0.2,0.2-0.4,0.4-0.6c0.2-0.2,0.4-0.3,0.6-0.4C181.6,593.2,181.9,593.2,182.1,593.2z M183,594.8c0-0.3-0.1-0.6-0.2-0.7
			c-0.2-0.2-0.4-0.3-0.7-0.3c-0.2,0-0.3,0-0.4,0.1c-0.1,0.1-0.2,0.1-0.3,0.2c-0.1,0.1-0.2,0.2-0.2,0.3c-0.1,0.1-0.1,0.2-0.1,0.4H183
			z"/>
		<path class="st14" d="M186.7,597.1c-0.2,0-0.4,0-0.6-0.1c-0.2-0.1-0.3-0.2-0.4-0.3s-0.2-0.3-0.2-0.5c0-0.2-0.1-0.4-0.1-0.7v-3.5
			h-1.1v-0.6h1.7v4.1c0,0.2,0,0.3,0,0.5c0,0.1,0.1,0.2,0.1,0.3c0,0.1,0.1,0.1,0.2,0.1s0.2,0,0.3,0c0.2,0,0.3,0,0.4-0.1
			c0.1,0,0.2-0.1,0.3-0.1l0.1,0.6c0,0-0.1,0-0.1,0.1c-0.1,0-0.1,0-0.2,0.1s-0.2,0-0.3,0.1C186.9,597.1,186.8,597.1,186.7,597.1z"/>
		<path class="st14" d="M192.3,593.4c0.3-0.1,0.6-0.2,0.9-0.2c0.2,0,0.3,0,0.4,0.1c0.1,0,0.3,0.1,0.3,0.2c0.2-0.2,0.5-0.3,0.7-0.3
			c0.1,0,0.2,0,0.4,0.1s0.2,0.1,0.3,0.2s0.2,0.2,0.2,0.4c0.1,0.1,0.1,0.3,0.1,0.5v2.6h-0.6v-2.7c0-0.2,0-0.3-0.1-0.4
			c-0.1-0.1-0.2-0.2-0.3-0.2c-0.1,0-0.1,0-0.2,0s-0.1,0.1-0.2,0.2c0,0.1,0,0.3,0,0.4v1.2h-0.6v-1.2c0-0.2,0-0.3-0.1-0.4
			s-0.2-0.2-0.3-0.2c-0.1,0-0.2,0-0.4,0.1v3.2h-0.6V593.4z"/>
		<path class="st14" d="M198.1,593.2c0.5,0,0.9,0.2,1.2,0.5c0.3,0.3,0.4,0.8,0.4,1.4v0.2H197c0,0.4,0.2,0.7,0.4,0.9
			c0.2,0.2,0.5,0.3,1,0.3c0.2,0,0.4,0,0.6-0.1c0.2,0,0.3-0.1,0.4-0.1l0.1,0.6c-0.1,0-0.2,0.1-0.4,0.1c-0.2,0-0.4,0.1-0.7,0.1
			c-0.3,0-0.6,0-0.8-0.1c-0.2-0.1-0.4-0.2-0.6-0.4c-0.2-0.2-0.3-0.4-0.4-0.6s-0.1-0.5-0.1-0.8c0-0.3,0.1-0.6,0.2-0.9
			c0.1-0.2,0.2-0.4,0.4-0.6s0.4-0.3,0.6-0.4C197.6,593.2,197.9,593.2,198.1,593.2z M199,594.8c0-0.3-0.1-0.6-0.2-0.7
			c-0.2-0.2-0.4-0.3-0.7-0.3c-0.2,0-0.3,0-0.4,0.1c-0.1,0.1-0.2,0.1-0.3,0.2c-0.1,0.1-0.2,0.2-0.2,0.3c-0.1,0.1-0.1,0.2-0.1,0.4H199
			z"/>
		<path class="st14" d="M201.9,593.3h1.6v0.6h-1.6v1.7c0,0.2,0,0.3,0,0.5c0,0.1,0.1,0.2,0.1,0.3c0.1,0.1,0.1,0.1,0.2,0.1
			c0.1,0,0.2,0,0.4,0c0.2,0,0.3,0,0.5,0s0.2-0.1,0.3-0.1l0.1,0.6c-0.1,0-0.2,0.1-0.4,0.1c-0.2,0.1-0.4,0.1-0.6,0.1
			c-0.3,0-0.5,0-0.7-0.1c-0.2-0.1-0.3-0.2-0.4-0.3s-0.2-0.3-0.2-0.5c0-0.2-0.1-0.4-0.1-0.7v-1.7h-0.8v-0.6h0.8v-1l0.7-0.1V593.3z"/>
		<path class="st14" d="M204.9,597v-3.5c0.5-0.2,1.1-0.3,1.6-0.3c0.2,0,0.3,0,0.5,0c0.2,0,0.3,0,0.5,0.1l-0.1,0.6
			c-0.2,0-0.3-0.1-0.5-0.1c-0.1,0-0.3,0-0.4,0c-0.3,0-0.7,0-1,0.1v3.1H204.9z"/>
		<path class="st14" d="M211.7,595.1c0,0.3,0,0.6-0.1,0.8c-0.1,0.2-0.2,0.4-0.3,0.6c-0.1,0.2-0.3,0.3-0.5,0.4
			c-0.2,0.1-0.4,0.1-0.7,0.1c-0.2,0-0.5,0-0.7-0.1c-0.2-0.1-0.4-0.2-0.5-0.4c-0.1-0.2-0.3-0.4-0.3-0.6c-0.1-0.2-0.1-0.5-0.1-0.8
			c0-0.3,0-0.6,0.1-0.8c0.1-0.2,0.2-0.4,0.3-0.6s0.3-0.3,0.5-0.4c0.2-0.1,0.4-0.1,0.7-0.1c0.2,0,0.5,0,0.7,0.1
			c0.2,0.1,0.4,0.2,0.5,0.4s0.3,0.4,0.3,0.6C211.6,594.6,211.7,594.9,211.7,595.1z M211,595.1c0-0.4-0.1-0.8-0.3-1
			c-0.2-0.2-0.4-0.4-0.7-0.4c-0.3,0-0.5,0.1-0.7,0.4c-0.2,0.2-0.3,0.6-0.3,1c0,0.4,0.1,0.7,0.3,1c0.2,0.2,0.4,0.4,0.7,0.4
			c0.3,0,0.6-0.1,0.7-0.4C210.9,595.9,211,595.6,211,595.1z"/>
	</g>
</g>
</svg>
