<?xml version="1.0" encoding="utf-8"?>
<!-- Generator: Adobe Illustrator 22.1.0, SVG Export Plug-In . SVG Version: 6.00 Build 0)  -->
<svg version="1.1" id="Capa_1" xmlns="http://www.w3.org/2000/svg" xmlns:xlink="http://www.w3.org/1999/xlink" x="0px" y="0px"
	 viewBox="0 0 450 60.5" style="enable-background:new 0 0 450 60.5;" xml:space="preserve">
<style type="text/css">
	.st0{fill:#8D188E;}
	.st1{fill:#BFBDBE;}
	.st2{fill:#B19A3A;}
	.st3{fill:#F14A9D;}
	.st4{fill:#1675C7;}
	.st5{fill:#BBAC02;}
	.st6{fill:#79CFB4;}
	.st7{fill:#FFDC00;}
	.st8{fill:#EF2622;}
	.st9{fill:#F57019;}
	.st10{fill:#00A060;}
	.st11{fill:#4E1801;}
	.st12{enable-background:new    ;}
	.st13{fill:#756B61;}
</style>
<g id="Group_87" transform="translate(-735 -780)">
	<g id="Group_86" transform="translate(-85 -187.5)">
		<g id="Group_85">
			<ellipse id="Ellipse_163" class="st0" cx="1182.9" cy="1005" rx="8.2" ry="8.2"/>
			<ellipse id="Ellipse_164" class="st1" cx="1222.4" cy="1005" rx="8.2" ry="8.2"/>
			<ellipse id="Ellipse_165" class="st2" cx="1261.8" cy="1005" rx="8.2" ry="8.2"/>
			<ellipse id="Ellipse_166" class="st3" cx="828.2" cy="1005" rx="8.2" ry="8.2"/>
			<ellipse id="Ellipse_167" class="st4" cx="867.6" cy="1005" rx="8.2" ry="8.2"/>
			<ellipse id="Ellipse_168" class="st5" cx="907.1" cy="1005" rx="8.2" ry="8.2"/>
			<ellipse id="Ellipse_169" class="st6" cx="946.5" cy="1005" rx="8.2" ry="8.2"/>
			<ellipse id="Ellipse_170" class="st7" cx="985.9" cy="1005" rx="8.2" ry="8.2"/>
			<ellipse id="Ellipse_171" class="st8" cx="1025.3" cy="1005" rx="8.2" ry="8.2"/>
			<ellipse id="Ellipse_172" class="st9" cx="1064.7" cy="1005" rx="8.2" ry="8.2"/>
			<ellipse id="Ellipse_173" class="st10" cx="1104.1" cy="1005" rx="8.2" ry="8.2"/>
			<ellipse id="Ellipse_174" class="st11" cx="1143.5" cy="1005" rx="8.2" ry="8.2"/>
			<g class="st12">
				<path class="st13" d="M824.8,1020.1c0.3-0.1,0.7-0.3,1-0.5c0.3-0.2,0.6-0.5,0.9-0.8h0.6v5.5h1.2v0.7H825v-0.7h1.3v-4.3
					c-0.1,0.1-0.2,0.1-0.3,0.2s-0.2,0.1-0.3,0.2c-0.1,0.1-0.3,0.1-0.4,0.2c-0.1,0.1-0.3,0.1-0.4,0.2L824.8,1020.1z"/>
			</g>
			<g class="st12">
				<path class="st13" d="M867.2,1020.4c0,0.2,0,0.4-0.1,0.6c-0.1,0.2-0.2,0.4-0.3,0.6c-0.1,0.2-0.3,0.4-0.5,0.6s-0.3,0.4-0.5,0.5
					c-0.1,0.1-0.2,0.2-0.4,0.4s-0.3,0.3-0.4,0.4s-0.2,0.3-0.3,0.4c-0.1,0.1-0.1,0.3-0.1,0.4h2.9v0.7h-3.8c0,0,0-0.1,0-0.1
					c0,0,0-0.1,0-0.1c0-0.3,0-0.5,0.1-0.8c0.1-0.2,0.2-0.5,0.4-0.7s0.3-0.4,0.5-0.6c0.2-0.2,0.4-0.4,0.5-0.6
					c0.1-0.1,0.3-0.3,0.4-0.4c0.1-0.1,0.3-0.3,0.4-0.4c0.1-0.1,0.2-0.3,0.2-0.4c0.1-0.1,0.1-0.3,0.1-0.5c0-0.2,0-0.3-0.1-0.5
					s-0.1-0.2-0.2-0.3c-0.1-0.1-0.2-0.1-0.3-0.2s-0.3-0.1-0.4-0.1c-0.2,0-0.3,0-0.5,0.1c-0.1,0-0.3,0.1-0.4,0.2
					c-0.1,0.1-0.2,0.1-0.3,0.2s-0.1,0.1-0.2,0.2l-0.4-0.6c0.1-0.1,0.1-0.1,0.2-0.2c0.1-0.1,0.2-0.2,0.4-0.2c0.2-0.1,0.3-0.1,0.5-0.2
					c0.2-0.1,0.4-0.1,0.6-0.1c0.6,0,1.1,0.1,1.4,0.4S867.2,1019.8,867.2,1020.4z"/>
			</g>
			<g class="st12">
				<path class="st13" d="M905.6,1024.4c0.5,0,0.9-0.1,1.1-0.3c0.2-0.2,0.3-0.5,0.3-0.8c0-0.2,0-0.4-0.1-0.6s-0.2-0.3-0.4-0.4
					c-0.2-0.1-0.3-0.2-0.5-0.2s-0.4-0.1-0.6-0.1h-0.2v-0.7h0.3c0.1,0,0.3,0,0.5,0s0.3-0.1,0.4-0.2c0.1-0.1,0.2-0.2,0.3-0.3
					c0.1-0.1,0.1-0.3,0.1-0.5c0-0.3-0.1-0.6-0.3-0.7s-0.5-0.2-0.7-0.2c-0.3,0-0.5,0-0.7,0.1c-0.2,0.1-0.4,0.2-0.5,0.3l-0.3-0.6
					c0.1-0.1,0.4-0.2,0.6-0.3c0.3-0.1,0.6-0.2,0.9-0.2c0.3,0,0.6,0,0.8,0.1s0.4,0.2,0.6,0.3s0.3,0.3,0.3,0.5
					c0.1,0.2,0.1,0.4,0.1,0.6c0,0.3-0.1,0.6-0.3,0.8s-0.4,0.4-0.7,0.5c0.3,0.1,0.6,0.3,0.8,0.5c0.2,0.3,0.4,0.6,0.4,1.1
					c0,0.3,0,0.5-0.1,0.7c-0.1,0.2-0.2,0.4-0.4,0.6c-0.2,0.2-0.4,0.3-0.7,0.4c-0.3,0.1-0.6,0.1-1,0.1c-0.2,0-0.3,0-0.5,0
					c-0.2,0-0.3-0.1-0.5-0.1c-0.1,0-0.3-0.1-0.4-0.1c-0.1,0-0.2-0.1-0.2-0.1l0.2-0.7c0.1,0.1,0.3,0.1,0.5,0.2
					S905.3,1024.4,905.6,1024.4z"/>
			</g>
			<g class="st12">
				<path class="st13" d="M942.9,1022.9c0.1-0.3,0.3-0.6,0.5-0.9c0.2-0.3,0.4-0.7,0.7-1.1c0.2-0.4,0.5-0.7,0.8-1.1
					c0.3-0.4,0.6-0.7,0.9-1h0.8v3.9h0.7v0.7h-0.7v1.6h-0.8v-1.6h-2.8V1022.9z M945.6,1019.8c-0.2,0.2-0.4,0.4-0.5,0.6
					c-0.2,0.2-0.4,0.5-0.5,0.7s-0.3,0.5-0.5,0.8s-0.3,0.5-0.4,0.8h2V1019.8z"/>
			</g>
			<g class="st12">
				<path class="st13" d="M983.4,1021.2c0.9,0,1.5,0.2,2,0.6s0.6,0.8,0.6,1.5c0,0.3,0,0.5-0.1,0.8c-0.1,0.2-0.2,0.4-0.4,0.6
					c-0.2,0.2-0.4,0.3-0.7,0.4c-0.3,0.1-0.6,0.1-1,0.1c-0.2,0-0.3,0-0.5,0c-0.2,0-0.3-0.1-0.4-0.1c-0.1,0-0.3-0.1-0.4-0.1
					c-0.1,0-0.2-0.1-0.2-0.1l0.2-0.7c0.1,0.1,0.3,0.1,0.5,0.2s0.5,0.1,0.8,0.1c0.3,0,0.5,0,0.7-0.1c0.2-0.1,0.3-0.1,0.4-0.2
					c0.1-0.1,0.2-0.2,0.2-0.4c0.1-0.1,0.1-0.3,0.1-0.4c0-0.2,0-0.4-0.1-0.6c-0.1-0.2-0.2-0.3-0.4-0.4s-0.4-0.2-0.8-0.3
					s-0.7-0.1-1.2-0.1c0-0.3,0.1-0.6,0.1-0.8s0-0.5,0.1-0.8s0-0.5,0-0.7c0-0.2,0-0.5,0-0.8h3v0.7h-2.3c0,0.1,0,0.2,0,0.4
					c0,0.2,0,0.3,0,0.5c0,0.2,0,0.3,0,0.5C983.4,1021,983.4,1021.1,983.4,1021.2z"/>
			</g>
			<g class="st12">
				<path class="st13" d="M1021,1022.5c0-0.6,0.1-1.1,0.2-1.6c0.2-0.5,0.4-0.9,0.7-1.2s0.7-0.6,1.1-0.7c0.4-0.2,0.9-0.3,1.5-0.3
					l0.1,0.7c-0.4,0-0.7,0-1,0.1c-0.3,0.1-0.5,0.2-0.8,0.3c-0.2,0.2-0.4,0.4-0.6,0.6s-0.3,0.5-0.3,0.9c0.2-0.1,0.3-0.1,0.5-0.2
					c0.2,0,0.4-0.1,0.6-0.1c0.3,0,0.6,0.1,0.9,0.2c0.2,0.1,0.4,0.2,0.6,0.4c0.1,0.2,0.3,0.4,0.3,0.6c0.1,0.2,0.1,0.5,0.1,0.7
					c0,0.2,0,0.5-0.1,0.7c-0.1,0.2-0.2,0.5-0.3,0.6c-0.2,0.2-0.4,0.4-0.6,0.5c-0.2,0.1-0.5,0.2-0.9,0.2c-0.7,0-1.2-0.2-1.5-0.7
					C1021.2,1024,1021,1023.3,1021,1022.5z M1023,1021.9c-0.2,0-0.4,0-0.6,0.1s-0.4,0.1-0.5,0.2c0,0.1,0,0.1,0,0.2s0,0.1,0,0.2
					c0,0.3,0,0.5,0.1,0.7c0,0.2,0.1,0.4,0.2,0.6c0.1,0.2,0.2,0.3,0.4,0.4c0.2,0.1,0.3,0.2,0.6,0.2c0.2,0,0.4,0,0.5-0.1
					c0.1-0.1,0.2-0.2,0.3-0.3c0.1-0.1,0.1-0.3,0.2-0.4c0-0.2,0.1-0.3,0.1-0.4c0-0.4-0.1-0.7-0.3-0.9
					C1023.7,1022,1023.4,1021.9,1023,1021.9z"/>
			</g>
			<g class="st12">
				<path class="st13" d="M1062.5,1025c0-0.5,0.1-1,0.3-1.5c0.1-0.5,0.3-1,0.5-1.5s0.4-1,0.6-1.4c0.2-0.4,0.5-0.8,0.7-1h-3v-0.7h3.9
					v0.7c-0.2,0.2-0.4,0.5-0.6,0.9c-0.2,0.4-0.5,0.8-0.7,1.3c-0.2,0.5-0.4,1-0.5,1.6c-0.2,0.6-0.2,1.1-0.3,1.7H1062.5z"/>
			</g>
			<g class="st12">
				<path class="st13" d="M1104.5,1023.4c0,0.5-0.2,0.9-0.5,1.3c-0.3,0.3-0.8,0.5-1.5,0.5c-0.4,0-0.7-0.1-1-0.2
					c-0.3-0.1-0.5-0.2-0.6-0.4c-0.1-0.2-0.3-0.3-0.3-0.5c-0.1-0.2-0.1-0.4-0.1-0.6c0-0.4,0.1-0.7,0.3-0.9s0.4-0.5,0.7-0.7
					c-0.6-0.3-0.8-0.8-0.8-1.5c0-0.2,0-0.4,0.1-0.7c0.1-0.2,0.2-0.4,0.4-0.5c0.2-0.2,0.4-0.3,0.6-0.4c0.2-0.1,0.5-0.1,0.8-0.1
					c0.3,0,0.6,0,0.9,0.2c0.2,0.1,0.4,0.2,0.6,0.4s0.3,0.3,0.3,0.5c0.1,0.2,0.1,0.4,0.1,0.6c0,0.4-0.1,0.7-0.3,0.9s-0.4,0.5-0.6,0.6
					C1104.1,1022.1,1104.5,1022.7,1104.5,1023.4z M1101.3,1023.5c0,0.1,0,0.2,0.1,0.3c0,0.1,0.1,0.2,0.2,0.3
					c0.1,0.1,0.2,0.2,0.4,0.2c0.2,0.1,0.3,0.1,0.6,0.1c0.2,0,0.4,0,0.5-0.1s0.3-0.1,0.4-0.2c0.1-0.1,0.2-0.2,0.2-0.3
					c0-0.1,0.1-0.2,0.1-0.4c0-0.4-0.1-0.7-0.4-0.9s-0.6-0.4-1.1-0.5c-0.3,0.1-0.5,0.3-0.6,0.5
					C1101.4,1022.9,1101.3,1023.1,1101.3,1023.5z M1103.5,1020.3c0-0.1,0-0.2-0.1-0.3c0-0.1-0.1-0.2-0.2-0.3
					c-0.1-0.1-0.2-0.2-0.3-0.2c-0.1-0.1-0.3-0.1-0.5-0.1c-0.2,0-0.4,0-0.5,0.1c-0.1,0.1-0.2,0.1-0.3,0.2c-0.1,0.1-0.1,0.2-0.2,0.3
					c0,0.1-0.1,0.2-0.1,0.3c0,0.3,0.1,0.5,0.3,0.8c0.2,0.2,0.5,0.4,1,0.5c0.3-0.1,0.5-0.3,0.6-0.5
					C1103.5,1020.9,1103.5,1020.6,1103.5,1020.3z"/>
			</g>
			<g class="st12">
				<path class="st13" d="M1143.5,1021.3c0,1.2-0.3,2.2-0.9,2.8c-0.6,0.6-1.5,0.9-2.7,0.9l0-0.7c0.7,0,1.3-0.1,1.8-0.4
					c0.5-0.3,0.8-0.8,0.9-1.5c-0.2,0.1-0.3,0.1-0.5,0.2c-0.2,0-0.4,0.1-0.6,0.1c-0.4,0-0.7-0.1-0.9-0.2s-0.4-0.2-0.6-0.4
					s-0.3-0.4-0.3-0.6c-0.1-0.2-0.1-0.5-0.1-0.7c0-0.2,0-0.5,0.1-0.7c0.1-0.2,0.2-0.5,0.3-0.6s0.4-0.4,0.6-0.5
					c0.2-0.1,0.5-0.2,0.9-0.2c0.7,0,1.2,0.2,1.5,0.7S1143.5,1020.5,1143.5,1021.3z M1141.5,1021.9c0.2,0,0.4,0,0.6-0.1
					c0.2,0,0.4-0.1,0.5-0.2c0-0.1,0-0.1,0-0.2c0-0.1,0-0.1,0-0.2c0-0.3,0-0.5-0.1-0.7c0-0.2-0.1-0.4-0.2-0.6
					c-0.1-0.2-0.2-0.3-0.4-0.4c-0.2-0.1-0.4-0.2-0.6-0.2c-0.2,0-0.4,0-0.5,0.1s-0.2,0.2-0.3,0.3c-0.1,0.1-0.1,0.3-0.2,0.4
					c0,0.2-0.1,0.3-0.1,0.4c0,0.4,0.1,0.7,0.3,0.9S1141.1,1021.9,1141.5,1021.9z"/>
			</g>
			<g class="st12">
				<path class="st13" d="M1182,1025l-0.4-1.6h-2.4l-0.4,1.6h-0.8c0.1-0.4,0.2-0.9,0.4-1.4c0.1-0.5,0.3-1,0.5-1.6s0.3-1.1,0.5-1.6
					c0.2-0.5,0.4-1.1,0.6-1.6h1c0.2,0.5,0.4,1,0.6,1.6c0.2,0.5,0.3,1.1,0.5,1.6s0.3,1.1,0.4,1.6c0.1,0.5,0.3,1,0.4,1.4H1182z
					 M1180.5,1019.5c-0.2,0.4-0.3,0.9-0.5,1.5c-0.2,0.6-0.3,1.1-0.5,1.7h2c-0.2-0.6-0.3-1.2-0.5-1.7
					C1180.8,1020.4,1180.6,1019.9,1180.5,1019.5z"/>
			</g>
			<g class="st12">
				<path class="st13" d="M1220.5,1025.1c-0.1,0-0.2,0-0.4,0c-0.1,0-0.3,0-0.4,0c-0.1,0-0.3,0-0.4,0c-0.1,0-0.2,0-0.4-0.1v-6
					c0.1,0,0.2-0.1,0.3-0.1c0.1,0,0.3,0,0.4,0s0.3,0,0.4,0c0.1,0,0.2,0,0.4,0c0.3,0,0.6,0,0.9,0.1c0.3,0.1,0.5,0.1,0.7,0.3
					c0.2,0.1,0.3,0.3,0.5,0.5c0.1,0.2,0.2,0.5,0.2,0.8c0,0.1,0,0.3-0.1,0.4s-0.1,0.3-0.2,0.4c-0.1,0.1-0.2,0.2-0.3,0.3
					s-0.2,0.2-0.4,0.2c0.3,0.1,0.6,0.3,0.9,0.5s0.3,0.6,0.3,1c0,0.6-0.2,1.1-0.6,1.4S1221.4,1025.1,1220.5,1025.1z M1219.9,1021.4
					h0.7c0.2,0,0.3,0,0.5,0c0.2,0,0.3-0.1,0.5-0.2s0.2-0.2,0.3-0.3c0.1-0.1,0.1-0.3,0.1-0.5c0-0.2,0-0.3-0.1-0.5
					c-0.1-0.1-0.2-0.2-0.3-0.3s-0.3-0.1-0.4-0.2s-0.3,0-0.5,0s-0.3,0-0.5,0c-0.1,0-0.2,0-0.3,0V1021.4z M1219.9,1022.1v2.2
					c0,0,0.1,0,0.2,0c0.1,0,0.3,0,0.5,0s0.4,0,0.6-0.1c0.2,0,0.4-0.1,0.5-0.2c0.1-0.1,0.3-0.2,0.4-0.4c0.1-0.1,0.1-0.3,0.1-0.6
					c0-0.2,0-0.4-0.1-0.5c-0.1-0.1-0.2-0.3-0.3-0.3c-0.1-0.1-0.3-0.1-0.5-0.2c-0.2,0-0.4-0.1-0.6-0.1H1219.9z"/>
			</g>
			<g class="st12">
				<path class="st13" d="M1255.3,1020.6c0.4-0.1,0.7-0.3,1.1-0.6s0.7-0.5,1-0.9h0.6v6h1.3v0.8h-3.7v-0.8h1.5v-4.8
					c-0.1,0.1-0.2,0.1-0.3,0.2c-0.1,0.1-0.2,0.2-0.4,0.2c-0.1,0.1-0.3,0.1-0.4,0.2c-0.1,0.1-0.3,0.1-0.4,0.2L1255.3,1020.6z"/>
				<path class="st13" d="M1264.6,1020.9c0,0.2,0,0.5-0.1,0.7c-0.1,0.2-0.2,0.4-0.4,0.6c-0.2,0.2-0.3,0.4-0.5,0.6
					c-0.2,0.2-0.4,0.4-0.6,0.6c-0.1,0.1-0.2,0.2-0.4,0.4c-0.1,0.2-0.3,0.3-0.4,0.5c-0.1,0.2-0.2,0.3-0.3,0.5s-0.1,0.3-0.1,0.4h3.1
					v0.8h-4.1c0,0,0-0.1,0-0.1s0-0.1,0-0.1c0-0.3,0.1-0.6,0.2-0.9s0.2-0.5,0.4-0.7c0.2-0.2,0.3-0.5,0.5-0.7s0.4-0.4,0.6-0.6
					c0.2-0.2,0.3-0.3,0.5-0.5s0.3-0.3,0.4-0.5s0.2-0.3,0.3-0.5c0.1-0.2,0.1-0.3,0.1-0.5c0-0.2,0-0.4-0.1-0.5
					c-0.1-0.1-0.1-0.3-0.3-0.3c-0.1-0.1-0.2-0.2-0.4-0.2c-0.1,0-0.3-0.1-0.5-0.1c-0.2,0-0.4,0-0.5,0.1c-0.2,0.1-0.3,0.1-0.4,0.2
					c-0.1,0.1-0.2,0.1-0.3,0.2c-0.1,0.1-0.2,0.1-0.2,0.2l-0.5-0.6c0.1-0.1,0.1-0.1,0.3-0.2c0.1-0.1,0.3-0.2,0.4-0.3
					c0.2-0.1,0.3-0.2,0.6-0.2c0.2-0.1,0.4-0.1,0.7-0.1c0.7,0,1.2,0.2,1.6,0.5S1264.6,1020.3,1264.6,1020.9z"/>
			</g>
			<g class="st12">
				<path class="st13" d="M988.4,979.4v1.1h-5.9v-9.9h1.3v8.8H988.4z"/>
				<path class="st13" d="M992,974.2h-2.1v-1.1h3.5v4.6c0,0.7,0.1,1.2,0.3,1.5s0.5,0.4,0.9,0.4c0.3,0,0.6,0,0.9-0.1
					c0.3-0.1,0.5-0.2,0.6-0.2l0.2,1.1c-0.1,0-0.2,0.1-0.3,0.1c-0.1,0-0.3,0.1-0.4,0.1c-0.2,0-0.3,0.1-0.5,0.1s-0.4,0-0.6,0
					c-0.5,0-0.9-0.1-1.2-0.2s-0.6-0.3-0.7-0.6c-0.2-0.3-0.3-0.6-0.4-1c-0.1-0.4-0.1-0.8-0.1-1.3V974.2z M994,970.3l-2,2l-0.7-0.6
					l1.8-2.2L994,970.3z"/>
				<path class="st13" d="M998.1,973.3c0.5-0.1,1-0.2,1.4-0.3c0.5-0.1,0.9-0.1,1.3-0.1c1,0,1.7,0.3,2.2,0.8c0.5,0.5,0.8,1.3,0.8,2.5
					v4.4h-1.3v-4.1c0-0.5,0-0.9-0.1-1.2c-0.1-0.3-0.2-0.5-0.4-0.7c-0.2-0.2-0.3-0.3-0.6-0.3c-0.2-0.1-0.5-0.1-0.7-0.1
					c-0.2,0-0.4,0-0.7,0c-0.2,0-0.5,0.1-0.7,0.1v6.3h-1.3V973.3z"/>
				<path class="st13" d="M1009.1,972.9c1,0,1.8,0.3,2.3,0.9s0.8,1.6,0.8,2.8v0.5h-5.3c0.1,0.8,0.3,1.4,0.8,1.8
					c0.5,0.4,1.1,0.6,1.9,0.6c0.5,0,0.9,0,1.2-0.1c0.3-0.1,0.6-0.2,0.8-0.2l0.2,1.1c-0.2,0.1-0.4,0.2-0.9,0.3
					c-0.4,0.1-0.9,0.1-1.4,0.1c-0.6,0-1.2-0.1-1.7-0.3c-0.5-0.2-0.9-0.5-1.2-0.8c-0.3-0.3-0.6-0.8-0.7-1.2c-0.2-0.5-0.2-1-0.2-1.5
					c0-0.7,0.1-1.2,0.3-1.7s0.5-0.9,0.8-1.2c0.3-0.3,0.7-0.6,1.1-0.7C1008.3,973,1008.7,972.9,1009.1,972.9z M1010.9,976.1
					c0-0.6-0.2-1.1-0.5-1.5s-0.8-0.6-1.3-0.6c-0.3,0-0.6,0.1-0.8,0.2c-0.3,0.1-0.5,0.3-0.6,0.5c-0.2,0.2-0.3,0.4-0.4,0.7
					c-0.1,0.2-0.2,0.5-0.2,0.8H1010.9z"/>
				<path class="st13" d="M1017,972.9c0.6,0,1,0.1,1.4,0.2c0.4,0.1,0.7,0.3,0.9,0.6c0.2,0.2,0.4,0.5,0.5,0.9
					c0.1,0.4,0.1,0.7,0.1,1.2v4.6c-0.3,0.1-0.7,0.1-1.2,0.2c-0.5,0.1-1,0.1-1.6,0.1c-0.4,0-0.8,0-1.2-0.1c-0.4-0.1-0.7-0.2-1-0.4
					c-0.3-0.2-0.5-0.4-0.7-0.7c-0.2-0.3-0.3-0.7-0.3-1.2c0-0.4,0.1-0.8,0.3-1.1c0.2-0.3,0.4-0.5,0.7-0.7c0.3-0.2,0.6-0.3,1-0.4
					c0.4-0.1,0.8-0.1,1.1-0.1c0.5,0,1,0.1,1.5,0.2v-0.4c0-0.2,0-0.4-0.1-0.6s-0.1-0.4-0.3-0.6s-0.3-0.3-0.5-0.4
					c-0.2-0.1-0.5-0.2-0.9-0.2c-0.5,0-0.9,0-1.2,0.1c-0.3,0.1-0.6,0.1-0.8,0.2l-0.2-1.1c0.2-0.1,0.5-0.2,0.9-0.2
					C1016,972.9,1016.5,972.9,1017,972.9z M1017.1,979.6c0.3,0,0.6,0,0.9,0c0.3,0,0.5,0,0.6-0.1v-2.2c-0.2-0.1-0.4-0.1-0.6-0.1
					c-0.2,0-0.5,0-0.8,0c-0.2,0-0.5,0-0.7,0.1c-0.2,0-0.4,0.1-0.6,0.2c-0.2,0.1-0.3,0.2-0.4,0.4c-0.1,0.2-0.2,0.3-0.2,0.6
					c0,0.5,0.2,0.8,0.5,1C1016.1,979.5,1016.5,979.6,1017.1,979.6z"/>
				<path class="st13" d="M1026.6,978.6c0-0.3-0.1-0.5-0.3-0.7c-0.2-0.2-0.5-0.3-0.8-0.4c-0.3-0.1-0.7-0.3-1.1-0.4
					c-0.4-0.1-0.7-0.3-1.1-0.5c-0.3-0.2-0.6-0.4-0.8-0.7s-0.3-0.6-0.3-1c0-0.6,0.2-1.1,0.7-1.5c0.5-0.4,1.2-0.6,2.3-0.6
					c0.4,0,0.8,0,1.3,0.1c0.4,0.1,0.8,0.1,1.1,0.2l-0.2,1.2c-0.1,0-0.2-0.1-0.4-0.1c-0.1,0-0.3-0.1-0.5-0.1c-0.2,0-0.4-0.1-0.6-0.1
					s-0.4,0-0.6,0c-1.2,0-1.7,0.3-1.7,0.9c0,0.2,0.1,0.4,0.3,0.6c0.2,0.2,0.5,0.3,0.8,0.4s0.7,0.3,1.1,0.4c0.4,0.1,0.7,0.3,1.1,0.5
					s0.6,0.4,0.8,0.7c0.2,0.3,0.3,0.6,0.3,1c0,0.7-0.3,1.2-0.8,1.6c-0.5,0.4-1.3,0.6-2.5,0.6c-0.5,0-1,0-1.4-0.1s-0.8-0.2-1.2-0.4
					l0.3-1.2c0.4,0.2,0.8,0.3,1.2,0.4c0.4,0.1,0.9,0.2,1.3,0.2C1026,979.6,1026.6,979.3,1026.6,978.6z"/>
				<path class="st13" d="M1042.5,969.6l1.3-0.2v10.9c-0.3,0.1-0.7,0.2-1.1,0.3c-0.4,0.1-1,0.1-1.6,0.1c-0.5,0-1-0.1-1.5-0.3
					c-0.4-0.2-0.8-0.4-1.1-0.8c-0.3-0.3-0.5-0.7-0.7-1.2c-0.2-0.5-0.3-1-0.3-1.6c0-0.6,0.1-1.1,0.2-1.6s0.4-0.9,0.6-1.2
					c0.3-0.3,0.6-0.6,1-0.8c0.4-0.2,0.8-0.3,1.3-0.3c0.4,0,0.7,0,1,0.1c0.3,0.1,0.5,0.2,0.7,0.3V969.6z M1042.5,974.6
					c-0.1-0.1-0.4-0.3-0.7-0.4c-0.3-0.1-0.6-0.2-0.9-0.2c-0.4,0-0.7,0.1-0.9,0.2c-0.3,0.1-0.5,0.3-0.6,0.6c-0.2,0.2-0.3,0.5-0.4,0.9
					s-0.1,0.7-0.1,1.1c0,0.9,0.2,1.5,0.6,2s0.9,0.7,1.6,0.7c0.3,0,0.6,0,0.8,0c0.2,0,0.4-0.1,0.5-0.1V974.6z"/>
				<path class="st13" d="M1049.1,972.9c1,0,1.8,0.3,2.3,0.9s0.8,1.6,0.8,2.8v0.5h-5.3c0.1,0.8,0.3,1.4,0.8,1.8
					c0.5,0.4,1.1,0.6,1.9,0.6c0.5,0,0.9,0,1.2-0.1c0.3-0.1,0.6-0.2,0.8-0.2l0.2,1.1c-0.2,0.1-0.4,0.2-0.9,0.3
					c-0.4,0.1-0.9,0.1-1.4,0.1c-0.6,0-1.2-0.1-1.7-0.3c-0.5-0.2-0.9-0.5-1.2-0.8c-0.3-0.3-0.6-0.8-0.7-1.2c-0.2-0.5-0.2-1-0.2-1.5
					c0-0.7,0.1-1.2,0.3-1.7s0.5-0.9,0.8-1.2c0.3-0.3,0.7-0.6,1.1-0.7C1048.3,973,1048.7,972.9,1049.1,972.9z M1050.9,976.1
					c0-0.6-0.2-1.1-0.5-1.5c-0.3-0.4-0.8-0.6-1.3-0.6c-0.3,0-0.6,0.1-0.8,0.2s-0.5,0.3-0.6,0.5c-0.2,0.2-0.3,0.4-0.4,0.7
					c-0.1,0.2-0.2,0.5-0.2,0.8H1050.9z"/>
				<path class="st13" d="M1058.4,980.7c-0.5,0-0.9-0.1-1.2-0.2c-0.3-0.1-0.6-0.3-0.7-0.6s-0.3-0.6-0.4-1c-0.1-0.4-0.1-0.8-0.1-1.3
					v-7h-2.1v-1.1h3.5v8.1c0,0.4,0,0.7,0.1,0.9c0,0.2,0.1,0.4,0.2,0.6c0.1,0.1,0.2,0.2,0.4,0.3c0.1,0.1,0.3,0.1,0.5,0.1
					c0.3,0,0.6,0,0.9-0.1c0.3-0.1,0.5-0.2,0.6-0.2l0.2,1.1c-0.1,0-0.2,0.1-0.3,0.1s-0.3,0.1-0.4,0.1c-0.2,0-0.3,0.1-0.5,0.1
					C1058.8,980.7,1058.6,980.7,1058.4,980.7z"/>
				<path class="st13" d="M1069.7,973.3c0.6-0.2,1.2-0.4,1.8-0.4c0.3,0,0.6,0,0.9,0.1c0.3,0.1,0.5,0.2,0.7,0.4
					c0.5-0.4,0.9-0.6,1.5-0.6c0.3,0,0.5,0,0.7,0.1c0.2,0.1,0.4,0.2,0.6,0.4c0.2,0.2,0.3,0.4,0.4,0.7c0.1,0.3,0.2,0.6,0.2,1v5.3h-1.2
					v-5.3c0-0.4-0.1-0.7-0.3-0.9c-0.2-0.2-0.4-0.3-0.6-0.3c-0.1,0-0.3,0-0.4,0.1c-0.1,0.1-0.3,0.2-0.4,0.3c0.1,0.2,0.1,0.5,0.1,0.8
					v2.4h-1.2v-2.4c0-0.4-0.1-0.7-0.2-0.9c-0.1-0.2-0.3-0.3-0.7-0.3c-0.2,0-0.5,0-0.7,0.1v6.4h-1.2V973.3z"/>
				<path class="st13" d="M1081.1,972.9c1,0,1.8,0.3,2.3,0.9s0.8,1.6,0.8,2.8v0.5h-5.3c0.1,0.8,0.3,1.4,0.8,1.8
					c0.5,0.4,1.1,0.6,1.9,0.6c0.5,0,0.9,0,1.2-0.1c0.3-0.1,0.6-0.2,0.8-0.2l0.2,1.1c-0.2,0.1-0.4,0.2-0.9,0.3
					c-0.4,0.1-0.9,0.1-1.4,0.1c-0.6,0-1.2-0.1-1.7-0.3c-0.5-0.2-0.9-0.5-1.2-0.8c-0.3-0.3-0.6-0.8-0.7-1.2c-0.2-0.5-0.2-1-0.2-1.5
					c0-0.7,0.1-1.2,0.3-1.7c0.2-0.5,0.5-0.9,0.8-1.2c0.3-0.3,0.7-0.6,1.1-0.7C1080.3,973,1080.7,972.9,1081.1,972.9z M1082.9,976.1
					c0-0.6-0.2-1.1-0.5-1.5c-0.3-0.4-0.8-0.6-1.3-0.6c-0.3,0-0.6,0.1-0.8,0.2s-0.5,0.3-0.6,0.5c-0.2,0.2-0.3,0.4-0.4,0.7
					c-0.1,0.2-0.2,0.5-0.2,0.8H1082.9z"/>
				<path class="st13" d="M1088.9,973.1h3.1v1.1h-3.1v3.5c0,0.4,0,0.7,0.1,0.9c0.1,0.2,0.1,0.4,0.3,0.6c0.1,0.1,0.3,0.2,0.5,0.3
					s0.4,0.1,0.7,0.1c0.4,0,0.7,0,0.9-0.1c0.2-0.1,0.5-0.1,0.7-0.3l0.2,1.1c-0.1,0.1-0.4,0.1-0.7,0.3c-0.3,0.1-0.7,0.2-1.2,0.2
					c-0.6,0-1-0.1-1.4-0.2s-0.6-0.3-0.8-0.6s-0.3-0.6-0.4-1c-0.1-0.4-0.1-0.8-0.1-1.3v-3.5h-1.6v-1.1h1.6V971l1.3-0.2V973.1z"/>
				<path class="st13" d="M1094.7,980.5v-7c1.1-0.4,2.2-0.6,3.3-0.6c0.3,0,0.7,0,1,0c0.3,0,0.7,0.1,1,0.2l-0.2,1.2
					c-0.3-0.1-0.6-0.2-0.9-0.2c-0.3,0-0.5,0-0.9,0c-0.7,0-1.3,0.1-2,0.3v6.2H1094.7z"/>
				<path class="st13" d="M1108.4,976.8c0,0.6-0.1,1.1-0.2,1.6c-0.2,0.5-0.4,0.9-0.7,1.2c-0.3,0.3-0.7,0.6-1.1,0.8
					c-0.4,0.2-0.9,0.3-1.4,0.3c-0.5,0-0.9-0.1-1.3-0.3c-0.4-0.2-0.8-0.5-1.1-0.8c-0.3-0.3-0.5-0.7-0.7-1.2c-0.2-0.5-0.2-1-0.2-1.6
					s0.1-1.1,0.2-1.6c0.2-0.5,0.4-0.9,0.7-1.2s0.7-0.6,1.1-0.8c0.4-0.2,0.9-0.3,1.3-0.3c0.5,0,0.9,0.1,1.4,0.3
					c0.4,0.2,0.8,0.4,1.1,0.8s0.5,0.7,0.7,1.2C1108.3,975.7,1108.4,976.2,1108.4,976.8z M1107,976.8c0-0.8-0.2-1.5-0.5-2
					s-0.9-0.7-1.5-0.7c-0.6,0-1.1,0.2-1.4,0.7c-0.4,0.5-0.5,1.1-0.5,2c0,0.8,0.2,1.5,0.5,2c0.4,0.5,0.8,0.7,1.4,0.7
					c0.6,0,1.1-0.2,1.5-0.7S1107,977.6,1107,976.8z"/>
			</g>
		</g>
	</g>
</g>
</svg>
