<?xml version="1.0" encoding="utf-8"?>
<!-- Generator: Adobe Illustrator 22.1.0, SVG Export Plug-In . SVG Version: 6.00 Build 0)  -->
<svg version="1.1" id="Capa_1" xmlns="http://www.w3.org/2000/svg" xmlns:xlink="http://www.w3.org/1999/xlink" x="0px" y="0px"
	 viewBox="0 0 498 108" style="enable-background:new 0 0 498 108;" xml:space="preserve">
<style type="text/css">
	.st0{fill:#F7CDAB;}
	.st1{enable-background:new    ;}
	.st2{fill:#756B61;}
	.st3{fill:#F3A96A;}
	.st4{fill:#EF8D39;}
	.st5{fill:#F3D3B7;}
	.st6{fill:#EBB688;}
	.st7{fill:#FBF0E7;}
	.st8{fill:#EFC4A0;}
	.st9{fill:#EB832A;}
	.st10{fill:#F3B57F;}
	.st11{fill:#EF9C54;}
	.st12{fill:#F7E2CF;}
	.st13{fill:#F7C69C;}
	.st14{fill:#DD6B36;}
</style>
<g id="Group_80" transform="translate(-711 -774)">
	<g transform="matrix(1, 0, 0, 1, 711, 774)">
		<rect id="Rectangle_105-2" x="9" y="6" class="st0" width="480" height="90"/>
	</g>
	<g id="Group_69" transform="translate(-173 -15)">
		<g class="st1">
			<path class="st2" d="M983.4,822.7c0,0.8-0.1,1.5-0.3,2c-0.2,0.6-0.5,1-0.8,1.4c-0.4,0.3-0.8,0.6-1.2,0.8c-0.5,0.2-1,0.2-1.6,0.2
				c-0.6,0-1.2-0.1-1.8-0.2v-8.4c0.6-0.1,1.2-0.2,1.8-0.2c0.6,0,1.1,0.1,1.6,0.2c0.5,0.2,0.9,0.4,1.2,0.8c0.4,0.4,0.6,0.8,0.8,1.4
				C983.3,821.2,983.4,821.9,983.4,822.7z M978.9,826c0.2,0,0.5,0,0.7,0c0.4,0,0.8-0.1,1.1-0.2s0.6-0.3,0.8-0.6s0.4-0.6,0.5-1.1
				c0.1-0.4,0.2-1,0.2-1.6c0-1.2-0.2-2-0.7-2.6s-1.1-0.8-2-0.8c-0.1,0-0.2,0-0.4,0c-0.1,0-0.2,0-0.3,0V826z"/>
			<path class="st2" d="M987.6,820.3c0.9,0,1.6,0.3,2,0.8c0.5,0.5,0.7,1.4,0.7,2.5v0.4h-4.6c0,0.7,0.3,1.2,0.7,1.5
				c0.4,0.4,1,0.5,1.7,0.5c0.4,0,0.8,0,1-0.1c0.3-0.1,0.5-0.1,0.7-0.2l0.2,1c-0.1,0.1-0.4,0.2-0.8,0.2c-0.4,0.1-0.8,0.1-1.2,0.1
				c-0.6,0-1.1-0.1-1.5-0.3c-0.4-0.2-0.8-0.4-1.1-0.7c-0.3-0.3-0.5-0.7-0.6-1.1s-0.2-0.9-0.2-1.4c0-0.6,0.1-1.1,0.3-1.5
				c0.2-0.4,0.4-0.8,0.7-1.1c0.3-0.3,0.6-0.5,1-0.6C986.9,820.4,987.2,820.3,987.6,820.3z M989.2,823.1c0-0.6-0.1-1-0.4-1.3
				c-0.3-0.3-0.7-0.5-1.1-0.5c-0.3,0-0.5,0.1-0.7,0.2s-0.4,0.2-0.6,0.4s-0.3,0.4-0.4,0.6c-0.1,0.2-0.2,0.4-0.2,0.7H989.2z"/>
			<path class="st2" d="M995.7,827.2c-0.4,0-0.8-0.1-1-0.2c-0.3-0.1-0.5-0.3-0.6-0.5c-0.2-0.2-0.3-0.5-0.3-0.8
				c-0.1-0.3-0.1-0.7-0.1-1.2v-6.1h-1.9v-1h3v7.1c0,0.3,0,0.6,0.1,0.8s0.1,0.4,0.2,0.5c0.1,0.1,0.2,0.2,0.3,0.3
				c0.1,0,0.3,0.1,0.5,0.1c0.3,0,0.5,0,0.8-0.1c0.2-0.1,0.4-0.1,0.5-0.2l0.2,1c-0.1,0-0.1,0.1-0.2,0.1c-0.1,0-0.2,0.1-0.4,0.1
				c-0.1,0-0.3,0.1-0.5,0.1C996.1,827.1,995.9,827.2,995.7,827.2z"/>
			<path class="st2" d="M1000.6,821.5h-1.9v-1h3v4c0,0.6,0.1,1.1,0.3,1.3s0.4,0.3,0.8,0.3c0.3,0,0.5,0,0.7-0.1
				c0.2-0.1,0.4-0.1,0.5-0.2l0.2,1c-0.1,0-0.1,0.1-0.2,0.1c-0.1,0-0.2,0.1-0.4,0.1s-0.3,0.1-0.4,0.1c-0.2,0-0.3,0-0.5,0
				c-0.4,0-0.8-0.1-1-0.2c-0.3-0.1-0.5-0.3-0.7-0.5c-0.2-0.2-0.3-0.5-0.3-0.8c-0.1-0.3-0.1-0.7-0.1-1.2V821.5z M1000.9,819.5
				c-0.2,0-0.5-0.1-0.6-0.3s-0.3-0.4-0.3-0.7c0-0.3,0.1-0.5,0.3-0.7s0.4-0.3,0.6-0.3c0.3,0,0.5,0.1,0.6,0.3c0.2,0.2,0.3,0.4,0.3,0.7
				c0,0.3-0.1,0.5-0.3,0.7C1001.4,819.4,1001.2,819.5,1000.9,819.5z"/>
			<path class="st2" d="M1008.4,820.5h2.7v1h-2.7v3c0,0.3,0,0.6,0.1,0.8c0,0.2,0.1,0.4,0.2,0.5c0.1,0.1,0.2,0.2,0.4,0.3
				s0.4,0.1,0.6,0.1c0.3,0,0.6,0,0.8-0.1c0.2-0.1,0.4-0.1,0.6-0.2l0.2,1c-0.1,0.1-0.3,0.1-0.6,0.2c-0.3,0.1-0.6,0.1-1.1,0.1
				c-0.5,0-0.9-0.1-1.2-0.2c-0.3-0.1-0.5-0.3-0.7-0.5c-0.2-0.2-0.3-0.5-0.4-0.8c-0.1-0.3-0.1-0.7-0.1-1.2v-3h-1.4v-1h1.4v-1.8
				l1.1-0.2V820.5z"/>
			<path class="st2" d="M1018.4,823.8c0,0.5-0.1,1-0.2,1.4c-0.1,0.4-0.3,0.8-0.6,1.1s-0.6,0.5-0.9,0.7c-0.4,0.2-0.8,0.2-1.2,0.2
				c-0.4,0-0.8-0.1-1.2-0.2s-0.7-0.4-0.9-0.7c-0.3-0.3-0.5-0.7-0.6-1.1c-0.1-0.4-0.2-0.9-0.2-1.4c0-0.5,0.1-1,0.2-1.4
				c0.1-0.4,0.3-0.8,0.6-1.1c0.3-0.3,0.6-0.5,0.9-0.7c0.4-0.2,0.7-0.2,1.2-0.2c0.4,0,0.8,0.1,1.2,0.2c0.4,0.2,0.7,0.4,0.9,0.7
				s0.5,0.7,0.6,1.1C1018.4,822.8,1018.4,823.2,1018.4,823.8z M1017.2,823.8c0-0.7-0.2-1.3-0.5-1.7s-0.7-0.6-1.3-0.6
				c-0.5,0-1,0.2-1.3,0.6c-0.3,0.4-0.5,1-0.5,1.7c0,0.7,0.2,1.3,0.5,1.7c0.3,0.4,0.7,0.6,1.3,0.6c0.5,0,1-0.2,1.3-0.6
				S1017.2,824.5,1017.2,823.8z"/>
			<path class="st2" d="M1023.9,825.4c0-0.2-0.1-0.4-0.3-0.6s-0.4-0.3-0.7-0.4s-0.6-0.2-0.9-0.3s-0.6-0.2-0.9-0.4
				c-0.3-0.2-0.5-0.4-0.7-0.6s-0.3-0.5-0.3-0.9c0-0.5,0.2-1,0.6-1.3s1.1-0.5,2-0.5c0.4,0,0.7,0,1.1,0.1c0.4,0.1,0.7,0.1,1,0.2
				l-0.2,1c-0.1,0-0.2-0.1-0.3-0.1s-0.3-0.1-0.4-0.1c-0.2,0-0.3-0.1-0.5-0.1s-0.4,0-0.6,0c-1,0-1.5,0.3-1.5,0.8
				c0,0.2,0.1,0.4,0.3,0.5c0.2,0.1,0.4,0.3,0.7,0.4c0.3,0.1,0.6,0.2,0.9,0.3c0.3,0.1,0.6,0.3,0.9,0.4c0.3,0.2,0.5,0.4,0.7,0.6
				c0.2,0.2,0.3,0.5,0.3,0.9c0,0.6-0.2,1-0.7,1.4c-0.5,0.3-1.2,0.5-2.2,0.5c-0.4,0-0.9,0-1.2-0.1c-0.4-0.1-0.7-0.2-1.1-0.3l0.2-1
				c0.3,0.1,0.7,0.3,1,0.4c0.4,0.1,0.7,0.1,1.2,0.1C1023.4,826.2,1023.9,825.9,1023.9,825.4z"/>
		</g>
		<g class="st1">
			<path class="st2" d="M970.7,841.8c0-0.6,0.1-1.1,0.3-1.5c0.2-0.4,0.4-0.8,0.8-1.1c0.3-0.3,0.7-0.5,1.1-0.6
				c0.4-0.1,0.9-0.2,1.4-0.2c0.3,0,0.6,0,0.9,0.1c0.3,0,0.6,0.1,1,0.2l-0.3,1c-0.3-0.1-0.6-0.2-0.8-0.2c-0.3,0-0.5,0-0.8,0
				c-0.3,0-0.7,0-1,0.1c-0.3,0.1-0.6,0.2-0.8,0.4c-0.2,0.2-0.4,0.4-0.5,0.7c-0.1,0.3-0.2,0.7-0.2,1.1c0,0.4,0.1,0.8,0.2,1.1
				c0.1,0.3,0.3,0.5,0.5,0.7s0.5,0.3,0.8,0.4c0.3,0.1,0.6,0.1,1,0.1c0.3,0,0.6,0,0.9,0c0.3,0,0.6-0.1,0.9-0.2l0.2,1
				c-0.3,0.1-0.7,0.2-1,0.3c-0.3,0.1-0.7,0.1-1.1,0.1c-0.5,0-1-0.1-1.4-0.2c-0.4-0.1-0.8-0.4-1.1-0.6s-0.6-0.6-0.7-1.1
				S970.7,842.3,970.7,841.8z"/>
			<path class="st2" d="M983.4,841.8c0,0.5-0.1,1-0.2,1.4c-0.1,0.4-0.3,0.8-0.6,1.1s-0.6,0.5-0.9,0.7c-0.4,0.2-0.8,0.2-1.2,0.2
				c-0.4,0-0.8-0.1-1.2-0.2s-0.7-0.4-0.9-0.7c-0.3-0.3-0.5-0.7-0.6-1.1c-0.1-0.4-0.2-0.9-0.2-1.4c0-0.5,0.1-1,0.2-1.4
				c0.1-0.4,0.3-0.8,0.6-1.1c0.3-0.3,0.6-0.5,0.9-0.7c0.4-0.2,0.7-0.2,1.2-0.2c0.4,0,0.8,0.1,1.2,0.2c0.4,0.2,0.7,0.4,0.9,0.7
				s0.5,0.7,0.6,1.1C983.4,840.8,983.4,841.2,983.4,841.8z M982.2,841.8c0-0.7-0.2-1.3-0.5-1.7s-0.7-0.6-1.3-0.6
				c-0.5,0-1,0.2-1.3,0.6c-0.3,0.4-0.5,1-0.5,1.7c0,0.7,0.2,1.3,0.5,1.7c0.3,0.4,0.7,0.6,1.3,0.6c0.5,0,1-0.2,1.3-0.6
				S982.2,842.5,982.2,841.8z"/>
			<path class="st2" d="M985,838.7c0.4-0.1,0.8-0.2,1.3-0.2c0.4-0.1,0.8-0.1,1.2-0.1c0.9,0,1.5,0.2,2,0.7s0.7,1.2,0.7,2.2v3.8h-1.1
				v-3.6c0-0.4,0-0.8-0.1-1c-0.1-0.3-0.2-0.5-0.3-0.6c-0.1-0.1-0.3-0.2-0.5-0.3c-0.2-0.1-0.4-0.1-0.6-0.1c-0.2,0-0.4,0-0.6,0
				s-0.4,0.1-0.6,0.1v5.5H985V838.7z"/>
			<path class="st2" d="M994.4,838.5h2.7v1h-2.7v3c0,0.3,0,0.6,0.1,0.8c0,0.2,0.1,0.4,0.2,0.5c0.1,0.1,0.2,0.2,0.4,0.3
				s0.4,0.1,0.6,0.1c0.3,0,0.6,0,0.8-0.1c0.2-0.1,0.4-0.1,0.6-0.2l0.2,1c-0.1,0.1-0.3,0.1-0.6,0.2c-0.3,0.1-0.6,0.1-1.1,0.1
				c-0.5,0-0.9-0.1-1.2-0.2c-0.3-0.1-0.5-0.3-0.7-0.5c-0.2-0.2-0.3-0.5-0.4-0.8c-0.1-0.3-0.1-0.7-0.1-1.2v-3h-1.4v-1h1.4v-1.8
				l1.1-0.2V838.5z"/>
			<path class="st2" d="M999.5,845v-6.1c1-0.3,1.9-0.5,2.9-0.5c0.3,0,0.6,0,0.9,0c0.3,0,0.6,0.1,0.9,0.1l-0.2,1
				c-0.3-0.1-0.6-0.1-0.8-0.2s-0.5,0-0.7,0c-0.6,0-1.1,0.1-1.7,0.2v5.4H999.5z"/>
			<path class="st2" d="M1008.5,838.3c0.5,0,0.9,0.1,1.2,0.2c0.3,0.1,0.6,0.3,0.8,0.5c0.2,0.2,0.4,0.5,0.4,0.8
				c0.1,0.3,0.1,0.6,0.1,1v4.1c-0.3,0-0.6,0.1-1.1,0.2c-0.4,0.1-0.9,0.1-1.4,0.1c-0.4,0-0.7,0-1-0.1c-0.3-0.1-0.6-0.2-0.9-0.3
				c-0.3-0.2-0.5-0.4-0.6-0.6c-0.2-0.3-0.2-0.6-0.2-1c0-0.4,0.1-0.7,0.2-0.9c0.2-0.3,0.4-0.5,0.6-0.6c0.3-0.2,0.6-0.3,0.9-0.3
				c0.3-0.1,0.7-0.1,1-0.1c0.5,0,0.9,0.1,1.3,0.2v-0.3c0-0.2,0-0.4-0.1-0.6c0-0.2-0.1-0.3-0.2-0.5s-0.3-0.3-0.5-0.4
				c-0.2-0.1-0.5-0.1-0.8-0.1c-0.4,0-0.8,0-1,0.1c-0.3,0.1-0.5,0.1-0.7,0.2l-0.1-1c0.2-0.1,0.4-0.1,0.8-0.2
				C1007.6,838.4,1008,838.3,1008.5,838.3z M1008.6,844.2c0.3,0,0.5,0,0.8,0c0.2,0,0.4,0,0.6-0.1v-1.9c-0.1,0-0.3-0.1-0.5-0.1
				c-0.2,0-0.4,0-0.7,0c-0.2,0-0.4,0-0.6,0c-0.2,0-0.4,0.1-0.5,0.2c-0.2,0.1-0.3,0.2-0.4,0.3c-0.1,0.1-0.2,0.3-0.2,0.5
				c0,0.4,0.1,0.7,0.4,0.9C1007.7,844.1,1008.1,844.2,1008.6,844.2z"/>
			<path class="st2" d="M1023.7,845.2c-0.4,0-0.8-0.1-1-0.2c-0.3-0.1-0.5-0.3-0.6-0.5c-0.2-0.2-0.3-0.5-0.3-0.8
				c-0.1-0.3-0.1-0.7-0.1-1.2v-6.1h-1.9v-1h3v7.1c0,0.3,0,0.6,0.1,0.8s0.1,0.4,0.2,0.5c0.1,0.1,0.2,0.2,0.3,0.3
				c0.1,0,0.3,0.1,0.5,0.1c0.3,0,0.5,0,0.8-0.1c0.2-0.1,0.4-0.1,0.5-0.2l0.2,1c-0.1,0-0.1,0.1-0.2,0.1c-0.1,0-0.2,0.1-0.4,0.1
				c-0.1,0-0.3,0.1-0.5,0.1C1024.1,845.1,1023.9,845.2,1023.7,845.2z"/>
			<path class="st2" d="M1029.5,838.3c0.5,0,0.9,0.1,1.2,0.2c0.3,0.1,0.6,0.3,0.8,0.5c0.2,0.2,0.4,0.5,0.4,0.8
				c0.1,0.3,0.1,0.6,0.1,1v4.1c-0.3,0-0.6,0.1-1.1,0.2c-0.4,0.1-0.9,0.1-1.4,0.1c-0.4,0-0.7,0-1-0.1c-0.3-0.1-0.6-0.2-0.9-0.3
				c-0.3-0.2-0.5-0.4-0.6-0.6c-0.2-0.3-0.2-0.6-0.2-1c0-0.4,0.1-0.7,0.2-0.9c0.2-0.3,0.4-0.5,0.6-0.6c0.3-0.2,0.6-0.3,0.9-0.3
				c0.3-0.1,0.7-0.1,1-0.1c0.5,0,0.9,0.1,1.3,0.2v-0.3c0-0.2,0-0.4-0.1-0.6c0-0.2-0.1-0.3-0.2-0.5s-0.3-0.3-0.5-0.4
				c-0.2-0.1-0.5-0.1-0.8-0.1c-0.4,0-0.8,0-1,0.1c-0.3,0.1-0.5,0.1-0.7,0.2l-0.1-1c0.2-0.1,0.4-0.1,0.8-0.2
				C1028.6,838.4,1029,838.3,1029.5,838.3z M1029.6,844.2c0.3,0,0.5,0,0.8,0c0.2,0,0.4,0,0.6-0.1v-1.9c-0.1,0-0.3-0.1-0.5-0.1
				c-0.2,0-0.4,0-0.7,0c-0.2,0-0.4,0-0.6,0c-0.2,0-0.4,0.1-0.5,0.2c-0.2,0.1-0.3,0.2-0.4,0.3c-0.1,0.1-0.2,0.3-0.2,0.5
				c0,0.4,0.1,0.7,0.4,0.9C1028.7,844.1,1029.1,844.2,1029.6,844.2z"/>
		</g>
		<g class="st1">
			<path class="st2" d="M992.4,861.4c0-0.2-0.1-0.4-0.3-0.6s-0.4-0.3-0.7-0.4s-0.6-0.2-0.9-0.3s-0.6-0.2-0.9-0.4
				c-0.3-0.2-0.5-0.4-0.7-0.6s-0.3-0.5-0.3-0.9c0-0.5,0.2-1,0.6-1.3s1.1-0.5,2-0.5c0.4,0,0.7,0,1.1,0.1c0.4,0.1,0.7,0.1,1,0.2
				l-0.2,1c-0.1,0-0.2-0.1-0.3-0.1s-0.3-0.1-0.4-0.1c-0.2,0-0.3-0.1-0.5-0.1s-0.4,0-0.6,0c-1,0-1.5,0.3-1.5,0.8
				c0,0.2,0.1,0.4,0.3,0.5c0.2,0.1,0.4,0.3,0.7,0.4c0.3,0.1,0.6,0.2,0.9,0.3c0.3,0.1,0.6,0.3,0.9,0.4c0.3,0.2,0.5,0.4,0.7,0.6
				c0.2,0.2,0.3,0.5,0.3,0.9c0,0.6-0.2,1-0.7,1.4c-0.5,0.3-1.2,0.5-2.2,0.5c-0.4,0-0.9,0-1.2-0.1c-0.4-0.1-0.7-0.2-1.1-0.3l0.2-1
				c0.3,0.1,0.7,0.3,1,0.4c0.4,0.1,0.7,0.1,1.2,0.1C991.9,862.2,992.4,861.9,992.4,861.4z"/>
			<path class="st2" d="M998,856.3c0.5,0,0.9,0.1,1.2,0.2c0.3,0.1,0.6,0.3,0.8,0.5c0.2,0.2,0.4,0.5,0.4,0.8c0.1,0.3,0.1,0.6,0.1,1
				v4.1c-0.3,0-0.6,0.1-1.1,0.2c-0.4,0.1-0.9,0.1-1.4,0.1c-0.4,0-0.7,0-1-0.1c-0.3-0.1-0.6-0.2-0.9-0.3c-0.3-0.2-0.5-0.4-0.6-0.6
				c-0.2-0.3-0.2-0.6-0.2-1c0-0.4,0.1-0.7,0.2-0.9c0.2-0.3,0.4-0.5,0.6-0.6c0.3-0.2,0.6-0.3,0.9-0.3c0.3-0.1,0.7-0.1,1-0.1
				c0.5,0,0.9,0.1,1.3,0.2v-0.3c0-0.2,0-0.4-0.1-0.6c0-0.2-0.1-0.3-0.2-0.5s-0.3-0.3-0.5-0.4c-0.2-0.1-0.5-0.1-0.8-0.1
				c-0.4,0-0.8,0-1,0.1c-0.3,0.1-0.5,0.1-0.7,0.2l-0.1-1c0.2-0.1,0.4-0.1,0.8-0.2C997.1,856.4,997.5,856.3,998,856.3z M998.1,862.2
				c0.3,0,0.5,0,0.8,0c0.2,0,0.4,0,0.6-0.1v-1.9c-0.1,0-0.3-0.1-0.5-0.1c-0.2,0-0.4,0-0.7,0c-0.2,0-0.4,0-0.6,0
				c-0.2,0-0.4,0.1-0.5,0.2c-0.2,0.1-0.3,0.2-0.4,0.3c-0.1,0.1-0.2,0.3-0.2,0.5c0,0.4,0.1,0.7,0.4,0.9
				C997.2,862.1,997.6,862.2,998.1,862.2z"/>
			<path class="st2" d="M1006.2,863.2c-0.4,0-0.8-0.1-1-0.2c-0.3-0.1-0.5-0.3-0.6-0.5c-0.2-0.2-0.3-0.5-0.3-0.8
				c-0.1-0.3-0.1-0.7-0.1-1.2v-6.1h-1.9v-1h3v7.1c0,0.3,0,0.6,0.1,0.8s0.1,0.4,0.2,0.5c0.1,0.1,0.2,0.2,0.3,0.3
				c0.1,0,0.3,0.1,0.5,0.1c0.3,0,0.5,0,0.8-0.1c0.2-0.1,0.4-0.1,0.5-0.2l0.2,1c-0.1,0-0.1,0.1-0.2,0.1c-0.1,0-0.2,0.1-0.4,0.1
				c-0.1,0-0.3,0.1-0.5,0.1C1006.6,863.1,1006.4,863.2,1006.2,863.2z"/>
			<path class="st2" d="M1014.5,862.8c-0.3,0.1-0.6,0.1-1,0.2c-0.4,0.1-0.9,0.1-1.5,0.1c-0.5,0-0.9-0.1-1.2-0.2s-0.6-0.3-0.8-0.6
				c-0.2-0.3-0.4-0.6-0.4-0.9c-0.1-0.4-0.1-0.8-0.1-1.2v-3.7h1.1v3.4c0,0.8,0.1,1.4,0.4,1.7s0.6,0.5,1.2,0.5c0.1,0,0.2,0,0.4,0
				c0.1,0,0.2,0,0.4,0c0.1,0,0.2,0,0.3,0c0.1,0,0.1,0,0.2,0v-5.5h1.2V862.8z"/>
			<path class="st2" d="M1020.3,853.5l1.2-0.2v9.5c-0.3,0.1-0.6,0.1-1,0.2s-0.8,0.1-1.4,0.1c-0.5,0-0.9-0.1-1.3-0.2
				c-0.4-0.2-0.7-0.4-1-0.7c-0.3-0.3-0.5-0.7-0.6-1.1c-0.1-0.4-0.2-0.9-0.2-1.4c0-0.5,0.1-1,0.2-1.4s0.3-0.8,0.6-1.1
				s0.5-0.5,0.9-0.7c0.3-0.2,0.7-0.3,1.2-0.3c0.3,0,0.6,0,0.9,0.1s0.5,0.2,0.6,0.3V853.5z M1020.3,857.9c-0.1-0.1-0.3-0.2-0.6-0.3
				s-0.5-0.2-0.8-0.2c-0.3,0-0.6,0.1-0.8,0.2c-0.2,0.1-0.4,0.3-0.5,0.5c-0.1,0.2-0.2,0.5-0.3,0.8c-0.1,0.3-0.1,0.6-0.1,0.9
				c0,0.8,0.2,1.3,0.5,1.8c0.4,0.4,0.8,0.6,1.4,0.6c0.3,0,0.5,0,0.7,0c0.2,0,0.3-0.1,0.4-0.1V857.9z"/>
		</g>
		<g class="st1">
			<path class="st2" d="M1138.5,830c0,0.5-0.1,1-0.4,1.4c-0.3,0.4-0.7,0.7-1.1,0.9c0.1,0.2,0.3,0.5,0.5,0.8c0.2,0.3,0.3,0.6,0.5,0.9
				c0.2,0.3,0.4,0.7,0.5,1s0.3,0.7,0.5,1h-1.2c-0.3-0.7-0.6-1.3-0.9-1.9c-0.3-0.6-0.7-1.1-1-1.5c-0.1,0-0.1,0-0.2,0s-0.2,0-0.2,0h-1
				v3.4h-1.2v-8.5c0.1,0,0.3-0.1,0.5-0.1c0.2,0,0.4,0,0.6-0.1c0.2,0,0.4,0,0.6,0c0.2,0,0.4,0,0.5,0c1,0,1.8,0.2,2.4,0.7
				C1138.3,828.4,1138.5,829.1,1138.5,830z M1135.5,828.2c-0.2,0-0.4,0-0.6,0c-0.2,0-0.3,0-0.4,0v3.3h0.7c0.3,0,0.6,0,0.9-0.1
				c0.3,0,0.5-0.1,0.7-0.3c0.2-0.1,0.3-0.3,0.4-0.5s0.2-0.5,0.2-0.9c0-0.3-0.1-0.6-0.2-0.8c-0.1-0.2-0.2-0.4-0.4-0.5
				s-0.4-0.2-0.6-0.3C1136,828.3,1135.7,828.2,1135.5,828.2z"/>
			<path class="st2" d="M1145.9,832.8c0,0.5-0.1,1-0.2,1.4c-0.1,0.4-0.3,0.8-0.6,1.1c-0.3,0.3-0.6,0.5-0.9,0.7
				c-0.4,0.2-0.8,0.2-1.2,0.2c-0.4,0-0.8-0.1-1.2-0.2s-0.7-0.4-0.9-0.7c-0.3-0.3-0.5-0.7-0.6-1.1c-0.1-0.4-0.2-0.9-0.2-1.4
				c0-0.5,0.1-1,0.2-1.4c0.1-0.4,0.3-0.8,0.6-1.1c0.3-0.3,0.6-0.5,0.9-0.7c0.4-0.2,0.8-0.2,1.2-0.2c0.4,0,0.8,0.1,1.2,0.2
				c0.4,0.2,0.7,0.4,0.9,0.7c0.3,0.3,0.5,0.7,0.6,1.1C1145.9,831.8,1145.9,832.2,1145.9,832.8z M1144.8,832.8c0-0.7-0.2-1.3-0.5-1.7
				c-0.3-0.4-0.7-0.6-1.3-0.6c-0.5,0-1,0.2-1.3,0.6s-0.5,1-0.5,1.7c0,0.7,0.2,1.3,0.5,1.7s0.7,0.6,1.3,0.6c0.5,0,1-0.2,1.3-0.6
				C1144.6,834.1,1144.8,833.5,1144.8,832.8z"/>
			<path class="st2" d="M1148.7,829.7c0.1-0.1,0.3-0.2,0.6-0.3c0.3-0.1,0.6-0.1,0.9-0.1c0.4,0,0.8,0.1,1.2,0.3s0.6,0.4,0.9,0.7
				s0.4,0.7,0.5,1.1s0.2,0.9,0.2,1.4c0,0.5-0.1,1-0.2,1.4s-0.4,0.8-0.6,1.1s-0.6,0.5-1,0.7s-0.8,0.2-1.3,0.2c-0.5,0-1,0-1.4-0.1
				s-0.7-0.1-1-0.2v-9.3l1.2-0.2V829.7z M1148.7,835c0.2,0,0.4,0.1,0.5,0.1c0.2,0,0.3,0,0.5,0c0.6,0,1.1-0.2,1.5-0.6s0.5-1,0.5-1.8
				c0-0.3,0-0.7-0.1-0.9c-0.1-0.3-0.2-0.5-0.3-0.8c-0.1-0.2-0.3-0.4-0.5-0.5c-0.2-0.1-0.5-0.2-0.8-0.2c-0.3,0-0.5,0.1-0.8,0.2
				s-0.4,0.2-0.6,0.3V835z"/>
			<path class="st2" d="M1159.9,832.8c0,0.5-0.1,1-0.2,1.4c-0.1,0.4-0.3,0.8-0.6,1.1c-0.3,0.3-0.6,0.5-0.9,0.7
				c-0.4,0.2-0.8,0.2-1.2,0.2c-0.4,0-0.8-0.1-1.2-0.2s-0.7-0.4-0.9-0.7c-0.3-0.3-0.5-0.7-0.6-1.1c-0.1-0.4-0.2-0.9-0.2-1.4
				c0-0.5,0.1-1,0.2-1.4c0.1-0.4,0.3-0.8,0.6-1.1c0.3-0.3,0.6-0.5,0.9-0.7c0.4-0.2,0.8-0.2,1.2-0.2c0.4,0,0.8,0.1,1.2,0.2
				c0.4,0.2,0.7,0.4,0.9,0.7c0.3,0.3,0.5,0.7,0.6,1.1C1159.9,831.8,1159.9,832.2,1159.9,832.8z M1158.8,832.8c0-0.7-0.2-1.3-0.5-1.7
				c-0.3-0.4-0.7-0.6-1.3-0.6c-0.5,0-1,0.2-1.3,0.6s-0.5,1-0.5,1.7c0,0.7,0.2,1.3,0.5,1.7s0.7,0.6,1.3,0.6c0.5,0,1-0.2,1.3-0.6
				C1158.6,834.1,1158.8,833.5,1158.8,832.8z"/>
			<path class="st2" d="M1172.4,834.4c0-0.2-0.1-0.4-0.3-0.6s-0.4-0.3-0.7-0.4s-0.6-0.2-0.9-0.3s-0.6-0.2-0.9-0.4
				c-0.3-0.2-0.5-0.4-0.7-0.6s-0.3-0.5-0.3-0.9c0-0.5,0.2-1,0.6-1.3c0.4-0.3,1.1-0.5,2-0.5c0.4,0,0.7,0,1.1,0.1
				c0.4,0.1,0.7,0.1,1,0.2l-0.2,1c-0.1,0-0.2-0.1-0.3-0.1s-0.3-0.1-0.4-0.1c-0.2,0-0.3-0.1-0.5-0.1s-0.4,0-0.6,0
				c-1,0-1.5,0.3-1.5,0.8c0,0.2,0.1,0.4,0.3,0.5c0.2,0.1,0.4,0.3,0.7,0.4c0.3,0.1,0.6,0.2,0.9,0.3c0.3,0.1,0.6,0.3,0.9,0.4
				s0.5,0.4,0.7,0.6c0.2,0.2,0.3,0.5,0.3,0.9c0,0.6-0.2,1-0.7,1.4c-0.5,0.3-1.2,0.5-2.2,0.5c-0.4,0-0.9,0-1.2-0.1s-0.7-0.2-1.1-0.3
				l0.2-1c0.3,0.1,0.7,0.3,1,0.4c0.4,0.1,0.7,0.1,1.2,0.1C1171.9,835.2,1172.4,834.9,1172.4,834.4z"/>
			<path class="st2" d="M1177.1,830.5h-1.9v-1h3v4c0,0.6,0.1,1.1,0.3,1.3s0.4,0.3,0.8,0.3c0.3,0,0.5,0,0.7-0.1
				c0.2-0.1,0.4-0.1,0.5-0.2l0.2,1c-0.1,0-0.1,0.1-0.2,0.1c-0.1,0-0.2,0.1-0.4,0.1s-0.3,0.1-0.4,0.1c-0.2,0-0.3,0-0.5,0
				c-0.4,0-0.8-0.1-1-0.2c-0.3-0.1-0.5-0.3-0.7-0.5c-0.2-0.2-0.3-0.5-0.3-0.8c-0.1-0.3-0.1-0.7-0.1-1.2V830.5z M1177.4,828.5
				c-0.2,0-0.5-0.1-0.6-0.3s-0.3-0.4-0.3-0.7c0-0.3,0.1-0.5,0.3-0.7s0.4-0.3,0.6-0.3c0.3,0,0.5,0.1,0.6,0.3c0.2,0.2,0.3,0.4,0.3,0.7
				c0,0.3-0.1,0.5-0.3,0.7C1177.9,828.4,1177.7,828.5,1177.4,828.5z"/>
			<path class="st2" d="M1182.5,829.7c0.4-0.1,0.8-0.2,1.3-0.2c0.4-0.1,0.8-0.1,1.2-0.1c0.9,0,1.5,0.2,2,0.7s0.7,1.2,0.7,2.2v3.8
				h-1.1v-3.6c0-0.4,0-0.8-0.1-1c-0.1-0.3-0.2-0.5-0.3-0.6c-0.1-0.1-0.3-0.2-0.5-0.3c-0.2-0.1-0.4-0.1-0.6-0.1c-0.2,0-0.4,0-0.6,0
				c-0.2,0-0.4,0.1-0.6,0.1v5.5h-1.2V829.7z"/>
		</g>
		<g class="st1">
			<path class="st2" d="M1139.1,847.5c-0.2,0.6-0.4,1.2-0.6,1.8s-0.4,1.2-0.7,1.7c-0.2,0.6-0.5,1.1-0.7,1.6c-0.2,0.5-0.5,1-0.7,1.4
				h-1.1c-0.4-0.9-0.9-1.9-1.3-3c-0.4-1.1-0.8-2.3-1.2-3.5h1.3c0.1,0.4,0.2,0.8,0.4,1.3c0.1,0.5,0.3,0.9,0.5,1.4
				c0.2,0.5,0.3,0.9,0.5,1.3s0.3,0.8,0.5,1.1c0.2-0.3,0.3-0.7,0.5-1.1c0.2-0.4,0.3-0.9,0.5-1.3c0.2-0.5,0.3-0.9,0.5-1.4
				c0.2-0.5,0.3-0.9,0.4-1.3H1139.1z"/>
			<path class="st2" d="M1142.1,848.5h-1.9v-1h3v4c0,0.6,0.1,1.1,0.3,1.3s0.4,0.3,0.8,0.3c0.3,0,0.5,0,0.7-0.1
				c0.2-0.1,0.4-0.1,0.5-0.2l0.2,1c-0.1,0-0.1,0.1-0.2,0.1c-0.1,0-0.2,0.1-0.4,0.1s-0.3,0.1-0.4,0.1c-0.2,0-0.3,0-0.5,0
				c-0.4,0-0.8-0.1-1-0.2c-0.3-0.1-0.5-0.3-0.7-0.5c-0.2-0.2-0.3-0.5-0.3-0.8c-0.1-0.3-0.1-0.7-0.1-1.2V848.5z M1142.4,846.5
				c-0.2,0-0.5-0.1-0.6-0.3s-0.3-0.4-0.3-0.7c0-0.3,0.1-0.5,0.3-0.7s0.4-0.3,0.6-0.3c0.3,0,0.5,0.1,0.6,0.3c0.2,0.2,0.3,0.4,0.3,0.7
				c0,0.3-0.1,0.5-0.3,0.7C1142.9,846.4,1142.7,846.5,1142.4,846.5z"/>
			<path class="st2" d="M1152.9,850.8c0,0.5-0.1,1-0.2,1.4c-0.1,0.4-0.3,0.8-0.6,1.1c-0.3,0.3-0.6,0.5-0.9,0.7
				c-0.4,0.2-0.8,0.2-1.2,0.2c-0.4,0-0.8-0.1-1.2-0.2s-0.7-0.4-0.9-0.7c-0.3-0.3-0.5-0.7-0.6-1.1c-0.1-0.4-0.2-0.9-0.2-1.4
				c0-0.5,0.1-1,0.2-1.4c0.1-0.4,0.3-0.8,0.6-1.1c0.3-0.3,0.6-0.5,0.9-0.7c0.4-0.2,0.8-0.2,1.2-0.2c0.4,0,0.8,0.1,1.2,0.2
				c0.4,0.2,0.7,0.4,0.9,0.7c0.3,0.3,0.5,0.7,0.6,1.1C1152.9,849.8,1152.9,850.2,1152.9,850.8z M1151.8,850.8c0-0.7-0.2-1.3-0.5-1.7
				c-0.3-0.4-0.7-0.6-1.3-0.6c-0.5,0-1,0.2-1.3,0.6s-0.5,1-0.5,1.7c0,0.7,0.2,1.3,0.5,1.7s0.7,0.6,1.3,0.6c0.5,0,1-0.2,1.3-0.6
				C1151.6,852.1,1151.8,851.5,1151.8,850.8z"/>
			<path class="st2" d="M1158.2,854.2c-0.4,0-0.8-0.1-1-0.2c-0.3-0.1-0.5-0.3-0.6-0.5c-0.2-0.2-0.3-0.5-0.3-0.8
				c-0.1-0.3-0.1-0.7-0.1-1.2v-6.1h-1.9v-1h3v7.1c0,0.3,0,0.6,0.1,0.8s0.1,0.4,0.2,0.5c0.1,0.1,0.2,0.2,0.3,0.3
				c0.1,0,0.3,0.1,0.5,0.1c0.3,0,0.5,0,0.8-0.1c0.2-0.1,0.4-0.1,0.5-0.2l0.2,1c-0.1,0-0.1,0.1-0.2,0.1c-0.1,0-0.2,0.1-0.4,0.1
				s-0.3,0.1-0.5,0.1C1158.6,854.1,1158.4,854.2,1158.2,854.2z"/>
			<path class="st2" d="M1164.1,847.3c0.9,0,1.6,0.3,2,0.8c0.5,0.5,0.7,1.4,0.7,2.5v0.4h-4.6c0,0.7,0.3,1.2,0.7,1.5
				c0.4,0.4,1,0.5,1.7,0.5c0.4,0,0.8,0,1-0.1c0.3-0.1,0.5-0.1,0.7-0.2l0.2,1c-0.1,0.1-0.4,0.2-0.8,0.2c-0.4,0.1-0.8,0.1-1.2,0.1
				c-0.6,0-1.1-0.1-1.5-0.3c-0.4-0.2-0.8-0.4-1.1-0.7c-0.3-0.3-0.5-0.7-0.6-1.1c-0.1-0.4-0.2-0.9-0.2-1.4c0-0.6,0.1-1.1,0.3-1.5
				c0.2-0.4,0.4-0.8,0.7-1.1c0.3-0.3,0.6-0.5,1-0.6C1163.4,847.4,1163.7,847.3,1164.1,847.3z M1165.7,850.1c0-0.6-0.1-1-0.4-1.3
				c-0.3-0.3-0.7-0.5-1.1-0.5c-0.3,0-0.5,0.1-0.7,0.2s-0.4,0.2-0.6,0.4c-0.2,0.2-0.3,0.4-0.4,0.6s-0.2,0.4-0.2,0.7H1165.7z"/>
			<path class="st2" d="M1168.5,847.7c0.4-0.1,0.8-0.2,1.3-0.2c0.4-0.1,0.8-0.1,1.2-0.1c0.9,0,1.5,0.2,2,0.7s0.7,1.2,0.7,2.2v3.8
				h-1.1v-3.6c0-0.4,0-0.8-0.1-1c-0.1-0.3-0.2-0.5-0.3-0.6c-0.1-0.1-0.3-0.2-0.5-0.3c-0.2-0.1-0.4-0.1-0.6-0.1c-0.2,0-0.4,0-0.6,0
				c-0.2,0-0.4,0.1-0.6,0.1v5.5h-1.2V847.7z"/>
			<path class="st2" d="M1175.2,850.8c0-0.6,0.1-1.1,0.3-1.5c0.2-0.4,0.4-0.8,0.8-1.1c0.3-0.3,0.7-0.5,1.1-0.6
				c0.4-0.1,0.9-0.2,1.4-0.2c0.3,0,0.6,0,0.9,0.1s0.6,0.1,1,0.2l-0.3,1c-0.3-0.1-0.6-0.2-0.8-0.2c-0.3,0-0.5,0-0.8,0
				c-0.3,0-0.7,0-1,0.1c-0.3,0.1-0.6,0.2-0.8,0.4c-0.2,0.2-0.4,0.4-0.5,0.7c-0.1,0.3-0.2,0.7-0.2,1.1c0,0.4,0.1,0.8,0.2,1.1
				c0.1,0.3,0.3,0.5,0.5,0.7c0.2,0.2,0.5,0.3,0.8,0.4c0.3,0.1,0.6,0.1,1,0.1c0.3,0,0.6,0,0.9,0c0.3,0,0.6-0.1,0.9-0.2l0.2,1
				c-0.3,0.1-0.7,0.2-1,0.3c-0.3,0.1-0.7,0.1-1.1,0.1c-0.5,0-1-0.1-1.4-0.2c-0.4-0.1-0.8-0.4-1.1-0.6s-0.6-0.6-0.7-1.1
				C1175.3,851.8,1175.2,851.3,1175.2,850.8z"/>
			<path class="st2" d="M1184.1,848.5h-1.9v-1h3v4c0,0.6,0.1,1.1,0.3,1.3s0.4,0.3,0.8,0.3c0.3,0,0.5,0,0.7-0.1
				c0.2-0.1,0.4-0.1,0.5-0.2l0.2,1c-0.1,0-0.1,0.1-0.2,0.1c-0.1,0-0.2,0.1-0.4,0.1s-0.3,0.1-0.4,0.1c-0.2,0-0.3,0-0.5,0
				c-0.4,0-0.8-0.1-1-0.2c-0.3-0.1-0.5-0.3-0.7-0.5c-0.2-0.2-0.3-0.5-0.3-0.8c-0.1-0.3-0.1-0.7-0.1-1.2V848.5z M1184.4,846.5
				c-0.2,0-0.5-0.1-0.6-0.3s-0.3-0.4-0.3-0.7c0-0.3,0.1-0.5,0.3-0.7s0.4-0.3,0.6-0.3c0.3,0,0.5,0.1,0.6,0.3c0.2,0.2,0.3,0.4,0.3,0.7
				c0,0.3-0.1,0.5-0.3,0.7C1184.9,846.4,1184.7,846.5,1184.4,846.5z"/>
			<path class="st2" d="M1192,847.3c0.5,0,0.9,0.1,1.2,0.2c0.3,0.1,0.6,0.3,0.8,0.5s0.3,0.5,0.4,0.8c0.1,0.3,0.1,0.6,0.1,1v4.1
				c-0.3,0-0.6,0.1-1.1,0.2c-0.4,0.1-0.9,0.1-1.4,0.1c-0.4,0-0.7,0-1-0.1c-0.3-0.1-0.6-0.2-0.9-0.3c-0.3-0.2-0.5-0.4-0.6-0.6
				c-0.2-0.3-0.2-0.6-0.2-1c0-0.4,0.1-0.7,0.2-0.9c0.2-0.3,0.4-0.5,0.6-0.6c0.3-0.2,0.6-0.3,0.9-0.3c0.3-0.1,0.7-0.1,1-0.1
				c0.5,0,0.9,0.1,1.3,0.2v-0.3c0-0.2,0-0.4-0.1-0.6c0-0.2-0.1-0.3-0.2-0.5c-0.1-0.1-0.3-0.3-0.5-0.4s-0.5-0.1-0.8-0.1
				c-0.4,0-0.8,0-1,0.1c-0.3,0.1-0.5,0.1-0.7,0.2l-0.1-1c0.2-0.1,0.4-0.1,0.8-0.2C1191.1,847.4,1191.5,847.3,1192,847.3z
				 M1192.1,853.2c0.3,0,0.5,0,0.8,0c0.2,0,0.4,0,0.6-0.1v-1.9c-0.1,0-0.3-0.1-0.5-0.1c-0.2,0-0.4,0-0.7,0c-0.2,0-0.4,0-0.6,0
				c-0.2,0-0.4,0.1-0.5,0.2c-0.2,0.1-0.3,0.2-0.4,0.3c-0.1,0.1-0.2,0.3-0.2,0.5c0,0.4,0.1,0.7,0.4,0.9
				C1191.2,853.1,1191.6,853.2,1192.1,853.2z"/>
		</g>
		<g class="st1">
			<path class="st2" d="M1286.5,830c0,0.5-0.1,1-0.4,1.4c-0.3,0.4-0.7,0.7-1.1,0.9c0.1,0.2,0.3,0.5,0.5,0.8c0.2,0.3,0.3,0.6,0.5,0.9
				c0.2,0.3,0.4,0.7,0.5,1s0.3,0.7,0.5,1h-1.2c-0.3-0.7-0.6-1.3-0.9-1.9c-0.3-0.6-0.7-1.1-1-1.5c-0.1,0-0.1,0-0.2,0s-0.2,0-0.2,0h-1
				v3.4h-1.2v-8.5c0.1,0,0.3-0.1,0.5-0.1c0.2,0,0.4,0,0.6-0.1c0.2,0,0.4,0,0.6,0c0.2,0,0.4,0,0.5,0c1,0,1.8,0.2,2.4,0.7
				C1286.3,828.4,1286.5,829.1,1286.5,830z M1283.5,828.2c-0.2,0-0.4,0-0.6,0c-0.2,0-0.3,0-0.4,0v3.3h0.7c0.3,0,0.6,0,0.9-0.1
				c0.3,0,0.5-0.1,0.7-0.3c0.2-0.1,0.3-0.3,0.4-0.5s0.2-0.5,0.2-0.9c0-0.3-0.1-0.6-0.2-0.8c-0.1-0.2-0.2-0.4-0.4-0.5
				s-0.4-0.2-0.6-0.3C1284,828.3,1283.7,828.2,1283.5,828.2z"/>
			<path class="st2" d="M1293.9,832.8c0,0.5-0.1,1-0.2,1.4c-0.1,0.4-0.3,0.8-0.6,1.1c-0.3,0.3-0.6,0.5-0.9,0.7
				c-0.4,0.2-0.8,0.2-1.2,0.2c-0.4,0-0.8-0.1-1.2-0.2s-0.7-0.4-0.9-0.7c-0.3-0.3-0.5-0.7-0.6-1.1c-0.1-0.4-0.2-0.9-0.2-1.4
				c0-0.5,0.1-1,0.2-1.4c0.1-0.4,0.3-0.8,0.6-1.1c0.3-0.3,0.6-0.5,0.9-0.7c0.4-0.2,0.8-0.2,1.2-0.2c0.4,0,0.8,0.1,1.2,0.2
				c0.4,0.2,0.7,0.4,0.9,0.7c0.3,0.3,0.5,0.7,0.6,1.1C1293.9,831.8,1293.9,832.2,1293.9,832.8z M1292.8,832.8c0-0.7-0.2-1.3-0.5-1.7
				c-0.3-0.4-0.7-0.6-1.3-0.6c-0.5,0-1,0.2-1.3,0.6s-0.5,1-0.5,1.7c0,0.7,0.2,1.3,0.5,1.7s0.7,0.6,1.3,0.6c0.5,0,1-0.2,1.3-0.6
				C1292.6,834.1,1292.8,833.5,1292.8,832.8z"/>
			<path class="st2" d="M1296.7,829.7c0.1-0.1,0.3-0.2,0.6-0.3c0.3-0.1,0.6-0.1,0.9-0.1c0.4,0,0.8,0.1,1.2,0.3s0.6,0.4,0.9,0.7
				s0.4,0.7,0.5,1.1s0.2,0.9,0.2,1.4c0,0.5-0.1,1-0.2,1.4s-0.4,0.8-0.6,1.1s-0.6,0.5-1,0.7s-0.8,0.2-1.3,0.2c-0.5,0-1,0-1.4-0.1
				s-0.7-0.1-1-0.2v-9.3l1.2-0.2V829.7z M1296.7,835c0.2,0,0.4,0.1,0.5,0.1c0.2,0,0.3,0,0.5,0c0.6,0,1.1-0.2,1.5-0.6s0.5-1,0.5-1.8
				c0-0.3,0-0.7-0.1-0.9c-0.1-0.3-0.2-0.5-0.3-0.8c-0.1-0.2-0.3-0.4-0.5-0.5c-0.2-0.1-0.5-0.2-0.8-0.2c-0.3,0-0.5,0.1-0.8,0.2
				s-0.4,0.2-0.6,0.3V835z"/>
			<path class="st2" d="M1307.9,832.8c0,0.5-0.1,1-0.2,1.4c-0.1,0.4-0.3,0.8-0.6,1.1c-0.3,0.3-0.6,0.5-0.9,0.7
				c-0.4,0.2-0.8,0.2-1.2,0.2c-0.4,0-0.8-0.1-1.2-0.2s-0.7-0.4-0.9-0.7c-0.3-0.3-0.5-0.7-0.6-1.1c-0.1-0.4-0.2-0.9-0.2-1.4
				c0-0.5,0.1-1,0.2-1.4c0.1-0.4,0.3-0.8,0.6-1.1c0.3-0.3,0.6-0.5,0.9-0.7c0.4-0.2,0.8-0.2,1.2-0.2c0.4,0,0.8,0.1,1.2,0.2
				c0.4,0.2,0.7,0.4,0.9,0.7c0.3,0.3,0.5,0.7,0.6,1.1C1307.9,831.8,1307.9,832.2,1307.9,832.8z M1306.8,832.8c0-0.7-0.2-1.3-0.5-1.7
				c-0.3-0.4-0.7-0.6-1.3-0.6c-0.5,0-1,0.2-1.3,0.6s-0.5,1-0.5,1.7c0,0.7,0.2,1.3,0.5,1.7s0.7,0.6,1.3,0.6c0.5,0,1-0.2,1.3-0.6
				C1306.6,834.1,1306.8,833.5,1306.8,832.8z"/>
			<path class="st2" d="M1316.2,832.8c0-0.6,0.1-1.1,0.3-1.5c0.2-0.4,0.4-0.8,0.8-1.1c0.3-0.3,0.7-0.5,1.1-0.6
				c0.4-0.1,0.9-0.2,1.4-0.2c0.3,0,0.6,0,0.9,0.1s0.6,0.1,1,0.2l-0.3,1c-0.3-0.1-0.6-0.2-0.8-0.2c-0.3,0-0.5,0-0.8,0
				c-0.3,0-0.7,0-1,0.1c-0.3,0.1-0.6,0.2-0.8,0.4c-0.2,0.2-0.4,0.4-0.5,0.7c-0.1,0.3-0.2,0.7-0.2,1.1c0,0.4,0.1,0.8,0.2,1.1
				c0.1,0.3,0.3,0.5,0.5,0.7c0.2,0.2,0.5,0.3,0.8,0.4c0.3,0.1,0.6,0.1,1,0.1c0.3,0,0.6,0,0.9,0c0.3,0,0.6-0.1,0.9-0.2l0.2,1
				c-0.3,0.1-0.7,0.2-1,0.3c-0.3,0.1-0.7,0.1-1.1,0.1c-0.5,0-1-0.1-1.4-0.2c-0.4-0.1-0.8-0.4-1.1-0.6s-0.6-0.6-0.7-1.1
				C1316.3,833.8,1316.2,833.3,1316.2,832.8z"/>
			<path class="st2" d="M1328.9,832.8c0,0.5-0.1,1-0.2,1.4c-0.1,0.4-0.3,0.8-0.6,1.1c-0.3,0.3-0.6,0.5-0.9,0.7
				c-0.4,0.2-0.8,0.2-1.2,0.2c-0.4,0-0.8-0.1-1.2-0.2s-0.7-0.4-0.9-0.7c-0.3-0.3-0.5-0.7-0.6-1.1c-0.1-0.4-0.2-0.9-0.2-1.4
				c0-0.5,0.1-1,0.2-1.4c0.1-0.4,0.3-0.8,0.6-1.1c0.3-0.3,0.6-0.5,0.9-0.7c0.4-0.2,0.8-0.2,1.2-0.2c0.4,0,0.8,0.1,1.2,0.2
				c0.4,0.2,0.7,0.4,0.9,0.7c0.3,0.3,0.5,0.7,0.6,1.1C1328.9,831.8,1328.9,832.2,1328.9,832.8z M1327.8,832.8c0-0.7-0.2-1.3-0.5-1.7
				c-0.3-0.4-0.7-0.6-1.3-0.6c-0.5,0-1,0.2-1.3,0.6s-0.5,1-0.5,1.7c0,0.7,0.2,1.3,0.5,1.7s0.7,0.6,1.3,0.6c0.5,0,1-0.2,1.3-0.6
				C1327.6,834.1,1327.8,833.5,1327.8,832.8z"/>
			<path class="st2" d="M1330.5,829.7c0.4-0.1,0.8-0.2,1.3-0.2c0.4-0.1,0.8-0.1,1.2-0.1c0.9,0,1.5,0.2,2,0.7s0.7,1.2,0.7,2.2v3.8
				h-1.1v-3.6c0-0.4,0-0.8-0.1-1c-0.1-0.3-0.2-0.5-0.3-0.6c-0.1-0.1-0.3-0.2-0.5-0.3c-0.2-0.1-0.4-0.1-0.6-0.1c-0.2,0-0.4,0-0.6,0
				c-0.2,0-0.4,0.1-0.6,0.1v5.5h-1.2V829.7z"/>
		</g>
		<g class="st1">
			<path class="st2" d="M1287.1,847.5c-0.2,0.6-0.4,1.2-0.6,1.8s-0.4,1.2-0.7,1.7c-0.2,0.6-0.5,1.1-0.7,1.6c-0.2,0.5-0.5,1-0.7,1.4
				h-1.1c-0.4-0.9-0.9-1.9-1.3-3c-0.4-1.1-0.8-2.3-1.2-3.5h1.3c0.1,0.4,0.2,0.8,0.4,1.3c0.1,0.5,0.3,0.9,0.5,1.4
				c0.2,0.5,0.3,0.9,0.5,1.3s0.3,0.8,0.5,1.1c0.2-0.3,0.3-0.7,0.5-1.1c0.2-0.4,0.3-0.9,0.5-1.3c0.2-0.5,0.3-0.9,0.5-1.4
				c0.2-0.5,0.3-0.9,0.4-1.3H1287.1z"/>
			<path class="st2" d="M1290.1,848.5h-1.9v-1h3v4c0,0.6,0.1,1.1,0.3,1.3s0.4,0.3,0.8,0.3c0.3,0,0.5,0,0.7-0.1
				c0.2-0.1,0.4-0.1,0.5-0.2l0.2,1c-0.1,0-0.1,0.1-0.2,0.1c-0.1,0-0.2,0.1-0.4,0.1s-0.3,0.1-0.4,0.1c-0.2,0-0.3,0-0.5,0
				c-0.4,0-0.8-0.1-1-0.2c-0.3-0.1-0.5-0.3-0.7-0.5c-0.2-0.2-0.3-0.5-0.3-0.8c-0.1-0.3-0.1-0.7-0.1-1.2V848.5z M1290.4,846.5
				c-0.2,0-0.5-0.1-0.6-0.3s-0.3-0.4-0.3-0.7c0-0.3,0.1-0.5,0.3-0.7s0.4-0.3,0.6-0.3c0.3,0,0.5,0.1,0.6,0.3c0.2,0.2,0.3,0.4,0.3,0.7
				c0,0.3-0.1,0.5-0.3,0.7C1290.9,846.4,1290.7,846.5,1290.4,846.5z"/>
			<path class="st2" d="M1300.9,850.8c0,0.5-0.1,1-0.2,1.4c-0.1,0.4-0.3,0.8-0.6,1.1c-0.3,0.3-0.6,0.5-0.9,0.7
				c-0.4,0.2-0.8,0.2-1.2,0.2c-0.4,0-0.8-0.1-1.2-0.2s-0.7-0.4-0.9-0.7c-0.3-0.3-0.5-0.7-0.6-1.1c-0.1-0.4-0.2-0.9-0.2-1.4
				c0-0.5,0.1-1,0.2-1.4c0.1-0.4,0.3-0.8,0.6-1.1c0.3-0.3,0.6-0.5,0.9-0.7c0.4-0.2,0.8-0.2,1.2-0.2c0.4,0,0.8,0.1,1.2,0.2
				c0.4,0.2,0.7,0.4,0.9,0.7c0.3,0.3,0.5,0.7,0.6,1.1C1300.9,849.8,1300.9,850.2,1300.9,850.8z M1299.8,850.8c0-0.7-0.2-1.3-0.5-1.7
				c-0.3-0.4-0.7-0.6-1.3-0.6c-0.5,0-1,0.2-1.3,0.6s-0.5,1-0.5,1.7c0,0.7,0.2,1.3,0.5,1.7s0.7,0.6,1.3,0.6c0.5,0,1-0.2,1.3-0.6
				C1299.6,852.1,1299.8,851.5,1299.8,850.8z"/>
			<path class="st2" d="M1306.2,854.2c-0.4,0-0.8-0.1-1-0.2c-0.3-0.1-0.5-0.3-0.6-0.5c-0.2-0.2-0.3-0.5-0.3-0.8
				c-0.1-0.3-0.1-0.7-0.1-1.2v-6.1h-1.9v-1h3v7.1c0,0.3,0,0.6,0.1,0.8s0.1,0.4,0.2,0.5c0.1,0.1,0.2,0.2,0.3,0.3
				c0.1,0,0.3,0.1,0.5,0.1c0.3,0,0.5,0,0.8-0.1c0.2-0.1,0.4-0.1,0.5-0.2l0.2,1c-0.1,0-0.1,0.1-0.2,0.1c-0.1,0-0.2,0.1-0.4,0.1
				s-0.3,0.1-0.5,0.1C1306.6,854.1,1306.4,854.2,1306.2,854.2z"/>
			<path class="st2" d="M1312.1,847.3c0.9,0,1.6,0.3,2,0.8c0.5,0.5,0.7,1.4,0.7,2.5v0.4h-4.6c0,0.7,0.3,1.2,0.7,1.5
				c0.4,0.4,1,0.5,1.7,0.5c0.4,0,0.8,0,1-0.1c0.3-0.1,0.5-0.1,0.7-0.2l0.2,1c-0.1,0.1-0.4,0.2-0.8,0.2c-0.4,0.1-0.8,0.1-1.2,0.1
				c-0.6,0-1.1-0.1-1.5-0.3c-0.4-0.2-0.8-0.4-1.1-0.7c-0.3-0.3-0.5-0.7-0.6-1.1c-0.1-0.4-0.2-0.9-0.2-1.4c0-0.6,0.1-1.1,0.3-1.5
				c0.2-0.4,0.4-0.8,0.7-1.1c0.3-0.3,0.6-0.5,1-0.6C1311.4,847.4,1311.7,847.3,1312.1,847.3z M1313.7,850.1c0-0.6-0.1-1-0.4-1.3
				c-0.3-0.3-0.7-0.5-1.1-0.5c-0.3,0-0.5,0.1-0.7,0.2s-0.4,0.2-0.6,0.4c-0.2,0.2-0.3,0.4-0.4,0.6s-0.2,0.4-0.2,0.7H1313.7z"/>
			<path class="st2" d="M1316.5,847.7c0.4-0.1,0.8-0.2,1.3-0.2c0.4-0.1,0.8-0.1,1.2-0.1c0.9,0,1.5,0.2,2,0.7s0.7,1.2,0.7,2.2v3.8
				h-1.1v-3.6c0-0.4,0-0.8-0.1-1c-0.1-0.3-0.2-0.5-0.3-0.6c-0.1-0.1-0.3-0.2-0.5-0.3c-0.2-0.1-0.4-0.1-0.6-0.1c-0.2,0-0.4,0-0.6,0
				c-0.2,0-0.4,0.1-0.6,0.1v5.5h-1.2V847.7z"/>
			<path class="st2" d="M1323.2,850.8c0-0.6,0.1-1.1,0.3-1.5c0.2-0.4,0.4-0.8,0.8-1.1c0.3-0.3,0.7-0.5,1.1-0.6
				c0.4-0.1,0.9-0.2,1.4-0.2c0.3,0,0.6,0,0.9,0.1s0.6,0.1,1,0.2l-0.3,1c-0.3-0.1-0.6-0.2-0.8-0.2c-0.3,0-0.5,0-0.8,0
				c-0.3,0-0.7,0-1,0.1c-0.3,0.1-0.6,0.2-0.8,0.4c-0.2,0.2-0.4,0.4-0.5,0.7c-0.1,0.3-0.2,0.7-0.2,1.1c0,0.4,0.1,0.8,0.2,1.1
				c0.1,0.3,0.3,0.5,0.5,0.7c0.2,0.2,0.5,0.3,0.8,0.4c0.3,0.1,0.6,0.1,1,0.1c0.3,0,0.6,0,0.9,0c0.3,0,0.6-0.1,0.9-0.2l0.2,1
				c-0.3,0.1-0.7,0.2-1,0.3c-0.3,0.1-0.7,0.1-1.1,0.1c-0.5,0-1-0.1-1.4-0.2c-0.4-0.1-0.8-0.4-1.1-0.6s-0.6-0.6-0.7-1.1
				C1323.3,851.8,1323.2,851.3,1323.2,850.8z"/>
			<path class="st2" d="M1332.1,848.5h-1.9v-1h3v4c0,0.6,0.1,1.1,0.3,1.3s0.4,0.3,0.8,0.3c0.3,0,0.5,0,0.7-0.1
				c0.2-0.1,0.4-0.1,0.5-0.2l0.2,1c-0.1,0-0.1,0.1-0.2,0.1c-0.1,0-0.2,0.1-0.4,0.1s-0.3,0.1-0.4,0.1c-0.2,0-0.3,0-0.5,0
				c-0.4,0-0.8-0.1-1-0.2c-0.3-0.1-0.5-0.3-0.7-0.5c-0.2-0.2-0.3-0.5-0.3-0.8c-0.1-0.3-0.1-0.7-0.1-1.2V848.5z M1332.4,846.5
				c-0.2,0-0.5-0.1-0.6-0.3s-0.3-0.4-0.3-0.7c0-0.3,0.1-0.5,0.3-0.7s0.4-0.3,0.6-0.3c0.3,0,0.5,0.1,0.6,0.3c0.2,0.2,0.3,0.4,0.3,0.7
				c0,0.3-0.1,0.5-0.3,0.7C1332.9,846.4,1332.7,846.5,1332.4,846.5z"/>
			<path class="st2" d="M1340,847.3c0.5,0,0.9,0.1,1.2,0.2c0.3,0.1,0.6,0.3,0.8,0.5s0.3,0.5,0.4,0.8c0.1,0.3,0.1,0.6,0.1,1v4.1
				c-0.3,0-0.6,0.1-1.1,0.2c-0.4,0.1-0.9,0.1-1.4,0.1c-0.4,0-0.7,0-1-0.1c-0.3-0.1-0.6-0.2-0.9-0.3c-0.3-0.2-0.5-0.4-0.6-0.6
				c-0.2-0.3-0.2-0.6-0.2-1c0-0.4,0.1-0.7,0.2-0.9c0.2-0.3,0.4-0.5,0.6-0.6c0.3-0.2,0.6-0.3,0.9-0.3c0.3-0.1,0.7-0.1,1-0.1
				c0.5,0,0.9,0.1,1.3,0.2v-0.3c0-0.2,0-0.4-0.1-0.6c0-0.2-0.1-0.3-0.2-0.5c-0.1-0.1-0.3-0.3-0.5-0.4s-0.5-0.1-0.8-0.1
				c-0.4,0-0.8,0-1,0.1c-0.3,0.1-0.5,0.1-0.7,0.2l-0.1-1c0.2-0.1,0.4-0.1,0.8-0.2C1339.1,847.4,1339.5,847.3,1340,847.3z
				 M1340.1,853.2c0.3,0,0.5,0,0.8,0c0.2,0,0.4,0,0.6-0.1v-1.9c-0.1,0-0.3-0.1-0.5-0.1c-0.2,0-0.4,0-0.7,0c-0.2,0-0.4,0-0.6,0
				c-0.2,0-0.4,0.1-0.5,0.2c-0.2,0.1-0.3,0.2-0.4,0.3c-0.1,0.1-0.2,0.3-0.2,0.5c0,0.4,0.1,0.7,0.4,0.9
				C1339.2,853.1,1339.6,853.2,1340.1,853.2z"/>
		</g>
		<g id="Group_57" transform="translate(923 818)">
			<path id="Path_99" class="st3" d="M40.9,6.7c0.9-1,0.7-2.5-0.3-3.4c-0.9-0.8-2.2-0.8-3.1,0L40.9,6.7z"/>
			<path id="Path_100" class="st4" d="M41.2,4.2L41.2,4.2c-0.5-1.2-1.9-1.8-3.1-1.3c-0.2,0.1-0.4,0.2-0.6,0.4l1.3,1.3
				C39.5,4,40.4,3.9,41.2,4.2z"/>
			
				<rect id="Rectangle_1464" x="32.6" y="6.7" transform="matrix(0.7071 -0.7071 0.7071 0.7071 4.11 27.6139)" class="st3" width="5.6" height="4.2"/>
			
				<rect id="Rectangle_1465" x="31.8" y="7" transform="matrix(0.7071 -0.7071 0.7071 0.7071 4.4524 26.7945)" class="st4" width="5.6" height="2"/>
			<path id="Path_101" class="st3" d="M9.5,31.9l-1.9,1.9c-0.5,0.5-0.5,1.3,0,1.8l1.1,1.1c0.5,0.5,1.3,0.5,1.8,0l1.9-1.9L9.5,31.9z"
				/>
			<path id="Path_102" class="st4" d="M9,35.2l2-2l-1.4-1.4l-1.9,1.9c-0.5,0.5-0.5,1.3,0,1.8l0.9,0.9C8.5,36,8.6,35.6,9,35.2z"/>
			<path id="Path_103" class="st5" d="M28.9,10.1L9,30c-0.4,0.4-0.4,1.1,0,1.5c0,0,0,0,0,0l3.8,3.8c0.4,0.4,1.1,0.4,1.5,0
				c0,0,0,0,0,0l20-19.9L28.9,10.1z"/>
			<path id="Path_104" class="st6" d="M10.1,31.2l19.9-19.9l4.2,4.2l0,0l-5.3-5.3L9,30c-0.4,0.4-0.4,1.1,0,1.5c0,0,0,0,0,0l1,1
				C9.7,32.1,9.8,31.5,10.1,31.2z"/>
			<path id="Path_105" class="st7" d="M24.6,14.4c-0.6,3.4-0.4,6.9,0.5,10.2l9.1-9.1l-5.3-5.3L24.6,14.4z"/>
			<path id="Path_106" class="st8" d="M24.2,17.1l5.8-5.8l4.2,4.2l0,0l-5.3-5.3l-4.3,4.3C24.4,15.3,24.3,16.2,24.2,17.1z"/>
			<path id="Path_107" class="st4" d="M10.4,28.5L9,30c-0.4,0.4-0.4,1.1,0,1.5c0,0,0,0,0,0l3.8,3.8c0.4,0.4,1.1,0.4,1.5,0
				c0,0,0,0,0,0l1.4-1.4C15.2,33.3,10.9,29.2,10.4,28.5z"/>
			<path id="Path_108" class="st3" d="M10.1,31.2l1.4-1.4l-1.2-1.2L8.9,30c-0.4,0.4-0.4,1.1,0,1.5c0,0,0,0,0,0l1,1
				C9.7,32.1,9.8,31.5,10.1,31.2z"/>
			<path id="Path_109" class="st4" d="M29.6,6.9l7.7,7.7c0.5,0.5,0.5,1.3,0,1.8L37,16.6c-0.5,0.5-1.3,0.5-1.8,0l-7.7-7.7
				c-0.5-0.5-0.5-1.3,0-1.8l0.3-0.3C28.4,6.4,29.2,6.4,29.6,6.9z"/>
			<path id="Path_110" class="st3" d="M36.3,15.8l-7.7-7.7c-0.4-0.4-0.5-1-0.2-1.5c-0.3,0.1-0.6,0.3-0.9,0.6c-0.5,0.5-0.5,1.3,0,1.8
				l7.7,7.7c0.5,0.5,1.3,0.5,1.8,0l0.5-0.5C37.1,16.2,36.6,16.1,36.3,15.8z"/>
			<path id="Path_111" class="st8" d="M33.7,1c0.5-0.5,1.3-0.5,1.8,0l7.7,7.7c0.5,0.5,0.5,1.3,0,1.8l-0.3,0.3
				c-0.5,0.5-1.3,0.5-1.8,0l-7.7-7.7c-0.5-0.5-0.5-1.3,0-1.8L33.7,1z"/>
			<path id="Path_112" class="st6" d="M42,9.9l-7.7-7.7c-0.4-0.4-0.5-0.9-0.2-1.4c-0.3,0.1-0.5,0.3-0.7,0.6c-0.5,0.5-0.5,1.3,0,1.8
				l7.7,7.7c0.5,0.5,1.3,0.5,1.8,0c0.2-0.2,0.4-0.4,0.6-0.6C42.9,10.3,42.4,10.2,42,9.9z"/>
			<path id="Path_113" class="st9" d="M43.5,8.2l-1.8-1.8c0.6-1.2,0.4-2.6-0.5-3.6c-0.9-1-2.4-1.2-3.6-0.5l-1.8-1.8
				C35.6,0.2,35.1,0,34.6,0C34,0,33.4,0.3,33,0.9c-0.7,0.7-0.7,1.9,0,2.6c0,0,0,0,0,0l1.9,1.9l-3,3L30,6.5c-0.4-0.4-0.8-0.6-1.4-0.6
				c-0.6,0-1.2,0.3-1.6,0.9c-0.7,0.7-0.7,1.9,0,2.6c0,0,0,0,0,0l0.7,0.7C26.6,11.4,9.2,28.8,8.5,29.4c-0.7,0.7-0.7,1.8,0,2.5
				l-1.4,1.4c-0.7,0.8-0.7,2,0,2.7c0,0,0,0,0,0c0,0.1-6.9,7-7,7.1c-0.2,0.3-0.2,0.7,0,0.9c0.3,0.2,0.7,0.2,0.9,0l7.1-7.1
				c0.7,0.8,1.9,0.8,2.7,0.1c0,0,0.1-0.1,0.1-0.1l1.4-1.4c0.6,0.6,1.6,0.7,2.3,0.1c0.1-0.1-0.8,0.8,16.5-16.5c0.3-0.3,0.3-0.7,0-0.9
				s-0.7-0.3-0.9,0L15.7,32.8L15,32.1c-0.3-0.3-0.7-0.3-0.9,0c-0.3,0.3-0.3,0.7,0,0.9l0.7,0.7l-0.9,0.9c-0.2,0.2-0.4,0.2-0.6,0
				c0,0,0,0,0,0l-3.7-3.7c-0.2-0.2-0.2-0.4,0-0.6c0,0,0,0,0,0l0.9-0.9l2.2,2.2c0.3,0.3,0.7,0.3,0.9,0c0.3-0.3,0.3-0.7,0-0.9l0,0
				l-2.2-2.2l1.2-1.2l1.3,1.3c0.3,0.3,0.7,0.3,0.9,0s0.3-0.7,0-0.9l-1.3-1.3l1.4-1.4c1.4,1.4,1.4,1.5,1.8,1.5c0.4,0,0.6-0.3,0.6-0.6
				c0-0.2-0.1-0.3-0.2-0.5l-1.3-1.3l1.4-1.4l1.3,1.3c0.3,0.3,0.7,0.3,0.9,0s0.3-0.7,0-0.9l0,0L18,21.8l1.4-1.4
				c1.4,1.4,1.4,1.5,1.8,1.5c0.4,0,0.6-0.3,0.6-0.6c0-0.2-0.1-0.3-0.2-0.5l-1.3-1.3l1.4-1.4c1.4,1.4,1.4,1.5,1.8,1.5
				c0.4,0,0.6-0.3,0.6-0.6c0-0.2-0.1-0.3-0.2-0.5l-1.3-1.4l1.4-1.3c1.4,1.4,1.4,1.5,1.8,1.5c0.4,0,0.6-0.3,0.6-0.6
				c0-0.2-0.1-0.3-0.2-0.5l-1.3-1.3l1.4-1.4l1.3,1.3c0.3,0.3,0.7,0.3,0.9,0s0.3-0.7,0-0.9l-1.3-1.3l1.5-1.5l4.4,4.4l-1.5,1.5
				c-0.3,0.3-0.3,0.7,0,0.9c0.3,0.3,0.7,0.3,0.9,0l1.5-1.5c0.7,0.7,1,1.2,2,1.2c0.6,0,1.2-0.3,1.6-0.9c0.7-0.7,0.7-1.9,0-2.6
				c0,0,0,0,0,0l-1.8-1.8l3-3l1.8,1.8c0.4,0.4,0.8,0.6,1.3,0.6c0.6,0,1.2-0.3,1.6-0.9c0.7-0.6,0.8-1.7,0.2-2.4
				C43.6,8.3,43.6,8.2,43.5,8.2z M8,35c-0.2-0.2-0.2-0.5-0.1-0.7c0,0,0,0,0.1-0.1l1.4-1.4l1.9,1.9C9.3,36.8,9.8,36.8,8,35z
				 M40.8,5.4l-2.1-2.1c0.9-0.3,1.8,0.2,2.1,1.1C40.8,4.8,40.8,5.1,40.8,5.4z M36.7,15.8l-0.3,0.3c-0.2,0.2-0.5,0.2-0.7,0.1
				c0,0,0,0-0.1-0.1c-8.2-8.2-7.8-7.7-7.8-8s0.2-0.4,0.4-0.7c0.2-0.2,0.5-0.2,0.7-0.1c0,0,0,0,0.1,0.1l7.6,7.6
				C36.9,15.2,36.9,15.6,36.7,15.8z M34.9,11.3l-2-2l3-3l2,2L34.9,11.3z M42.3,10.2c-0.1,0.1-0.3,0.2-0.4,0.2c-0.4,0,0.2,0.4-8-7.8
				c-0.2-0.2-0.2-0.5-0.1-0.7c0,0,0,0,0.1-0.1c0.3-0.3,0.4-0.4,0.7-0.4c0.4,0-0.2-0.5,8,7.8c0.1,0.1,0.2,0.3,0.2,0.4
				C42.8,9.8,42.6,9.9,42.3,10.2L42.3,10.2z"/>
		</g>
		<g id="Group_55" transform="translate(1080 820)">
			<path id="Path_128" class="st6" d="M37.4,4.1H3.9C2,4.1,0.5,5.7,0.5,7.6C0.5,9.4,2,11,3.9,11h33.4c1.9,0,3.4,1.5,3.4,3.4
				c0,0,0,0,0,0V7.5c0.1-1.8-1.4-3.4-3.2-3.4C37.5,4.1,37.4,4.1,37.4,4.1z"/>
			<path id="Path_129" class="st10" d="M40.8,35.2c0,1.9-1.5,3.4-3.4,3.4c0,0,0,0,0,0H4c-1.9,0-3.4-1.5-3.4-3.4c0,0,0,0,0,0l0,0V7.5
				C0.5,9.4,2.1,11,4,11c0,0,0,0,0,0h33.4c1.9,0,3.4,1.5,3.4,3.4c0,0,0,0,0,0L40.8,35.2z"/>
			<g id="Group_46" transform="translate(34.74 10.987)">
				<path id="Path_130" class="st11" d="M2.6,0H0c1.9,0,3.4,1.5,3.4,3.4c0,0,0,0,0,0v20.7c0,1.9-1.5,3.4-3.4,3.4c0,0,0,0,0,0h2.6
					c1.9,0,3.4-1.5,3.4-3.4c0,0,0,0,0,0V3.5C6.1,1.6,4.6,0.1,2.6,0C2.7,0,2.7,0,2.6,0z"/>
				<path id="Path_131" class="st11" d="M7.4,6.1c0.7,0,1.3,0.6,1.3,1.3S8.1,8.7,7.4,8.7c0,0,0,0,0,0H6.1V6.1H7.4z"/>
			</g>
			<path id="Path_132" class="st4" d="M43.4,18.4v10.4c0,0.7-0.5,1.3-1.2,1.3c0,0,0,0-0.1,0H33l-3.4-5.2l3.4-5.2h9.1
				C42.8,19.7,43.4,19.1,43.4,18.4z"/>
			<path id="Path_133" class="st10" d="M42.1,19.6h-1.3v9.1c0,0.7-0.5,1.3-1.2,1.3c0,0,0,0-0.1,0h2.6c0.7,0,1.3-0.5,1.3-1.2
				c0,0,0,0,0-0.1V18.4C43.4,19,42.9,19.6,42.1,19.6C42.1,19.6,42.1,19.6,42.1,19.6z"/>
			<path id="Path_134" class="st7" d="M31.5,7.5H5.6l0.9-3.4l0.9-3.4l12.1,3.4L31.5,7.5z"/>
			<path id="Path_135" class="st11" d="M37.4,4.1h-2.6c1.9,0,3.4,1.5,3.4,3.4c0,0,0,0,0,0v3.6c1.5,0.4,2.6,1.8,2.6,3.3V7.5
				c0.1-1.8-1.4-3.4-3.2-3.4C37.5,4.1,37.4,4.1,37.4,4.1z"/>
			<path id="Path_136" class="st5" d="M35.6,23.1c0.9,0,1.7,0.8,1.7,1.7s-0.8,1.7-1.7,1.7c-0.9,0-1.7-0.8-1.7-1.7v0
				C33.9,23.9,34.7,23.1,35.6,23.1z"/>
			<path id="Path_137" class="st9" d="M42.1,16.4h-0.7V7.5c0-2.3-1.8-4.1-4.1-4.1H19.5L7.5,0H6.9v0.1l0,0L6.2,3H4.1
				C1.8,3,0,4.8,0,7.1l0,0v22.5c0,0.4,0.3,0.7,0.7,0.7s0.7-0.3,0.7-0.7v-19c0.8,0.7,1.8,1.1,2.8,1.1h33.4c1.6,0,2.8,1.3,2.8,2.8V19
				h-7.5c0,0,0,0.1-0.1,0.1c0,0,0,0,0,0l0,0l-3.4,5.2c0,0.1-0.1,0.1-0.1,0.1v0.1l0,0v0.1l0,0v0.1l0,0v0.1l0,0v0.1l0,0v0.1l0,0v0.1
				l0,0v0.1c0,0.1,0.1,0.1,0.1,0.1l3.4,5.2l0,0c0,0,0,0.1,0.1,0.1c0,0,0,0,0,0l0,0l0.1,0.1l0,0l0.1,0.1l0,0c0,0,0.1,0,0.1,0.1
				c0,0,0,0,0,0h7.4v4.5c0,1.6-1.3,2.8-2.8,2.8H4.2c-1.6,0-2.8-1.3-2.8-2.8l0,0v-2.6c0-0.4-0.3-0.7-0.7-0.7S0,32,0,32.3v2.6l0,0
				C0,37.2,1.8,39,4.1,39c0,0,0,0,0,0h33.4c2.3,0,4.1-1.8,4.1-4.1l0,0v-4.5h0.7c1.1,0,2-0.9,2-2v-10C44.1,17.3,43.2,16.4,42.1,16.4z
				 M42.7,28.7c0,0.4-0.3,0.7-0.7,0.7h-8.7l-3-4.5l3-4.5h8.8c0.2,0,0.4,0,0.6-0.1V28.7L42.7,28.7z M7.9,1.5l11.4,3.3l0,0l7.7,2.2
				H6.5L7.9,1.5z M37.4,10.4H4c-1.6,0-2.8-1.3-2.8-2.8S2.4,4.7,4,4.7h1.8L5.2,6.9H4c-0.4,0-0.7,0.3-0.7,0.7c0,0.4,0.3,0.7,0.7,0.7
				h32.5c0.4,0,0.7-0.3,0.7-0.7s-0.3-0.7-0.7-0.7h-4.8l-7.5-2.1h13.3c1.6,0,2.8,1.3,2.8,2.8v3.9C39.4,10.8,38.4,10.4,37.4,10.4
				L37.4,10.4z M41.4,17.7h0.7c0.4,0,0.7,0.3,0.7,0.7c0,0.4-0.3,0.7-0.7,0.7h-0.6L41.4,17.7L41.4,17.7z"/>
			<path id="Path_138" class="st9" d="M35.6,22.5c-1.3,0-2.4,1.1-2.4,2.4c0,1.3,1,2.4,2.3,2.4c0,0,0,0,0.1,0c1.3,0,2.4-1.1,2.4-2.4
				C38,23.6,37,22.5,35.6,22.5C35.6,22.5,35.6,22.5,35.6,22.5z M35.6,25.9c-0.6,0-1.1-0.5-1.1-1.1c0-0.6,0.5-1.1,1.1-1.1
				s1.1,0.5,1.1,1.1C36.7,25.4,36.2,25.9,35.6,25.9L35.6,25.9z"/>
		</g>
		<g id="Group_56" transform="translate(1236.585 815)">
			<path id="Path_114" class="st12" d="M30.3,0.8L29,1.6c-0.1,0.1-0.1,0.1-0.1,0.1L25,6.8l0.7,1l7.1-4.4l-1.6-2.6
				C30.9,0.7,30.6,0.7,30.3,0.8z"/>
			<path id="Path_115" class="st3" d="M32.6,8.2l1.7-1c0.2-0.1,0.3-0.4,0.2-0.7L32,2.5l-14.1,8.8l3.8,6.1L32,10.9
				c0.5-0.3,0.6-0.9,0.3-1.4l0,0C32.1,9.1,32.2,8.6,32.6,8.2C32.6,8.3,32.6,8.3,32.6,8.2z"/>
			<path id="Path_116" class="st13" d="M33.7,5.2L19.6,14l2,3.3L32,10.9c0.5-0.3,0.6-0.9,0.3-1.4c-0.3-0.5-0.1-1.1,0.3-1.4l1.7-1
				c0.2-0.1,0.3-0.4,0.2-0.7L33.7,5.2z"/>
			<path id="Path_117" class="st12" d="M0.9,23.8l0.9-0.6C2.1,23,2.5,22.9,2.9,23l0.6,0.1c0.4,0.1,0.8,0,1.2-0.2l2.8-1.8l2.5,3.9
				l-3.7,1.3l-5.3-2c-0.2-0.1-0.3-0.3-0.3-0.4C0.7,23.9,0.8,23.8,0.9,23.8z"/>
			<path id="Path_118" class="st5" d="M18.7,10.8L6.3,18.4c-0.4,0.3-0.6,0.9-0.4,1.4c1.4,3.2,0.3,6.9-2.6,8.7l0,0
				c-0.5,0.3-0.7,1-0.4,1.5c0,0,0,0,0,0c0.1,0.2,0.3,0.4,0.4,0.6c0.8,1.2,1.2,2.6,1,4L4,39.2c-0.1,1.4,0.1,2.8,0.6,4.1l1.7,4.1
				c0.3,0.8,1.2,1.2,2,0.9c0.1,0,0.2-0.1,0.3-0.2l5.5-3.4c1.3-0.8,1.7-2.4,0.9-3.7c0,0,0,0,0,0l-0.6-1c-0.8-1.2-1.3-2.6-1.5-4.1
				l-0.4-2.4c0.6,0.5,1.3,0.8,2,0.9c1.1,0.2,2.2,0,3.1-0.6c0.2-0.1,0.3-0.2,0.4-0.3l3.7-2.9c1.7-1.4,2.1-3.8,1-5.7l-0.9-1.4l1.7-1
				c1-0.6,1.3-1.9,0.7-2.9c0,0,0,0,0,0L18.7,10.8z M20.8,26c0.6,1,0.4,2.4-0.6,3.1l-3.5,2.8c-0.5,0.4-1.2,0.6-1.9,0.5
				c-0.7-0.1-1.3-0.5-1.6-1.1l0,0c-0.6-0.9-0.3-2.2,0.6-2.8c0,0,0,0,0.1,0l4.8-3C19.4,25.1,20.3,25.3,20.8,26
				C20.8,26,20.8,26,20.8,26L20.8,26z"/>
			<path id="Path_119" class="st6" d="M24.2,19.6l-5.5-8.8l-3.3,2l4.2,6.8c0.6,1,0.3,2.3-0.7,2.9c0,0,0,0,0,0l-1.7,1
				c0,0-7.6,4.7-8,5c-0.1,0.1-0.2,0.1-0.2,0.2c-0.8,0.7-1.7,2.2-1.1,4.8l0.4,2.4c1,5.3,3.3,8.3,4.7,9.6l1.2-0.7
				c1.3-0.8,1.7-2.4,0.9-3.7c0,0,0,0,0,0l-0.6-1c-0.8-1.2-1.3-2.6-1.5-4.1l-0.4-2.4c0.6,0.5,1.3,0.8,2,0.9c1.1,0.2,2.2,0,3.1-0.6
				c0.2-0.1,0.3-0.2,0.4-0.3l3.7-2.9c1.7-1.4,2.1-3.8,1-5.7l-0.9-1.4l1.7-1C24.5,21.9,24.8,20.6,24.2,19.6
				C24.2,19.7,24.2,19.6,24.2,19.6z M20.3,29.1l-3.5,2.8c-0.5,0.4-1.2,0.6-1.9,0.5c-0.7-0.1-1.3-0.5-1.6-1.1
				c-0.6-0.9-0.3-2.2,0.6-2.8c0,0,0,0,0.1,0l4.8-3c0.7-0.4,1.6-0.2,2.1,0.5c0,0,0,0,0,0C21.5,27,21.2,28.3,20.3,29.1L20.3,29.1z"/>
			<path id="Path_120" class="st3" d="M5.4,29.6l-2.6-0.3c0,0.3,0,0.5,0.2,0.7c0.1,0.2,0.2,0.4,0.4,0.6c0.8,1.1,1.2,2.5,1,3.9
				L4,39.1c-0.1,1.4,0.1,2.8,0.6,4.1l1.7,4.1c0.3,0.8,1.2,1.2,2,0.9c0.1,0,0.2-0.1,0.3-0.2l5.5-3.4c1.3-0.8,1.7-2.4,0.9-3.7
				c0,0,0,0,0,0l-0.6-1c-0.8-1.2-1.3-2.6-1.5-4.1l-0.4-2.4l-1.9-0.4c-1-0.2-1.8-0.9-2.3-1.7l0,0C7.5,30.3,6.5,29.8,5.4,29.6z"/>
			<path id="Path_121" class="st4" d="M15,41l-0.6-1c-0.4-0.6-0.7-1.2-0.9-1.8l-0.2-0.6c-0.1-0.2-0.1-0.4-0.2-0.6
				c0-0.1-0.1-0.2-0.1-0.4c-0.1-0.2-0.1-0.6-0.2-0.8l-0.2-1.2l-0.2-1.2l-1.9-0.4c-1-0.2-1.8-0.9-2.3-1.7l0,0
				c-0.1-0.2-0.2-0.3-0.4-0.5c-0.2,0.9-0.1,1.8,0.1,2.6l0.4,2.4c1,5.3,3.3,8.3,4.7,9.6l1.2-0.7c0.1,0,0.2-0.1,0.3-0.2l0.1-0.1
				c0.4-0.3,0.6-0.8,0.7-1.2c0-0.1,0-0.1,0.1-0.1c0-0.1,0.1-0.2,0.1-0.4v-0.4C15.4,41.8,15.2,41.4,15,41z"/>
			<path id="Path_122" class="st3" d="M21.8,20.8L13.4,26c-0.2,0.1-0.5,0.1-0.6-0.1l-3.6-5.7c-0.1-0.2-0.1-0.5,0.1-0.6l8.4-5.2
				c0.2-0.1,0.5-0.1,0.6,0.1l3.6,5.7C22,20.4,22,20.6,21.8,20.8z"/>
			<g id="Group_44" transform="translate(12.479 14.263)">
				<path id="Path_123" class="st14" d="M5.3,0.1L0.5,3C0,3.3-0.2,4,0.2,4.5c0,0,0,0,0,0c0.3,0.5,1,0.7,1.5,0.4l5.1-3.1l-1-1.5
					C5.8,0,5.5-0.1,5.3,0.1z"/>
				<path id="Path_124" class="st14" d="M3,9.1L3,9.1c0.3,0.5,1,0.7,1.5,0.4c0,0,0,0,0,0l4.7-2.9c0.2-0.1,0.2-0.4,0.1-0.6l-1-1.5
					L3.4,7.5C2.8,7.8,2.7,8.6,3,9.1z"/>
			</g>
			<path id="Path_125" class="st9" d="M18.4,24.9l-4.8,3c-1.3,0.8-1.7,2.5-0.9,3.7c0,0,0,0,0,0.1c0.5,0.7,1.2,1.3,2.1,1.4
				c0.2,0,0.4,0.1,0.6,0.1c0.7,0,1.4-0.2,2-0.7l3.5-2.8c1.2-1,1.5-2.7,0.7-4.1c-0.3-0.5-0.8-0.9-1.4-1
				C19.4,24.5,18.8,24.6,18.4,24.9z M20.2,26.4L20.2,26.4c0.5,0.7,0.3,1.6-0.4,2.1l-3.5,2.8c-0.4,0.3-0.8,0.4-1.3,0.4
				c-0.5-0.1-0.9-0.3-1.1-0.7c-0.2-0.4-0.3-0.8-0.1-1.2l0.4,0.2c0.5,0.2,1,0.4,1.5,0.4c0.6,0,1.1-0.1,1.6-0.4l0.3-0.2
				c0.3-0.2,0.4-0.6,0.2-1c-0.2-0.3-0.6-0.4-1-0.2l-0.3,0.2C16.2,29,15.5,29,15,28.7l4.2-2.6c0.1-0.1,0.3-0.1,0.4-0.1h0.2
				C20,26.1,20.1,26.2,20.2,26.4z"/>
			<path id="Path_126" class="st9" d="M35.1,6.1L32.6,2l-1-1.5c-0.2-0.3-0.5-0.5-0.8-0.6c-0.3-0.1-0.7,0-0.9,0.2L28.6,1
				c-0.1,0.1-0.2,0.2-0.3,0.3l-3.9,5.1l-6.1,3.8l0,0L6,17.9c-0.7,0.5-1,1.5-0.7,2.3c0.2,0.5,0.3,0.9,0.4,1.4l-1.4,0.9
				c-0.2,0.1-0.4,0.1-0.6,0.1l-0.6-0.1c-0.6-0.1-1.2,0-1.7,0.3l-0.9,0.6C0.2,23.6,0,24,0,24.4c0.1,0.4,0.3,0.8,0.7,1l3.7,1.4
				C4,27.3,3.5,27.7,2.9,28c-0.5,0.3-0.8,0.8-0.9,1.4v0.4l0,0v0.2l0,0c0,0.1,0,0.1,0.1,0.2v0.1c0,0.1,0,0.1,0.1,0.1v0.1
				c0,0.1,0.1,0.1,0.1,0.1v0.1c0,0,0,0.1,0.1,0.1l0,0c0.1,0.1,0.1,0.1,0.1,0.2c0,0,0.1,0.1,0.1,0.1c0,0.1,0.1,0.1,0.1,0.1
				c0,0,0,0.1,0.1,0.1c0,0,0,0,0,0l0.1,0.1c0.7,1.1,1,2.3,0.9,3.6l-0.3,4.5c-0.1,1.5,0.1,3,0.7,4.4l1.7,4.1c0.3,0.6,0.8,1.1,1.4,1.3
				c0.2,0.1,0.5,0.1,0.7,0.1c0.3,0,0.6-0.1,0.9-0.2C8.9,49,9,48.9,9.1,48.9l5.5-3.4c0.8-0.5,1.4-1.2,1.5-2.1
				c0.2-0.9,0.1-1.8-0.4-2.6l-0.6-1c-0.3-0.4-0.5-0.9-0.7-1.3c-0.4-0.8-0.6-1.6-0.7-2.5l-0.1-0.9c0.3,0.1,0.6,0.2,1,0.2
				c1.2,0.2,2.5-0.1,3.6-0.7c0.2-0.1,0.3-0.2,0.5-0.4l3.7-2.9c2-1.6,2.5-4.4,1.2-6.6L22.9,24l1.1-0.7c0.6-0.4,1.1-1.1,1.3-1.8
				c0.2-0.7,0.1-1.5-0.4-2.1l-1.4-2.1l9-5.5c0.8-0.5,1-1.5,0.6-2.3c0,0,0,0,0,0c-0.1,0-0.1-0.1,0-0.2c0,0,0,0,0,0
				c0-0.1,0.1-0.1,0.1-0.1l0.7-0.5l0,0L34.9,8c0.3-0.2,0.5-0.4,0.6-0.7C35.4,6.9,35.3,6.5,35.1,6.1z M29.4,2.2l1.1-0.7L31,2.3
				l-3.1,2L29.4,2.2z M1.7,24.1l0.4-0.2c0.2-0.1,0.4-0.1,0.6-0.1l0.6,0.1c0.6,0.1,1.2,0,1.7-0.3l0.7-0.5c-0.1,0.8-0.3,1.5-0.6,2.2
				L1.7,24.1z M13.7,40.4l0.6,1c0.3,0.4,0.4,1,0.2,1.5c-0.1,0.4-0.4,0.8-0.7,1.1c-0.1,0.1-0.1,0.1-0.2,0.1l-5.5,3.4
				c-0.2,0.1-0.5,0.2-0.7,0.1c-0.2-0.1-0.4-0.3-0.6-0.5L5.3,43c-0.5-1.2-0.7-2.5-0.6-3.7L5,34.7l0,0c0.1-1.5-0.3-3.1-1.2-4.4v-0.1
				c0,0,0-0.1-0.1-0.1c0,0,0,0,0,0l1.5,0.2C6.1,30.5,7,31,7.5,31.8c0.6,1,1.7,1.8,2.8,2l1.5,0.4l0.3,1.9c0,0.1,0.1,0.2,0.1,0.4
				C12.4,37.9,13,39.2,13.7,40.4z M23.6,20c0.2,0.3,0.2,0.7,0.2,1c-0.1,0.4-0.3,0.7-0.6,0.9l-1.7,1c-0.2,0.1-0.3,0.2-0.3,0.4
				c0,0.2,0,0.4,0.1,0.6l0.9,1.4c1,1.6,0.6,3.6-0.8,4.8L17.6,33c-0.1,0.1-0.2,0.2-0.4,0.2c-0.7,0.5-1.6,0.7-2.5,0.5
				c-0.6-0.1-1.2-0.4-1.7-0.8l0,0c0,0-0.1,0-0.1-0.1c0,0,0,0,0,0h-0.3l-1.9-0.4c-0.8-0.2-1.5-0.7-1.9-1.4c-0.7-1.2-1.9-1.9-3.3-2.1
				l-1.3-0.2c0.8-0.6,1.4-1.2,1.9-2l0.1-0.1c0.9-1.4,1.3-3.2,1.1-4.8v-0.1c-0.1-0.8-0.3-1.5-0.6-2.3c-0.1-0.2,0-0.3,0.1-0.4
				l11.7-7.3L23.6,20z M32.2,7.6L32.2,7.6l-5.1,3.2c-0.3,0.2-0.4,0.6-0.2,1c0.1,0.2,0.4,0.4,0.6,0.4c0.1,0,0.3-0.1,0.4-0.1l3.7-2.3
				c0.1,0.1,0.1,0.1,0.1,0.2s0.1,0.2-0.1,0.3l-9,5.5l-0.2-0.4l2.6-1.7c0.3-0.2,0.4-0.6,0.2-1c-0.2-0.3-0.6-0.4-1-0.2l-2.6,1.7
				l-2-3.3l5.6-3.5l0,0l6.4-4l2,3.3L32.2,7.6z"/>
			<path id="Path_127" class="st9" d="M17.4,13.7L17.4,13.7L9,18.9c-0.5,0.3-0.7,1-0.4,1.5c0,0,0,0.1,0,0.1l3.6,5.7
				c0.2,0.3,0.4,0.4,0.7,0.5c0.1,0,0.2,0.1,0.2,0.1c0.2,0,0.4-0.1,0.6-0.2l8.4-5.2c0.1,0,0.1-0.1,0.1-0.1l0,0l0.1-0.1l0,0
				c0.1-0.2,0.3-0.3,0.3-0.6c0.1-0.2,0.1-0.5-0.1-0.7l0,0c0-0.1-0.1-0.1-0.1-0.1L19,14.1c-0.1-0.2-0.3-0.4-0.6-0.5
				C18,13.5,17.7,13.5,17.4,13.7z M13.4,17.8l0.9-0.6l3.6-2.2l0.4,0.7l-4.5,2.8c-0.2,0.1-0.4,0.1-0.6-0.1
				C13.2,18.2,13.3,18,13.4,17.8z M21.2,20.3l-4.5,2.8c-0.2,0.1-0.4,0.1-0.6-0.1c-0.1-0.2-0.1-0.4,0.1-0.6l4.5-2.8L21.2,20.3z
				 M19.1,17l0.9,1.4l-4.5,2.8c-0.9,0.6-1.1,1.7-0.6,2.6c0.1,0.1,0.1,0.2,0.2,0.3l-1.9,1.2L9.9,20l1.9-1.2l0.2,0.4
				c0.4,0.5,1,0.9,1.6,0.9c0.4,0,0.7-0.1,1-0.3L19.1,17z"/>
		</g>
	</g>
</g>
</svg>
