<?xml version="1.0" encoding="utf-8"?>
<!-- Generator: Adobe Illustrator 22.1.0, SVG Export Plug-In . SVG Version: 6.00 Build 0)  -->
<svg version="1.1" id="Capa_1" xmlns="http://www.w3.org/2000/svg" xmlns:xlink="http://www.w3.org/1999/xlink" x="0px" y="0px"
	 viewBox="0 0 95 63" style="enable-background:new 0 0 95 63;" xml:space="preserve">
<style type="text/css">
	.st0{fill:#E6E6E6;}
	.st1{fill:#F7E2CF;}
	.st2{fill:#F3A96A;}
	.st3{fill:#F7C69C;}
	.st4{fill:#F3D3B7;}
	.st5{fill:#EBB688;}
	.st6{fill:#EF8D39;}
	.st7{fill:#DD6B36;}
	.st8{fill:#EB832A;}
	.st9{enable-background:new    ;}
	.st10{fill:#3B3530;}
</style>
<g id="Group_130" transform="translate(-231 -100)">
	<g transform="matrix(1, 0, 0, 1, 231, 100)">
		<circle id="Ellipse_106-2" class="st0" cx="31.5" cy="28.5" r="22.5"/>
	</g>
	<g id="Group_117" transform="translate(252 114)">
		<path id="Path_114" class="st1" d="M18.5,0.5l-0.8,0.5c0,0-0.1,0-0.1,0.1l-2.4,3.1l0.4,0.6l4.3-2.7l-1-1.6
			C18.8,0.4,18.6,0.4,18.5,0.5z"/>
		<path id="Path_115" class="st2" d="M19.9,5l1-0.6C21,4.3,21.1,4.1,21,4l-1.5-2.5l-8.6,5.3l2.3,3.7l6.3-3.9
			c0.3-0.2,0.4-0.5,0.2-0.8l0,0C19.5,5.6,19.6,5.2,19.9,5C19.8,5,19.8,5,19.9,5z"/>
		<path id="Path_116" class="st3" d="M20.5,3.2l-8.6,5.3l1.2,2l6.3-3.9c0.3-0.2,0.4-0.5,0.2-0.8c-0.2-0.3-0.1-0.6,0.2-0.8l1-0.6
			C21,4.3,21.1,4.1,21,3.9L20.5,3.2z"/>
		<path id="Path_117" class="st1" d="M0.5,14.5L1,14.1C1.3,14,1.5,14,1.8,14l0.4,0.1c0.2,0.1,0.5,0,0.7-0.1l1.7-1.1l1.5,2.4
			l-2.3,0.8l-3.2-1.2c-0.1,0-0.2-0.2-0.2-0.3C0.4,14.6,0.5,14.5,0.5,14.5z"/>
		<path id="Path_118" class="st4" d="M11.4,6.6l-7.5,4.7c-0.3,0.2-0.4,0.5-0.3,0.8C4.4,14,3.8,16.2,2,17.4l0,0
			c-0.3,0.2-0.4,0.6-0.2,0.9c0,0,0,0,0,0c0.1,0.1,0.2,0.2,0.2,0.4c0.5,0.7,0.7,1.6,0.6,2.4l-0.2,2.8c0,0.8,0.1,1.7,0.4,2.5l1,2.5
			c0.2,0.5,0.8,0.7,1.2,0.5c0.1,0,0.1-0.1,0.2-0.1l3.3-2.1c0.8-0.5,1-1.5,0.5-2.3c0,0,0,0,0,0l-0.4-0.6c-0.5-0.8-0.8-1.6-0.9-2.5
			l-0.2-1.5c0.4,0.3,0.8,0.5,1.2,0.6c0.6,0.1,1.3,0,1.9-0.4c0.1,0,0.2-0.1,0.3-0.2l2.2-1.8c1-0.8,1.3-2.3,0.6-3.5l-0.5-0.8l1-0.6
			c0.6-0.4,0.8-1.2,0.4-1.8c0,0,0,0,0,0L11.4,6.6z M12.7,15.8c0.4,0.6,0.2,1.4-0.3,1.9l-2.1,1.7c-0.3,0.3-0.7,0.4-1.2,0.3
			c-0.4-0.1-0.8-0.3-1-0.7l0,0c-0.4-0.6-0.2-1.3,0.4-1.7c0,0,0,0,0,0l3-1.8C11.8,15.3,12.4,15.4,12.7,15.8
			C12.7,15.8,12.7,15.8,12.7,15.8L12.7,15.8z"/>
		<path id="Path_119" class="st5" d="M14.7,11.9l-3.4-5.4l-2,1.2l2.6,4.1c0.4,0.6,0.2,1.4-0.4,1.8c0,0,0,0,0,0l-1,0.6
			c0,0-4.6,2.8-4.9,3c0,0-0.1,0.1-0.2,0.1c-0.8,0.8-1,1.9-0.7,2.9L5,21.8c0.3,2.2,1.3,4.2,2.8,5.8l0.7-0.4c0.8-0.5,1-1.5,0.5-2.3
			c0,0,0,0,0,0l-0.4-0.6c-0.5-0.8-0.8-1.6-0.9-2.5l-0.2-1.5c0.4,0.3,0.8,0.5,1.2,0.6c0.6,0.1,1.3,0,1.9-0.4c0.1,0,0.2-0.1,0.3-0.2
			l2.2-1.8c1-0.8,1.3-2.3,0.6-3.5l-0.5-0.8l1-0.6C14.9,13.3,15.1,12.6,14.7,11.9C14.8,12,14.7,12,14.7,11.9z M12.4,17.7l-2.1,1.7
			c-0.3,0.3-0.7,0.4-1.2,0.3c-0.4-0.1-0.8-0.3-1-0.7c-0.4-0.6-0.2-1.3,0.4-1.7c0,0,0,0,0,0l3-1.8c0.4-0.3,1-0.1,1.3,0.3c0,0,0,0,0,0
			C13.1,16.4,12.9,17.2,12.4,17.7L12.4,17.7z"/>
		<path id="Path_120" class="st2" d="M3.3,18l-1.6-0.2c0,0.2,0,0.3,0.1,0.4c0.1,0.1,0.2,0.3,0.2,0.4c0.5,0.7,0.7,1.5,0.6,2.4
			l-0.2,2.8c0,0.8,0.1,1.7,0.4,2.5l1,2.5c0.2,0.5,0.8,0.7,1.2,0.5c0.1,0,0.1-0.1,0.2-0.1l3.3-2.1c0.8-0.5,1-1.5,0.5-2.3c0,0,0,0,0,0
			l-0.4-0.6c-0.5-0.8-0.8-1.6-0.9-2.5l-0.2-1.5l-1.2-0.3c-0.6-0.1-1.1-0.5-1.4-1l0,0C4.6,18.5,4,18.1,3.3,18z"/>
		<path id="Path_121" class="st6" d="M9.1,25l-0.4-0.6c-0.2-0.3-0.4-0.7-0.6-1.1l-0.1-0.3C8,22.8,8,22.7,8,22.6c0-0.1,0-0.1,0-0.2
			c0-0.2-0.1-0.3-0.1-0.5l-0.1-0.7l-0.1-0.7l-1.2-0.3c-0.6-0.1-1.1-0.5-1.4-1l0,0c-0.1-0.1-0.2-0.2-0.2-0.3c-0.1,0.5-0.1,1.1,0,1.6
			L5,21.9c0.3,2.2,1.3,4.2,2.8,5.8l0.7-0.4c0.1,0,0.1-0.1,0.2-0.2L8.9,27c0.2-0.2,0.4-0.5,0.4-0.7c0,0,0-0.1,0-0.1
			c0-0.1,0-0.2,0-0.2v-0.2C9.4,25.5,9.3,25.2,9.1,25z"/>
		<path id="Path_122" class="st2" d="M13.3,12.7l-5.1,3.2c-0.1,0.1-0.3,0-0.4-0.1l-2.2-3.5c-0.1-0.1,0-0.3,0.1-0.4l5.1-3.2
			c0.1-0.1,0.3,0,0.4,0.1l2.2,3.5C13.4,12.4,13.4,12.6,13.3,12.7z"/>
		<g id="Group_44" transform="translate(7.602 8.688)">
			<path id="Path_123" class="st7" d="M3.2,0L0.3,1.8C0,2-0.1,2.4,0.1,2.8c0,0,0,0,0,0C0.3,3.1,0.7,3.2,1,3l3.1-1.9L3.5,0.1
				C3.5,0,3.4,0,3.2,0z"/>
			<path id="Path_124" class="st7" d="M1.9,5.5L1.9,5.5C2,5.9,2.5,6,2.8,5.8c0,0,0,0,0,0L5.7,4c0.1-0.1,0.2-0.2,0.1-0.4L5.1,2.7
				L2,4.6C1.7,4.8,1.6,5.2,1.9,5.5z"/>
		</g>
		<path id="Path_125" class="st8" d="M11.2,15.2l-3,1.8c-0.8,0.5-1,1.5-0.6,2.3c0,0,0,0,0,0C8,19.8,8.4,20.1,9,20.2
			c0.1,0,0.2,0,0.3,0c0.4,0,0.9-0.1,1.2-0.4l2.1-1.7c0.8-0.6,0.9-1.7,0.4-2.5c-0.2-0.3-0.5-0.5-0.9-0.6C11.8,14.9,11.5,15,11.2,15.2
			z M12.3,16.1L12.3,16.1c0.3,0.4,0.2,1-0.2,1.3l-2.1,1.7c-0.2,0.2-0.5,0.3-0.8,0.2c-0.3,0-0.5-0.2-0.7-0.4c-0.1-0.2-0.2-0.5,0-0.7
			l0.3,0.2c0.3,0.1,0.6,0.2,0.9,0.2c0.3,0,0.7-0.1,1-0.3l0.2-0.1c0.2-0.1,0.3-0.4,0.1-0.6c-0.1-0.2-0.4-0.3-0.6-0.1l0,0l-0.2,0.1
			c-0.3,0.2-0.7,0.2-1,0l2.5-1.6c0.1,0,0.2-0.1,0.3-0.1h0.1C12.2,15.9,12.3,16,12.3,16.1L12.3,16.1z"/>
		<path id="Path_126" class="st8" d="M21.4,3.7l-1.5-2.5l-0.6-0.9C19.2,0.2,19,0,18.8,0c-0.2,0-0.4,0-0.6,0.1l-0.8,0.5
			c-0.1,0-0.1,0.1-0.2,0.2l-2.4,3.1l-3.7,2.3l0,0l-7.5,4.7c-0.5,0.3-0.6,0.9-0.4,1.4c0.1,0.3,0.2,0.6,0.3,0.9l-0.9,0.6
			c-0.1,0.1-0.2,0.1-0.4,0.1l-0.4-0.1c-0.3-0.1-0.7,0-1,0.2l-0.5,0.3C0.1,14.4,0,14.6,0,14.9c0,0.3,0.2,0.5,0.4,0.6l2.2,0.9
			c-0.3,0.3-0.6,0.6-0.9,0.7c-0.3,0.2-0.5,0.5-0.5,0.8v0.2l0,0v0.1l0,0c0,0,0,0.1,0,0.1v0c0,0,0,0,0,0.1v0c0,0,0,0,0,0.1v0
			c0,0,0,0.1,0,0.1l0,0c0,0,0,0.1,0.1,0.1c0,0,0.1,0,0.1,0.1c0,0,0,0,0,0.1c0,0,0,0,0,0l0,0l0,0c0.4,0.6,0.6,1.4,0.6,2.2l-0.2,2.8
			c-0.1,0.9,0.1,1.8,0.4,2.7l1,2.5c0.2,0.4,0.5,0.7,0.9,0.8C4.5,30,4.6,30,4.8,30c0.2,0,0.4,0,0.6-0.1c0.1,0,0.1-0.1,0.2-0.1
			l3.3-2.1c0.5-0.3,0.8-0.8,0.9-1.3c0.1-0.5,0-1.1-0.3-1.6l-0.4-0.6C9,24,8.8,23.7,8.7,23.4c-0.2-0.5-0.4-1-0.4-1.5l-0.1-0.5
			c0.2,0.1,0.4,0.1,0.6,0.1c0.7,0.1,1.5,0,2.2-0.4c0.1-0.1,0.2-0.1,0.3-0.2l2.2-1.8c1.2-1,1.5-2.7,0.7-4l-0.3-0.4l0.7-0.4
			c0.4-0.3,0.7-0.6,0.8-1.1c0.1-0.4,0-0.9-0.2-1.3l-0.8-1.3l5.5-3.4c0.5-0.3,0.6-0.9,0.3-1.4c0,0,0,0,0,0c0,0,0-0.1,0-0.1
			c0,0,0,0,0,0c0,0,0-0.1,0.1-0.1l0.4-0.3l0,0l0.6-0.4c0.2-0.1,0.3-0.3,0.3-0.4C21.5,4.2,21.5,3.9,21.4,3.7z M17.9,1.3l0.7-0.4
			l0.3,0.5L17,2.6L17.9,1.3z M1,14.7l0.2-0.1c0.1-0.1,0.2-0.1,0.4-0.1L2,14.6c0.4,0.1,0.7,0,1-0.2l0.4-0.3c0,0.5-0.2,0.9-0.4,1.3
			L1,14.7z M8.4,24.6l0.4,0.6c0.2,0.3,0.2,0.6,0.2,0.9c-0.1,0.3-0.2,0.5-0.4,0.7c0,0-0.1,0-0.1,0.1L5,29c-0.1,0.1-0.3,0.1-0.4,0
			c-0.2,0-0.3-0.2-0.3-0.3l-1-2.5c-0.3-0.7-0.4-1.5-0.4-2.3L3,21.1l0,0c0.1-0.9-0.2-1.9-0.7-2.7v0c0,0,0,0,0,0l0,0l0.9,0.1
			c0.6,0.1,1.1,0.4,1.4,0.9c0.4,0.6,1,1.1,1.7,1.2l0.9,0.2L7.4,22c0,0.1,0,0.1,0,0.2C7.6,23.1,7.9,23.9,8.4,24.6z M14.4,12.2
			c0.1,0.2,0.2,0.4,0.1,0.6c0,0.2-0.2,0.4-0.4,0.5L13,14c-0.1,0.1-0.2,0.1-0.2,0.3c0,0.1,0,0.2,0,0.3l0.5,0.8c0.6,1,0.4,2.2-0.5,2.9
			l-2.2,1.8c-0.1,0-0.2,0.1-0.2,0.1c-0.5,0.3-1,0.4-1.5,0.3c-0.4-0.1-0.7-0.2-1-0.5l0,0c0,0,0,0,0,0c0,0,0,0,0,0H7.7l-1.2-0.3
			c-0.5-0.1-0.9-0.4-1.2-0.8c-0.4-0.7-1.2-1.2-2-1.3l-0.8-0.1c0.5-0.3,0.9-0.8,1.2-1.2l0,0c0.6-0.9,0.8-1.9,0.7-3v0
			c-0.1-0.5-0.2-0.9-0.4-1.4c0-0.1,0-0.2,0.1-0.3l7.1-4.4L14.4,12.2z M19.6,4.6L19.6,4.6l-3.1,1.9c-0.2,0.1-0.3,0.4-0.2,0.6
			c0.1,0.1,0.2,0.2,0.4,0.2c0.1,0,0.2,0,0.2-0.1L19.2,6c0,0,0,0.1,0.1,0.2s0,0.2,0,0.2l-5.5,3.4l-0.2-0.3l1.6-1
			c0.2-0.1,0.3-0.4,0.1-0.6c-0.1-0.2-0.4-0.3-0.6-0.1l-1.6,1l-1.2-2l3.4-2.1l0,0l3.9-2.4l1.2,2L19.6,4.6z"/>
		<path id="Path_127" class="st8" d="M10.6,8.4L10.6,8.4l-5.1,3.2c-0.3,0.2-0.4,0.6-0.3,0.9c0,0,0,0,0,0L7.4,16
			c0.1,0.2,0.3,0.3,0.4,0.3c0,0,0.1,0,0.2,0c0.1,0,0.3,0,0.4-0.1l5.1-3.2c0,0,0,0,0.1,0l0,0l0,0l0,0c0.1-0.1,0.2-0.2,0.2-0.3
			c0-0.1,0-0.3,0-0.4l0,0c0,0,0,0,0-0.1l-2.2-3.5c-0.1-0.1-0.2-0.3-0.4-0.3C11,8.2,10.8,8.2,10.6,8.4z M8.2,10.9l0.5-0.3l2.2-1.3
			l0.3,0.4l-2.7,1.7c-0.1,0.1-0.3,0-0.3-0.1c0,0,0,0,0,0C8,11.1,8.1,10.9,8.2,10.9z M12.9,12.4l-2.7,1.7c-0.1,0.1-0.3,0-0.3-0.1
			c-0.1-0.1,0-0.2,0.1-0.3l2.7-1.7L12.9,12.4z M11.6,10.4l0.5,0.9l-2.7,1.7c-0.5,0.3-0.7,1-0.4,1.6c0,0.1,0.1,0.1,0.2,0.2L8,15.4
			l-2-3.2l1.2-0.7l0.1,0.2c0.2,0.3,0.6,0.5,1,0.5c0.2,0,0.4-0.1,0.6-0.2L11.6,10.4z"/>
	</g>
	<g class="st9">
		<path class="st10" d="M294.4,122.6c0,0.3-0.1,0.6-0.2,0.8c-0.2,0.2-0.4,0.4-0.6,0.5c0.1,0.1,0.2,0.3,0.3,0.4
			c0.1,0.2,0.2,0.3,0.3,0.5c0.1,0.2,0.2,0.4,0.3,0.6c0.1,0.2,0.2,0.4,0.3,0.6H294c-0.2-0.4-0.3-0.8-0.5-1.1
			c-0.2-0.4-0.4-0.6-0.5-0.9c0,0-0.1,0-0.1,0s-0.1,0-0.1,0h-0.6v2h-0.7v-4.9c0.1,0,0.2,0,0.3-0.1c0.1,0,0.2,0,0.3,0
			c0.1,0,0.2,0,0.3,0c0.1,0,0.2,0,0.3,0c0.6,0,1,0.1,1.3,0.4C294.3,121.7,294.4,122,294.4,122.6z M292.7,121.6c-0.1,0-0.2,0-0.4,0
			c-0.1,0-0.2,0-0.2,0v1.9h0.4c0.2,0,0.4,0,0.5,0c0.2,0,0.3-0.1,0.4-0.1c0.1-0.1,0.2-0.2,0.3-0.3c0.1-0.1,0.1-0.3,0.1-0.5
			c0-0.2,0-0.3-0.1-0.5c-0.1-0.1-0.1-0.2-0.2-0.3c-0.1-0.1-0.2-0.1-0.3-0.2C293,121.6,292.8,121.6,292.7,121.6z"/>
		<path class="st10" d="M298.7,124.1c0,0.3,0,0.6-0.1,0.8c-0.1,0.2-0.2,0.4-0.3,0.6c-0.1,0.2-0.3,0.3-0.5,0.4
			c-0.2,0.1-0.4,0.1-0.7,0.1c-0.2,0-0.5,0-0.7-0.1c-0.2-0.1-0.4-0.2-0.5-0.4c-0.1-0.2-0.3-0.4-0.3-0.6c-0.1-0.2-0.1-0.5-0.1-0.8
			c0-0.3,0-0.6,0.1-0.8c0.1-0.2,0.2-0.4,0.3-0.6s0.3-0.3,0.5-0.4c0.2-0.1,0.4-0.1,0.7-0.1c0.2,0,0.5,0,0.7,0.1
			c0.2,0.1,0.4,0.2,0.5,0.4s0.3,0.4,0.3,0.6C298.6,123.6,298.7,123.9,298.7,124.1z M298,124.1c0-0.4-0.1-0.8-0.3-1
			c-0.2-0.2-0.4-0.4-0.7-0.4c-0.3,0-0.5,0.1-0.7,0.4c-0.2,0.2-0.3,0.6-0.3,1c0,0.4,0.1,0.7,0.3,1c0.2,0.2,0.4,0.4,0.7,0.4
			c0.3,0,0.6-0.1,0.7-0.4C297.9,124.9,298,124.6,298,124.1z"/>
		<path class="st10" d="M300.2,122.4c0.1,0,0.2-0.1,0.3-0.1s0.3-0.1,0.5-0.1c0.3,0,0.5,0,0.7,0.1c0.2,0.1,0.4,0.2,0.5,0.4
			c0.1,0.2,0.2,0.4,0.3,0.6s0.1,0.5,0.1,0.8c0,0.3,0,0.6-0.1,0.8s-0.2,0.4-0.4,0.6c-0.2,0.2-0.3,0.3-0.6,0.4s-0.5,0.1-0.7,0.1
			c-0.3,0-0.6,0-0.8-0.1c-0.2,0-0.4-0.1-0.6-0.1v-5.3l0.7-0.1V122.4z M300.2,125.4c0.1,0,0.2,0,0.3,0.1c0.1,0,0.2,0,0.3,0
			c0.4,0,0.7-0.1,0.9-0.3c0.2-0.2,0.3-0.6,0.3-1c0-0.2,0-0.4-0.1-0.5c0-0.2-0.1-0.3-0.2-0.4s-0.2-0.2-0.3-0.3s-0.3-0.1-0.5-0.1
			c-0.2,0-0.3,0-0.4,0.1c-0.1,0.1-0.3,0.1-0.3,0.2V125.4z"/>
		<path class="st10" d="M306.7,124.1c0,0.3,0,0.6-0.1,0.8c-0.1,0.2-0.2,0.4-0.3,0.6c-0.1,0.2-0.3,0.3-0.5,0.4
			c-0.2,0.1-0.4,0.1-0.7,0.1c-0.2,0-0.5,0-0.7-0.1c-0.2-0.1-0.4-0.2-0.5-0.4c-0.1-0.2-0.3-0.4-0.3-0.6c-0.1-0.2-0.1-0.5-0.1-0.8
			c0-0.3,0-0.6,0.1-0.8c0.1-0.2,0.2-0.4,0.3-0.6s0.3-0.3,0.5-0.4c0.2-0.1,0.4-0.1,0.7-0.1c0.2,0,0.5,0,0.7,0.1
			c0.2,0.1,0.4,0.2,0.5,0.4s0.3,0.4,0.3,0.6C306.6,123.6,306.7,123.9,306.7,124.1z M306,124.1c0-0.4-0.1-0.8-0.3-1
			c-0.2-0.2-0.4-0.4-0.7-0.4c-0.3,0-0.5,0.1-0.7,0.4c-0.2,0.2-0.3,0.6-0.3,1c0,0.4,0.1,0.7,0.3,1c0.2,0.2,0.4,0.4,0.7,0.4
			c0.3,0,0.6-0.1,0.7-0.4C305.9,124.9,306,124.6,306,124.1z"/>
		<path class="st10" d="M311.4,124.2c0-0.3,0.1-0.6,0.2-0.9s0.3-0.4,0.4-0.6c0.2-0.2,0.4-0.3,0.7-0.4c0.2-0.1,0.5-0.1,0.8-0.1
			c0.2,0,0.4,0,0.5,0c0.2,0,0.4,0.1,0.6,0.1l-0.2,0.6c-0.2-0.1-0.3-0.1-0.5-0.1c-0.1,0-0.3,0-0.4,0c-0.2,0-0.4,0-0.5,0.1
			c-0.2,0.1-0.3,0.1-0.4,0.2c-0.1,0.1-0.2,0.3-0.3,0.4c-0.1,0.2-0.1,0.4-0.1,0.6c0,0.2,0,0.4,0.1,0.6s0.2,0.3,0.3,0.4
			c0.1,0.1,0.3,0.2,0.5,0.2s0.4,0.1,0.6,0.1c0.2,0,0.3,0,0.5,0s0.3-0.1,0.5-0.1l0.1,0.6c-0.2,0.1-0.4,0.1-0.6,0.1s-0.4,0-0.6,0
			c-0.3,0-0.6,0-0.8-0.1c-0.2-0.1-0.5-0.2-0.6-0.4c-0.2-0.2-0.3-0.4-0.4-0.6C311.4,124.8,311.4,124.5,311.4,124.2z"/>
		<path class="st10" d="M318.7,124.1c0,0.3,0,0.6-0.1,0.8c-0.1,0.2-0.2,0.4-0.3,0.6c-0.1,0.2-0.3,0.3-0.5,0.4
			c-0.2,0.1-0.4,0.1-0.7,0.1c-0.2,0-0.5,0-0.7-0.1c-0.2-0.1-0.4-0.2-0.5-0.4c-0.1-0.2-0.3-0.4-0.3-0.6c-0.1-0.2-0.1-0.5-0.1-0.8
			c0-0.3,0-0.6,0.1-0.8c0.1-0.2,0.2-0.4,0.3-0.6s0.3-0.3,0.5-0.4c0.2-0.1,0.4-0.1,0.7-0.1c0.2,0,0.5,0,0.7,0.1
			c0.2,0.1,0.4,0.2,0.5,0.4s0.3,0.4,0.3,0.6C318.6,123.6,318.7,123.9,318.7,124.1z M318,124.1c0-0.4-0.1-0.8-0.3-1
			c-0.2-0.2-0.4-0.4-0.7-0.4c-0.3,0-0.5,0.1-0.7,0.4c-0.2,0.2-0.3,0.6-0.3,1c0,0.4,0.1,0.7,0.3,1c0.2,0.2,0.4,0.4,0.7,0.4
			c0.3,0,0.6-0.1,0.7-0.4C317.9,124.9,318,124.6,318,124.1z"/>
		<path class="st10" d="M319.6,122.4c0.2-0.1,0.5-0.1,0.7-0.1s0.5,0,0.7,0c0.5,0,0.9,0.1,1.1,0.4c0.3,0.3,0.4,0.7,0.4,1.2v2.2h-0.7
			v-2.1c0-0.2,0-0.4-0.1-0.6s-0.1-0.3-0.2-0.3c-0.1-0.1-0.2-0.1-0.3-0.2s-0.2,0-0.4,0c-0.1,0-0.2,0-0.3,0c-0.1,0-0.2,0-0.3,0.1v3.1
			h-0.7V122.4z"/>
	</g>
	<g class="st9">
		<path class="st10" d="M292.8,131.3c-0.1,0.3-0.2,0.7-0.3,1c-0.1,0.3-0.2,0.7-0.4,1c-0.1,0.3-0.3,0.6-0.4,0.9s-0.3,0.6-0.4,0.8
			h-0.6c-0.2-0.5-0.5-1.1-0.8-1.7s-0.5-1.3-0.7-2h0.7c0.1,0.2,0.1,0.5,0.2,0.7c0.1,0.3,0.2,0.5,0.3,0.8c0.1,0.3,0.2,0.5,0.3,0.8
			c0.1,0.2,0.2,0.5,0.3,0.7c0.1-0.2,0.2-0.4,0.3-0.7c0.1-0.2,0.2-0.5,0.3-0.8c0.1-0.3,0.2-0.5,0.3-0.8c0.1-0.3,0.2-0.5,0.2-0.7
			H292.8z"/>
		<path class="st10" d="M294.5,131.8h-1.1v-0.6h1.7v2.3c0,0.4,0.1,0.6,0.2,0.7c0.1,0.1,0.3,0.2,0.5,0.2c0.2,0,0.3,0,0.4-0.1
			c0.1,0,0.2-0.1,0.3-0.1l0.1,0.6c0,0-0.1,0-0.1,0.1c-0.1,0-0.1,0-0.2,0.1c-0.1,0-0.2,0-0.3,0.1c-0.1,0-0.2,0-0.3,0
			c-0.2,0-0.4,0-0.6-0.1c-0.2-0.1-0.3-0.2-0.4-0.3s-0.2-0.3-0.2-0.5c0-0.2-0.1-0.4-0.1-0.7V131.8z M294.7,130.7
			c-0.1,0-0.3,0-0.4-0.1c-0.1-0.1-0.2-0.2-0.2-0.4c0-0.2,0.1-0.3,0.2-0.4c0.1-0.1,0.2-0.1,0.4-0.1c0.1,0,0.3,0,0.4,0.1
			s0.1,0.2,0.1,0.4c0,0.2,0,0.3-0.1,0.4C294.9,130.7,294.8,130.7,294.7,130.7z"/>
		<path class="st10" d="M300.7,133.1c0,0.3,0,0.6-0.1,0.8c-0.1,0.2-0.2,0.4-0.3,0.6c-0.1,0.2-0.3,0.3-0.5,0.4
			c-0.2,0.1-0.4,0.1-0.7,0.1c-0.2,0-0.5,0-0.7-0.1c-0.2-0.1-0.4-0.2-0.5-0.4c-0.1-0.2-0.3-0.4-0.3-0.6c-0.1-0.2-0.1-0.5-0.1-0.8
			c0-0.3,0-0.6,0.1-0.8c0.1-0.2,0.2-0.4,0.3-0.6s0.3-0.3,0.5-0.4c0.2-0.1,0.4-0.1,0.7-0.1c0.2,0,0.5,0,0.7,0.1
			c0.2,0.1,0.4,0.2,0.5,0.4s0.3,0.4,0.3,0.6C300.6,132.6,300.7,132.9,300.7,133.1z M300,133.1c0-0.4-0.1-0.8-0.3-1
			c-0.2-0.2-0.4-0.4-0.7-0.4c-0.3,0-0.5,0.1-0.7,0.4c-0.2,0.2-0.3,0.6-0.3,1c0,0.4,0.1,0.7,0.3,1c0.2,0.2,0.4,0.4,0.7,0.4
			c0.3,0,0.6-0.1,0.7-0.4C299.9,133.9,300,133.6,300,133.1z"/>
		<path class="st10" d="M303.7,135.1c-0.2,0-0.4,0-0.6-0.1c-0.2-0.1-0.3-0.2-0.4-0.3s-0.2-0.3-0.2-0.5c0-0.2-0.1-0.4-0.1-0.7v-3.5
			h-1.1v-0.6h1.7v4.1c0,0.2,0,0.3,0,0.5c0,0.1,0.1,0.2,0.1,0.3c0,0.1,0.1,0.1,0.2,0.1s0.2,0,0.3,0c0.2,0,0.3,0,0.4-0.1
			c0.1,0,0.2-0.1,0.3-0.1l0.1,0.6c0,0-0.1,0-0.1,0.1c-0.1,0-0.1,0-0.2,0.1s-0.2,0-0.3,0.1C303.9,135.1,303.8,135.1,303.7,135.1z"/>
		<path class="st10" d="M307.1,131.2c0.5,0,0.9,0.2,1.2,0.5c0.3,0.3,0.4,0.8,0.4,1.4v0.2H306c0,0.4,0.2,0.7,0.4,0.9
			c0.2,0.2,0.5,0.3,1,0.3c0.2,0,0.4,0,0.6-0.1c0.2,0,0.3-0.1,0.4-0.1l0.1,0.6c-0.1,0-0.2,0.1-0.4,0.1c-0.2,0-0.4,0.1-0.7,0.1
			c-0.3,0-0.6,0-0.8-0.1c-0.2-0.1-0.4-0.2-0.6-0.4c-0.2-0.2-0.3-0.4-0.4-0.6s-0.1-0.5-0.1-0.8c0-0.3,0.1-0.6,0.2-0.9
			c0.1-0.2,0.2-0.4,0.4-0.6s0.4-0.3,0.6-0.4C306.6,131.2,306.9,131.2,307.1,131.2z M308,132.8c0-0.3-0.1-0.6-0.2-0.7
			c-0.2-0.2-0.4-0.3-0.7-0.3c-0.2,0-0.3,0-0.4,0.1c-0.1,0.1-0.2,0.1-0.3,0.2c-0.1,0.1-0.2,0.2-0.2,0.3c-0.1,0.1-0.1,0.2-0.1,0.4H308
			z"/>
		<path class="st10" d="M309.6,131.4c0.2-0.1,0.5-0.1,0.7-0.1s0.5,0,0.7,0c0.5,0,0.9,0.1,1.1,0.4c0.3,0.3,0.4,0.7,0.4,1.2v2.2h-0.7
			v-2.1c0-0.2,0-0.4-0.1-0.6s-0.1-0.3-0.2-0.3c-0.1-0.1-0.2-0.1-0.3-0.2s-0.2,0-0.4,0c-0.1,0-0.2,0-0.3,0c-0.1,0-0.2,0-0.3,0.1v3.1
			h-0.7V131.4z"/>
		<path class="st10" d="M313.4,133.2c0-0.3,0.1-0.6,0.2-0.9s0.3-0.4,0.4-0.6c0.2-0.2,0.4-0.3,0.7-0.4c0.2-0.1,0.5-0.1,0.8-0.1
			c0.2,0,0.4,0,0.5,0c0.2,0,0.4,0.1,0.6,0.1l-0.2,0.6c-0.2-0.1-0.3-0.1-0.5-0.1c-0.1,0-0.3,0-0.4,0c-0.2,0-0.4,0-0.5,0.1
			c-0.2,0.1-0.3,0.1-0.4,0.2c-0.1,0.1-0.2,0.3-0.3,0.4c-0.1,0.2-0.1,0.4-0.1,0.6c0,0.2,0,0.4,0.1,0.6s0.2,0.3,0.3,0.4
			c0.1,0.1,0.3,0.2,0.5,0.2s0.4,0.1,0.6,0.1c0.2,0,0.3,0,0.5,0s0.3-0.1,0.5-0.1l0.1,0.6c-0.2,0.1-0.4,0.1-0.6,0.1s-0.4,0-0.6,0
			c-0.3,0-0.6,0-0.8-0.1c-0.2-0.1-0.5-0.2-0.6-0.4c-0.2-0.2-0.3-0.4-0.4-0.6C313.4,133.8,313.4,133.5,313.4,133.2z"/>
		<path class="st10" d="M318.5,131.8h-1.1v-0.6h1.7v2.3c0,0.4,0.1,0.6,0.2,0.7c0.1,0.1,0.3,0.2,0.5,0.2c0.2,0,0.3,0,0.4-0.1
			c0.1,0,0.2-0.1,0.3-0.1l0.1,0.6c0,0-0.1,0-0.1,0.1c-0.1,0-0.1,0-0.2,0.1c-0.1,0-0.2,0-0.3,0.1c-0.1,0-0.2,0-0.3,0
			c-0.2,0-0.4,0-0.6-0.1c-0.2-0.1-0.3-0.2-0.4-0.3s-0.2-0.3-0.2-0.5c0-0.2-0.1-0.4-0.1-0.7V131.8z M318.7,130.7
			c-0.1,0-0.3,0-0.4-0.1c-0.1-0.1-0.2-0.2-0.2-0.4c0-0.2,0.1-0.3,0.2-0.4c0.1-0.1,0.2-0.1,0.4-0.1c0.1,0,0.3,0,0.4,0.1
			s0.1,0.2,0.1,0.4c0,0.2,0,0.3-0.1,0.4C318.9,130.7,318.8,130.7,318.7,130.7z"/>
		<path class="st10" d="M323,131.2c0.3,0,0.5,0,0.7,0.1s0.3,0.2,0.5,0.3c0.1,0.1,0.2,0.3,0.2,0.4s0.1,0.4,0.1,0.6v2.3
			c-0.2,0-0.4,0.1-0.6,0.1c-0.3,0-0.5,0.1-0.8,0.1c-0.2,0-0.4,0-0.6-0.1c-0.2,0-0.4-0.1-0.5-0.2c-0.1-0.1-0.3-0.2-0.4-0.4
			c-0.1-0.2-0.1-0.4-0.1-0.6c0-0.2,0-0.4,0.1-0.5c0.1-0.1,0.2-0.3,0.4-0.4c0.1-0.1,0.3-0.2,0.5-0.2c0.2,0,0.4-0.1,0.6-0.1
			c0.3,0,0.5,0,0.8,0.1v-0.2c0-0.1,0-0.2,0-0.3c0-0.1-0.1-0.2-0.1-0.3c-0.1-0.1-0.2-0.2-0.3-0.2c-0.1-0.1-0.3-0.1-0.4-0.1
			c-0.2,0-0.4,0-0.6,0c-0.2,0-0.3,0.1-0.4,0.1l-0.1-0.5c0.1,0,0.2-0.1,0.5-0.1C322.5,131.2,322.7,131.2,323,131.2z M323,134.5
			c0.2,0,0.3,0,0.4,0s0.2,0,0.3,0v-1.1c-0.1,0-0.2,0-0.3-0.1c-0.1,0-0.2,0-0.4,0c-0.1,0-0.2,0-0.4,0c-0.1,0-0.2,0.1-0.3,0.1
			s-0.2,0.1-0.2,0.2c-0.1,0.1-0.1,0.2-0.1,0.3c0,0.2,0.1,0.4,0.2,0.5C322.5,134.5,322.8,134.5,323,134.5z"/>
	</g>
</g>
</svg>
