<?xml version="1.0" encoding="utf-8"?>
<!-- Generator: Adobe Illustrator 22.1.0, SVG Export Plug-In . SVG Version: 6.00 Build 0)  -->
<svg version="1.1" id="Capa_1" xmlns="http://www.w3.org/2000/svg" xmlns:xlink="http://www.w3.org/1999/xlink" x="0px" y="0px"
	 viewBox="0 0 95 63" style="enable-background:new 0 0 95 63;" xml:space="preserve">
<style type="text/css">
	.st0{fill:#E6E6E6;}
	.st1{fill:#EBB688;}
	.st2{fill:#F3B57F;}
	.st3{fill:#EF9C54;}
	.st4{fill:#EF8D39;}
	.st5{fill:#FBF0E7;}
	.st6{fill:#F3D3B7;}
	.st7{fill:#EB832A;}
	.st8{enable-background:new    ;}
	.st9{fill:#3B3530;}
</style>
<g id="Group_131" transform="translate(-130 -100)">
	<g transform="matrix(1, 0, 0, 1, 130, 100)">
		<circle id="Ellipse_105-2" class="st0" cx="31.5" cy="28.5" r="22.5"/>
	</g>
	<g id="Group_116" transform="translate(148 117)">
		<path id="Path_128" class="st1" d="M22.8,2.5H2.4c-1.2,0-2.1,0.9-2.1,2.1s0.9,2.1,2.1,2.1h20.3c1.2,0,2.1,0.9,2.1,2.1c0,0,0,0,0,0
			V4.6C24.9,3.5,24,2.5,22.8,2.5C22.8,2.5,22.8,2.5,22.8,2.5z"/>
		<path id="Path_129" class="st2" d="M24.9,21.4c0,1.2-0.9,2.1-2.1,2.1c0,0,0,0,0,0H2.4c-1.2,0-2.1-0.9-2.1-2.1c0,0,0,0,0,0l0,0V4.6
			c0,1.2,0.9,2.1,2.1,2.1c0,0,0,0,0,0h20.3c1.2,0,2.1,0.9,2.1,2.1c0,0,0,0,0,0V21.4z"/>
		<g id="Group_46" transform="translate(21.162 6.693)">
			<path id="Path_130" class="st3" d="M1.6,0H0c1.2,0,2.1,0.9,2.1,2.1c0,0,0,0,0,0v12.6c0,1.2-0.9,2.1-2.1,2.1c0,0,0,0,0,0h1.6
				c1.2,0,2.1-0.9,2.1-2.1c0,0,0,0,0,0V2.1C3.7,1,2.8,0,1.6,0C1.6,0,1.6,0,1.6,0z"/>
			<path id="Path_131" class="st3" d="M4.5,3.7c0.4,0,0.8,0.4,0.8,0.8c0,0.4-0.4,0.8-0.8,0.8c0,0,0,0,0,0H3.7V3.7H4.5z"/>
		</g>
		<path id="Path_132" class="st4" d="M26.4,11.2v6.3c0,0.4-0.3,0.8-0.7,0.8c0,0,0,0,0,0h-5.5L18,15.1l2.1-3.1h5.5
			C26.1,12,26.4,11.6,26.4,11.2z"/>
		<path id="Path_133" class="st2" d="M25.6,12h-0.8v5.5c0,0.4-0.3,0.8-0.8,0.8c0,0,0,0,0,0h1.6c0.4,0,0.8-0.3,0.8-0.7c0,0,0,0,0,0
			v-6.3C26.4,11.6,26.1,12,25.6,12C25.7,12,25.7,12,25.6,12z"/>
		<path id="Path_134" class="st5" d="M19.2,4.6H3.4L4,2.5l0.5-2.1l7.4,2.1L19.2,4.6z"/>
		<path id="Path_135" class="st3" d="M22.8,2.5h-1.6c1.2,0,2.1,0.9,2.1,2.1c0,0,0,0,0,0v2.2c0.9,0.2,1.6,1.1,1.6,2V4.6
			C24.9,3.5,24,2.5,22.8,2.5C22.8,2.5,22.8,2.5,22.8,2.5z"/>
		<path id="Path_136" class="st6" d="M21.7,14.1c0.6,0,1,0.5,1,1s-0.5,1-1,1c-0.6,0-1-0.5-1-1c0,0,0,0,0,0
			C20.7,14.5,21.1,14.1,21.7,14.1z"/>
		<path id="Path_137" class="st7" d="M25.6,10h-0.4V4.6c0-1.4-1.1-2.5-2.5-2.5l0,0H11.9L4.6,0H4.2v0l0,0L3.8,1.8H2.5
			C1.1,1.8,0,3,0,4.3c0,0,0,0,0,0l0,0V18c0,0.2,0.2,0.4,0.4,0.4s0.4-0.2,0.4-0.4l0,0V6.4c0.5,0.4,1.1,0.7,1.7,0.7h20.3
			c0.9,0,1.7,0.8,1.7,1.7v2.8H20c0,0,0,0,0,0l0,0l0,0l-2.1,3.1c0,0,0,0,0,0.1v0l0,0v0l0,0v0l0,0v0l0,0v0l0,0v0l0,0v0l0,0v0
			c0,0,0,0,0,0.1l2.1,3.1l0,0c0,0,0,0,0,0l0,0l0,0l0,0l0,0l0,0l0,0c0,0,0,0,0,0c0,0,0,0,0,0h4.5v2.8c0,0.9-0.8,1.7-1.7,1.7H2.5
			c-0.9,0-1.7-0.8-1.7-1.7l0,0v-1.6c0-0.2-0.2-0.4-0.4-0.4S0,19.5,0,19.7v1.6l0,0c0,1.4,1.1,2.5,2.5,2.5c0,0,0,0,0,0h20.3
			c1.4,0,2.5-1.1,2.5-2.5c0,0,0,0,0,0l0,0v-2.8h0.4c0.7,0,1.2-0.5,1.2-1.2v-6.1C26.9,10.5,26.3,10,25.6,10z M26,17.5
			c0,0.2-0.2,0.4-0.4,0.4h-5.3l-1.8-2.8l1.8-2.8h5.3c0.1,0,0.3,0,0.4-0.1L26,17.5L26,17.5z M4.8,0.9l7,2l0,0l4.7,1.3H4L4.8,0.9z
			 M22.8,6.3H2.4c-0.9,0-1.7-0.8-1.7-1.7s0.8-1.7,1.7-1.7h1.1L3.2,4.2H2.4C2.2,4.2,2,4.4,2,4.6S2.2,5,2.4,5h19.8
			c0.2,0,0.4-0.2,0.4-0.4s-0.2-0.4-0.4-0.4h-3l-4.6-1.3h8.1c0.9,0,1.7,0.8,1.7,1.7V7C24,6.6,23.4,6.3,22.8,6.3L22.8,6.3z M25.2,10.8
			h0.4c0.2,0,0.4,0.2,0.4,0.4c0,0.2-0.2,0.4-0.4,0.4h-0.4L25.2,10.8L25.2,10.8z"/>
		<path id="Path_138" class="st7" d="M21.7,13.7c-0.8,0-1.5,0.7-1.5,1.5c0,0.8,0.6,1.4,1.4,1.5c0,0,0,0,0,0c0.8,0,1.5-0.7,1.5-1.5
			C23.2,14.3,22.5,13.7,21.7,13.7C21.7,13.7,21.7,13.7,21.7,13.7z M21.7,15.8c-0.4,0-0.7-0.3-0.7-0.7s0.3-0.7,0.7-0.7
			c0.4,0,0.7,0.3,0.7,0.7C22.4,15.5,22.1,15.8,21.7,15.8C21.7,15.8,21.7,15.8,21.7,15.8z"/>
	</g>
	<g class="st8">
		<path class="st9" d="M193.4,122.6c0,0.3-0.1,0.6-0.2,0.8c-0.2,0.2-0.4,0.4-0.6,0.5c0.1,0.1,0.2,0.3,0.3,0.4
			c0.1,0.2,0.2,0.3,0.3,0.5c0.1,0.2,0.2,0.4,0.3,0.6c0.1,0.2,0.2,0.4,0.3,0.6H193c-0.2-0.4-0.3-0.8-0.5-1.1
			c-0.2-0.4-0.4-0.6-0.5-0.9c0,0-0.1,0-0.1,0s-0.1,0-0.1,0h-0.6v2h-0.7v-4.9c0.1,0,0.2,0,0.3-0.1c0.1,0,0.2,0,0.3,0
			c0.1,0,0.2,0,0.3,0c0.1,0,0.2,0,0.3,0c0.6,0,1,0.1,1.3,0.4C193.3,121.7,193.4,122,193.4,122.6z M191.7,121.6c-0.1,0-0.2,0-0.4,0
			c-0.1,0-0.2,0-0.2,0v1.9h0.4c0.2,0,0.4,0,0.5,0c0.2,0,0.3-0.1,0.4-0.1c0.1-0.1,0.2-0.2,0.3-0.3c0.1-0.1,0.1-0.3,0.1-0.5
			c0-0.2,0-0.3-0.1-0.5c-0.1-0.1-0.1-0.2-0.2-0.3c-0.1-0.1-0.2-0.1-0.3-0.2C192,121.6,191.8,121.6,191.7,121.6z"/>
		<path class="st9" d="M197.7,124.1c0,0.3,0,0.6-0.1,0.8c-0.1,0.2-0.2,0.4-0.3,0.6c-0.1,0.2-0.3,0.3-0.5,0.4
			c-0.2,0.1-0.4,0.1-0.7,0.1c-0.2,0-0.5,0-0.7-0.1c-0.2-0.1-0.4-0.2-0.5-0.4c-0.1-0.2-0.3-0.4-0.3-0.6c-0.1-0.2-0.1-0.5-0.1-0.8
			c0-0.3,0-0.6,0.1-0.8c0.1-0.2,0.2-0.4,0.3-0.6s0.3-0.3,0.5-0.4c0.2-0.1,0.4-0.1,0.7-0.1c0.2,0,0.5,0,0.7,0.1
			c0.2,0.1,0.4,0.2,0.5,0.4s0.3,0.4,0.3,0.6C197.6,123.6,197.7,123.9,197.7,124.1z M197,124.1c0-0.4-0.1-0.8-0.3-1
			c-0.2-0.2-0.4-0.4-0.7-0.4c-0.3,0-0.5,0.1-0.7,0.4c-0.2,0.2-0.3,0.6-0.3,1c0,0.4,0.1,0.7,0.3,1c0.2,0.2,0.4,0.4,0.7,0.4
			c0.3,0,0.6-0.1,0.7-0.4C196.9,124.9,197,124.6,197,124.1z"/>
		<path class="st9" d="M199.2,122.4c0.1,0,0.2-0.1,0.3-0.1s0.3-0.1,0.5-0.1c0.3,0,0.5,0,0.7,0.1c0.2,0.1,0.4,0.2,0.5,0.4
			c0.1,0.2,0.2,0.4,0.3,0.6s0.1,0.5,0.1,0.8c0,0.3,0,0.6-0.1,0.8s-0.2,0.4-0.4,0.6c-0.2,0.2-0.3,0.3-0.6,0.4s-0.5,0.1-0.7,0.1
			c-0.3,0-0.6,0-0.8-0.1c-0.2,0-0.4-0.1-0.6-0.1v-5.3l0.7-0.1V122.4z M199.2,125.4c0.1,0,0.2,0,0.3,0.1c0.1,0,0.2,0,0.3,0
			c0.4,0,0.7-0.1,0.9-0.3c0.2-0.2,0.3-0.6,0.3-1c0-0.2,0-0.4-0.1-0.5c0-0.2-0.1-0.3-0.2-0.4s-0.2-0.2-0.3-0.3s-0.3-0.1-0.5-0.1
			c-0.2,0-0.3,0-0.4,0.1c-0.1,0.1-0.3,0.1-0.3,0.2V125.4z"/>
		<path class="st9" d="M205.7,124.1c0,0.3,0,0.6-0.1,0.8c-0.1,0.2-0.2,0.4-0.3,0.6c-0.1,0.2-0.3,0.3-0.5,0.4
			c-0.2,0.1-0.4,0.1-0.7,0.1c-0.2,0-0.5,0-0.7-0.1c-0.2-0.1-0.4-0.2-0.5-0.4c-0.1-0.2-0.3-0.4-0.3-0.6c-0.1-0.2-0.1-0.5-0.1-0.8
			c0-0.3,0-0.6,0.1-0.8c0.1-0.2,0.2-0.4,0.3-0.6s0.3-0.3,0.5-0.4c0.2-0.1,0.4-0.1,0.7-0.1c0.2,0,0.5,0,0.7,0.1
			c0.2,0.1,0.4,0.2,0.5,0.4s0.3,0.4,0.3,0.6C205.6,123.6,205.7,123.9,205.7,124.1z M205,124.1c0-0.4-0.1-0.8-0.3-1
			c-0.2-0.2-0.4-0.4-0.7-0.4c-0.3,0-0.5,0.1-0.7,0.4c-0.2,0.2-0.3,0.6-0.3,1c0,0.4,0.1,0.7,0.3,1c0.2,0.2,0.4,0.4,0.7,0.4
			c0.3,0,0.6-0.1,0.7-0.4C204.9,124.9,205,124.6,205,124.1z"/>
		<path class="st9" d="M212.8,125.1c0-0.1-0.1-0.2-0.2-0.3s-0.2-0.2-0.4-0.2c-0.2-0.1-0.3-0.1-0.5-0.2s-0.4-0.1-0.5-0.2
			c-0.2-0.1-0.3-0.2-0.4-0.3c-0.1-0.1-0.2-0.3-0.2-0.5c0-0.3,0.1-0.5,0.4-0.7s0.6-0.3,1.1-0.3c0.2,0,0.4,0,0.6,0
			c0.2,0,0.4,0.1,0.6,0.1l-0.1,0.6c0,0-0.1,0-0.2-0.1c-0.1,0-0.2,0-0.3-0.1s-0.2,0-0.3,0s-0.2,0-0.3,0c-0.6,0-0.9,0.2-0.9,0.5
			c0,0.1,0.1,0.2,0.2,0.3c0.1,0.1,0.2,0.1,0.4,0.2c0.2,0.1,0.3,0.1,0.5,0.2c0.2,0.1,0.4,0.1,0.5,0.2c0.2,0.1,0.3,0.2,0.4,0.3
			c0.1,0.1,0.2,0.3,0.2,0.5c0,0.3-0.1,0.6-0.4,0.8c-0.3,0.2-0.7,0.3-1.2,0.3c-0.3,0-0.5,0-0.7-0.1c-0.2,0-0.4-0.1-0.6-0.2l0.1-0.6
			c0.2,0.1,0.4,0.2,0.6,0.2c0.2,0.1,0.4,0.1,0.7,0.1C212.5,125.5,212.8,125.4,212.8,125.1z"/>
		<path class="st9" d="M215.5,122.8h-1.1v-0.6h1.7v2.3c0,0.4,0.1,0.6,0.2,0.7c0.1,0.1,0.3,0.2,0.5,0.2c0.2,0,0.3,0,0.4-0.1
			c0.1,0,0.2-0.1,0.3-0.1l0.1,0.6c0,0-0.1,0-0.1,0.1c-0.1,0-0.1,0-0.2,0.1c-0.1,0-0.2,0-0.3,0.1c-0.1,0-0.2,0-0.3,0
			c-0.2,0-0.4,0-0.6-0.1c-0.2-0.1-0.3-0.2-0.4-0.3s-0.2-0.3-0.2-0.5c0-0.2-0.1-0.4-0.1-0.7V122.8z M215.7,121.7
			c-0.1,0-0.3,0-0.4-0.1c-0.1-0.1-0.2-0.2-0.2-0.4c0-0.2,0.1-0.3,0.2-0.4c0.1-0.1,0.2-0.1,0.4-0.1c0.1,0,0.3,0,0.4,0.1
			s0.1,0.2,0.1,0.4c0,0.2,0,0.3-0.1,0.4C215.9,121.7,215.8,121.7,215.7,121.7z"/>
		<path class="st9" d="M218.6,122.4c0.2-0.1,0.5-0.1,0.7-0.1s0.5,0,0.7,0c0.5,0,0.9,0.1,1.1,0.4c0.3,0.3,0.4,0.7,0.4,1.2v2.2h-0.7
			v-2.1c0-0.2,0-0.4-0.1-0.6s-0.1-0.3-0.2-0.3c-0.1-0.1-0.2-0.1-0.3-0.2s-0.2,0-0.4,0c-0.1,0-0.2,0-0.3,0c-0.1,0-0.2,0-0.3,0.1v3.1
			h-0.7V122.4z"/>
	</g>
	<g class="st8">
		<path class="st9" d="M191.8,131.3c-0.1,0.3-0.2,0.7-0.3,1c-0.1,0.3-0.2,0.7-0.4,1c-0.1,0.3-0.3,0.6-0.4,0.9s-0.3,0.6-0.4,0.8h-0.6
			c-0.2-0.5-0.5-1.1-0.8-1.7s-0.5-1.3-0.7-2h0.7c0.1,0.2,0.1,0.5,0.2,0.7c0.1,0.3,0.2,0.5,0.3,0.8c0.1,0.3,0.2,0.5,0.3,0.8
			c0.1,0.2,0.2,0.5,0.3,0.7c0.1-0.2,0.2-0.4,0.3-0.7c0.1-0.2,0.2-0.5,0.3-0.8c0.1-0.3,0.2-0.5,0.3-0.8c0.1-0.3,0.2-0.5,0.2-0.7
			H191.8z"/>
		<path class="st9" d="M193.5,131.8h-1.1v-0.6h1.7v2.3c0,0.4,0.1,0.6,0.2,0.7c0.1,0.1,0.3,0.2,0.5,0.2c0.2,0,0.3,0,0.4-0.1
			c0.1,0,0.2-0.1,0.3-0.1l0.1,0.6c0,0-0.1,0-0.1,0.1c-0.1,0-0.1,0-0.2,0.1c-0.1,0-0.2,0-0.3,0.1c-0.1,0-0.2,0-0.3,0
			c-0.2,0-0.4,0-0.6-0.1c-0.2-0.1-0.3-0.2-0.4-0.3s-0.2-0.3-0.2-0.5c0-0.2-0.1-0.4-0.1-0.7V131.8z M193.7,130.7
			c-0.1,0-0.3,0-0.4-0.1c-0.1-0.1-0.2-0.2-0.2-0.4c0-0.2,0.1-0.3,0.2-0.4c0.1-0.1,0.2-0.1,0.4-0.1c0.1,0,0.3,0,0.4,0.1
			s0.1,0.2,0.1,0.4c0,0.2,0,0.3-0.1,0.4C193.9,130.7,193.8,130.7,193.7,130.7z"/>
		<path class="st9" d="M199.7,133.1c0,0.3,0,0.6-0.1,0.8c-0.1,0.2-0.2,0.4-0.3,0.6c-0.1,0.2-0.3,0.3-0.5,0.4
			c-0.2,0.1-0.4,0.1-0.7,0.1c-0.2,0-0.5,0-0.7-0.1c-0.2-0.1-0.4-0.2-0.5-0.4c-0.1-0.2-0.3-0.4-0.3-0.6c-0.1-0.2-0.1-0.5-0.1-0.8
			c0-0.3,0-0.6,0.1-0.8c0.1-0.2,0.2-0.4,0.3-0.6s0.3-0.3,0.5-0.4c0.2-0.1,0.4-0.1,0.7-0.1c0.2,0,0.5,0,0.7,0.1
			c0.2,0.1,0.4,0.2,0.5,0.4s0.3,0.4,0.3,0.6C199.6,132.6,199.7,132.9,199.7,133.1z M199,133.1c0-0.4-0.1-0.8-0.3-1
			c-0.2-0.2-0.4-0.4-0.7-0.4c-0.3,0-0.5,0.1-0.7,0.4c-0.2,0.2-0.3,0.6-0.3,1c0,0.4,0.1,0.7,0.3,1c0.2,0.2,0.4,0.4,0.7,0.4
			c0.3,0,0.6-0.1,0.7-0.4C198.9,133.9,199,133.6,199,133.1z"/>
		<path class="st9" d="M202.7,135.1c-0.2,0-0.4,0-0.6-0.1c-0.2-0.1-0.3-0.2-0.4-0.3s-0.2-0.3-0.2-0.5c0-0.2-0.1-0.4-0.1-0.7v-3.5
			h-1.1v-0.6h1.7v4.1c0,0.2,0,0.3,0,0.5c0,0.1,0.1,0.2,0.1,0.3c0,0.1,0.1,0.1,0.2,0.1s0.2,0,0.3,0c0.2,0,0.3,0,0.4-0.1
			c0.1,0,0.2-0.1,0.3-0.1l0.1,0.6c0,0-0.1,0-0.1,0.1c-0.1,0-0.1,0-0.2,0.1s-0.2,0-0.3,0.1C202.9,135.1,202.8,135.1,202.7,135.1z"/>
		<path class="st9" d="M206.1,131.2c0.5,0,0.9,0.2,1.2,0.5c0.3,0.3,0.4,0.8,0.4,1.4v0.2H205c0,0.4,0.2,0.7,0.4,0.9
			c0.2,0.2,0.5,0.3,1,0.3c0.2,0,0.4,0,0.6-0.1c0.2,0,0.3-0.1,0.4-0.1l0.1,0.6c-0.1,0-0.2,0.1-0.4,0.1c-0.2,0-0.4,0.1-0.7,0.1
			c-0.3,0-0.6,0-0.8-0.1c-0.2-0.1-0.4-0.2-0.6-0.4c-0.2-0.2-0.3-0.4-0.4-0.6s-0.1-0.5-0.1-0.8c0-0.3,0.1-0.6,0.2-0.9
			c0.1-0.2,0.2-0.4,0.4-0.6s0.4-0.3,0.6-0.4C205.6,131.2,205.9,131.2,206.1,131.2z M207,132.8c0-0.3-0.1-0.6-0.2-0.7
			c-0.2-0.2-0.4-0.3-0.7-0.3c-0.2,0-0.3,0-0.4,0.1c-0.1,0.1-0.2,0.1-0.3,0.2c-0.1,0.1-0.2,0.2-0.2,0.3c-0.1,0.1-0.1,0.2-0.1,0.4H207
			z"/>
		<path class="st9" d="M208.6,131.4c0.2-0.1,0.5-0.1,0.7-0.1s0.5,0,0.7,0c0.5,0,0.9,0.1,1.1,0.4c0.3,0.3,0.4,0.7,0.4,1.2v2.2h-0.7
			v-2.1c0-0.2,0-0.4-0.1-0.6s-0.1-0.3-0.2-0.3c-0.1-0.1-0.2-0.1-0.3-0.2s-0.2,0-0.4,0c-0.1,0-0.2,0-0.3,0c-0.1,0-0.2,0-0.3,0.1v3.1
			h-0.7V131.4z"/>
		<path class="st9" d="M212.4,133.2c0-0.3,0.1-0.6,0.2-0.9s0.3-0.4,0.4-0.6c0.2-0.2,0.4-0.3,0.7-0.4c0.2-0.1,0.5-0.1,0.8-0.1
			c0.2,0,0.4,0,0.5,0c0.2,0,0.4,0.1,0.6,0.1l-0.2,0.6c-0.2-0.1-0.3-0.1-0.5-0.1c-0.1,0-0.3,0-0.4,0c-0.2,0-0.4,0-0.5,0.1
			c-0.2,0.1-0.3,0.1-0.4,0.2c-0.1,0.1-0.2,0.3-0.3,0.4c-0.1,0.2-0.1,0.4-0.1,0.6c0,0.2,0,0.4,0.1,0.6s0.2,0.3,0.3,0.4
			c0.1,0.1,0.3,0.2,0.5,0.2s0.4,0.1,0.6,0.1c0.2,0,0.3,0,0.5,0s0.3-0.1,0.5-0.1l0.1,0.6c-0.2,0.1-0.4,0.1-0.6,0.1s-0.4,0-0.6,0
			c-0.3,0-0.6,0-0.8-0.1c-0.2-0.1-0.5-0.2-0.6-0.4c-0.2-0.2-0.3-0.4-0.4-0.6C212.4,133.8,212.4,133.5,212.4,133.2z"/>
		<path class="st9" d="M217.5,131.8h-1.1v-0.6h1.7v2.3c0,0.4,0.1,0.6,0.2,0.7c0.1,0.1,0.3,0.2,0.5,0.2c0.2,0,0.3,0,0.4-0.1
			c0.1,0,0.2-0.1,0.3-0.1l0.1,0.6c0,0-0.1,0-0.1,0.1c-0.1,0-0.1,0-0.2,0.1c-0.1,0-0.2,0-0.3,0.1c-0.1,0-0.2,0-0.3,0
			c-0.2,0-0.4,0-0.6-0.1c-0.2-0.1-0.3-0.2-0.4-0.3s-0.2-0.3-0.2-0.5c0-0.2-0.1-0.4-0.1-0.7V131.8z M217.7,130.7
			c-0.1,0-0.3,0-0.4-0.1c-0.1-0.1-0.2-0.2-0.2-0.4c0-0.2,0.1-0.3,0.2-0.4c0.1-0.1,0.2-0.1,0.4-0.1c0.1,0,0.3,0,0.4,0.1
			s0.1,0.2,0.1,0.4c0,0.2,0,0.3-0.1,0.4C217.9,130.7,217.8,130.7,217.7,130.7z"/>
		<path class="st9" d="M222,131.2c0.3,0,0.5,0,0.7,0.1s0.3,0.2,0.5,0.3c0.1,0.1,0.2,0.3,0.2,0.4s0.1,0.4,0.1,0.6v2.3
			c-0.2,0-0.4,0.1-0.6,0.1c-0.3,0-0.5,0.1-0.8,0.1c-0.2,0-0.4,0-0.6-0.1c-0.2,0-0.4-0.1-0.5-0.2c-0.1-0.1-0.3-0.2-0.4-0.4
			c-0.1-0.2-0.1-0.4-0.1-0.6c0-0.2,0-0.4,0.1-0.5c0.1-0.1,0.2-0.3,0.4-0.4c0.1-0.1,0.3-0.2,0.5-0.2c0.2,0,0.4-0.1,0.6-0.1
			c0.3,0,0.5,0,0.8,0.1v-0.2c0-0.1,0-0.2,0-0.3c0-0.1-0.1-0.2-0.1-0.3c-0.1-0.1-0.2-0.2-0.3-0.2c-0.1-0.1-0.3-0.1-0.4-0.1
			c-0.2,0-0.4,0-0.6,0c-0.2,0-0.3,0.1-0.4,0.1l-0.1-0.5c0.1,0,0.2-0.1,0.5-0.1C221.5,131.2,221.7,131.2,222,131.2z M222,134.5
			c0.2,0,0.3,0,0.4,0s0.2,0,0.3,0v-1.1c-0.1,0-0.2,0-0.3-0.1c-0.1,0-0.2,0-0.4,0c-0.1,0-0.2,0-0.4,0c-0.1,0-0.2,0.1-0.3,0.1
			s-0.2,0.1-0.2,0.2c-0.1,0.1-0.1,0.2-0.1,0.3c0,0.2,0.1,0.4,0.2,0.5C221.5,134.5,221.8,134.5,222,134.5z"/>
	</g>
</g>
</svg>
