<?xml version="1.0" encoding="utf-8"?>
<!-- Generator: Adobe Illustrator 22.1.0, SVG Export Plug-In . SVG Version: 6.00 Build 0)  -->
<svg version="1.1" id="Capa_1" xmlns="http://www.w3.org/2000/svg" xmlns:xlink="http://www.w3.org/1999/xlink" x="0px" y="0px"
	 viewBox="0 0 136.9 94.2" style="enable-background:new 0 0 136.9 94.2;" xml:space="preserve">
<style type="text/css">
	.st0{fill:#FBCF69;}
	.st1{fill:#EBB688;}
	.st2{fill:#F3B57F;}
	.st3{fill:#EF9C54;}
	.st4{fill:#EF8D39;}
	.st5{fill:#FBF0E7;}
	.st6{fill:#F3D3B7;}
	.st7{fill:#EB832A;}
	.st8{enable-background:new    ;}
	.st9{fill:#3B3530;}
</style>
<g id="Group_82" transform="translate(-366 -495.923)">
	<g transform="matrix(1, 0, 0, 1, 366, 495.92)">
		<ellipse id="Ellipse_27-2" class="st0" cx="47.1" cy="44.1" rx="38.1" ry="38.1"/>
	</g>
	<g id="Group_75" transform="translate(390.23 520.538)">
		<path id="Path_128" class="st1" d="M38.5,4.2H4c-2,0-3.5,1.6-3.5,3.5s1.6,3.5,3.5,3.5h34.4c2,0,3.5,1.6,3.5,3.5c0,0,0,0,0,0V7.8
			c0.1-1.9-1.4-3.5-3.3-3.5C38.6,4.2,38.6,4.2,38.5,4.2z"/>
		<path id="Path_129" class="st2" d="M42.1,36.3c0,2-1.6,3.5-3.5,3.5c0,0,0,0,0,0H4.1c-2,0-3.5-1.6-3.5-3.5c0,0,0,0,0,0l0,0V7.8
			c0,2,1.6,3.5,3.5,3.5c0,0,0,0,0,0h34.4c2,0,3.5,1.6,3.5,3.5c0,0,0,0,0,0V36.3z"/>
		<g id="Group_46" transform="translate(35.813 11.326)">
			<path id="Path_130" class="st3" d="M2.7,0H0c2,0,3.5,1.6,3.5,3.5c0,0,0,0,0,0v21.4c0,2-1.6,3.5-3.5,3.5c0,0,0,0,0,0h2.7
				c2,0,3.5-1.6,3.5-3.5c0,0,0,0,0,0V3.6C6.3,1.7,4.7,0.1,2.7,0C2.8,0,2.8,0,2.7,0z"/>
			<path id="Path_131" class="st3" d="M7.6,6.3c0.7,0,1.3,0.6,1.4,1.3S8.4,8.9,7.7,8.9c0,0,0,0-0.1,0H6.3V6.3H7.6z"/>
		</g>
		<path id="Path_132" class="st4" d="M44.7,18.9v10.7c0,0.7-0.6,1.3-1.3,1.3c0,0,0,0-0.1,0H34l-3.5-5.3l3.5-5.3h9.4
			C44.1,20.3,44.7,19.7,44.7,18.9z"/>
		<path id="Path_133" class="st2" d="M43.4,20.2h-1.3v9.4c0,0.7-0.6,1.3-1.3,1.3c0,0,0,0-0.1,0h2.7c0.7,0,1.3-0.6,1.3-1.3
			c0,0,0,0,0-0.1V18.9C44.8,19.6,44.2,20.2,43.4,20.2C43.4,20.2,43.4,20.2,43.4,20.2z"/>
		<path id="Path_134" class="st5" d="M32.5,7.8H5.8l0.9-3.5l0.9-3.5l12.5,3.5L32.5,7.8z"/>
		<path id="Path_135" class="st3" d="M38.5,4.2h-2.7c2,0,3.5,1.6,3.5,3.5c0,0,0,0,0,0v3.7c1.6,0.4,2.7,1.8,2.7,3.4V7.8
			c0.1-1.9-1.4-3.5-3.3-3.5C38.6,4.2,38.6,4.2,38.5,4.2z"/>
		<path id="Path_136" class="st6" d="M36.7,23.8c1,0,1.8,0.8,1.8,1.8s-0.8,1.8-1.8,1.8c-1,0-1.8-0.8-1.8-1.8
			C34.9,24.6,35.7,23.8,36.7,23.8z"/>
		<path id="Path_137" class="st7" d="M43.4,16.9h-0.7V7.8c0-2.3-1.9-4.2-4.2-4.2H20.1L7.8,0H7.2v0.1l0,0l-0.8,3H4.2
			C1.9,3.1,0,5,0,7.3c0,0,0,0,0,0l0,0v23.2c0,0.4,0.4,0.7,0.8,0.6c0.3,0,0.6-0.3,0.6-0.6V10.9C2.2,11.6,3.2,12,4.3,12h34.4
			c1.6,0,2.9,1.3,2.9,2.9v4.7h-7.8c0,0,0,0.1-0.1,0.1c0,0,0,0,0,0l0,0L30.2,25c0,0.1-0.1,0.1-0.1,0.1v0.1l0,0v0.1l0,0v0.1l0,0v0.1
			l0,0v0.1l0,0v0.1l0,0v0.1l0,0v0.1c0,0.1,0.1,0.1,0.1,0.1l3.5,5.3l0,0c0,0,0,0.1,0.1,0.1c0,0,0,0,0,0l0,0l0.1,0.1l0,0l0.1,0.1l0,0
			c0,0,0.1,0,0.1,0.1c0,0,0,0,0,0h7.6V36c0,1.6-1.3,2.9-2.9,2.9H4.3c-1.6,0-2.9-1.3-2.9-2.9l0,0v-2.7c0-0.4-0.4-0.7-0.8-0.6
			C0.3,32.8,0,33,0,33.3V36l0,0c0,2.3,1.9,4.2,4.2,4.2c0,0,0,0,0,0h34.4c2.3,0,4.2-1.9,4.2-4.2l0,0v-4.7h0.7c1.1,0,2-0.9,2-2V18.9
			C45.5,17.8,44.5,16.9,43.4,16.9z M44,29.6c0,0.4-0.3,0.7-0.7,0.7h-9l-3.1-4.7l3.1-4.7h9c0.2,0,0.4,0,0.6-0.1L44,29.6L44,29.6z
			 M8.1,1.5l11.8,3.4l0,0l7.9,2.3H6.7L8.1,1.5z M38.5,10.7H4.1c-1.6,0-2.9-1.4-2.9-3c0-1.6,1.3-2.8,2.9-2.9h1.8L5.4,7.1H4.1
			C3.7,7,3.4,7.3,3.3,7.7c0,0.4,0.2,0.7,0.6,0.8c0,0,0.1,0,0.1,0h33.5c0.4,0,0.7-0.4,0.6-0.8c0-0.3-0.3-0.6-0.6-0.6h-5l-7.8-2.2
			h13.7c1.6,0,2.9,1.3,2.9,2.9v4.1C40.6,11.1,39.6,10.7,38.5,10.7L38.5,10.7z M42.7,18.2h0.7c0.4,0,0.7,0.2,0.8,0.6
			c0,0.4-0.2,0.7-0.6,0.8c0,0-0.1,0-0.1,0h-0.6L42.7,18.2L42.7,18.2z"/>
		<path id="Path_138" class="st7" d="M36.7,23.2c-1.4,0-2.5,1.1-2.5,2.5c0,1.3,1.1,2.4,2.4,2.5c0,0,0,0,0.1,0c1.4,0,2.5-1.1,2.5-2.5
			C39.2,24.3,38.1,23.2,36.7,23.2C36.7,23.2,36.7,23.2,36.7,23.2z M36.7,26.7c-0.6,0-1.1-0.5-1.1-1.1c0-0.6,0.5-1.1,1.1-1.1
			c0.6,0,1.1,0.5,1.1,1.1C37.8,26.2,37.3,26.7,36.7,26.7C36.7,26.7,36.7,26.7,36.7,26.7z"/>
	</g>
	<g class="st8">
		<path class="st9" d="M461.7,527.6c0,0.4-0.1,0.7-0.3,1c-0.2,0.3-0.5,0.5-0.8,0.7c0.1,0.2,0.2,0.3,0.3,0.5c0.1,0.2,0.2,0.4,0.4,0.7
			c0.1,0.2,0.3,0.5,0.4,0.7s0.2,0.5,0.3,0.7h-0.9c-0.2-0.5-0.4-0.9-0.7-1.4c-0.2-0.4-0.5-0.8-0.7-1.1c0,0-0.1,0-0.2,0
			c-0.1,0-0.1,0-0.2,0h-0.7v2.4H458v-6.1c0.1,0,0.2-0.1,0.3-0.1c0.1,0,0.3,0,0.4,0s0.3,0,0.4,0c0.1,0,0.3,0,0.4,0
			c0.7,0,1.3,0.2,1.7,0.5C461.5,526.5,461.7,527,461.7,527.6z M459.6,526.4c-0.2,0-0.3,0-0.4,0c-0.1,0-0.2,0-0.3,0v2.4h0.5
			c0.2,0,0.5,0,0.6,0c0.2,0,0.4-0.1,0.5-0.2c0.1-0.1,0.2-0.2,0.3-0.4c0.1-0.2,0.1-0.4,0.1-0.6c0-0.2,0-0.4-0.1-0.6s-0.2-0.3-0.3-0.4
			s-0.3-0.2-0.4-0.2C459.9,526.4,459.7,526.4,459.6,526.4z"/>
		<path class="st9" d="M467,529.6c0,0.4-0.1,0.7-0.2,1c-0.1,0.3-0.2,0.6-0.4,0.8c-0.2,0.2-0.4,0.4-0.7,0.5c-0.3,0.1-0.5,0.2-0.8,0.2
			c-0.3,0-0.6-0.1-0.8-0.2c-0.3-0.1-0.5-0.3-0.7-0.5c-0.2-0.2-0.3-0.5-0.4-0.8c-0.1-0.3-0.2-0.6-0.2-1c0-0.4,0.1-0.7,0.2-1
			c0.1-0.3,0.2-0.6,0.4-0.8s0.4-0.4,0.7-0.5c0.3-0.1,0.5-0.2,0.8-0.2c0.3,0,0.6,0.1,0.8,0.2c0.3,0.1,0.5,0.3,0.7,0.5
			c0.2,0.2,0.3,0.5,0.4,0.8C467,528.9,467,529.2,467,529.6z M466.2,529.6c0-0.5-0.1-0.9-0.3-1.2c-0.2-0.3-0.5-0.5-0.9-0.5
			c-0.4,0-0.7,0.2-0.9,0.5c-0.2,0.3-0.3,0.7-0.3,1.2c0,0.5,0.1,0.9,0.3,1.2s0.5,0.5,0.9,0.5c0.4,0,0.7-0.2,0.9-0.5
			S466.2,530.1,466.2,529.6z"/>
		<path class="st9" d="M469,527.5c0.1-0.1,0.2-0.1,0.4-0.2c0.2-0.1,0.4-0.1,0.6-0.1c0.3,0,0.6,0.1,0.8,0.2s0.5,0.3,0.6,0.5
			c0.2,0.2,0.3,0.5,0.4,0.8c0.1,0.3,0.1,0.6,0.1,1c0,0.4-0.1,0.7-0.2,1c-0.1,0.3-0.3,0.6-0.5,0.8s-0.4,0.4-0.7,0.5s-0.6,0.2-0.9,0.2
			c-0.4,0-0.7,0-1-0.1c-0.3-0.1-0.5-0.1-0.7-0.2v-6.7l0.8-0.1V527.5z M469,531.2c0.1,0,0.3,0.1,0.4,0.1c0.1,0,0.2,0,0.4,0
			c0.5,0,0.8-0.1,1.1-0.4s0.4-0.7,0.4-1.3c0-0.2,0-0.5-0.1-0.7c0-0.2-0.1-0.4-0.2-0.5c-0.1-0.1-0.2-0.3-0.4-0.4
			c-0.2-0.1-0.3-0.1-0.6-0.1c-0.2,0-0.4,0-0.6,0.1c-0.2,0.1-0.3,0.2-0.4,0.2V531.2z"/>
		<path class="st9" d="M477,529.6c0,0.4-0.1,0.7-0.2,1c-0.1,0.3-0.2,0.6-0.4,0.8c-0.2,0.2-0.4,0.4-0.7,0.5c-0.3,0.1-0.5,0.2-0.8,0.2
			c-0.3,0-0.6-0.1-0.8-0.2c-0.3-0.1-0.5-0.3-0.7-0.5c-0.2-0.2-0.3-0.5-0.4-0.8c-0.1-0.3-0.2-0.6-0.2-1c0-0.4,0.1-0.7,0.2-1
			c0.1-0.3,0.2-0.6,0.4-0.8s0.4-0.4,0.7-0.5c0.3-0.1,0.5-0.2,0.8-0.2c0.3,0,0.6,0.1,0.8,0.2c0.3,0.1,0.5,0.3,0.7,0.5
			c0.2,0.2,0.3,0.5,0.4,0.8C477,528.9,477,529.2,477,529.6z M476.2,529.6c0-0.5-0.1-0.9-0.3-1.2c-0.2-0.3-0.5-0.5-0.9-0.5
			c-0.4,0-0.7,0.2-0.9,0.5c-0.2,0.3-0.3,0.7-0.3,1.2c0,0.5,0.1,0.9,0.3,1.2s0.5,0.5,0.9,0.5c0.4,0,0.7-0.2,0.9-0.5
			S476.2,530.1,476.2,529.6z"/>
		<path class="st9" d="M485.9,530.8c0-0.2-0.1-0.3-0.2-0.4c-0.1-0.1-0.3-0.2-0.5-0.3s-0.4-0.2-0.7-0.2c-0.2-0.1-0.5-0.2-0.7-0.3
			c-0.2-0.1-0.4-0.3-0.5-0.4s-0.2-0.4-0.2-0.7c0-0.4,0.2-0.7,0.5-0.9s0.8-0.4,1.4-0.4c0.3,0,0.5,0,0.8,0.1c0.3,0,0.5,0.1,0.7,0.1
			l-0.2,0.7c-0.1,0-0.1-0.1-0.2-0.1c-0.1,0-0.2-0.1-0.3-0.1s-0.2,0-0.4-0.1c-0.1,0-0.3,0-0.4,0c-0.7,0-1.1,0.2-1.1,0.6
			c0,0.1,0.1,0.3,0.2,0.4c0.1,0.1,0.3,0.2,0.5,0.3c0.2,0.1,0.4,0.2,0.7,0.2c0.2,0.1,0.5,0.2,0.7,0.3s0.4,0.3,0.5,0.4
			c0.1,0.2,0.2,0.4,0.2,0.6c0,0.4-0.2,0.7-0.5,1c-0.3,0.2-0.8,0.3-1.6,0.3c-0.3,0-0.6,0-0.9-0.1c-0.3-0.1-0.5-0.1-0.8-0.2l0.2-0.8
			c0.2,0.1,0.5,0.2,0.7,0.3c0.3,0.1,0.5,0.1,0.8,0.1C485.6,531.3,485.9,531.1,485.9,530.8z"/>
		<path class="st9" d="M489.3,528H488v-0.7h2.2v2.8c0,0.5,0.1,0.8,0.2,0.9c0.1,0.2,0.3,0.2,0.6,0.2c0.2,0,0.4,0,0.5-0.1
			c0.2,0,0.3-0.1,0.4-0.1l0.1,0.7c0,0-0.1,0-0.2,0.1s-0.2,0.1-0.3,0.1s-0.2,0-0.3,0.1c-0.1,0-0.2,0-0.4,0c-0.3,0-0.5,0-0.7-0.1
			s-0.3-0.2-0.5-0.4c-0.1-0.2-0.2-0.4-0.2-0.6s-0.1-0.5-0.1-0.8V528z M489.5,526.6c-0.2,0-0.3-0.1-0.4-0.2c-0.1-0.1-0.2-0.3-0.2-0.5
			c0-0.2,0.1-0.4,0.2-0.5c0.1-0.1,0.3-0.2,0.4-0.2c0.2,0,0.3,0.1,0.5,0.2c0.1,0.1,0.2,0.3,0.2,0.5c0,0.2-0.1,0.4-0.2,0.5
			C489.8,526.5,489.7,526.6,489.5,526.6z"/>
		<path class="st9" d="M493.1,527.4c0.3-0.1,0.6-0.1,0.9-0.2c0.3,0,0.6-0.1,0.8-0.1c0.6,0,1.1,0.2,1.4,0.5c0.3,0.3,0.5,0.8,0.5,1.5
			v2.7h-0.8v-2.6c0-0.3,0-0.5-0.1-0.7c-0.1-0.2-0.1-0.3-0.2-0.4c-0.1-0.1-0.2-0.2-0.3-0.2c-0.1,0-0.3-0.1-0.4-0.1
			c-0.1,0-0.3,0-0.4,0c-0.2,0-0.3,0-0.4,0.1v3.9h-0.8V527.4z"/>
	</g>
	<g class="st8">
		<path class="st9" d="M462.1,539.3c-0.1,0.4-0.3,0.9-0.4,1.3c-0.2,0.4-0.3,0.8-0.5,1.2c-0.2,0.4-0.3,0.8-0.5,1.1
			c-0.2,0.4-0.3,0.7-0.5,1h-0.8c-0.3-0.6-0.6-1.3-1-2.1c-0.3-0.8-0.6-1.6-0.9-2.5h0.9c0.1,0.3,0.2,0.6,0.3,0.9
			c0.1,0.3,0.2,0.7,0.3,1c0.1,0.3,0.2,0.6,0.3,0.9c0.1,0.3,0.2,0.6,0.3,0.8c0.1-0.2,0.2-0.5,0.4-0.8c0.1-0.3,0.2-0.6,0.4-0.9
			c0.1-0.3,0.2-0.7,0.3-1c0.1-0.3,0.2-0.6,0.3-0.9H462.1z"/>
		<path class="st9" d="M464.3,540H463v-0.7h2.2v2.8c0,0.5,0.1,0.8,0.2,0.9c0.1,0.2,0.3,0.2,0.6,0.2c0.2,0,0.4,0,0.5-0.1
			c0.2,0,0.3-0.1,0.4-0.1l0.1,0.7c0,0-0.1,0-0.2,0.1s-0.2,0.1-0.3,0.1s-0.2,0-0.3,0.1c-0.1,0-0.2,0-0.4,0c-0.3,0-0.5,0-0.7-0.1
			s-0.3-0.2-0.5-0.4c-0.1-0.2-0.2-0.4-0.2-0.6s-0.1-0.5-0.1-0.8V540z M464.5,538.6c-0.2,0-0.3-0.1-0.4-0.2c-0.1-0.1-0.2-0.3-0.2-0.5
			c0-0.2,0.1-0.4,0.2-0.5c0.1-0.1,0.3-0.2,0.4-0.2c0.2,0,0.3,0.1,0.5,0.2c0.1,0.1,0.2,0.3,0.2,0.5c0,0.2-0.1,0.4-0.2,0.5
			C464.8,538.5,464.7,538.6,464.5,538.6z"/>
		<path class="st9" d="M472,541.6c0,0.4-0.1,0.7-0.2,1c-0.1,0.3-0.2,0.6-0.4,0.8c-0.2,0.2-0.4,0.4-0.7,0.5c-0.3,0.1-0.5,0.2-0.8,0.2
			c-0.3,0-0.6-0.1-0.8-0.2c-0.3-0.1-0.5-0.3-0.7-0.5c-0.2-0.2-0.3-0.5-0.4-0.8c-0.1-0.3-0.2-0.6-0.2-1c0-0.4,0.1-0.7,0.2-1
			c0.1-0.3,0.2-0.6,0.4-0.8s0.4-0.4,0.7-0.5c0.3-0.1,0.5-0.2,0.8-0.2c0.3,0,0.6,0.1,0.8,0.2c0.3,0.1,0.5,0.3,0.7,0.5
			c0.2,0.2,0.3,0.5,0.4,0.8C472,540.9,472,541.2,472,541.6z M471.2,541.6c0-0.5-0.1-0.9-0.3-1.2c-0.2-0.3-0.5-0.5-0.9-0.5
			c-0.4,0-0.7,0.2-0.9,0.5c-0.2,0.3-0.3,0.7-0.3,1.2c0,0.5,0.1,0.9,0.3,1.2s0.5,0.5,0.9,0.5c0.4,0,0.7-0.2,0.9-0.5
			S471.2,542.1,471.2,541.6z"/>
		<path class="st9" d="M475.8,544c-0.3,0-0.5,0-0.7-0.1s-0.3-0.2-0.5-0.4s-0.2-0.4-0.2-0.6s-0.1-0.5-0.1-0.8v-4.4H473V537h2.2v5.1
			c0,0.2,0,0.4,0,0.6s0.1,0.3,0.1,0.4c0.1,0.1,0.1,0.2,0.2,0.2s0.2,0,0.3,0c0.2,0,0.4,0,0.5-0.1c0.2,0,0.3-0.1,0.4-0.1l0.1,0.7
			c0,0-0.1,0-0.2,0.1s-0.2,0.1-0.3,0.1s-0.2,0-0.3,0.1C476.1,544,475.9,544,475.8,544z"/>
		<path class="st9" d="M480,539.2c0.6,0,1.1,0.2,1.5,0.6s0.5,1,0.5,1.8v0.3h-3.3c0,0.5,0.2,0.8,0.5,1.1s0.7,0.4,1.2,0.4
			c0.3,0,0.5,0,0.8-0.1c0.2,0,0.4-0.1,0.5-0.1l0.1,0.7c-0.1,0.1-0.3,0.1-0.5,0.2c-0.3,0.1-0.6,0.1-0.9,0.1c-0.4,0-0.8-0.1-1.1-0.2
			c-0.3-0.1-0.6-0.3-0.8-0.5c-0.2-0.2-0.3-0.5-0.5-0.8c-0.1-0.3-0.1-0.6-0.1-1c0-0.4,0.1-0.8,0.2-1.1c0.1-0.3,0.3-0.6,0.5-0.8
			c0.2-0.2,0.4-0.3,0.7-0.4C479.5,539.2,479.7,539.2,480,539.2z M481.1,541.2c0-0.4-0.1-0.7-0.3-0.9c-0.2-0.2-0.5-0.3-0.8-0.3
			c-0.2,0-0.4,0-0.5,0.1c-0.2,0.1-0.3,0.2-0.4,0.3c-0.1,0.1-0.2,0.3-0.3,0.4c-0.1,0.2-0.1,0.3-0.1,0.5H481.1z"/>
		<path class="st9" d="M483.1,539.4c0.3-0.1,0.6-0.1,0.9-0.2c0.3,0,0.6-0.1,0.8-0.1c0.6,0,1.1,0.2,1.4,0.5c0.3,0.3,0.5,0.8,0.5,1.5
			v2.7h-0.8v-2.6c0-0.3,0-0.5-0.1-0.7c-0.1-0.2-0.1-0.3-0.2-0.4c-0.1-0.1-0.2-0.2-0.3-0.2c-0.1,0-0.3-0.1-0.4-0.1
			c-0.1,0-0.3,0-0.4,0c-0.2,0-0.3,0-0.4,0.1v3.9h-0.8V539.4z"/>
		<path class="st9" d="M487.9,541.6c0-0.4,0.1-0.8,0.2-1.1c0.1-0.3,0.3-0.6,0.5-0.8s0.5-0.3,0.8-0.4c0.3-0.1,0.6-0.1,1-0.1
			c0.2,0,0.5,0,0.7,0c0.2,0,0.5,0.1,0.7,0.2l-0.2,0.7c-0.2-0.1-0.4-0.1-0.6-0.2c-0.2,0-0.4,0-0.6,0c-0.2,0-0.5,0-0.7,0.1
			s-0.4,0.2-0.6,0.3c-0.2,0.1-0.3,0.3-0.4,0.5c-0.1,0.2-0.1,0.5-0.1,0.8c0,0.3,0,0.5,0.1,0.8c0.1,0.2,0.2,0.4,0.4,0.5
			c0.2,0.1,0.3,0.2,0.6,0.3c0.2,0.1,0.5,0.1,0.7,0.1c0.2,0,0.4,0,0.6,0s0.4-0.1,0.6-0.2l0.1,0.7c-0.2,0.1-0.5,0.1-0.7,0.2
			c-0.2,0-0.5,0.1-0.8,0.1c-0.4,0-0.7-0.1-1-0.2c-0.3-0.1-0.6-0.3-0.8-0.5s-0.4-0.5-0.5-0.8C488,542.4,487.9,542,487.9,541.6z"/>
		<path class="st9" d="M494.3,540H493v-0.7h2.2v2.8c0,0.5,0.1,0.8,0.2,0.9c0.1,0.2,0.3,0.2,0.6,0.2c0.2,0,0.4,0,0.5-0.1
			c0.2,0,0.3-0.1,0.4-0.1l0.1,0.7c0,0-0.1,0-0.2,0.1s-0.2,0.1-0.3,0.1s-0.2,0-0.3,0.1c-0.1,0-0.2,0-0.4,0c-0.3,0-0.5,0-0.7-0.1
			s-0.3-0.2-0.5-0.4c-0.1-0.2-0.2-0.4-0.2-0.6s-0.1-0.5-0.1-0.8V540z M494.5,538.6c-0.2,0-0.3-0.1-0.4-0.2c-0.1-0.1-0.2-0.3-0.2-0.5
			c0-0.2,0.1-0.4,0.2-0.5c0.1-0.1,0.3-0.2,0.4-0.2c0.2,0,0.3,0.1,0.5,0.2c0.1,0.1,0.2,0.3,0.2,0.5c0,0.2-0.1,0.4-0.2,0.5
			C494.8,538.5,494.7,538.6,494.5,538.6z"/>
		<path class="st9" d="M499.9,539.2c0.3,0,0.6,0,0.9,0.1c0.2,0.1,0.4,0.2,0.6,0.4s0.2,0.3,0.3,0.6c0.1,0.2,0.1,0.5,0.1,0.7v2.9
			c-0.2,0-0.4,0.1-0.8,0.1c-0.3,0-0.6,0.1-1,0.1c-0.3,0-0.5,0-0.7-0.1c-0.2,0-0.5-0.1-0.6-0.2c-0.2-0.1-0.3-0.3-0.5-0.5
			s-0.2-0.4-0.2-0.7c0-0.3,0.1-0.5,0.2-0.7c0.1-0.2,0.3-0.3,0.5-0.4s0.4-0.2,0.6-0.2c0.2,0,0.5-0.1,0.7-0.1c0.3,0,0.6,0,1,0.1V541
			c0-0.1,0-0.3,0-0.4c0-0.1-0.1-0.2-0.2-0.4c-0.1-0.1-0.2-0.2-0.3-0.3s-0.3-0.1-0.6-0.1c-0.3,0-0.5,0-0.8,0.1
			c-0.2,0-0.4,0.1-0.5,0.1l-0.1-0.7c0.1-0.1,0.3-0.1,0.6-0.1S499.6,539.2,499.9,539.2z M500,543.3c0.2,0,0.4,0,0.6,0
			c0.2,0,0.3,0,0.4,0v-1.4c-0.1,0-0.2-0.1-0.4-0.1c-0.1,0-0.3,0-0.5,0c-0.2,0-0.3,0-0.5,0s-0.3,0.1-0.4,0.1
			c-0.1,0.1-0.2,0.1-0.3,0.2s-0.1,0.2-0.1,0.4c0,0.3,0.1,0.5,0.3,0.6C499.4,543.3,499.6,543.3,500,543.3z"/>
	</g>
</g>
</svg>
