<?xml version="1.0" encoding="utf-8"?>
<!-- Generator: Adobe Illustrator 22.1.0, SVG Export Plug-In . SVG Version: 6.00 Build 0)  -->
<svg version="1.1" id="Capa_1" xmlns="http://www.w3.org/2000/svg" xmlns:xlink="http://www.w3.org/1999/xlink" x="0px" y="0px"
	 viewBox="0 0 136.9 94.2" style="enable-background:new 0 0 136.9 94.2;" xml:space="preserve">
<style type="text/css">
	.st0{fill:#EB310A;}
	.st1{fill:#F7E2CF;}
	.st2{fill:#F3A96A;}
	.st3{fill:#F7C69C;}
	.st4{fill:#F3D3B7;}
	.st5{fill:#EBB688;}
	.st6{fill:#EF8D39;}
	.st7{fill:#DD6B36;}
	.st8{fill:#EB832A;}
	.st9{enable-background:new    ;}
	.st10{fill:#3B3530;}
</style>
<g id="Group_83" transform="translate(-366 -622.846)">
	<g transform="matrix(1, 0, 0, 1, 366, 622.85)">
		<ellipse id="Ellipse_28-2" class="st0" cx="47.1" cy="44.1" rx="38.1" ry="38.1"/>
	</g>
	<g id="Group_76" transform="translate(395.308 642.385)">
		<path id="Path_114" class="st1" d="M31.3,0.8l-1.3,0.8c-0.1,0.1-0.1,0.1-0.1,0.1l-4,5.3l0.7,1.1l7.3-4.6l-1.6-2.7
			C31.8,0.7,31.5,0.7,31.3,0.8z"/>
		<path id="Path_115" class="st2" d="M33.6,8.5l1.8-1.1c0.2-0.1,0.3-0.5,0.2-0.7L33,2.6l-14.6,9l3.9,6.3L33,11.2
			c0.5-0.3,0.6-0.9,0.3-1.4l0,0C33,9.4,33.1,8.8,33.6,8.5C33.6,8.5,33.6,8.5,33.6,8.5z"/>
		<path id="Path_116" class="st3" d="M34.7,5.4l-14.6,9l2.1,3.4L33,11.2c0.5-0.3,0.6-0.9,0.3-1.4c-0.3-0.5-0.1-1.1,0.3-1.4l1.8-1.1
			c0.2-0.1,0.3-0.5,0.2-0.7L34.7,5.4z"/>
		<path id="Path_117" class="st1" d="M0.9,24.5l0.9-0.6c0.4-0.2,0.8-0.3,1.2-0.2l0.6,0.1c0.4,0.1,0.8,0,1.2-0.2l2.9-1.8l2.5,4
			l-3.9,1.4l-5.4-2.1c-0.2-0.1-0.3-0.3-0.3-0.5C0.7,24.6,0.8,24.6,0.9,24.5z"/>
		<path id="Path_118" class="st4" d="M19.2,11.1L6.5,19c-0.4,0.3-0.6,0.9-0.4,1.4c1.5,3.3,0.3,7.1-2.7,9l0,0c-0.5,0.3-0.7,1-0.4,1.6
			c0,0,0,0,0,0c0.1,0.2,0.3,0.4,0.4,0.6c0.8,1.2,1.2,2.7,1.1,4.1l-0.3,4.7c-0.1,1.4,0.1,2.8,0.6,4.2l1.7,4.2
			c0.3,0.8,1.3,1.2,2.1,0.9c0.1,0,0.2-0.1,0.3-0.2l5.6-3.5c1.3-0.8,1.7-2.5,0.9-3.8c0,0,0,0,0,0l-0.6-1c-0.8-1.3-1.4-2.7-1.6-4.2
			l-0.4-2.5c0.6,0.5,1.3,0.8,2.1,0.9c1.1,0.2,2.2-0.1,3.2-0.6c0.2-0.1,0.3-0.2,0.4-0.3l3.8-3c1.8-1.4,2.2-3.9,1-5.9l-0.9-1.4
			l1.8-1.1c1-0.6,1.3-2,0.7-3c0,0,0,0,0,0L19.2,11.1z M21.4,26.8c0.7,1.1,0.4,2.5-0.6,3.2l-3.6,2.9c-0.6,0.4-1.3,0.6-2,0.5
			c-0.7-0.1-1.3-0.5-1.6-1.1l0,0c-0.6-1-0.3-2.3,0.6-2.9c0,0,0,0,0.1,0l5-3.1C20.1,25.8,21,26,21.4,26.8
			C21.4,26.7,21.4,26.8,21.4,26.8L21.4,26.8z"/>
		<path id="Path_119" class="st5" d="M24.9,20.2l-5.7-9.1l-3.4,2.1l4.4,7c0.6,1,0.3,2.3-0.7,3c0,0,0,0,0,0l-1.8,1.1
			c0,0-7.8,4.8-8.3,5.1c-0.1,0.1-0.2,0.1-0.3,0.2c-0.8,0.8-1.8,2.3-1.1,4.9L8.5,37c1,5.5,3.4,8.5,4.8,9.9l1.3-0.8
			c1.3-0.8,1.7-2.5,0.9-3.8c0,0,0,0,0,0l-0.6-1c-0.8-1.3-1.4-2.7-1.6-4.2l-0.4-2.5c0.6,0.5,1.3,0.8,2.1,0.9c1.1,0.2,2.2-0.1,3.2-0.6
			c0.2-0.1,0.3-0.2,0.4-0.3l3.8-3c1.8-1.4,2.2-3.9,1-5.9l-0.9-1.4l1.8-1.1c1-0.6,1.3-1.8,0.8-2.8C25,20.3,25,20.2,24.9,20.2z
			 M20.9,30l-3.6,2.9c-0.6,0.4-1.3,0.6-2,0.5c-0.7-0.1-1.3-0.5-1.6-1.1c-0.6-1-0.3-2.3,0.6-2.9c0,0,0,0,0.1,0l5-3.1
			c0.7-0.5,1.7-0.2,2.1,0.5c0,0,0,0,0,0C22.2,27.8,21.9,29.2,20.9,30L20.9,30z"/>
		<path id="Path_120" class="st2" d="M5.6,30.5l-2.7-0.3c0,0.3,0,0.5,0.2,0.8c0.1,0.2,0.3,0.4,0.4,0.6c0.8,1.2,1.2,2.6,1.1,4
			l-0.3,4.7c-0.1,1.4,0.1,2.8,0.6,4.2l1.7,4.2c0.3,0.8,1.3,1.2,2.1,0.9c0.1,0,0.2-0.1,0.3-0.2l5.6-3.5c1.3-0.8,1.7-2.5,0.9-3.8
			c0,0,0,0,0,0l-0.6-1c-0.8-1.3-1.4-2.7-1.6-4.2l-0.4-2.5l-2-0.4c-1-0.2-1.9-0.9-2.4-1.8l0,0C7.8,31.3,6.7,30.7,5.6,30.5z"/>
		<path id="Path_121" class="st6" d="M15.4,42.2l-0.6-1c-0.4-0.6-0.7-1.2-0.9-1.8l-0.2-0.6c-0.1-0.2-0.1-0.4-0.2-0.6
			c-0.1-0.1-0.1-0.3-0.1-0.4c-0.1-0.3-0.1-0.6-0.2-0.8L13,35.8l-0.2-1.2l-2-0.4c-1-0.2-1.9-0.9-2.4-1.8l0,0
			c-0.1-0.2-0.3-0.3-0.4-0.5c-0.2,0.9-0.1,1.8,0.1,2.7L8.5,37c1,5.5,3.4,8.5,4.8,9.9l1.3-0.8c0.1,0,0.2-0.1,0.3-0.3l0.1-0.1
			c0.4-0.3,0.6-0.8,0.8-1.3c0-0.1,0-0.1,0.1-0.1c0-0.1,0.1-0.3,0.1-0.4v-0.4C15.8,43.1,15.7,42.7,15.4,42.2z"/>
		<path id="Path_122" class="st2" d="M22.5,21.4l-8.7,5.4c-0.2,0.1-0.5,0.1-0.6-0.1l-3.7-5.9c-0.1-0.2-0.1-0.5,0.1-0.6l8.7-5.4
			c0.2-0.1,0.5-0.1,0.6,0.1l3.7,5.9C22.7,21,22.7,21.3,22.5,21.4z"/>
		<g id="Group_44" transform="translate(12.865 14.703)">
			<path id="Path_123" class="st7" d="M5.4,0.1l-4.9,3C0,3.4-0.2,4.1,0.2,4.7c0,0,0,0,0,0c0.3,0.5,1,0.7,1.6,0.4L7,1.8L6,0.3
				C5.9,0,5.7-0.1,5.4,0.1z"/>
			<path id="Path_124" class="st7" d="M3.1,9.4L3.1,9.4c0.3,0.5,1,0.7,1.6,0.4c0,0,0,0,0,0l4.9-3c0.2-0.1,0.3-0.4,0.1-0.6l-1-1.6
				L3.5,7.7C2.9,8.1,2.8,8.8,3.1,9.4z"/>
		</g>
		<path id="Path_125" class="st8" d="M18.9,25.6l-5,3.1c-1.3,0.8-1.7,2.5-0.9,3.8c0,0,0,0.1,0,0.1c0.5,0.8,1.3,1.3,2.2,1.5
			c0.2,0,0.4,0.1,0.6,0.1c0.7,0,1.4-0.3,2-0.7l3.6-2.9c1.3-1,1.6-2.8,0.7-4.2c-0.3-0.5-0.9-0.9-1.5-1C20,25.2,19.4,25.3,18.9,25.6z
			 M20.8,27.2L20.8,27.2c0.5,0.7,0.3,1.7-0.4,2.2l-3.6,2.9c-0.4,0.3-0.9,0.4-1.3,0.4c-0.5-0.1-0.9-0.4-1.1-0.8
			c-0.2-0.4-0.3-0.9-0.1-1.3l0.4,0.3c0.5,0.3,1,0.4,1.5,0.4c0.6,0,1.1-0.1,1.6-0.4l0.3-0.2c0.3-0.2,0.4-0.7,0.2-1
			c-0.2-0.3-0.6-0.4-1-0.2l-0.3,0.2c-0.5,0.3-1.1,0.3-1.6,0.1l4.3-2.7c0.1-0.1,0.3-0.1,0.4-0.1h0.2C20.6,26.9,20.8,27,20.8,27.2
			L20.8,27.2z"/>
		<path id="Path_126" class="st8" d="M36.2,6.3l-2.6-4.2l-1-1.5c-0.2-0.3-0.5-0.5-0.8-0.6c-0.3-0.1-0.7,0-0.9,0.2L29.5,1
			c-0.1,0.1-0.2,0.2-0.3,0.3l-4,5.3l-6.3,3.9l0,0L6.1,18.4c-0.8,0.5-1.1,1.5-0.7,2.3c0.2,0.5,0.4,1,0.4,1.5l-1.5,0.9
			c-0.2,0.1-0.4,0.1-0.6,0.1l-0.6-0.1c-0.6-0.2-1.2,0-1.7,0.3l-0.9,0.6C0.2,24.3,0,24.7,0,25.1c0.1,0.4,0.3,0.8,0.8,1l3.8,1.5
			c-0.4,0.5-0.9,0.9-1.5,1.3c-0.5,0.3-0.8,0.8-0.9,1.4v0.4l0,0v0.2l0,0c0,0.1,0,0.1,0.1,0.2v0.1c0,0.1,0,0.1,0.1,0.1v0.1
			c0,0.1,0.1,0.1,0.1,0.1v0.1c0,0,0,0.1,0.1,0.1l0,0c0.1,0.1,0.1,0.1,0.1,0.2c0,0,0.1,0.1,0.1,0.1C2.7,32,2.7,32,2.7,32
			c0,0,0,0.1,0.1,0.1c0,0,0,0,0,0l0.1,0.1c0.7,1.1,1.1,2.4,0.9,3.7l-0.3,4.7c-0.1,1.5,0.1,3.1,0.7,4.5l1.7,4.2
			c0.3,0.6,0.8,1.1,1.5,1.4c0.2,0.1,0.5,0.1,0.8,0.1c0.3,0,0.6-0.1,0.9-0.2c0.1-0.1,0.2-0.1,0.3-0.1l5.6-3.5
			c0.8-0.5,1.4-1.3,1.6-2.2c0.2-0.9,0.1-1.9-0.4-2.7l-0.6-1c-0.3-0.4-0.6-0.9-0.8-1.4c-0.4-0.8-0.6-1.7-0.8-2.5l-0.1-0.9
			c0.3,0.1,0.7,0.2,1,0.3c1.3,0.2,2.6-0.1,3.7-0.7c0.2-0.1,0.3-0.3,0.5-0.4l3.8-3c2.1-1.6,2.6-4.6,1.2-6.8l-0.4-0.8l1.1-0.7
			c0.6-0.4,1.1-1.1,1.3-1.8c0.2-0.8,0.1-1.6-0.4-2.2l-1.4-2.2l9.2-5.7c0.8-0.5,1.1-1.6,0.6-2.4c-0.1,0-0.1-0.1,0-0.2c0,0,0,0,0,0
			c0-0.1,0.1-0.1,0.1-0.1L35,8.9l0,0l0.9-0.6c0.3-0.2,0.5-0.4,0.6-0.8C36.5,7.1,36.4,6.7,36.2,6.3z M30.3,2.2l1.1-0.7L32,2.4l-3.2,2
			L30.3,2.2z M1.8,24.8l0.4-0.2c0.2-0.1,0.4-0.2,0.6-0.1l0.6,0.1c0.6,0.2,1.3,0,1.8-0.3l0.8-0.5c-0.1,0.8-0.3,1.6-0.6,2.3L1.8,24.8z
			 M14.2,41.7l0.6,1c0.3,0.4,0.4,1,0.3,1.5c-0.1,0.5-0.4,0.9-0.8,1.1c-0.1,0.1-0.1,0.1-0.2,0.1L8.5,49c-0.2,0.1-0.5,0.2-0.8,0.1
			c-0.3-0.1-0.5-0.3-0.6-0.5l-1.7-4.2c-0.5-1.2-0.7-2.5-0.6-3.9l0.3-4.7l0,0c0.1-1.6-0.3-3.2-1.2-4.5v-0.1c0,0,0-0.1-0.1-0.1
			c0,0,0,0,0,0l1.5,0.2c1,0.1,1.8,0.6,2.3,1.5c0.7,1.1,1.7,1.8,2.9,2.1l1.5,0.4l0.3,2c0,0.1,0.1,0.3,0.1,0.4
			C12.8,39,13.4,40.4,14.2,41.7L14.2,41.7z M24.3,20.6c0.2,0.3,0.3,0.7,0.2,1.1c-0.1,0.4-0.3,0.7-0.6,0.9l-1.8,1.1
			c-0.2,0.1-0.3,0.3-0.3,0.4c0,0.2,0,0.4,0.1,0.6l0.9,1.4c1,1.6,0.6,3.7-0.8,4.9l-3.8,3c-0.1,0.1-0.3,0.2-0.4,0.3
			c-0.8,0.5-1.7,0.7-2.6,0.5c-0.7-0.1-1.3-0.4-1.8-0.8l0,0c0,0-0.1,0-0.1-0.1c0,0,0,0,0,0H13l-2-0.4c-0.8-0.2-1.5-0.7-2-1.4
			c-0.7-1.2-2-2-3.4-2.2l-1.4-0.2c0.8-0.6,1.4-1.3,2-2.1l0.1-0.1c0.9-1.5,1.3-3.3,1.1-5v-0.1c-0.1-0.8-0.3-1.6-0.6-2.3
			c-0.1-0.2,0-0.3,0.1-0.4L19,12.2L24.3,20.6z M33.2,7.9L33.2,7.9L28,11.2c-0.3,0.2-0.4,0.7-0.3,1c0.1,0.2,0.4,0.4,0.6,0.4
			c0.1,0,0.3-0.1,0.4-0.1l3.8-2.3c0.1,0.1,0.1,0.1,0.1,0.3s0.1,0.3-0.1,0.3l-9.2,5.7l-0.3-0.4l2.7-1.7c0.3-0.2,0.4-0.7,0.2-1
			c-0.2-0.3-0.6-0.4-1-0.2l-2.7,1.7l-2.1-3.4l5.8-3.6l0,0l6.6-4.1l2.1,3.4L33.2,7.9z"/>
		<path id="Path_127" class="st8" d="M17.9,14.1L17.9,14.1l-8.7,5.4c-0.6,0.3-0.7,1-0.4,1.6c0,0,0,0,0,0.1l3.7,5.9
			c0.2,0.3,0.5,0.4,0.8,0.5c0.1,0,0.2,0.1,0.3,0.1c0.2,0,0.4-0.1,0.6-0.2l8.7-5.4c0.1,0,0.1-0.1,0.1-0.1l0,0l0.1-0.1l0,0
			c0.2-0.2,0.3-0.4,0.3-0.6c0.1-0.3,0.1-0.5-0.1-0.8l0,0c0-0.1-0.1-0.1-0.1-0.1l-3.7-5.9c-0.1-0.3-0.4-0.4-0.6-0.5
			C18.6,13.9,18.2,13.9,17.9,14.1z M13.9,18.4l0.9-0.6l3.7-2.3l0.4,0.7l-4.6,2.8c-0.2,0.1-0.4,0.1-0.6-0.1c0,0,0,0,0,0
			C13.6,18.7,13.7,18.5,13.9,18.4L13.9,18.4z M21.8,21l-4.6,2.8c-0.2,0.1-0.4,0.1-0.6-0.1c-0.1-0.2-0.1-0.4,0.1-0.6l4.6-2.8L21.8,21
			z M19.7,17.5l0.9,1.5l-4.6,2.8c-0.9,0.6-1.2,1.7-0.6,2.7c0.1,0.1,0.2,0.2,0.3,0.3l-2,1.2l-3.4-5.4l2-1.2l0.2,0.4
			c0.4,0.6,1,0.9,1.6,0.9c0.4,0,0.7-0.1,1-0.3L19.7,17.5z"/>
	</g>
	<g class="st9">
		<path class="st10" d="M461.7,654.5c0,0.4-0.1,0.7-0.3,1c-0.2,0.3-0.5,0.5-0.8,0.7c0.1,0.2,0.2,0.3,0.3,0.5
			c0.1,0.2,0.2,0.4,0.4,0.7c0.1,0.2,0.3,0.5,0.4,0.7s0.2,0.5,0.3,0.7h-0.9c-0.2-0.5-0.4-0.9-0.7-1.4c-0.2-0.4-0.5-0.8-0.7-1.1
			c0,0-0.1,0-0.2,0c-0.1,0-0.1,0-0.2,0h-0.7v2.4H458v-6.1c0.1,0,0.2-0.1,0.3-0.1c0.1,0,0.3,0,0.4,0s0.3,0,0.4,0c0.1,0,0.3,0,0.4,0
			c0.7,0,1.3,0.2,1.7,0.5C461.5,653.4,461.7,653.9,461.7,654.5z M459.6,653.3c-0.2,0-0.3,0-0.4,0c-0.1,0-0.2,0-0.3,0v2.4h0.5
			c0.2,0,0.5,0,0.6,0c0.2,0,0.4-0.1,0.5-0.2c0.1-0.1,0.2-0.2,0.3-0.4c0.1-0.2,0.1-0.4,0.1-0.6c0-0.2,0-0.4-0.1-0.6s-0.2-0.3-0.3-0.4
			s-0.3-0.2-0.4-0.2C459.9,653.3,459.7,653.3,459.6,653.3z"/>
		<path class="st10" d="M467,656.5c0,0.4-0.1,0.7-0.2,1c-0.1,0.3-0.2,0.6-0.4,0.8c-0.2,0.2-0.4,0.4-0.7,0.5
			c-0.3,0.1-0.5,0.2-0.8,0.2c-0.3,0-0.6-0.1-0.8-0.2c-0.3-0.1-0.5-0.3-0.7-0.5c-0.2-0.2-0.3-0.5-0.4-0.8c-0.1-0.3-0.2-0.6-0.2-1
			c0-0.4,0.1-0.7,0.2-1c0.1-0.3,0.2-0.6,0.4-0.8s0.4-0.4,0.7-0.5c0.3-0.1,0.5-0.2,0.8-0.2c0.3,0,0.6,0.1,0.8,0.2
			c0.3,0.1,0.5,0.3,0.7,0.5c0.2,0.2,0.3,0.5,0.4,0.8C467,655.8,467,656.2,467,656.5z M466.2,656.5c0-0.5-0.1-0.9-0.3-1.2
			c-0.2-0.3-0.5-0.5-0.9-0.5c-0.4,0-0.7,0.2-0.9,0.5c-0.2,0.3-0.3,0.7-0.3,1.2c0,0.5,0.1,0.9,0.3,1.2s0.5,0.5,0.9,0.5
			c0.4,0,0.7-0.2,0.9-0.5S466.2,657,466.2,656.5z"/>
		<path class="st10" d="M469,654.4c0.1-0.1,0.2-0.1,0.4-0.2c0.2-0.1,0.4-0.1,0.6-0.1c0.3,0,0.6,0.1,0.8,0.2s0.5,0.3,0.6,0.5
			c0.2,0.2,0.3,0.5,0.4,0.8c0.1,0.3,0.1,0.6,0.1,1c0,0.4-0.1,0.7-0.2,1c-0.1,0.3-0.3,0.6-0.5,0.8s-0.4,0.4-0.7,0.5s-0.6,0.2-0.9,0.2
			c-0.4,0-0.7,0-1-0.1c-0.3-0.1-0.5-0.1-0.7-0.2v-6.7l0.8-0.1V654.4z M469,658.1c0.1,0,0.3,0.1,0.4,0.1c0.1,0,0.2,0,0.4,0
			c0.5,0,0.8-0.1,1.1-0.4s0.4-0.7,0.4-1.3c0-0.2,0-0.5-0.1-0.7c0-0.2-0.1-0.4-0.2-0.5c-0.1-0.1-0.2-0.3-0.4-0.4
			c-0.2-0.1-0.3-0.1-0.6-0.1c-0.2,0-0.4,0-0.6,0.1c-0.2,0.1-0.3,0.2-0.4,0.2V658.1z"/>
		<path class="st10" d="M477,656.5c0,0.4-0.1,0.7-0.2,1c-0.1,0.3-0.2,0.6-0.4,0.8c-0.2,0.2-0.4,0.4-0.7,0.5
			c-0.3,0.1-0.5,0.2-0.8,0.2c-0.3,0-0.6-0.1-0.8-0.2c-0.3-0.1-0.5-0.3-0.7-0.5c-0.2-0.2-0.3-0.5-0.4-0.8c-0.1-0.3-0.2-0.6-0.2-1
			c0-0.4,0.1-0.7,0.2-1c0.1-0.3,0.2-0.6,0.4-0.8s0.4-0.4,0.7-0.5c0.3-0.1,0.5-0.2,0.8-0.2c0.3,0,0.6,0.1,0.8,0.2
			c0.3,0.1,0.5,0.3,0.7,0.5c0.2,0.2,0.3,0.5,0.4,0.8C477,655.8,477,656.2,477,656.5z M476.2,656.5c0-0.5-0.1-0.9-0.3-1.2
			c-0.2-0.3-0.5-0.5-0.9-0.5c-0.4,0-0.7,0.2-0.9,0.5c-0.2,0.3-0.3,0.7-0.3,1.2c0,0.5,0.1,0.9,0.3,1.2s0.5,0.5,0.9,0.5
			c0.4,0,0.7-0.2,0.9-0.5S476.2,657,476.2,656.5z"/>
		<path class="st10" d="M482.9,656.5c0-0.4,0.1-0.8,0.2-1.1c0.1-0.3,0.3-0.6,0.5-0.8s0.5-0.3,0.8-0.4c0.3-0.1,0.6-0.1,1-0.1
			c0.2,0,0.5,0,0.7,0c0.2,0,0.5,0.1,0.7,0.2l-0.2,0.7c-0.2-0.1-0.4-0.1-0.6-0.2c-0.2,0-0.4,0-0.6,0c-0.2,0-0.5,0-0.7,0.1
			s-0.4,0.2-0.6,0.3c-0.2,0.1-0.3,0.3-0.4,0.5c-0.1,0.2-0.1,0.5-0.1,0.8c0,0.3,0,0.5,0.1,0.8c0.1,0.2,0.2,0.4,0.4,0.5
			c0.2,0.1,0.3,0.2,0.6,0.3c0.2,0.1,0.5,0.1,0.7,0.1c0.2,0,0.4,0,0.6,0s0.4-0.1,0.6-0.2l0.1,0.7c-0.2,0.1-0.5,0.1-0.7,0.2
			c-0.2,0-0.5,0.1-0.8,0.1c-0.4,0-0.7-0.1-1-0.2c-0.3-0.1-0.6-0.3-0.8-0.5s-0.4-0.5-0.5-0.8C483,657.3,482.9,656.9,482.9,656.5z"/>
		<path class="st10" d="M492,656.5c0,0.4-0.1,0.7-0.2,1c-0.1,0.3-0.2,0.6-0.4,0.8c-0.2,0.2-0.4,0.4-0.7,0.5
			c-0.3,0.1-0.5,0.2-0.8,0.2c-0.3,0-0.6-0.1-0.8-0.2c-0.3-0.1-0.5-0.3-0.7-0.5c-0.2-0.2-0.3-0.5-0.4-0.8c-0.1-0.3-0.2-0.6-0.2-1
			c0-0.4,0.1-0.7,0.2-1c0.1-0.3,0.2-0.6,0.4-0.8s0.4-0.4,0.7-0.5c0.3-0.1,0.5-0.2,0.8-0.2c0.3,0,0.6,0.1,0.8,0.2
			c0.3,0.1,0.5,0.3,0.7,0.5c0.2,0.2,0.3,0.5,0.4,0.8C492,655.8,492,656.2,492,656.5z M491.2,656.5c0-0.5-0.1-0.9-0.3-1.2
			c-0.2-0.3-0.5-0.5-0.9-0.5c-0.4,0-0.7,0.2-0.9,0.5c-0.2,0.3-0.3,0.7-0.3,1.2c0,0.5,0.1,0.9,0.3,1.2s0.5,0.5,0.9,0.5
			c0.4,0,0.7-0.2,0.9-0.5S491.2,657,491.2,656.5z"/>
		<path class="st10" d="M493.1,654.3c0.3-0.1,0.6-0.1,0.9-0.2c0.3,0,0.6-0.1,0.8-0.1c0.6,0,1.1,0.2,1.4,0.5c0.3,0.3,0.5,0.8,0.5,1.5
			v2.7h-0.8v-2.6c0-0.3,0-0.5-0.1-0.7c-0.1-0.2-0.1-0.3-0.2-0.4c-0.1-0.1-0.2-0.2-0.3-0.2c-0.1,0-0.3-0.1-0.4-0.1
			c-0.1,0-0.3,0-0.4,0c-0.2,0-0.3,0-0.4,0.1v3.9h-0.8V654.3z"/>
	</g>
	<g class="st9">
		<path class="st10" d="M462.1,666.2c-0.1,0.4-0.3,0.9-0.4,1.3c-0.2,0.4-0.3,0.8-0.5,1.2c-0.2,0.4-0.3,0.8-0.5,1.1
			c-0.2,0.4-0.3,0.7-0.5,1h-0.8c-0.3-0.6-0.6-1.3-1-2.1c-0.3-0.8-0.6-1.6-0.9-2.5h0.9c0.1,0.3,0.2,0.6,0.3,0.9
			c0.1,0.3,0.2,0.7,0.3,1c0.1,0.3,0.2,0.6,0.3,0.9c0.1,0.3,0.2,0.6,0.3,0.8c0.1-0.2,0.2-0.5,0.4-0.8c0.1-0.3,0.2-0.6,0.4-0.9
			c0.1-0.3,0.2-0.7,0.3-1c0.1-0.3,0.2-0.6,0.3-0.9H462.1z"/>
		<path class="st10" d="M464.3,666.9H463v-0.7h2.2v2.8c0,0.5,0.1,0.8,0.2,0.9c0.1,0.2,0.3,0.2,0.6,0.2c0.2,0,0.4,0,0.5-0.1
			c0.2,0,0.3-0.1,0.4-0.1l0.1,0.7c0,0-0.1,0-0.2,0.1s-0.2,0.1-0.3,0.1s-0.2,0-0.3,0.1c-0.1,0-0.2,0-0.4,0c-0.3,0-0.5,0-0.7-0.1
			s-0.3-0.2-0.5-0.4c-0.1-0.2-0.2-0.4-0.2-0.6s-0.1-0.5-0.1-0.8V666.9z M464.5,665.5c-0.2,0-0.3-0.1-0.4-0.2
			c-0.1-0.1-0.2-0.3-0.2-0.5c0-0.2,0.1-0.4,0.2-0.5c0.1-0.1,0.3-0.2,0.4-0.2c0.2,0,0.3,0.1,0.5,0.2c0.1,0.1,0.2,0.3,0.2,0.5
			c0,0.2-0.1,0.4-0.2,0.5C464.8,665.4,464.7,665.5,464.5,665.5z"/>
		<path class="st10" d="M472,668.5c0,0.4-0.1,0.7-0.2,1c-0.1,0.3-0.2,0.6-0.4,0.8c-0.2,0.2-0.4,0.4-0.7,0.5
			c-0.3,0.1-0.5,0.2-0.8,0.2c-0.3,0-0.6-0.1-0.8-0.2c-0.3-0.1-0.5-0.3-0.7-0.5c-0.2-0.2-0.3-0.5-0.4-0.8c-0.1-0.3-0.2-0.6-0.2-1
			c0-0.4,0.1-0.7,0.2-1c0.1-0.3,0.2-0.6,0.4-0.8s0.4-0.4,0.7-0.5c0.3-0.1,0.5-0.2,0.8-0.2c0.3,0,0.6,0.1,0.8,0.2
			c0.3,0.1,0.5,0.3,0.7,0.5c0.2,0.2,0.3,0.5,0.4,0.8C472,667.8,472,668.2,472,668.5z M471.2,668.5c0-0.5-0.1-0.9-0.3-1.2
			c-0.2-0.3-0.5-0.5-0.9-0.5c-0.4,0-0.7,0.2-0.9,0.5c-0.2,0.3-0.3,0.7-0.3,1.2c0,0.5,0.1,0.9,0.3,1.2s0.5,0.5,0.9,0.5
			c0.4,0,0.7-0.2,0.9-0.5S471.2,669,471.2,668.5z"/>
		<path class="st10" d="M475.8,671c-0.3,0-0.5,0-0.7-0.1s-0.3-0.2-0.5-0.4s-0.2-0.4-0.2-0.6s-0.1-0.5-0.1-0.8v-4.4H473V664h2.2v5.1
			c0,0.2,0,0.4,0,0.6s0.1,0.3,0.1,0.4c0.1,0.1,0.1,0.2,0.2,0.2s0.2,0,0.3,0c0.2,0,0.4,0,0.5-0.1c0.2,0,0.3-0.1,0.4-0.1l0.1,0.7
			c0,0-0.1,0-0.2,0.1s-0.2,0.1-0.3,0.1s-0.2,0-0.3,0.1C476.1,670.9,475.9,671,475.8,671z"/>
		<path class="st10" d="M480,666.1c0.6,0,1.1,0.2,1.5,0.6s0.5,1,0.5,1.8v0.3h-3.3c0,0.5,0.2,0.8,0.5,1.1s0.7,0.4,1.2,0.4
			c0.3,0,0.5,0,0.8-0.1c0.2,0,0.4-0.1,0.5-0.1l0.1,0.7c-0.1,0.1-0.3,0.1-0.5,0.2c-0.3,0.1-0.6,0.1-0.9,0.1c-0.4,0-0.8-0.1-1.1-0.2
			c-0.3-0.1-0.6-0.3-0.8-0.5c-0.2-0.2-0.3-0.5-0.5-0.8c-0.1-0.3-0.1-0.6-0.1-1c0-0.4,0.1-0.8,0.2-1.1c0.1-0.3,0.3-0.6,0.5-0.8
			c0.2-0.2,0.4-0.3,0.7-0.4C479.5,666.1,479.7,666.1,480,666.1z M481.1,668.1c0-0.4-0.1-0.7-0.3-0.9c-0.2-0.2-0.5-0.3-0.8-0.3
			c-0.2,0-0.4,0-0.5,0.1c-0.2,0.1-0.3,0.2-0.4,0.3c-0.1,0.1-0.2,0.3-0.3,0.4c-0.1,0.2-0.1,0.3-0.1,0.5H481.1z"/>
		<path class="st10" d="M483.1,666.3c0.3-0.1,0.6-0.1,0.9-0.2c0.3,0,0.6-0.1,0.8-0.1c0.6,0,1.1,0.2,1.4,0.5c0.3,0.3,0.5,0.8,0.5,1.5
			v2.7h-0.8v-2.6c0-0.3,0-0.5-0.1-0.7c-0.1-0.2-0.1-0.3-0.2-0.4c-0.1-0.1-0.2-0.2-0.3-0.2c-0.1,0-0.3-0.1-0.4-0.1
			c-0.1,0-0.3,0-0.4,0c-0.2,0-0.3,0-0.4,0.1v3.9h-0.8V666.3z"/>
		<path class="st10" d="M487.9,668.5c0-0.4,0.1-0.8,0.2-1.1c0.1-0.3,0.3-0.6,0.5-0.8s0.5-0.3,0.8-0.4c0.3-0.1,0.6-0.1,1-0.1
			c0.2,0,0.5,0,0.7,0c0.2,0,0.5,0.1,0.7,0.2l-0.2,0.7c-0.2-0.1-0.4-0.1-0.6-0.2c-0.2,0-0.4,0-0.6,0c-0.2,0-0.5,0-0.7,0.1
			s-0.4,0.2-0.6,0.3c-0.2,0.1-0.3,0.3-0.4,0.5c-0.1,0.2-0.1,0.5-0.1,0.8c0,0.3,0,0.5,0.1,0.8c0.1,0.2,0.2,0.4,0.4,0.5
			c0.2,0.1,0.3,0.2,0.6,0.3c0.2,0.1,0.5,0.1,0.7,0.1c0.2,0,0.4,0,0.6,0s0.4-0.1,0.6-0.2l0.1,0.7c-0.2,0.1-0.5,0.1-0.7,0.2
			c-0.2,0-0.5,0.1-0.8,0.1c-0.4,0-0.7-0.1-1-0.2c-0.3-0.1-0.6-0.3-0.8-0.5s-0.4-0.5-0.5-0.8C488,669.3,487.9,668.9,487.9,668.5z"/>
		<path class="st10" d="M494.3,666.9H493v-0.7h2.2v2.8c0,0.5,0.1,0.8,0.2,0.9c0.1,0.2,0.3,0.2,0.6,0.2c0.2,0,0.4,0,0.5-0.1
			c0.2,0,0.3-0.1,0.4-0.1l0.1,0.7c0,0-0.1,0-0.2,0.1s-0.2,0.1-0.3,0.1s-0.2,0-0.3,0.1c-0.1,0-0.2,0-0.4,0c-0.3,0-0.5,0-0.7-0.1
			s-0.3-0.2-0.5-0.4c-0.1-0.2-0.2-0.4-0.2-0.6s-0.1-0.5-0.1-0.8V666.9z M494.5,665.5c-0.2,0-0.3-0.1-0.4-0.2
			c-0.1-0.1-0.2-0.3-0.2-0.5c0-0.2,0.1-0.4,0.2-0.5c0.1-0.1,0.3-0.2,0.4-0.2c0.2,0,0.3,0.1,0.5,0.2c0.1,0.1,0.2,0.3,0.2,0.5
			c0,0.2-0.1,0.4-0.2,0.5C494.8,665.4,494.7,665.5,494.5,665.5z"/>
		<path class="st10" d="M499.9,666.1c0.3,0,0.6,0,0.9,0.1c0.2,0.1,0.4,0.2,0.6,0.4s0.2,0.3,0.3,0.6c0.1,0.2,0.1,0.5,0.1,0.7v2.9
			c-0.2,0-0.4,0.1-0.8,0.1c-0.3,0-0.6,0.1-1,0.1c-0.3,0-0.5,0-0.7-0.1c-0.2,0-0.5-0.1-0.6-0.2c-0.2-0.1-0.3-0.3-0.5-0.5
			s-0.2-0.4-0.2-0.7c0-0.3,0.1-0.5,0.2-0.7c0.1-0.2,0.3-0.3,0.5-0.4s0.4-0.2,0.6-0.2c0.2,0,0.5-0.1,0.7-0.1c0.3,0,0.6,0,1,0.1v-0.2
			c0-0.1,0-0.3,0-0.4c0-0.1-0.1-0.2-0.2-0.4c-0.1-0.1-0.2-0.2-0.3-0.3s-0.3-0.1-0.6-0.1c-0.3,0-0.5,0-0.8,0.1
			c-0.2,0-0.4,0.1-0.5,0.1l-0.1-0.7c0.1-0.1,0.3-0.1,0.6-0.1S499.6,666.1,499.9,666.1z M500,670.3c0.2,0,0.4,0,0.6,0
			c0.2,0,0.3,0,0.4,0v-1.4c-0.1,0-0.2-0.1-0.4-0.1c-0.1,0-0.3,0-0.5,0c-0.2,0-0.3,0-0.5,0s-0.3,0.1-0.4,0.1
			c-0.1,0.1-0.2,0.1-0.3,0.2s-0.1,0.2-0.1,0.4c0,0.3,0.1,0.5,0.3,0.6C499.4,670.2,499.6,670.3,500,670.3z"/>
	</g>
</g>
</svg>
