<svg xmlns="http://www.w3.org/2000/svg" viewBox="0 0 59.025 60">
  <defs>
    <style>
      .cls-1 {
        fill: #f3b57f;
      }

      .cls-2 {
        fill: #fbf0e7;
      }

      .cls-3 {
        fill: #f7cdaa;
      }

      .cls-4 {
        fill: #fff;
      }

      .cls-5 {
        fill: #eb964d;
      }
    </style>
  </defs>
  <g id="Group_39" data-name="Group 39" transform="translate(-0.025)">
    <path id="Path_89" data-name="Path 89" class="cls-1" d="M80.71,17.24l-5.7,6.42-5.7-6.42a9.914,9.914,0,0,1,0-12.9h0a7.449,7.449,0,0,1,5.7-2.64,7.358,7.358,0,0,1,5.7,2.64h0A9.914,9.914,0,0,1,80.71,17.24Z" transform="translate(-26.76 -0.68)"/>
    <path id="Path_90" data-name="Path 90" class="cls-2" d="M77.633,4.333h0a7.459,7.459,0,0,0-6.12-2.64.6.6,0,0,1-.24.3c-.66.6-1.26,1.26-1.86,1.86a.838.838,0,0,1-.18.54c-4.02,6.6-1.86,13.32,4.14,17.52l4.2-4.74a9.764,9.764,0,0,0,.06-12.84Z" transform="translate(-26.863 -0.673)"/>
    <circle id="Ellipse_21" data-name="Ellipse 21" class="cls-3" cx="4.5" cy="4.5" r="4.5" transform="translate(43.99 4.98)"/>
    <g id="Group_37" data-name="Group 37" transform="translate(0.97 4.98)">
      <ellipse id="Ellipse_22" data-name="Ellipse 22" class="cls-1" cx="3" cy="4.5" rx="3" ry="4.5" transform="translate(43.02)"/>
      <path id="Path_91" data-name="Path 91" class="cls-1" d="M20.38,64.54,12.64,73.3l-7.8-8.76a13.543,13.543,0,0,1,0-17.58h0a10.282,10.282,0,0,1,7.8-3.66,10.085,10.085,0,0,1,7.8,3.66h0A13.616,13.616,0,0,1,20.38,64.54Z" transform="translate(-1.6 -22.3)"/>
    </g>
    <path id="Path_92" data-name="Path 92" class="cls-2" d="M17.18,46.972a10.281,10.281,0,0,0-8.82-3.6,1.025,1.025,0,0,1,0,.84,1.045,1.045,0,0,1-.72.48c-.24.06-.54.12-.78.18a1.153,1.153,0,0,1-.24.72,14.609,14.609,0,0,1-3.66,2.94c-1.02,1.98-.84,4.26-1.02,6.42-.06.66-.66,2.46-.84,3.78.36.78.78,1.56,1.2,2.28,2.16,3.96,6.24,7.02,8.1,11.04l6.72-7.56A13.392,13.392,0,0,0,17.18,46.972Z" transform="translate(-0.43 -17.332)"/>
    <ellipse id="Ellipse_23" data-name="Ellipse 23" class="cls-3" cx="4.98" cy="4.98" rx="4.98" ry="4.98" transform="translate(7.03 32.04)"/>
    <ellipse id="Ellipse_24" data-name="Ellipse 24" class="cls-1" cx="3.48" cy="4.98" rx="3.48" ry="4.98" transform="translate(7.03 32.04)"/>
    <path id="Path_93" data-name="Path 93" class="cls-4" d="M10.22,71.4l.24-.24a1.306,1.306,0,0,1,.48-.3L11,70.8a2.131,2.131,0,0,1,.54-.24c.12-.06.18-.12.3-.18.06-.06.12-.12.18-.12l-5.04-5.7a13.616,13.616,0,0,1,.06-17.58,10.785,10.785,0,0,1,6.24-3.54,10.24,10.24,0,0,0-9.24,3.54h0a13.543,13.543,0,0,0,0,17.58l6.12,6.9A.059.059,0,0,1,10.22,71.4Z" transform="translate(-0.31 -17.335)"/>
    <g id="Group_38" data-name="Group 38" transform="translate(0.025)">
      <path id="Path_94" data-name="Path 94" class="cls-5" d="M12.01,73.68a.855.855,0,0,1-.72-.36l-7.8-8.76a14.619,14.619,0,0,1,0-18.9,11.145,11.145,0,0,1,17.04,0,14.619,14.619,0,0,1,0,18.9l-7.8,8.76a.855.855,0,0,1-.72.36Zm0-30a9.319,9.319,0,0,0-7.02,3.3,12.612,12.612,0,0,0,0,16.26l7.02,7.92,7.02-7.92h0a12.612,12.612,0,0,0,0-16.26A9.319,9.319,0,0,0,12.01,43.68Z" transform="translate(-0.025 -16.68)"/>
      <path id="Path_95" data-name="Path 95" class="cls-5" d="M74.38,24a.855.855,0,0,1-.72-.36l-5.7-6.42A10.989,10.989,0,0,1,67.96,3,8.5,8.5,0,0,1,80.92,3a10.989,10.989,0,0,1,0,14.22l-5.7,6.42A1.3,1.3,0,0,1,74.38,24Zm0-22.02A6.668,6.668,0,0,0,69.4,4.32a8.983,8.983,0,0,0,0,11.58l4.98,5.58,4.98-5.58h0a8.983,8.983,0,0,0,0-11.58,6.884,6.884,0,0,0-4.98-2.34Z" transform="translate(-26.155)"/>
      <path id="Path_96" data-name="Path 96" class="cls-5" d="M54.78,74.64H19.32a1.02,1.02,0,0,1,0-2.04H54.84a3.48,3.48,0,1,0-.06-6.96h-12a5.52,5.52,0,1,1,0-11.04h18a3.48,3.48,0,1,0,0-6.96H38.82a5.52,5.52,0,0,1,0-11.04H50.34a1.02,1.02,0,0,1,0,2.04H38.82a3.48,3.48,0,1,0,0,6.96H60.84a5.52,5.52,0,0,1,0,11.04h-18a3.48,3.48,0,0,0,0,6.96h12a5.505,5.505,0,0,1,5.52,5.52,5.6,5.6,0,0,1-5.58,5.52Z" transform="translate(-7.335 -14.64)"/>
      <path id="Path_97" data-name="Path 97" class="cls-5" d="M77.12,17.64a5.52,5.52,0,1,1,5.52-5.52,5.505,5.505,0,0,1-5.52,5.52Zm0-9a3.48,3.48,0,1,0,3.48,3.48,3.483,3.483,0,0,0-3.48-3.48Z" transform="translate(-28.655 -2.64)"/>
      <path id="Path_98" data-name="Path 98" class="cls-5" d="M16,63.7a6,6,0,1,1,6-6A6.018,6.018,0,0,1,16,63.7Zm0-10.02a4.02,4.02,0,1,0,4.02,4.02A4.02,4.02,0,0,0,16,53.68Z" transform="translate(-4.015 -20.68)"/>
    </g>
  </g>
</svg>
